<svg width="256" height="256" viewBox="0 0 256 256" fill="none" xmlns="http://www.w3.org/2000/svg">
<rect width="256" height="256" fill="#E5611E"/>
<path d="M144.211 63.9396C152.387 81.2183 146.789 102.744 137.802 117.826C140.073 121.019 142.533 124.075 145.168 126.978C149.662 120.901 154.376 114.897 159.9 109.113C153.344 93.9578 147.746 71.1879 159.9 56.8377C162.253 54.1494 165.397 52.2645 168.886 51.4499C172.376 50.6353 176.035 50.9321 179.346 52.2984C190.395 56.8377 194.888 69.87 195.183 81.9505C194.572 96.0691 190.061 109.748 182.145 121.487C183.021 122.94 184.059 124.291 185.239 125.513H185.607C188.063 122.156 191.514 119.646 195.476 118.333C199.438 117.02 203.713 116.971 207.705 118.192C209.111 118.873 210.361 119.836 211.375 121.021C212.389 122.205 213.146 123.585 213.598 125.074C214.108 127.003 214.133 129.027 213.671 130.968C213.208 132.909 212.273 134.707 210.946 136.203C207.978 139.152 204.227 141.2 200.131 142.108C196.035 143.015 191.764 142.745 187.817 141.328C185.608 140.605 183.484 139.648 181.482 138.473C179.851 144.562 180.371 151.022 182.955 156.776C182.955 156.776 182.955 157.289 182.955 157.362C181.069 154.65 179.834 151.544 179.346 148.283C178.647 144.557 178.647 140.734 179.346 137.008L174.927 132.762H174.485C170.139 138.18 165.793 143.817 161.079 148.796C168.07 161.102 170.666 175.398 168.445 189.357C167.615 192.924 165.794 196.188 163.19 198.777C160.585 201.366 157.301 203.175 153.713 204C149.528 203.948 145.445 202.717 141.937 200.448C138.429 198.18 135.642 194.969 133.899 191.187C125.796 176.544 129.7 155.605 136.182 141.474C133.825 138.546 131.173 135.397 128.816 132.762C124.249 137.96 119.461 143.817 114.821 148.869C121.194 160.611 124.008 173.936 122.923 187.234C122.31 190.639 120.914 193.857 118.844 196.638C116.774 199.419 114.087 201.688 110.991 203.268C107.374 204.32 103.519 204.229 99.9563 203.01C96.3939 201.79 93.3003 199.501 91.1027 196.459C79.9802 184.232 81.8217 162.707 87.3461 148.137L89.6295 141.694V141.108L82.2636 132.908L77.9177 137.081C79.0238 143.854 77.9407 150.801 74.8241 156.923C74.8241 156.923 74.3821 157.362 74.1611 157.289C74.1611 155.312 75.4133 153.701 75.6343 151.871C76.8888 147.542 76.8888 142.948 75.6343 138.619C74.0138 139.278 72.3197 140.156 70.6255 140.815C66.5741 142.63 62.0663 143.189 57.6906 142.418C53.3148 141.648 49.2745 139.584 46.0971 136.496C44.7706 135.043 43.8274 133.286 43.3517 131.382C42.8761 129.479 42.883 127.487 43.3717 125.587C43.85 123.768 44.7725 122.095 46.0575 120.715C47.3424 119.336 48.95 118.293 50.7376 117.679C54.5972 116.949 58.5853 117.301 62.2544 118.698C65.9234 120.095 69.1284 122.48 71.5094 125.587C77.9092 118.513 83.3113 110.606 87.5671 102.085C91.0514 95.2045 93.2951 87.7705 94.1964 80.1201C90.2839 94.0759 83.1171 106.918 73.2772 117.606C66.8412 108.969 62.5734 98.9281 60.8289 88.3202C59.2417 82.539 59.1523 76.4526 60.5691 70.6278C61.9858 64.803 64.8625 59.4294 68.9314 55.0073C71.2572 53.072 74.0632 51.7929 77.0562 51.3035C80.0492 50.8141 83.1196 51.1324 85.9466 52.2252C98.0266 57.0574 102.152 71.3343 102.078 84.3666C101.383 96.2329 97.7661 107.748 91.5446 117.899C93.8232 121.11 96.2824 124.189 98.9105 127.124V127.124C103.477 120.974 108.413 114.897 113.642 109.113C107.897 95.2756 102.152 76.9719 109.886 62.2556C111.338 58.711 113.896 55.7235 117.185 53.7332C120.474 51.7428 124.318 50.8549 128.153 51.2001C131.688 51.8688 135.006 53.3855 137.817 55.6184C140.628 57.8514 142.848 60.733 144.284 64.0128L144.211 63.9396ZM167.929 53.8359C166.186 54.8917 164.722 56.3462 163.658 58.0781C162.595 59.8101 161.963 61.7694 161.815 63.7931C160.842 75.9196 163.399 88.0683 169.181 98.7899V98.7899C172.744 94.5217 175.832 89.8821 178.389 84.9523C180.764 81.0305 182.181 76.6098 182.526 72.0452C182.871 67.4805 182.136 62.8989 180.377 58.6681C179.36 56.3958 177.483 54.6139 175.152 53.7092C172.822 52.8045 170.226 52.8501 167.929 53.8359V53.8359ZM122.481 53.8359C119.959 55.3058 117.921 57.4719 116.613 60.0713C115.305 62.6706 114.785 65.5914 115.116 68.4789C115.255 79.2515 117.955 89.8386 122.997 99.3757V99.3757C127.259 94.2359 130.802 88.5468 133.53 82.463C135.293 78.7156 136.207 74.6292 136.207 70.4923C136.207 66.3555 135.293 62.2691 133.53 58.5217C132.57 56.5448 130.921 54.9809 128.89 54.1194C126.858 53.2578 124.582 53.1571 122.481 53.8359V53.8359ZM83.6631 54.4216C82.3058 53.7338 80.804 53.3752 79.2804 53.3752C77.7569 53.3752 76.255 53.7338 74.8977 54.4216C72.1539 56.3095 70.2324 59.1614 69.5206 62.4021C68.0174 73.2886 69.6255 84.3759 74.1611 94.397C74.8078 96.0608 75.6222 97.6553 76.5919 99.156C81.8295 93.3093 85.9931 86.5934 88.8929 79.3147C90.0693 75.8791 90.5449 72.2448 90.2919 68.6244C90.039 65.0039 89.0626 61.4699 87.4197 58.2288C86.5707 56.5831 85.2677 55.2117 83.6631 54.2752V54.4216ZM140.454 80.4862C137.663 91.1668 132.644 101.145 125.722 109.772C119.682 117.972 112.979 125.147 106.645 132.908C96.3919 146.092 90.5915 162.159 90.0715 178.814C91.1499 171.236 93.2818 163.844 96.4061 156.849C102.866 143.7 111.367 131.643 121.597 121.121C126.857 114.597 131.309 107.468 134.856 99.8882C137.713 93.745 139.602 87.2009 140.454 80.4862V80.4862ZM186.859 80.4862C185.917 84.7265 184.509 88.8512 182.661 92.7863C174.202 107.468 164.095 121.149 152.534 133.567C142.611 146.595 136.954 162.339 136.329 178.668C139.876 158.999 149.236 140.826 163.215 126.465C172.317 116.553 179.419 104.996 184.134 92.4202C185.43 88.5396 186.343 84.5427 186.859 80.4862V80.4862ZM209.694 123.537C207.03 122.394 204.16 121.805 201.26 121.805C198.359 121.805 195.489 122.394 192.826 123.537C190.634 124.435 188.744 125.933 187.375 127.856C189.748 130.954 193.23 133.025 197.098 133.64C199.729 134.319 202.498 134.261 205.098 133.473C207.698 132.685 210.028 131.197 211.83 129.174C212.166 128.202 212.166 127.145 211.83 126.172C211.302 125.036 210.491 124.053 209.473 123.317L209.694 123.537ZM64.8064 124.415C61.9057 122.792 58.6331 121.94 55.3044 121.94C51.9758 121.94 48.7032 122.792 45.8024 124.415C45.2404 124.969 44.8303 125.657 44.6111 126.413C44.3919 127.169 44.371 127.968 44.5502 128.735C45.066 129.823 45.8143 130.786 46.7429 131.558C47.6716 132.329 48.7583 132.89 49.9273 133.201C53.1975 134.396 56.7519 134.596 60.1368 133.775C63.5217 132.953 66.5835 131.147 68.9314 128.588C69.8153 127.563 68.1948 126.905 67.7528 126.172L64.8064 124.415ZM150.693 159.485C145.144 165.666 141.467 173.281 140.086 181.45C139.609 184.44 139.734 187.494 140.455 190.435C141.176 193.376 142.477 196.145 144.284 198.582C145.464 199.761 146.943 200.601 148.564 201.014C150.184 201.426 151.887 201.396 153.492 200.925C158.28 199.68 160.268 194.262 160.858 189.65C161.579 178.677 158.077 167.841 151.061 159.339L150.693 159.485ZM104.582 159.485C98.1329 166.291 94.2771 175.121 93.6808 184.452C93.6808 190.602 94.7856 197.337 100.31 200.339C101.883 201.228 103.691 201.62 105.493 201.463C107.296 201.307 109.008 200.608 110.401 199.461C112.503 196.84 113.957 193.766 114.648 190.486C115.339 187.205 115.246 183.81 114.379 180.571C113.055 172.803 109.674 165.525 104.582 159.485V159.485Z" fill="white"/>
</svg>
