<svg xmlns="http://www.w3.org/2000/svg" viewBox="0 0 122.54 114.21"><title>Asset 2</title><g id="Layer_2" data-name="Layer 2"><g id="Layer_1-2" data-name="Layer 1"><path d="M103,18.34A59,59,0,0,0,87.77,8.08a56.55,56.55,0,0,1,0,98.05A59,59,0,0,0,103,95.87a52.16,52.16,0,0,0,0-77.53Z"/><path d="M6.4,57.1a56.15,56.15,0,0,1,28.37-49A59,59,0,0,0,19.5,18.34a52.16,52.16,0,0,0,0,77.53,59,59,0,0,0,15.27,10.26A56.15,56.15,0,0,1,6.4,57.1Z"/><path d="M104.56,16.7A63.36,63.36,0,0,0,61.27,0,63.4,63.4,0,0,0,18,16.7,55.06,55.06,0,0,0,0,57.1,55.06,55.06,0,0,0,18,97.51a63.4,63.4,0,0,0,43.3,16.7,63.36,63.36,0,0,0,43.29-16.7,54.39,54.39,0,0,0,0-80.81ZM39,57.1c0-13.62,10-24.67,22.26-24.67s22.26,11,22.26,24.67-10,24.68-22.26,24.68S39,70.73,39,57.1Zm10-26c-8.09,5-13.59,14.76-13.59,26s5.5,21,13.59,26c-10.88-4.37-18.5-14.36-18.5-26S38.08,35.48,49,31.11Zm24.61,52c8.1-5,13.59-14.76,13.59-26s-5.49-21-13.59-26c10.89,4.37,18.5,14.36,18.5,26S84.46,78.73,73.57,83.1ZM19.5,95.87a52.16,52.16,0,0,1,0-77.53A59,59,0,0,1,34.77,8.08a56.54,56.54,0,0,0,0,98.05A59,59,0,0,1,19.5,95.87Zm83.54,0a59,59,0,0,1-15.27,10.26,56.55,56.55,0,0,0,0-98A59,59,0,0,1,103,18.34a52.16,52.16,0,0,1,0,77.53Z"/></g></g></svg>