<svg xmlns="http://www.w3.org/2000/svg" xmlns:xlink="http://www.w3.org/1999/xlink" viewBox="0 0 60.77 34.33"><defs><style>.cls-1{fill:url(#linear-gradient);}.cls-2{fill:url(#linear-gradient-2);}.cls-3{fill:url(#linear-gradient-3);}.cls-4{fill:url(#linear-gradient-4);}.cls-5{fill:url(#linear-gradient-5);}.cls-6{fill:#ed1c2e;}</style><linearGradient id="linear-gradient" x1="56.2" y1="8.1" x2="60.77" y2="8.1" gradientUnits="userSpaceOnUse"><stop offset="0" stop-color="#004a92"/><stop offset="1" stop-color="#00b3f1"/></linearGradient><linearGradient id="linear-gradient-2" x1="0" y1="23.34" x2="18.69" y2="23.34" xlink:href="#linear-gradient"/><linearGradient id="linear-gradient-3" x1="21.18" y1="23.31" x2="25.52" y2="23.31" xlink:href="#linear-gradient"/><linearGradient id="linear-gradient-4" x1="29.37" y1="20.18" x2="42.81" y2="20.18" xlink:href="#linear-gradient"/><linearGradient id="linear-gradient-5" x1="46.15" y1="23.31" x2="50.5" y2="23.31" xlink:href="#linear-gradient"/></defs><title>AU00801</title><g id="Layer_2" data-name="Layer 2"><g id="Layer_1-2" data-name="Layer 1"><path class="cls-1" d="M59.1,7.58c0,.24-.17.35-.4.35H58V7.22h.66a.35.35,0,0,1,.4.36m.43,0a.73.73,0,0,0-.82-.75h-1.1V9.3H58v-1h.48l.49,1h.5L59,8.3a.72.72,0,0,0,.53-.74m1.24.54a2.29,2.29,0,0,0-4.57,0,2.29,2.29,0,0,0,4.57,0m-.37,0a1.92,1.92,0,1,1-1.92-1.92A1.88,1.88,0,0,1,60.4,8.1"/><path class="cls-2" d="M16.23,27.68l-.09.09A7.23,7.23,0,0,1,11,30.17a6.5,6.5,0,0,1-6.61-6.83A6.5,6.5,0,0,1,11,16.51a7.23,7.23,0,0,1,5.15,2.4l.09.1,2.46-3L18.63,16a9.4,9.4,0,0,0-7.52-3.59,11.47,11.47,0,0,0-7.8,2.85A10.71,10.71,0,0,0,0,23.34a10.74,10.74,0,0,0,3.31,8.13,11.43,11.43,0,0,0,7.8,2.86,9.41,9.41,0,0,0,7.52-3.6l.06-.07Z"/><rect class="cls-3" x="21.18" y="12.7" width="4.35" height="21.22"/><path class="cls-4" d="M42.55,29.31a6.36,6.36,0,0,1-3.21,1.06c-1.4,0-2-.74-2-2.39V16.72h4.42v-4H37.31V6.12L33,8.4v4.32H29.37v4H33v12c0,3.27,1.94,5.5,4.82,5.55a6.83,6.83,0,0,0,3.86-1l.05,0,1-4.09Z"/><rect class="cls-5" x="46.15" y="12.7" width="4.35" height="21.22"/><path class="cls-6" d="M53,9A21.1,21.1,0,0,0,18.5,9l-.21.29h5l.06-.06a17,17,0,0,1,24.83,0l.06.06h5Z"/></g></g></svg>