<svg width="256" height="256" viewBox="0 0 256 256" fill="none" xmlns="http://www.w3.org/2000/svg">
<rect width="256" height="256" fill="#0E76BD"/>
<path d="M51.9342 40.6421H50.5763V42V172.358V173.716H51.9342H72.3026V214V215.358H73.6605H203.566H204.924V214V172.487C204.924 170.582 204.123 168.764 202.718 167.478L68.2531 44.4039L68.212 44.3662L68.1679 44.3321C65.1826 42.0193 61.4331 40.6421 57.3658 40.6421H51.9342Z" fill="#0E76BD" stroke="white" stroke-width="2.71579"/>
<path fill-rule="evenodd" clip-rule="evenodd" d="M110.026 184.793C110.62 184.278 111.515 183.922 112.163 183.33C116.768 179.028 115.484 170.355 109.204 167.396C105.677 165.75 100.94 166.08 96.6443 166.08L82.7132 166.104L82.7417 206.597L98.1867 206.623C102.977 206.623 107.812 206.65 111.106 204.277C117.822 199.44 118.343 188.014 110.026 184.793ZM90.8508 173.084C94.2715 173.135 97.7513 173.004 101.146 173.084C104.412 173.163 106.884 174.217 106.76 177.636C106.628 180.648 104.031 181.86 101.019 181.94C97.6984 182.013 94.2186 181.966 90.8508 181.94V173.084ZM90.8793 199.591C90.745 198.154 90.6677 189.866 90.9241 188.759C94.53 188.814 98.5225 188.582 102.073 188.785C105.447 188.964 107.865 190.531 107.706 194.162C107.556 197.741 105.421 199.361 101.917 199.591C98.7524 199.831 94.1454 199.699 90.8793 199.591" fill="#FDFDFD"/>
<path fill-rule="evenodd" clip-rule="evenodd" d="M187.373 204.073L191.88 208.297C192.316 208.014 195.867 204.435 196.076 203.967L192.084 200.086C192.236 199.565 192.596 199.236 192.881 198.749C197.568 191.053 196.947 177.822 191.489 171.95C188.274 168.478 184.237 166.441 179.109 166.079C168.277 165.334 160.166 171.844 159.138 182.763C158.188 193.186 161.299 203.196 172.211 205.88C174.893 206.545 177.41 206.802 180.401 206.366C184.75 205.746 185.106 204.793 187.373 204.073ZM186.115 194.448L182.094 190.815L178.055 195.093L179.88 196.942C180.348 197.378 181.455 198.229 181.738 198.794C176.586 201.293 170.261 199.13 167.994 192.799C166.985 190.071 166.781 186.155 167.241 182.94C168.869 171.127 180.887 170.33 185.55 176.945C187.063 179.08 187.839 182.195 187.938 185.439C188.018 187.574 187.578 193.214 186.115 194.448Z" fill="#FDFDFD"/>
<path fill-rule="evenodd" clip-rule="evenodd" d="M155.665 188.087C156.206 182.323 154.611 176.246 151.805 172.669C147.012 166.519 138.368 164.562 130.54 167.114C123.179 169.505 119.193 175.917 118.751 184.331C118.086 197.202 123.826 205.285 135.43 206.491C141.84 207.163 146.705 204.772 149.951 201.78C154.116 197.918 155.123 193.852 155.665 188.087ZM135.845 172.931C139.475 172.39 142.92 174.038 144.489 175.917C146.375 178.204 147.401 180.886 147.633 184.793C147.836 188.299 147.322 192.489 145.702 194.888C141.61 200.91 133.993 201.268 129.901 196.608C125.216 191.282 124.412 174.651 135.845 172.931" fill="#FDFDFD"/>
<path d="M51.9342 42H57.3658C66.3651 42 73.6605 49.2954 73.6605 58.2947V172.358H51.9342V42Z" fill="#FDBD37"/>
</svg>
