<svg width="256" height="256" viewBox="0 0 256 256" fill="none" xmlns="http://www.w3.org/2000/svg">
<rect width="256" height="256" fill="#891A43"/>
<path d="M102.574 48V207.796H143.735C169.428 207.796 187.125 190.886 189.485 165.193C191.058 147.758 182.144 134.649 166.807 124.424C177.687 116.952 183.979 104.892 182.668 88.5062C180.44 62.1575 154.878 48 140.196 48H102.574V48Z" fill="#DBB7C6"/>
<path d="M66 48V207.796H107.162C132.855 207.796 150.552 190.886 152.911 165.193C154.484 147.758 145.57 134.649 130.233 124.424C141.113 117.083 147.537 104.892 146.095 88.5062C143.866 62.1575 118.304 48 103.622 48H66V48Z" fill="white"/>
</svg>
