<svg width="256" height="256" viewBox="0 0 256 256" fill="none" xmlns="http://www.w3.org/2000/svg">
<g clip-path="url(#clip0)">
<rect width="256" height="256" fill="#FF6800"/>
<path fill-rule="evenodd" clip-rule="evenodd" d="M108.504 395.861C101.014 395.861 103.145 408.043 101.014 413.578C99.9408 414.682 98.8347 416.889 99.9408 418H115.96C115.96 418 117.034 408.043 117.034 405.836C115.96 403.611 112.74 398.068 108.504 395.861ZM128.614 308.054C123.078 303.754 114.208 299.445 100.907 295.13C97.582 294.053 89.8262 295.13 86.4925 295.13C77.6055 310.203 74.3144 324.22 67.6556 340.377C66.5244 343.627 64.3134 350.093 64.3134 350.093C58.8026 346.868 53.2322 344.719 47.6706 344.719C38.7836 344.719 32.1417 347.944 28.8337 356.561C25.534 355.485 21.0948 353.336 15.5501 354.393C7.8112 355.485 1.12672 359.802 -2.20696 366.26C-5.51498 370.559 -6.62906 374.876 -5.51499 379.193C-11.0428 381.352 -14.4191 386.743 -16.613 391.043C-18.8157 399.659 -11.0428 414.767 -7.72623 418H3.35488C1.12672 408.301 -3.30393 403.984 0.021199 394.284C2.25791 388.892 9.99679 386.743 12.2248 385.651C12.2248 381.352 6.6631 378.117 7.8112 373.784C9.99679 368.426 16.6471 368.426 23.3059 369.485C22.1918 375.968 21.0948 384.575 19.9807 393.192C18.8667 402.908 24.4199 418 24.4199 418H35.4925H36.6066C35.4925 414.767 34.387 411.524 34.387 408.301C33.3069 405.059 33.3069 402.908 33.3069 399.659C34.387 395.36 34.387 391.043 34.387 387.835C45.4765 382.426 42.1428 389.967 44.3455 392.117C44.3455 392.117 48.8187 382.426 43.2569 378.117C42.1428 377.043 35.4925 378.117 35.4925 377.043C35.4925 375.968 36.6066 372.726 37.7036 369.485C39.9486 365.168 41.0458 364.111 43.2569 360.868C44.3455 359.802 47.6706 359.802 52.1353 360.868C53.2322 360.868 58.8026 361.943 62.1023 363.019C60.9882 366.26 56.5576 372.726 55.4775 375.968C51.0467 388.892 51.0467 403.984 52.1353 418H64.3134C64.3134 410.433 63.2164 401.816 64.3134 394.284C66.5244 384.575 69.8326 383.501 70.9893 383.501C73.1663 383.501 75.3945 385.651 76.5424 387.835C78.7282 398.583 72.0863 408.301 72.0863 418H80.9561C80.9561 418 84.2984 416.916 85.3953 413.693C87.598 407.209 92.0372 400.726 93.1682 394.284C94.2483 388.892 92.0372 384.575 88.695 378.117C85.3953 373.784 82.0702 370.559 74.3144 365.168C72.0863 360.868 74.3144 355.485 74.3144 355.485C74.3144 356.561 78.728 354.393 80.9561 354.393C89.8262 356.561 92.0372 356.561 96.4679 358.71C99.793 359.802 104.215 361.943 107.549 364.111C110.874 366.26 114.208 372.726 117.533 380.268C117.533 380.268 119.744 366.26 119.744 361.943C115.339 357.653 110.874 353.336 104.215 350.093C98.6449 345.776 86.4925 342.553 80.9561 340.377C80.9561 340.377 83.1674 337.152 83.1674 335.003C89.8262 333.911 97.582 333.911 100.907 335.003C112.005 338.244 125.289 344.719 130.851 349.019C130.851 349.019 133.045 344.719 133.045 342.553C133.045 342.553 117.533 332.852 118.63 329.612C114.208 326.387 110.874 323.144 106.452 322.062C99.793 321.003 86.4925 319.928 86.4925 319.928C86.4925 319.928 89.8262 315.629 93.1682 312.371H102.038C106.452 312.371 117.533 315.629 124.175 318.854C134.176 323.144 139.686 326.387 140.818 328.535C141.898 325.295 143.029 321.003 144.16 318.854C131.948 314.537 133.045 310.203 128.614 308.054ZM103.676 278.406C104.758 275.109 103.676 272.909 104.758 269.595C104.758 267.396 104.758 261.891 105.864 258.594C103.676 257.477 99.2658 259.692 96.0293 259.692C92.7509 259.692 85.121 259.692 85.121 260.792C86.2027 263.009 86.2027 265.198 87.2843 267.396C88.3742 269.595 89.4559 271.794 89.4559 277.324C89.4559 280.623 90.5709 283.937 89.4559 288.326C89.4559 288.326 103.676 280.623 103.676 278.406ZM89.9887 252.395C92.2015 249.152 98.8137 242.69 101.077 240.522C98.8137 238.371 97.7499 235.129 96.6353 232.976C92.2015 232.976 75.5473 239.43 75.5473 239.43C78.8831 244.833 81.1128 250.244 83.3254 256.698C85.5551 255.622 87.7592 254.547 89.9887 252.395ZM131.807 257.926H125.244C125.244 257.926 123.065 266.366 123.065 272.707C121.984 275.886 120.861 277.994 120.861 279.047C118.682 283.271 117.601 284.326 115.438 289.612C118.682 290.665 121.984 288.557 124.146 288.557C126.325 287.504 129.602 286.434 130.725 285.396C131.807 284.326 135.084 276.923 136.181 274.831V267.438C135.084 265.313 136.181 261.089 136.181 257.926C135.084 255.803 132.888 256.856 131.807 257.926ZM192.029 337.348C190.913 336.243 190.913 334.014 189.757 331.821C187.527 325.151 188.658 321.827 187.527 315.209H178.515C176.25 316.297 175.119 315.209 172.881 316.297C172.881 320.739 174.005 324.045 177.384 329.592C180.745 336.243 192.029 337.348 192.029 337.348ZM77.4529 234.557C77.4529 234.557 80.8924 232.43 80.8924 230.252C86.6338 223.809 93.5218 218.414 94.6948 217.377C92.3666 211.964 91.2288 210.891 87.7716 207.674C86.6338 208.747 80.8924 211.964 79.7194 214.124C77.4529 215.197 75.1421 216.269 73.9515 217.377C73.9515 219.52 75.1422 220.577 76.2623 222.737C76.2623 224.882 77.4529 230.252 77.4529 234.557ZM164.421 271.998C164.421 270.93 160.955 270.93 158.681 270.93C156.362 270.93 154.105 271.998 151.76 271.998C149.468 275.167 148.331 278.32 147.184 282.542C146.047 285.703 143.737 287.805 142.564 289.907C142.564 289.907 152.933 287.805 155.224 287.805C158.681 285.703 160.955 284.635 163.267 280.422C164.421 277.254 165.584 276.218 164.421 271.998ZM304.701 357.746C302.483 356.656 281.255 346.981 277.905 346.981C271.201 348.053 260.06 348.053 253.322 351.29C252.234 348.053 251.129 342.67 253.322 339.443C254.426 337.278 265.618 337.278 268.957 337.278C281.255 338.368 287.942 340.497 291.291 340.497C294.647 343.744 298.012 343.744 299.118 343.744C299.118 343.744 298.012 337.278 296.874 335.131C292.429 332.984 287.942 331.912 284.585 330.84C279.011 328.675 276.793 327.585 267.861 326.528C264.531 326.528 264.531 327.585 257.826 327.585C257.826 326.528 258.93 325.438 260.06 324.366C262.253 321.154 264.531 319.008 266.757 316.845H284.585C289.081 317.918 291.291 319.008 296.874 321.154C300.204 321.154 296.874 315.788 296.874 312.534C295.768 311.444 294.647 310.372 292.429 309.297C287.942 308.225 284.585 307.152 280.116 304.988C276.793 303.931 270.114 301.776 264.531 302.851C258.93 304.988 258.93 303.931 254.426 306.078C248.876 313.624 245.529 322.211 242.189 330.84C242.189 332.984 236.598 345.889 236.598 348.053C236.598 349.126 235.51 351.29 235.51 351.29C231.013 350.2 210.925 346.979 205.359 352.347C203.149 354.492 200.888 356.656 197.515 363.105C193.062 359.893 189.706 358.803 185.253 358.803C179.652 358.803 172.981 362.03 169.633 367.396C169.633 368.504 160.703 384.628 161.807 399.687C162.928 408.315 166.286 411.536 170.737 418H183.042C181.921 413.699 179.652 408.315 177.442 401.841C176.32 396.467 178.565 386.792 179.652 378.179C179.652 378.179 183.042 376.034 186.357 374.944C188.618 372.797 189.706 373.852 193.062 373.852C194.201 373.852 194.201 374.944 194.201 374.944C189.706 379.254 189.706 383.555 188.618 390.011C188.618 393.231 193.062 409.389 197.515 418H206.481C206.481 418 204.237 396.467 205.359 394.32C205.359 390.011 206.481 386.792 207.585 383.555C209.82 384.628 212.029 384.628 214.274 385.702C217.614 387.882 217.614 390.011 217.614 393.231C217.614 398.614 217.614 399.687 216.525 402.933V408.315C216.525 413.699 217.614 418 217.614 418H226.579C226.579 408.315 227.648 409.389 228.788 404.006C229.909 399.687 228.788 397.557 229.909 394.32C229.909 392.158 231.013 390.011 232.17 388.939C235.51 386.792 237.736 386.792 242.189 387.882C242.189 391.084 242.189 394.32 241.102 397.557C239.946 402.933 238.842 408.315 236.598 413.699C236.598 414.771 235.51 416.918 234.371 418H247.772C247.772 418 249.982 413.699 251.129 408.315C254.426 411.536 258.93 409.389 261.148 409.389C264.531 408.315 266.757 405.078 268.957 402.933C264.531 399.687 254.426 400.751 254.426 396.467C252.234 388.939 254.426 387.882 254.426 383.555C254.426 377.107 247.772 374.944 241.102 373.852C238.842 372.797 234.371 372.797 232.17 372.797C229.909 373.852 227.648 377.107 225.473 377.107C225.473 377.107 220.979 373.852 217.614 372.797C215.396 372.797 208.681 370.633 208.681 370.633C209.82 368.504 210.925 366.341 212.029 365.249C213.135 364.195 216.525 360.958 217.614 360.958C219.873 359.893 223.204 360.958 225.473 362.03C231.013 363.105 235.51 364.195 236.598 364.195C237.736 364.195 241.102 366.341 241.102 366.341C244.39 364.195 244.39 362.03 246.633 362.03C253.322 359.893 255.581 358.803 262.253 358.803C267.861 358.803 272.34 368.504 275.654 371.723C276.793 373.852 284.585 383.555 289.081 392.158C291.291 391.084 292.429 388.939 294.647 388.939C294.647 386.792 293.535 378.179 292.429 377.107C289.081 367.396 282.394 365.249 282.394 363.105C284.585 363.105 289.081 365.249 291.291 365.249C293.535 366.341 296.874 367.396 300.204 369.561C301.344 370.633 303.579 371.723 304.701 372.797C305.805 377.107 305.805 380.326 308.048 384.628C308.048 385.702 308.048 386.792 309.152 387.882C312.51 381.408 315.859 380.326 318.085 374.944C315.859 365.249 310.259 360.958 304.701 357.746ZM295.514 406.693C293.241 411.216 290.959 415.721 290.959 418H303.459C306.882 413.485 308.006 408.962 305.723 402.185C302.343 403.312 295.514 399.898 295.514 406.693ZM175.76 299.841C179.04 298.769 181.194 296.606 184.481 295.534C186.635 294.46 188.837 277.256 188.837 277.256C188.837 277.256 182.311 278.312 181.194 279.4C180.099 279.4 175.76 279.4 173.599 281.547C173.599 284.772 173.599 287.99 172.522 292.299C170.337 295.534 164.903 297.679 164.903 303.059C164.903 303.059 169.26 304.139 170.337 304.139C172.522 303.059 174.683 300.914 175.76 299.841ZM67.5689 175.613V180.933C67.5689 183.077 68.7298 194.807 68.7298 197.999C69.856 201.206 69.856 204.398 70.9646 207.6C72.1516 209.728 73.2777 211.855 73.2777 214C73.2777 214 75.5646 212.953 76.6732 210.79C80.095 207.6 81.2559 204.398 83.5254 200.144C82.3818 192.679 80.0949 186.27 80.0949 184.142C80.0949 175.613 81.2559 173.468 82.3818 168.139C77.8516 170.259 72.1516 173.468 67.5689 175.613ZM216.997 327.861C218.069 327.861 219.155 325.691 219.155 325.691C218.069 321.329 216.997 315.907 215.961 311.551C215.961 311.551 212.725 309.365 209.564 309.365C207.431 309.365 205.307 308.281 203.199 309.365C204.235 312.652 204.235 314.838 205.307 318.092C208.477 322.421 212.725 324.589 216.997 327.861ZM118.095 211.954C117.042 209.813 113.851 208.745 111.737 207.674C109.598 207.674 107.46 211.954 107.46 216.25C107.46 218.389 108.545 225.919 109.598 229.129C109.598 230.2 111.737 231.286 113.851 232.372C117.042 234.495 120.217 235.564 123.416 237.72C123.416 237.72 120.217 228.076 119.164 222.702C118.095 219.492 120.217 215.179 118.095 211.954ZM142.909 245.628C144.036 241.225 147.351 239.03 147.351 231.323C147.351 231.323 146.257 225.815 145.164 223.609C144.036 221.412 142.909 219.215 139.611 217.019C138.492 217.019 136.305 214.787 135.211 215.885C135.211 215.885 134.084 224.707 132.99 225.815C135.211 229.11 137.416 231.323 138.492 234.618C139.611 237.93 140.705 242.325 142.909 245.628ZM172.973 263.024C176.357 259.75 172.973 254.307 172.973 251.05C171.814 247.779 172.973 244.515 171.814 241.241C170.689 239.071 168.387 237.985 166.138 237.985C163.861 237.985 158.185 234.713 158.185 236.883C152.499 236.883 157.06 242.327 157.06 245.591C157.06 249.949 168.387 260.836 168.387 260.836C170.689 261.921 170.689 260.836 172.973 263.024ZM65.0406 171.302C67.3166 168.009 74.1185 161.419 77.4803 157.002C79.7826 154.813 84.317 149.326 95.6188 143.834C96.7482 139.435 97.8862 136.148 97.8862 131.767C86.5584 135.054 78.6271 137.261 76.3946 139.435C70.722 142.738 68.4373 144.945 62.7821 148.25C62.7821 154.813 62.7821 154.813 63.9026 158.116L65.0406 171.302ZM238.303 293.061C234.866 290.959 229.167 284.633 225.782 281.47C223.465 279.367 224.592 276.212 222.32 274.093C220.065 274.093 217.756 274.093 215.491 275.144C212.056 275.144 209.799 275.144 206.389 276.212C207.517 278.299 207.517 280.419 209.799 281.47C214.346 285.684 214.346 286.752 218.901 293.061C220.065 295.18 225.782 296.233 230.312 296.233C232.619 296.233 237.141 294.129 238.303 293.061ZM195.2 232.976C190.569 234.027 181.373 235.078 181.373 238.247C180.218 241.4 181.373 244.561 181.373 246.679C182.554 248.781 182.554 250.883 182.554 254.052C182.554 256.154 181.373 258.272 182.554 261.443C183.709 259.323 189.45 257.221 190.569 255.103C192.889 251.95 195.2 249.85 196.337 246.679C197.492 243.518 196.337 238.247 195.2 232.976ZM208.862 232.006C205.46 234.18 203.199 235.268 203.199 237.443C203.199 241.81 204.311 246.168 204.311 248.359C204.311 251.639 204.311 253.813 205.46 254.901C208.862 255.987 210.028 255.987 214.587 258.163C214.587 259.267 219.155 261.443 219.155 261.443C219.155 261.443 216.892 251.639 215.736 247.254V229.815C211.16 230.901 210.028 232.006 208.862 232.006ZM79.5112 129.633C80.5934 128.569 92.6416 120.102 93.7071 119.045C95.897 116.933 96.9961 117.99 98.0448 115.876C98.0448 109.515 100.277 109.515 99.1776 107.419C98.0448 105.274 89.3443 107.419 87.1461 107.419C81.6925 108.458 71.8425 111.619 71.8425 113.749C70.7603 116.933 70.7603 124.327 70.7603 125.415C71.8425 128.569 71.8425 131.761 72.9082 134.93C76.2389 131.761 77.2877 130.706 79.5112 129.633ZM318.614 321.593C317.56 320.531 315.437 319.451 313.297 318.372V322.681C313.297 326.999 314.335 328.094 314.335 330.27C314.335 332.429 317.56 347.581 317.56 351.898C322.869 352.996 322.869 357.33 326.063 359.489C326.063 359.489 323.923 346.503 323.923 330.27C323.923 329.175 320.762 322.681 318.614 321.593ZM252.473 281.483C256.88 284.633 265.672 283.58 273.407 282.534C268.965 279.362 267.884 277.24 265.672 275.151C262.352 273.03 260.19 271.977 255.773 267.767H241.493C243.665 273.03 244.738 276.204 252.473 281.483ZM209.229 211.356C211.479 209.252 213.697 205.053 213.697 203.985C215.963 199.776 215.963 194.5 215.963 190.274C207.021 184.989 195.81 183.954 184.617 183.954C174.534 183.954 163.331 184.989 152.137 192.395C153.281 196.619 154.371 199.776 156.63 203.985C157.738 203.985 158.864 206.104 159.956 206.104C162.205 203.985 164.464 200.827 167.79 199.776V203.985C167.79 207.148 167.79 209.252 168.949 212.442C168.949 215.581 172.308 215.581 176.765 215.581C181.233 215.581 182.383 208.201 182.383 207.148C182.383 207.148 183.509 211.356 190.192 214.528C190.192 214.528 198.026 214.528 198.026 213.477C199.169 208.201 200.303 207.148 199.169 202.932C199.169 202.932 205.896 207.148 209.229 211.356ZM244.685 252.426C240.117 245.861 238.987 239.302 238.987 238.21C236.707 236.011 241.248 228.369 235.541 228.369C233.288 227.244 226.431 225.07 226.431 225.07C225.24 228.369 225.24 234.919 226.431 238.21C226.431 241.486 232.104 251.351 234.402 252.426C235.541 253.535 241.248 253.535 242.432 253.535C243.546 252.426 244.685 252.426 244.685 252.426ZM72.9811 109.628C75.2537 106.434 75.2537 106.434 77.5091 104.258C82.0634 101.046 84.3363 98.8877 89.9747 94.5881C91.0938 92.4302 92.2303 93.5176 95.6221 91.3764C96.7498 90.3142 97.8862 89.2266 97.8862 88.1559C97.8862 86.0147 96.7498 83.8565 95.6221 81.732C94.4856 79.5739 92.2303 74.2038 92.2303 73.1164C92.2303 64.5428 93.384 62.4016 94.4856 54.8732C89.9747 53.8027 84.3363 53.8027 82.0634 58.102C79.808 61.3309 79.808 64.5428 79.808 67.7883C79.808 73.1164 80.927 77.4327 82.0634 83.8565C77.5091 87.1023 75.2537 89.2266 70.7603 91.3764C71.8792 97.8171 72.9811 109.628 72.9811 109.628ZM297.341 266.418C295.154 264.236 292.975 262.062 289.684 259.863C285.267 258.771 283.113 256.572 280.874 252.208C279.789 250.026 278.704 247.827 276.49 245.628C274.336 245.628 273.234 246.735 271.047 247.827C268.835 250.026 264.424 250.026 262.237 253.3C263.322 255.482 264.424 257.681 266.63 259.863C267.748 260.955 268.835 263.154 273.234 265.326C280.874 269.69 283.113 270.782 283.113 270.782C289.684 271.889 297.341 266.418 297.341 266.418ZM243.089 218.744C243.089 218.744 244.158 224.196 246.367 229.623C247.486 231.806 249.66 233.973 250.787 233.973C252.943 235.057 257.373 236.139 260.641 236.139V233.973C257.373 230.705 252.943 223.112 252.943 220.928C250.787 219.862 250.787 219.862 247.486 219.862C246.367 218.744 244.158 218.744 243.089 218.744ZM343.065 296.233C342.029 299.404 338.829 301.506 338.829 305.72C338.829 305.72 344.148 310.978 345.215 314.166C346.274 316.27 345.215 325.757 346.274 327.861C349.458 324.688 351.593 323.637 351.593 319.441C350.51 318.388 349.458 309.927 348.391 303.618C348.391 301.506 345.215 298.353 343.065 296.233ZM431.769 372.139C426.278 372.139 419.728 378.539 415.368 398.789C414.278 406.275 413.179 412.69 414.278 416.928L424.089 418C426.278 414.8 426.278 409.467 428.474 405.195C428.474 403.067 430.686 403.067 432.833 403.067C435.039 404.132 439.432 409.467 441.586 411.592C442.685 409.467 444.866 405.195 444.866 401.987C444.866 400.907 441.586 398.789 440.498 398.789C437.236 396.662 435.039 394.534 430.686 394.534C429.573 390.262 436.12 384.929 436.12 384.929C443.767 384.929 451.43 393.454 451.43 393.454C453.61 392.389 454.692 389.199 456.907 387.072C450.332 375.331 438.316 372.139 431.769 372.139ZM373.933 314.895C372.85 312.742 371.783 309.524 370.741 307.389C370.741 306.321 370.741 304.187 369.658 300.976C369.658 300.976 362.217 306.321 361.167 307.389C365.409 312.742 363.299 315.979 364.326 320.247C364.326 322.365 368.608 323.441 369.658 326.659C369.658 327.71 367.574 337.348 367.574 337.348C373.933 328.794 373.933 318.096 373.933 314.895ZM464.603 409.242C463.504 412.55 462.353 414.717 460.097 416.9C461.238 418 463.504 418 464.603 418H475.924C476.988 416.9 476.988 413.625 478.129 411.425C478.129 409.242 479.244 407.042 479.244 403.767H472.474C469.109 403.767 465.736 405.968 464.603 409.242ZM312.506 250.866H318.011C320.237 250.866 320.237 246.669 318.011 246.669C310.28 244.555 303.684 242.467 299.277 236.139C298.185 237.205 291.546 239.286 289.363 241.4C289.363 241.4 291.546 246.669 297.061 251.93C300.35 255.078 307.008 252.98 312.506 250.866ZM263.833 215.183C267.155 219.547 270.452 222.795 273.739 226.052C274.809 228.233 278.106 228.233 280.275 228.233H291.251C294.548 227.116 296.734 227.116 298.937 224.96C294.548 222.795 289.081 220.613 284.664 218.432C280.275 216.265 277.011 214.101 273.739 210.837C271.519 210.837 270.452 211.919 269.317 211.919C267.155 213.036 266.036 214.101 263.833 215.183ZM147.351 162.817C147.351 162.817 151.749 161.815 155.079 161.815C157.306 161.815 159.509 161.815 161.711 162.817C160.586 163.822 156.171 165.831 156.171 165.831C154.002 166.835 152.874 167.832 149.546 168.834C148.452 166.835 147.351 162.817 147.351 162.817ZM146.641 139.796C148.821 136.589 153.249 134.45 156.533 133.381C160.911 132.313 159.791 123.735 159.791 122.666C160.911 120.51 159.791 117.304 159.791 115.149C157.617 116.233 157.617 115.149 153.249 116.233C148.821 116.233 146.641 114.079 144.469 111.924C142.23 109.795 136.775 105.501 134.586 101.242C140.041 100.139 144.469 100.139 149.941 100.139H164.209C167.467 101.242 169.689 103.38 169.689 105.501C169.689 106.572 168.605 113.01 168.605 114.079C167.467 120.51 167.467 122.666 166.398 132.313V135.52C165.296 137.675 160.911 138.743 158.722 140.883C157.617 144.088 157.617 146.245 154.319 147.313C151.01 148.399 148.821 151.597 146.641 150.529C143.349 148.399 144.469 143.02 146.641 139.796ZM128.555 84.3256C126.277 82.2391 121.729 79.068 119.468 74.8456C116.103 70.6311 117.207 66.4252 117.207 65.3571C119.468 59.0315 127.399 56.912 131.964 55.8606C134.207 55.8606 136.486 55.8606 139.877 57.98C144.416 60.083 146.695 60.083 148.947 67.4602C148.947 68.5447 148.947 69.5631 147.816 69.5631C147.816 69.5631 140.999 73.7774 138.729 75.9136C133.086 79.068 131.964 84.3256 128.555 84.3256ZM160.804 83.7417C164.085 81.5061 167.326 79.2879 169.534 79.2879C171.729 78.1789 176.073 77.0525 176.073 79.2879C176.073 83.7417 172.808 85.9597 169.534 90.396C167.326 93.7138 166.262 91.5225 160.804 91.5225H155.329C155.329 88.1953 157.53 87.0689 160.804 83.7417ZM206.543 78.505C208.677 78.505 227.071 82.6353 215.188 87.778C212.995 89.8512 207.614 88.8066 202.19 88.8066C202.19 86.7656 202.19 82.6353 200.048 82.6353C197.848 80.5621 194.634 80.5621 194.634 78.505C190.274 74.3746 201.119 77.4764 206.543 78.505ZM228.706 57.9264C232.141 54.6822 236.731 53.6065 241.258 54.6822C246.958 55.758 248.085 56.8337 250.375 59.002C253.802 63.3219 252.675 71.9447 251.503 77.3317C250.375 80.5758 246.958 82.7443 243.548 82.7443C237.841 76.273 232.141 71.9445 224.169 69.7763C223.024 65.4732 226.484 61.1535 228.706 57.9264ZM236.056 103.426C234.932 105.577 232.668 106.661 230.42 107.78C229.272 107.78 228.191 109.931 228.191 111.015C225.901 114.277 222.538 115.361 218.045 115.361C215.771 115.361 211.276 115.361 209.021 111.015C209.021 111.015 210.128 124.069 210.128 127.321C210.128 128.405 211.276 128.405 211.276 128.405C215.771 129.49 216.904 133.851 219.142 136.02C219.142 136.02 220.275 137.104 221.424 137.104C225.901 140.356 236.056 144.71 231.552 144.71C231.552 146.896 228.191 152.326 227.077 152.326C223.654 149.081 218.045 146.896 213.506 144.71C212.392 142.542 211.276 140.356 210.128 138.205C207.908 136.02 206.774 136.02 203.378 133.851C203.378 126.255 202.262 126.255 202.262 118.631C202.262 117.547 200.007 105.577 200.007 105.577C200.007 104.493 203.378 101.258 206.774 100.139C206.774 100.139 228.191 100.139 238.303 101.258C238.303 101.258 237.205 103.426 236.056 103.426ZM222.833 169.72C218.413 168.574 215.11 165.127 209.581 165.127C209.581 161.708 209.581 161.708 210.707 160.542C217.338 159.398 220.648 161.708 223.941 162.854C223.941 163.999 222.833 169.72 222.833 169.72ZM150.679 185.172C154.019 185.172 157.353 181.947 160.677 180.849C167.298 178.687 172.868 176.524 179.491 175.444C181.744 174.329 181.744 172.184 181.744 170.004C182.856 167.851 182.856 167.851 182.856 164.609C182.856 163.527 178.41 162.446 176.182 158.088C173.972 154.828 176.182 151.586 175.07 151.586C171.771 153.748 167.298 155.911 166.219 151.586C165.106 148.351 165.106 143.993 168.447 142.913C179.491 138.588 191.707 138.588 202.818 142.913C205.011 142.913 206.125 145.091 206.125 147.253C207.221 149.416 206.125 151.586 203.897 153.748C200.573 154.828 197.224 150.505 197.224 153.748C197.224 156.991 195.031 161.349 189.471 163.527C188.39 164.609 189.471 167.851 190.61 171.102C190.61 172.184 190.61 174.329 191.707 174.329C196.145 175.444 202.818 176.524 206.125 178.687C210.538 180.849 218.29 187.334 219.422 186.27C222.728 184.107 223.825 180.849 226.078 178.687C238.251 184.107 248.215 187.334 263.755 197.122C265.966 197.122 265.966 192.782 265.966 190.602C260.398 187.334 243.76 178.687 241.575 177.589C237.154 176.524 234.944 174.329 230.481 173.264V164.609C238.251 166.771 253.725 167.851 269.299 176.524C270.378 173.264 272.622 171.102 271.51 170.004C253.725 161.349 240.496 158.088 229.384 158.088C229.384 156.991 227.141 155.911 229.384 154.828C232.708 152.666 233.815 151.586 234.944 150.505C238.251 146.173 240.496 141.833 241.575 137.508C244.891 131.005 248.215 133.167 250.451 119.072C247.119 119.072 245.988 121.234 242.681 122.332C243.76 119.072 244.891 115.829 244.891 112.569C245.988 106.059 248.215 101.734 248.215 94.1335C251.547 93.0354 257.099 89.8011 258.196 85.4773C258.196 84.3792 258.196 81.1363 259.317 76.7956C259.317 70.3012 260.398 64.8795 258.196 60.5386C258.196 59.4578 250.451 48.6226 244.891 45.3798C237.154 42.1199 233.815 43.2178 228.27 44.2817C221.614 44.2817 212.73 50.7845 212.73 62.7175C206.125 62.7175 192.803 63.7985 185.051 70.3012C178.41 67.0413 172.868 65.9774 167.298 64.8795H157.353C156.257 60.5386 154.019 56.1978 149.599 52.955C144.073 49.7205 137.383 45.3798 129.63 45.3798C126.306 45.3798 122.999 44.2817 119.666 46.4777C116.342 48.6226 110.799 50.7845 109.702 55.1168C107.475 60.5386 105.265 64.8795 105.265 70.3012C105.265 75.7315 108.606 80.0554 111.93 85.4773C113.001 87.6562 114.132 87.6562 116.342 88.7201C117.456 88.7201 121.902 90.899 122.999 91.9715C124.095 93.0354 121.902 96.3114 121.902 102.832C121.902 108.237 121.902 108.237 122.999 112.569C122.999 116.91 124.095 121.234 125.209 124.477C121.902 124.477 119.666 121.234 117.456 123.412C117.456 125.592 119.666 131.005 121.902 135.33C127.436 140.75 132.962 146.173 136.303 152.666C136.303 153.748 136.303 155.911 137.383 155.911C129.63 156.991 121.902 156.991 114.132 159.186C107.475 161.349 99.7219 164.609 93.0992 167.851C93.0992 172.184 94.1789 175.444 94.1789 175.444C95.2926 175.444 105.265 170.004 114.132 167.851C128.533 163.527 136.303 164.609 136.303 164.609C137.383 166.771 138.505 170.004 137.383 171.102C124.095 176.524 110.799 183.027 98.5742 190.602C99.7219 192.782 98.5742 196.025 100.836 198.185C111.93 191.682 127.436 184.107 138.505 179.767C142.943 178.687 142.943 179.767 145.17 179.767C146.267 180.849 148.469 185.172 150.679 185.172ZM362.763 281.034C362.763 281.034 360.64 276.82 360.64 275.791C359.586 273.685 358.533 270.531 355.331 269.486C355.331 268.439 354.26 273.685 353.206 275.791C352.122 277.881 352.122 276.82 349.997 281.034C352.122 284.162 353.206 286.255 355.331 289.408C355.331 290.453 358.533 294.652 358.533 294.652C358.533 294.652 362.763 286.255 362.763 284.162V281.034ZM504.168 406.166H498.688C496.501 405.076 495.401 405.076 494.316 406.166C491.021 409.387 491.021 414.771 488.818 418H501.983C504.168 415.828 506.37 414.771 506.37 410.444C506.37 409.387 506.37 407.223 504.168 406.166ZM349.997 257.751C349.997 248.258 347.682 248.258 343.039 244.046C343.039 244.046 339.54 250.378 337.233 253.531C341.873 257.751 343.039 263.024 343.039 263.024C347.682 258.802 347.682 259.853 349.997 257.751ZM393.081 295.845C393.081 292.62 391.951 289.412 389.739 287.257C388.594 284.05 387.484 279.766 387.484 277.611C386.322 275.489 381.86 269.041 379.613 265.833C377.374 263.702 377.374 258.34 376.246 255.117L362.763 257.254C369.522 265.833 375.154 274.403 378.468 282.989C379.613 286.206 389.739 318.372 389.739 318.372C393.081 317.286 388.594 301.207 389.739 300.139C390.824 297.999 390.824 296.913 393.081 295.845ZM309.289 209.761C308.167 207.649 305.891 203.417 304.753 202.362C303.641 200.25 302.485 198.139 301.33 197.066C300.226 196.027 295.691 197.066 293.441 197.066C291.165 197.066 290.043 197.066 287.767 198.139C290.043 200.25 292.285 207.649 293.441 207.649C294.561 209.761 294.561 210.816 296.83 211.906C302.485 212.945 307.012 211.906 312.685 214C314.918 210.816 310.408 210.816 309.289 209.761ZM338.829 234.258C338.829 234.258 325.266 226.704 322.993 223.489C319.611 223.489 319.611 223.489 316.221 226.704C313.931 226.704 312.83 227.812 311.703 229.943C315.101 232.127 316.221 233.184 319.611 235.335C320.756 236.409 321.874 236.409 325.266 235.335H334.327C336.547 235.335 338.829 236.409 338.829 234.258ZM526.471 394.28C526.471 394.28 525.316 397.631 524.161 399.838C521.869 405.422 520.73 407.645 520.73 410.98C524.161 413.256 525.316 412.109 529.929 412.109C532.221 412.109 534.513 413.256 535.67 413.256C537.962 412.109 535.67 409.887 535.67 408.773C534.513 408.773 529.929 398.725 526.471 394.28ZM408.226 300.976C412.794 297.729 413.949 291.201 415.104 287.953C416.258 284.689 413.949 278.186 412.794 276.02C409.363 276.02 407.099 273.838 404.752 273.838C402.46 273.838 401.323 268.41 397.867 269.492C399.021 271.674 401.323 282.532 402.46 284.689C403.632 285.789 408.226 293.383 408.226 300.976ZM493.604 360.276C493.604 359.207 490.084 357.056 488.964 357.056C488.964 355.965 487.736 351.646 486.562 350.587C484.26 349.495 484.26 348.419 481.912 348.419C481.912 349.495 481.912 350.587 480.737 352.737C480.737 354.888 478.391 355.965 479.583 358.115C480.737 360.276 481.912 360.276 484.26 361.35C485.415 362.427 488.964 371.064 490.084 372.139C491.258 371.064 491.258 364.577 493.604 360.276ZM299.028 184.976C302.419 184.976 304.654 187.117 306.915 187.117C306.915 183.923 305.768 181.782 304.654 178.553C303.525 173.184 301.272 169.957 300.125 166.754C300.125 163.542 300.125 161.385 299.028 159.244C297.914 159.244 296.768 159.244 295.654 158.156C292.289 158.156 287.767 157.07 287.767 157.07C287.767 160.315 288.916 165.666 288.916 168.887C288.916 169.957 293.403 179.623 294.524 180.694C295.654 182.852 296.768 183.923 299.028 184.976ZM405.845 256.22C404.735 252.908 401.387 251.787 399.142 249.578C399.142 249.578 384.584 244.046 382.311 244.046C380.066 245.142 387.931 249.578 389.041 251.787C393.524 256.22 404.735 266.185 404.735 266.185L405.845 256.22ZM268.592 120.698C267.482 121.769 266.339 123.925 266.339 124.978C264.086 128.205 260.758 130.354 262.958 133.581C264.086 137.879 264.086 142.159 267.482 145.386C270.855 148.613 275.308 147.525 279.789 150.744C279.789 150.744 276.418 136.791 274.216 130.354C273.09 126.082 270.855 123.925 268.592 120.698ZM481.093 201.898C466.671 187.872 451.108 179.209 435.57 179.209C422.263 179.209 412.244 188.916 412.244 198.665C412.244 237.563 427.817 262.424 437.801 284.011C441.116 289.416 442.222 293.743 442.222 299.148C443.338 313.198 431.147 339.122 423.362 353.173C422.263 352.079 416.684 351.018 412.244 351.018C401.146 351.018 396.706 358.56 394.475 365.036C391.145 365.036 388.956 362.879 385.573 362.879C372.275 361.803 361.167 373.674 361.167 386.664C361.167 400.681 364.472 408.276 370.053 418H381.16C380.037 414.759 376.722 398.535 375.606 394.225C374.524 387.759 376.722 383.415 380.037 380.173C384.49 373.674 395.575 375.863 395.575 375.863C392.26 381.259 387.822 389.897 387.822 398.534C388.956 403.949 390.029 412.62 393.394 418H402.278C404.459 411.509 402.278 406.121 402.278 400.681C402.278 397.474 402.278 394.225 403.36 390.975C403.36 388.82 408.914 395.302 408.914 395.302C408.914 395.302 413.362 389.897 413.362 385.57C413.362 382.337 406.716 383.415 405.627 380.173C404.459 376.94 407.816 369.363 407.816 369.363C414.478 365.036 420.014 366.13 422.263 366.13C425.568 366.13 426.666 367.19 431.147 367.19C434.454 367.19 435.57 360.725 435.57 357.501C436.668 358.56 440.033 360.725 441.116 360.725C444.438 361.803 445.554 361.803 448.884 362.879C453.339 365.036 457.785 367.19 462.241 371.535V370.441C461.107 366.13 463.324 360.725 460.009 358.56C460.009 358.56 454.438 354.234 450 352.079C447.785 349.922 444.438 349.922 443.338 347.768C442.222 346.689 442.222 345.596 442.222 343.441C442.222 341.277 443.338 338.044 444.438 338.044C446.652 336.95 447.785 338.044 452.224 340.183C456.669 342.363 461.107 345.596 464.439 347.768C464.439 347.768 465.538 349.922 465.538 348.846C469.993 346.689 469.993 345.596 469.993 339.122C465.538 333.699 469.993 332.639 463.323 328.312C461.107 328.312 448.884 323.983 448.884 323.983C448.884 321.821 452.224 316.431 452.224 316.431C453.339 315.371 455.538 315.371 456.669 317.51C463.323 321.821 467.762 321.821 474.474 323.983C475.522 320.76 475.522 318.603 473.323 316.431C471.076 313.198 467.762 309.932 465.538 308.854C461.107 307.778 458.885 306.7 455.538 305.621C455.538 302.381 454.438 299.148 453.339 294.821C453.339 292.649 455.538 293.743 457.785 293.743C462.241 292.649 481.093 299.148 481.093 299.148C481.093 294.821 479.977 291.571 477.746 289.416C475.522 287.244 473.323 285.087 467.762 282.94C460.009 280.768 453.339 281.864 447.785 278.614C443.338 274.287 442.222 273.209 441.116 268.882C444.438 267.821 450 266.725 453.339 266.725C458.885 266.725 462.241 265.649 468.895 267.821C471.076 268.882 478.879 275.381 482.226 275.381C482.226 275.381 479.977 266.725 477.746 263.502C474.474 263.502 468.895 257.001 466.671 255.925C455.538 251.596 453.339 253.768 446.652 254.847C443.338 255.925 440.033 254.847 436.668 254.847C435.57 252.692 438.9 249.442 437.801 247.287C437.801 246.191 433.328 245.115 433.328 242.968C433.328 242.968 451.108 240.796 457.785 241.872C460.009 242.968 466.671 247.287 468.895 247.287C468.895 247.287 471.076 239.7 467.762 233.234C462.241 232.173 456.669 233.234 452.224 232.173C447.785 231.08 443.338 232.173 440.033 232.173C436.668 232.173 433.328 231.08 430.016 231.08C427.817 227.847 426.666 224.589 426.666 221.356C426.666 221.356 454.438 220.26 456.669 219.201C455.538 218.088 453.339 217.044 452.224 214.855C447.785 207.295 444.438 206.227 438.9 206.227C435.57 206.227 427.817 209.45 423.362 208.373C423.362 199.743 427.817 192.184 434.454 192.184C447.785 192.184 461.107 197.571 472.207 209.45C499.996 237.563 514.401 290.492 514.401 328.312C514.401 345.596 512.187 361.803 509.98 374.768C513.303 375.863 515.499 375.863 518.849 375.863C522.204 362.879 525.518 345.596 525.518 329.388C525.518 274.287 505.517 227.847 481.093 201.898ZM313.297 157.129C315.56 165.753 318.909 176.534 320.039 189.427C320.039 192.683 318.909 195.904 320.039 199.143L335.637 204.511C335.637 204.511 333.444 191.591 331.199 176.534C328.963 163.622 327.842 159.311 324.492 153.907C322.249 154.98 321.145 154.98 318.909 154.98C315.56 156.054 313.297 157.129 313.297 157.129ZM349.985 219.994C352.225 222.125 353.327 226.397 354.447 233.877C355.559 238.157 357.798 239.224 360.002 245.628C363.363 243.504 368.937 244.571 368.937 244.571C368.937 239.224 365.578 233.877 365.578 232.828C364.44 230.662 361.122 224.256 360.002 222.125C361.122 222.125 364.44 226.397 370.039 226.397C371.176 226.397 374.528 227.447 376.732 226.397C376.732 226.397 380.058 228.546 380.058 230.662C382.288 233.877 382.288 236.009 383.443 239.224C385.614 239.224 386.769 239.224 387.871 238.157C392.325 238.157 394.546 237.075 394.546 237.075C393.462 234.942 392.325 232.828 392.325 230.662C391.205 228.546 389.008 223.192 389.008 223.192L409.037 219.994C409.037 216.761 407.934 212.481 404.566 210.349C394.546 213.58 383.443 214.629 375.612 214.629C364.44 214.629 353.327 212.481 337.727 206.093C336.615 208.216 337.727 212.481 337.727 212.481C344.412 217.86 344.412 214.629 349.985 219.994ZM104.036 41.7632C111.865 37.3791 125.216 29.694 129.661 25.3272C130.806 27.5279 144.183 35.1958 149.739 38.4537C154.182 41.7632 158.654 42.8378 163.097 45.0212C165.329 41.7632 167.534 38.4537 169.79 30.8029C173.132 33.0036 177.586 33.0036 180.91 34.0782C180.91 38.4537 180.91 42.8378 182.055 47.2391C182.055 49.4052 184.277 48.3135 188.74 46.1301C195.416 43.9468 202.089 42.8378 205.448 41.7632C213.211 37.3791 217.68 28.6196 224.365 28.6196C229.954 28.6196 239.971 31.8946 242.211 34.0782C245.544 35.1958 247.784 36.2701 251.135 36.2701C255.579 36.2701 258.921 31.8946 262.237 29.694C252.237 23.1436 241.126 16.5762 229.954 12.2007C223.261 17.6508 218.799 22.0348 215.468 22.0348C212.108 22.0348 214.348 15.4845 214.348 11.0917C211.004 11.0917 208.765 11.0917 205.448 10C203.244 17.6508 202.089 27.5279 196.535 29.694C194.312 30.8029 193.176 30.8029 192.072 30.8029V22.0348C192.072 20.9431 196.535 13.2924 195.416 12.2007C195.416 12.2007 185.381 14.3755 183.175 15.4845C182.055 16.5762 175.346 19.8685 174.244 19.8685C174.244 19.8685 170.893 18.7596 169.79 18.7596C166.449 16.5762 164.225 16.5762 160.876 14.3755C156.432 27.5279 155.285 30.803 155.285 28.6196C155.285 28.6196 139.687 18.7596 134.148 12.2007C119.643 14.3755 119.643 16.5762 107.387 20.9431C102.933 25.3272 96.2496 30.803 91.7964 37.3791C89.5741 41.7632 87.3348 43.9468 85.121 48.3135L96.2496 52.6976C97.3693 51.5888 102.933 43.9468 104.036 41.7632ZM489.001 335.31C492.11 336.369 494.197 343.798 496.295 345.914C499.434 350.161 498.398 338.5 497.347 336.369C497.347 335.31 497.347 326.831 495.259 326.831C494.197 325.757 493.161 322.577 492.11 321.535C491.058 324.7 492.11 326.831 492.11 330.006C492.11 332.137 487.901 334.236 489.001 335.31ZM294.515 114.908C293.395 114.908 290.001 113.85 285.442 112.791H279.789C280.909 115.985 284.322 119.163 285.442 121.281C285.442 122.357 285.442 125.551 286.605 127.654C288.846 127.654 292.24 128.712 294.515 129.779C295.644 129.779 302.434 130.855 304.699 132.975C306.958 132.975 314.858 141.465 316.03 142.524C319.409 144.659 322.813 146.777 325.052 145.718C327.326 145.718 325.052 142.524 325.052 141.465C320.546 135.093 317.15 123.416 316.03 123.416C312.626 122.357 310.352 123.416 305.838 121.281C303.589 119.163 296.781 115.985 294.515 114.908ZM275.59 89.4564C276.706 91.6643 278.879 91.6643 281.078 92.7511C283.259 94.9417 285.465 96.0375 288.747 98.2446C293.109 102.643 295.298 108.155 300.76 112.509C302.951 113.622 304.05 114.718 305.132 114.718C306.248 114.718 310.61 118.021 311.703 119.117C311.703 110.327 308.414 103.756 306.248 99.3403C306.248 98.2446 305.132 97.1488 302.951 96.0375C299.645 92.7511 296.381 89.4564 295.298 89.4564C292.026 86.1705 289.828 82.8845 286.548 79.5815C283.259 79.5815 281.078 82.8845 278.879 83.9799C277.797 86.1705 273.442 88.3784 275.59 89.4564ZM271.547 61.4875C271.547 64.6815 272.67 67.9092 273.776 71.0867C279.245 74.2892 285.872 76.4185 285.872 76.4185C286.96 73.2077 284.74 70.0218 284.74 66.8111C282.579 59.3412 279.245 51.8798 278.156 43.3453V39.0529C273.776 36.9402 269.336 35.8588 263.833 33.7209C263.833 33.7209 263.833 40.1343 266.045 43.3453C268.256 48.6689 271.547 57.2118 271.547 61.4875ZM507.572 90.09L503.178 84.5039L515.229 81.1628L520.73 100.139L507.572 90.09ZM467.419 80.306L460.87 84.3256L452.119 78.2961L461.951 73.2557L472.862 80.306H467.419ZM640.904 291.089C642 284.627 642 278.171 642 273.857C639.764 271.709 636.401 270.617 634.209 270.617C634.209 267.411 633.069 263.106 634.209 258.791C636.401 258.791 640.904 259.865 640.904 258.791C640.904 252.329 639.766 245.849 638.678 242.634C636.401 241.544 633.069 240.469 629.714 239.378C629.714 236.154 628.61 232.931 627.488 230.782C630.869 229.692 633.069 229.692 635.295 229.692C635.295 229.692 633.069 219.998 631.975 215.683C629.714 214.608 626.367 214.608 624.141 214.608C623.027 212.477 621.905 210.295 620.784 207.072C623.027 206.005 625.278 206.005 627.488 204.931C625.278 199.543 624.141 197.377 621.905 194.154H614.114C613.01 192.005 611.888 189.841 611.888 187.707C613.01 186.592 615.218 185.535 616.35 184.443C615.218 181.238 613.01 177.997 610.749 175.848C608.523 175.848 606.29 176.905 604.064 175.848C602.96 175.848 599.595 171.535 600.716 171.535C601.82 169.369 604.064 168.294 605.185 167.228C601.82 162.932 600.716 159.691 597.359 157.525C595.133 157.525 592.925 157.525 590.664 158.617C590.664 158.617 588.43 155.361 587.324 154.286C583.961 154.286 589.56 148.907 589.56 148.907C586.203 144.609 582.873 141.368 578.413 137.071C576.135 137.071 573.909 139.202 572.805 139.202C572.805 139.202 568.344 135.981 568.344 134.906C568.344 132.757 572.805 131.683 572.805 131.683C572.805 131.683 564.979 123.063 559.415 119.822C557.187 120.896 556.083 120.896 553.814 120.896C550.484 117.675 546.015 115.526 546.015 115.526C546.015 115.526 549.38 113.36 549.38 112.286C543.797 109.055 541.554 106.923 537.095 103.665C532.625 101.516 530.398 98.2776 528.164 95.0369C520.365 83.2111 510.322 65.9795 485.731 62.7398C485.731 62.7398 491.34 70.277 494.697 75.674C494.697 76.7313 494.697 76.7313 490.218 76.7313H482.427C480.168 73.4914 479.064 72.4341 477.924 70.277C475.689 65.9795 474.637 64.8884 472.359 62.7398C467.89 59.4999 445.569 71.3514 426.589 75.674C431.093 81.0456 435.535 84.2686 436.639 86.4341C442.222 91.8141 450.038 101.516 455.604 109.055C456.743 107.98 457.865 106.923 460.098 105.814C474.637 103.665 474.637 100.459 474.637 100.459C474.637 100.459 463.428 91.8141 471.22 91.8141C471.22 91.8141 476.82 92.8716 479.064 90.7483C484.637 89.6571 491.34 88.5827 494.697 90.7483C499.149 93.9625 501.374 98.2776 504.732 101.516C502.504 101.516 500.288 100.459 498.044 100.459C491.34 99.352 484.637 100.459 479.064 101.516C479.064 101.516 488.027 109.055 490.218 112.286C488.027 111.194 481.29 112.286 481.29 112.286C477.925 113.36 473.481 114.434 472.359 114.434C469.029 115.526 465.654 114.434 463.428 115.526C467.89 117.675 488.027 125.229 498.044 125.229C506.973 125.229 512.539 124.12 520.365 120.896C521.469 119.822 523.695 118.748 524.817 119.822C529.293 120.896 531.519 121.988 533.747 124.12C562.778 141.368 595.133 182.312 605.185 203.841C615.218 224.311 620.784 246.939 620.784 268.468C621.905 297.568 611.888 325.569 591.786 350.354C580.587 364.329 559.415 376.197 537.095 378.346C543.797 385.892 547.12 397.726 550.485 408.511C550.485 408.511 558.309 407.437 562.778 405.288C562.778 396.669 557.187 386.982 557.187 384.8C557.187 384.8 563.874 380.503 569.465 380.503C570.552 383.726 573.909 389.114 578.413 396.669C582.873 394.503 586.203 392.337 589.56 389.116C589.56 383.726 586.203 377.272 583.961 370.808C591.786 367.587 596.255 366.477 596.255 366.477C598.506 369.718 604.064 372.941 605.185 376.197C605.185 376.197 610.749 370.808 613.01 365.42C610.749 361.105 607.402 357.874 605.185 353.561L614.114 343.892C614.114 343.892 619.68 348.189 621.905 350.354C625.28 346.04 628.61 341.725 629.714 336.328C624.141 330.958 621.905 330.958 620.784 327.717C623.027 324.477 624.141 320.189 626.367 316.948C629.714 318.04 631.975 320.189 634.209 321.246C636.401 316.948 638.678 310.469 638.678 306.171C636.401 304.007 633.069 302.948 630.869 300.791C631.975 295.404 633.069 290.014 633.069 290.014C633.069 290.014 638.678 291.089 640.904 291.089Z" fill="white"/>
</g>
<defs>
<clipPath id="clip0">
<rect width="256" height="256" fill="white"/>
</clipPath>
</defs>
</svg>
