<svg width="512" height="512" viewBox="0 0 512 512" fill="none" xmlns="http://www.w3.org/2000/svg">
<path d="M512 0H0V512H512V0Z" fill="#143042"/>
<g clip-path="url(#clip0)">
<path fill-rule="evenodd" clip-rule="evenodd" d="M194.7 273.464C191.808 270.028 189.804 265.935 188.864 261.543H77.2557C77.2557 262.083 77.648 262.573 77.8441 263.113C77.8441 263.603 78.2854 264.045 78.5797 264.535C78.8124 264.962 79.0745 265.372 79.3643 265.762V266.007L80.4431 267.332L176.948 379.72C177.365 380.202 177.807 380.66 178.272 381.094L179.106 381.83L179.694 382.32H180.038C184.304 385.366 189.756 386.22 194.749 384.626L195.73 384.234L196.416 383.988C198.662 382.918 200.665 381.399 202.301 379.524L244.031 330.811L194.7 273.464Z" fill="#99D9D5"/>
<path fill-rule="evenodd" clip-rule="evenodd" d="M423.41 266.057C423.699 265.666 423.962 265.257 424.194 264.83C424.726 263.875 425.169 262.873 425.518 261.838H314.253C313.323 266.218 311.317 270.298 308.417 273.709L259.086 331.302L300.817 380.015C301.233 380.496 301.675 380.955 302.141 381.389L303.023 382.124C303.209 382.3 303.406 382.464 303.612 382.615H303.906C308.175 385.653 313.624 386.507 318.617 384.921L319.598 384.528L320.284 384.234C322.539 383.2 324.545 381.694 326.169 379.819L422.38 267.528C422.766 267.104 423.11 266.644 423.41 266.155" fill="#99D9D5"/>
<path fill-rule="evenodd" clip-rule="evenodd" d="M314.253 250.163H425.861C425.679 249.628 425.466 249.104 425.224 248.593C425.224 248.102 424.783 247.661 424.537 247.17C424.305 246.744 424.043 246.334 423.753 245.944V245.698C423.441 245.234 423.097 244.791 422.723 244.374L326.512 132.083C323.786 128.874 319.952 126.807 315.773 126.295H313.762C308.845 126.295 304.18 128.468 301.013 132.231L259.282 180.895L308.613 238.487C311.524 241.91 313.53 246.009 314.449 250.408" fill="#99D9D5"/>
<path fill-rule="evenodd" clip-rule="evenodd" d="M79.5121 245.6L78.7275 246.875C78.4333 247.366 78.2371 247.808 77.9919 248.298C77.7661 248.81 77.5697 249.334 77.4035 249.868H189.012C189.931 245.469 191.937 241.37 194.848 237.947L244.228 180.355L202.498 131.691C202.065 131.193 201.607 130.718 201.124 130.268C198.508 127.868 195.19 126.372 191.66 126H189.65C184.731 125.994 180.063 128.168 176.9 131.936L80.6399 244.226L79.5611 245.551" fill="#99D9D5"/>
<path fill-rule="evenodd" clip-rule="evenodd" d="M299.885 245.846L251.485 189.333L203.036 245.846C198.134 251.616 198.134 260.09 203.036 265.861L251.485 322.227L299.885 265.763C304.787 259.992 304.787 251.518 299.885 245.748" fill="#00A0B9"/>
</g>
<defs>
<clipPath id="clip0">
<rect width="362" height="260" fill="white" transform="translate(75 126)"/>
</clipPath>
</defs>
</svg>
