<svg width="256" height="256" viewBox="0 0 256 256" fill="none" xmlns="http://www.w3.org/2000/svg">
<rect width="256" height="256" fill="#0075DC"/>
<path d="M199.83 174.276H189.015C183.217 174.276 177.658 171.95 173.557 167.809L161.609 155.732C157.511 151.591 155.208 145.974 155.208 140.115V129.34C155.208 125.256 151.931 121.944 147.889 121.944H124.176C121.76 121.944 119.803 123.922 119.803 126.362V150.325C119.803 154.408 123.081 157.72 127.122 157.72H138.102C143.901 157.72 149.459 160.047 153.561 164.191L165.34 176.094C169.442 180.239 171.744 185.856 171.744 191.715V202.657C171.744 206.741 175.018 210.053 179.059 210.053H202.777C205.192 210.053 207.149 208.075 207.149 205.635V181.672C207.149 177.588 203.872 174.276 199.83 174.276" fill="white"/>
<path d="M128.229 60.5C90.6654 60.5 64.1035 89.635 64.1035 124.419V124.771C64.1035 159.555 90.3133 188.335 127.88 188.335C135.91 188.335 143.391 186.94 150.242 184.478C153.277 183.386 154.143 179.448 151.865 177.147L142.729 167.915C141.624 166.798 140.029 166.414 138.515 166.816C135.27 167.677 131.858 168.207 128.229 168.207C103.945 168.207 86.6415 148.428 86.6415 124.419V124.063C86.6415 100.051 103.593 80.6277 127.88 80.6277C152.171 80.6277 169.467 100.407 169.467 124.419V124.771C169.467 130.894 168.302 136.678 166.239 141.943C165.584 143.611 165.891 145.493 167.147 146.763L176.998 156.717C179.092 158.833 182.556 158.239 183.996 155.621C189.101 146.343 192.005 135.714 192.005 124.419V124.063C192.005 89.2793 165.796 60.5 128.229 60.5" fill="white"/>
</svg>
