<?xml version="1.0" encoding="UTF-8" standalone="no"?>
<svg
   xmlns:dc="http://purl.org/dc/elements/1.1/"
   xmlns:cc="http://creativecommons.org/ns#"
   xmlns:rdf="http://www.w3.org/1999/02/22-rdf-syntax-ns#"
   xmlns:svg="http://www.w3.org/2000/svg"
   xmlns="http://www.w3.org/2000/svg"
   viewBox="0 0 300 300"
   xml:space="preserve"
   id="svg2"
   version="1.1"><metadata
     id="metadata8"><rdf:RDF><cc:Work
         rdf:about=""><dc:format>image/svg+xml</dc:format><dc:type
           rdf:resource="http://purl.org/dc/dcmitype/StillImage" /></cc:Work></rdf:RDF></metadata><defs
     id="defs6"><clipPath
       id="clipPath18"
       clipPathUnits="userSpaceOnUse"><path
         id="path16"
         d="M 0,0 H 225 V 225 H 0 Z" /></clipPath><radialGradient
       id="radialGradient34"
       spreadMethod="pad"
       gradientTransform="matrix(0,266.69385,266.69385,0,16.717598,215.88591)"
       gradientUnits="userSpaceOnUse"
       r="1"
       cy="0"
       cx="0"
       fy="0"
       fx="0"><stop
         id="stop24"
         offset="0"
         style="stop-opacity:1;stop-color:#239fd6" /><stop
         id="stop26"
         offset="0.12692909"
         style="stop-opacity:1;stop-color:#239fd6" /><stop
         id="stop28"
         offset="0.370789"
         style="stop-opacity:1;stop-color:#2565a7" /><stop
         id="stop30"
         offset="0.64971684"
         style="stop-opacity:1;stop-color:#002664" /><stop
         id="stop32"
         offset="1"
         style="stop-opacity:1;stop-color:#002664" /></radialGradient></defs><g
     transform="matrix(1.3333333,0,0,-1.3333333,0,300)"
     id="g10"><g
       id="g12"><g
         clip-path="url(#clipPath18)"
         id="g14"><g
           id="g20"><g
             id="g22"><path
               id="path36"
               style="fill:url(#radialGradient34);stroke:none"
               d="M 0,0 H 225 V 225 H 0 Z" /></g></g></g></g><g
       transform="translate(135.1761,122.5314)"
       id="g38"><path
         id="path40"
         style="fill:#ffffff;fill-opacity:1;fill-rule:nonzero;stroke:none"
         d="m 0,0 v -6.254 h 18.53 v -6.975 H 0 V -20.06 H 20.783 L 30.445,-10 21.193,0.008 H 0 Z m -85.592,1.299 -5.799,-13.688 h 11.592 z M -8.388,7.097 H 25.579 L 35.968,-4.122 46.692,7.097 h 10.39 L 41.297,-10.128 57.082,-27.156 H 46.221 L 35.833,-15.805 25.053,-27.156 H -8.388 Z m -83.331,0 h 12.594 L -64.808,-25.29 V 7.097 h 13.797 l 11.059,-23.22 10.191,23.22 h 13.732 v -34.275 h -8.355 l -0.069,26.861 -12.178,-26.861 h -7.473 l -12.247,26.861 v -26.861 h -17.184 l -3.26,7.686 h -17.602 l -3.251,-7.679 h -9.208 z m -5.001,6.786 -21.582,-47.766 h 25.836 l 3.205,7.616 h 7.323 l 3.205,-7.616 h 28.44 v 5.813 l 2.534,-5.813 h 14.713 l 2.535,5.934 v -5.934 h 59.153 l 7.191,7.418 6.734,-7.418 30.382,-0.062 -21.654,23.809 21.654,24.019 h -29.91 l -7.002,-7.284 -6.522,7.284 h -64.35 L -40.362,1.552 -46.018,13.883 H -71.802 V 8.268 l -2.868,5.615 z" /></g></g></svg>