<?xml version="1.0" encoding="utf-8"?>
<!-- Generator: Adobe Illustrator 23.0.1, SVG Export Plug-In . SVG Version: 6.00 Build 0)  -->
<svg version="1.1" id="Layer_1" xmlns="http://www.w3.org/2000/svg" xmlns:xlink="http://www.w3.org/1999/xlink" x="0px" y="0px"
	 viewBox="0 0 512 512" style="enable-background:new 0 0 512 512;" xml:space="preserve">
<style type="text/css">
	.st0{fill:#A91F23;}
	.st1{fill:#EC2024;}
	.st2{fill:url(#SVGID_1_);}
</style>
<rect width="512" height="512"/>
<g>
	<g>
		<path class="st0" d="M283.4,104.3l-50.6,60.9l-70.7-33.7c-1.6,0-3.3-1.6-4.9,0c-1.6,0-1.6,1.6,0,4.9l16.3,77.8l-70.7,33.7
			c-1.6,0-3.3,1.6-3.3,3.3c0,1.6,1.6,3.3,3.3,3.3l70.7,35.4l-16.9,77.8v4.9h4.9l70.7-33.7l49,62.6c1.6,1.6,3.3,3.3,4.9,1.6
			c1.6,0,1.6-1.6,3.3-3.3l18.5-76.2h80c1.6,0,3.3,0,4.9-1.6c0-1.6,0-3.3-1.6-4.9l-49-62.6l51.1-62.6c1.6-1.6,1.6-3.3,1.6-4.9
			c0-1.6-1.6-1.6-4.9-1.6h-20.1c-1.6,0-3.3,0-3.3,1.6l-75.1,79.4h-1.6v-1.6c1.6-1.6,42.4-52.2,64.2-77.8v-1.6c0-1.6,0-1.6-1.6-1.6
			h-25.6c-1.6,0-4.9,1.6-4.9,3.3c-12,13.6-72.9,77.8-74.5,77.8h-1.1v-1.6l62.6-76.2c1.6-1.6,1.6-3.3,1.6-4.9
			c0,0-16.9-76.2-16.9-77.8c0-1.6-1.6-3.3-3.3-3.3C285,102.6,283.4,102.6,283.4,104.3z"/>
		<path class="st1" d="M150.1,259.3c-18.5,0-35.4-3.3-50.6-10.3c0,0,1.6,0,1.6-1.6l70.7-33.7L155,135.8v-4.9h4.9l70.7,33.7
			l50.6-60.9c1.6-1.6,3.3-1.6,3.3-1.6c0,6.5,1.6,12,1.6,18.5C288.3,197.3,225.7,259.3,150.1,259.3z M342.7,191.8
			c1.6-1.6,3.3-4.9,4.9-6.5h-23.4c-1.6,0-3.3,1.6-4.9,1.6c0,3.3,0,8.7,3.3,10.3C325.8,202.2,335.6,198.9,342.7,191.8z M366.1,183.7
			c-1.6,0-3.3,0-3.3,1.6l-1.6,1.6c0,3.3,1.6,4.9,3.3,6.5c4.9,4.9,15.2,1.6,20.1-4.9c1.6-1.6,1.6-3.3,3.3-4.9H366.1
			C366.1,185.3,366.1,183.7,366.1,183.7z"/>
		
			<radialGradient id="SVGID_1_" cx="2962.0183" cy="-27656.8242" r="2020.6522" gradientTransform="matrix(0.1218 0 0 -0.1218 -77.0402 -3009.6169)" gradientUnits="userSpaceOnUse">
			<stop  offset="0.49" style="stop-color:#DE1F26"/>
			<stop  offset="0.736" style="stop-color:#E84B4F"/>
			<stop  offset="1" style="stop-color:#F27778"/>
		</radialGradient>
		<path class="st2" d="M379.7,190.2h-13.6c-3.3,0-4.9,1.6-6.5,3.3c-25.6,27.2-67.5,70.7-69.1,70.7c-4.9,4.9-8.7,1.6-3.3-3.3
			c1.6-1.6,35.4-42.4,55.5-67.5c0-1.6,1.6-3.3,0-3.3h-20.1c-1.6,0-3.3,0-4.9,1.6c-25.6,27.2-69.1,72.9-70.7,72.9
			c-4.9,4.9-8.7,1.6-3.3-3.3c1.6-1.6,38.6-47.3,57.7-72.9c1.6-1.6,1.6-3.3,1.6-6.5l-16.3-68c0-1.6-1.6-3.3-3.3,0l-45.7,55.5
			c-1.6,1.6-4.9,3.3-6.5,1.6L167,139.1c-1.6,0-3.3,0-3.3,1.6l15.2,70.7c0,1.6,0,4.9-3.3,6.5l-64.7,31.5c-1.6,0-1.6,3.3,0,3.3
			l64.2,32.1c1.6,0,3.3,3.3,3.3,6.5L161.5,361c0,1.6,0,3.3,3.3,1.6l65.8-30.5c1.6,0,4.9,0,6.5,1.6l44.1,55.5c1.6,1.6,3.3,1.6,3.3,0
			l16.9-69.1c0-1.6,3.3-3.3,4.9-3.3h70.7c1.6,0,3.3-1.6,1.6-3.3L334.5,256c-1.6-1.6-1.6-4.9,0-6.5l45.7-55.5
			C382.9,191.8,381.3,190.2,379.7,190.2z"/>
	</g>
</g>
</svg>
