<svg width="256" height="256" viewBox="0 0 256 256" fill="none" xmlns="http://www.w3.org/2000/svg">
<rect width="256" height="256" fill="#003E75"/>
<g clip-path="url(#clip0)">
<path d="M60.2883 150.064C59.7492 150.112 59.2062 150.047 58.6931 149.875C58.1799 149.702 57.7076 149.425 57.3054 149.062C56.9032 148.698 56.5797 148.255 56.3552 147.76C56.1306 147.265 56.0097 146.729 56 146.185V41.6645C56.032 41.1372 56.1696 40.6218 56.4047 40.1493C56.6397 39.6768 56.9673 39.2568 57.3678 38.9147C57.7682 38.5725 58.2334 38.3152 58.7352 38.1582C59.2371 38.0012 59.7653 37.9477 60.2883 38.0009H195.926C196.947 37.9536 197.946 38.3109 198.708 38.996C199.47 39.6811 199.934 40.6393 200 41.6645V213.337C199.934 214.363 199.47 215.321 198.708 216.006C197.946 216.691 196.947 217.048 195.926 217.001V217.001C193.439 217.001 192.496 214.717 191.638 213.596C153.043 146.228 60.2883 150.064 60.2883 150.064Z" fill="#E61B2A"/>
<path d="M157.889 68.8175L148.884 106.402C148.87 106.442 148.866 106.485 148.872 106.527C148.879 106.57 148.895 106.61 148.921 106.644C148.946 106.678 148.98 106.705 149.018 106.723C149.057 106.741 149.099 106.749 149.141 106.747H168.138C168.181 106.749 168.223 106.741 168.262 106.723C168.3 106.705 168.334 106.678 168.359 106.644C168.385 106.61 168.401 106.57 168.408 106.527C168.414 106.485 168.41 106.442 168.396 106.402L159.39 68.8175C158.962 67.0934 158.275 67.0934 157.889 68.8175V68.8175ZM167.495 50.1546C168.185 50.1274 168.864 50.3335 169.424 50.7397C169.983 51.146 170.392 51.7291 170.583 52.3959L190.866 133.211C191.053 133.905 191.196 134.611 191.295 135.323C191.273 135.689 191.179 136.048 191.018 136.377C190.857 136.706 190.632 137 190.356 137.241C190.081 137.482 189.76 137.665 189.413 137.78C189.066 137.894 188.7 137.938 188.336 137.909H178.559C177.828 137.876 177.131 137.586 176.591 137.089C176.05 136.593 175.7 135.923 175.6 135.194L171.783 119.893C171.773 119.832 171.742 119.777 171.694 119.737C171.647 119.697 171.588 119.676 171.526 119.677H146.054C145.992 119.676 145.933 119.697 145.886 119.737C145.838 119.777 145.807 119.832 145.797 119.893L141.766 135.194C141.666 135.923 141.316 136.593 140.775 137.089C140.234 137.586 139.538 137.876 138.807 137.909H128.901C128.537 137.938 128.171 137.894 127.824 137.78C127.477 137.665 127.156 137.482 126.881 137.241C126.605 137 126.38 136.706 126.219 136.377C126.058 136.048 125.964 135.689 125.942 135.323C126.017 134.61 126.146 133.904 126.328 133.211L146.526 52.3959C146.71 51.7251 147.116 51.1375 147.678 50.7301C148.239 50.3226 148.922 50.1196 149.613 50.1546H167.495Z" fill="white"/>
<path d="M81.7292 70.9726C81.7292 76.9637 84.8168 79.5929 91.5494 83.472L106.644 92.394C116.85 98.4713 121.01 105.324 121.01 116.617C121.01 132.22 109.56 139.849 93.0502 139.849C76.5404 139.849 65.3052 132.09 65.3052 116.272V111.186C65.382 110.214 65.8325 109.311 66.5609 108.667C67.2894 108.023 68.2387 107.69 69.2075 107.738H77.441C77.9579 107.659 78.4856 107.69 78.9899 107.829C79.4941 107.968 79.9637 108.212 80.368 108.546C80.7724 108.879 81.1025 109.294 81.337 109.764C81.5715 110.233 81.7051 110.747 81.7292 111.272V116.358C81.7145 117.809 82.006 119.246 82.5845 120.575C83.163 121.904 84.0153 123.094 85.0851 124.068C86.155 125.041 87.4181 125.775 88.7911 126.222C90.1641 126.669 91.6157 126.818 93.0502 126.66C100.426 126.66 104.328 123.642 104.328 116.832C104.328 108.945 97.7673 105.54 93.0931 102.695L75.9829 92.4802C72.616 90.3626 69.8463 87.4116 67.9391 83.9099C66.032 80.4082 65.0512 76.473 65.0907 72.4811C65.0907 56.8784 76.1545 47.6116 93.0931 47.6116C109.088 47.6116 120.795 55.8009 120.795 71.7484V74.4638C120.719 75.4393 120.27 76.3472 119.542 76.9979C118.815 77.6485 117.866 77.9914 116.893 77.955H108.316C107.344 77.9914 106.394 77.6485 105.667 76.9979C104.94 76.3472 104.491 75.4393 104.414 74.4638V71.576C104.515 70.0554 104.292 68.5307 103.759 67.104C103.226 65.6774 102.395 64.3818 101.323 63.3042C100.251 62.2266 98.9618 61.3918 97.5424 60.856C96.123 60.3201 94.606 60.0955 93.0931 60.1972C85.6744 60.1972 81.5148 64.1626 81.5148 70.9726" fill="white"/>
</g>
<defs>
<clipPath id="clip0">
<rect width="144" height="179" fill="white" transform="translate(56 38)"/>
</clipPath>
</defs>
</svg>
