<svg xmlns="http://www.w3.org/2000/svg" xmlns:xlink="http://www.w3.org/1999/xlink" viewBox="0 0 204.22 204.22"><defs><style>.cls-1{fill:url(#linear-gradient);}.cls-2{fill:url(#linear-gradient-2);}.cls-3{fill:#fff;}</style><linearGradient id="linear-gradient" x1="102.11" y1="204.22" x2="102.11" gradientUnits="userSpaceOnUse"><stop offset="0" stop-color="#300f37"/><stop offset="1" stop-color="#7d4683"/></linearGradient><linearGradient id="linear-gradient-2" x1="33.53" y1="67.77" x2="170.69" y2="67.77" gradientUnits="userSpaceOnUse"><stop offset="0.39" stop-color="#fff"/><stop offset="0.46" stop-color="#fbf9fb"/><stop offset="0.56" stop-color="#efe9ef"/><stop offset="0.67" stop-color="#dbcedc"/><stop offset="0.79" stop-color="#bfa8c1"/><stop offset="0.92" stop-color="#9c789f"/><stop offset="1" stop-color="#815486"/></linearGradient></defs><title>Asset 1AU04501</title><g id="Layer_2" data-name="Layer 2"><g id="Layer_1-2" data-name="Layer 1"><circle class="cls-1" cx="102.11" cy="102.11" r="102.11"/><path class="cls-2" d="M102.55,33.51c-37.66,0-68.64,30.06-69,67L61.16,102a40.41,40.41,0,0,1,11.89-28.9,40.94,40.94,0,0,1,29.07-11.91h.07c22,0,39.51,16.48,40.76,37.92L156.88,85.2,170.69,99a68.14,68.14,0,0,0-67.42-65.5Z"/><path class="cls-3" d="M170.58,106.61c-2.42,36.25-32.14,64.09-69.35,64.09-.3,0-.65,0-1,0a66.2,66.2,0,0,1-47.44-21.11,69.92,69.92,0,0,1-19.28-49.06l13.76-3.36L61.16,102a41.15,41.15,0,0,0,41,41A40.26,40.26,0,0,0,131,131.12a41.12,41.12,0,0,0,11.67-24l14.22-14.22Z"/></g></g></svg>