<svg xmlns="http://www.w3.org/2000/svg" viewBox="0 0 62.9 62.9"><defs><style>.cls-1{fill:#d3133e;}.cls-2,.cls-3{fill:#fff;}.cls-3{fill-rule:evenodd;}</style></defs><title>AU05201</title><g id="Layer_2" data-name="Layer 2"><g id="Layer_1-2" data-name="Layer 1"><path class="cls-1" d="M58,14.65a31.38,31.38,0,0,0-53.1,0L31.44,30Z"/><path class="cls-2" d="M50.63,10.29a.18.18,0,0,0-.24,0c-.33.34-.55.59-.57.61a5.73,5.73,0,0,1-2.09,1.79h-.06a.13.13,0,0,1-.11-.06.13.13,0,0,1,0-.17,5.37,5.37,0,0,0,2-1.71L50,9.91a1.05,1.05,0,0,0,.06-.82S50,9,50,9s-.24.19-.37.35a5.49,5.49,0,0,1-.41.44C47.83,11,47,11.69,46,11.87l-.53.1-.38.08a6.17,6.17,0,0,0-1.92.76,22.78,22.78,0,0,1-3.78,1.43,4.68,4.68,0,0,0-1.15.48l-.28.14L34.3,17a1.12,1.12,0,0,1,.37.23h0a3.36,3.36,0,0,1,.52.68.95.95,0,0,1,1,1.41l-.12.19-.35.33-.3.23A2.44,2.44,0,0,0,36.47,20c.05,0,.08,0,.08-.07a.11.11,0,0,1,.07-.11.15.15,0,0,1,.13,0,.6.6,0,0,0,.88,0,.13.13,0,0,1,.1,0,.14.14,0,0,1,.09,0,1.08,1.08,0,0,0,.74.39h0a.53.53,0,0,0,.48-.25,4,4,0,0,1-.57-.77.12.12,0,0,1,.05-.16.11.11,0,0,1,.16,0,3.59,3.59,0,0,0,.57.77,1.88,1.88,0,0,0,.81.24c.42-.06.47-.14.47-.16s0,0,0-.06h0a7.73,7.73,0,0,1-.9-.93.12.12,0,1,1,.18-.15,8,8,0,0,0,1,1,.81.81,0,0,0,.47.07c.22,0,.29-.1.3-.14s0-.07,0-.13a6.79,6.79,0,0,1-.77-.95.12.12,0,1,1,.2-.13,8,8,0,0,0,.71.88,1.16,1.16,0,0,0,.91.08.54.54,0,0,0,.25-.26,3,3,0,0,1-.75-.64l-.2-.21a.12.12,0,1,1,.17-.17l.21.22a2.48,2.48,0,0,0,.93.71,1.06,1.06,0,0,0,.53,0c.1,0,.36-.11.4-.22s0,0,0,0a5.25,5.25,0,0,1-1.2-.94.12.12,0,0,1,.17-.17,5.32,5.32,0,0,0,1.18.92,1.59,1.59,0,0,0,.77-.08c.26-.12.36-.22.37-.28s0-.06-.06-.1a5.24,5.24,0,0,1-1.49-.93.12.12,0,0,1,0-.17.12.12,0,0,1,.17,0,5.65,5.65,0,0,0,1.46.9,1.15,1.15,0,0,0,.88-.09,1.18,1.18,0,0,0,.66-.71,7.52,7.52,0,0,1-2.38-.61.12.12,0,0,1-.06-.16.11.11,0,0,1,.16-.06,6.6,6.6,0,0,0,2.4.58h.18a1.43,1.43,0,0,0,.75-.3.87.87,0,0,0,.39-.56.26.26,0,0,0,0-.18,5.47,5.47,0,0,1-.76,0,18.68,18.68,0,0,1-2.3-.19.12.12,0,0,1-.1-.14.11.11,0,0,1,.13-.1,11.15,11.15,0,0,0,3.24.08h0a1.9,1.9,0,0,0,.9-.83.92.92,0,0,0,.07-.87.18.18,0,0,0-.12-.12,10,10,0,0,1-2.74.82h0a.13.13,0,0,1-.12-.11.12.12,0,0,1,.1-.13,10,10,0,0,0,2.92-.91,3.76,3.76,0,0,0,1.17-2,1.14,1.14,0,0,0-.23-1.2"/><path class="cls-2" d="M36.56,23.12c-.29-.29-2-1.56-3.19-2.46h0l.6-.35-.28-.37a.11.11,0,0,1,0,0l0,0L33,20h-.07l-.47-.2-.38.09a.12.12,0,0,1-.15-.09.12.12,0,0,1,.09-.14l.43-.1h.07l.48.21.6-.1h0a.64.64,0,0,1,0-.07,1,1,0,0,0,.16-.17,1,1,0,0,0,.29.12c.23,0,.38-.28.38-.28a.68.68,0,0,0,.2.24c.45.39.67.25.67.25l.28-.22a1.11,1.11,0,0,0-.44-.18c-.15,0-.22-.26-.24-.33s.22-.29.22-.29l.29.11a1.67,1.67,0,0,1,.46.28.72.72,0,0,0,0-.67c-.17-.36-.84-.27-.84-.27s0,0-.1-.13a2.45,2.45,0,0,0-.47-.62.79.79,0,0,0-.57-.25c-.31,0-.64-.3-.85-.4a1.55,1.55,0,0,0-.65-.07l-.4-.45-.42.33-.47-.39-.4.44-.63-.44-.33.53-.56-.38-.09.67-.45,0,0,0S25.2,15,25,14.86l-.29-.14a4.73,4.73,0,0,0-1.15-.49,22.15,22.15,0,0,1-3.78-1.42,6.54,6.54,0,0,0-1.91-.76L17.45,12l-.53-.1c-1-.18-1.85-.83-3.21-2a4.12,4.12,0,0,1-.41-.44C13.16,9.22,13,9,12.92,9s-.06,0-.07.06a1,1,0,0,0,.06.82c.1.25.33.8.36.89a5.55,5.55,0,0,0,2,1.71.12.12,0,0,1,.05.16.1.1,0,0,1-.1.07h-.06a5.7,5.7,0,0,1-2.1-1.79s-.23-.27-.57-.61a.17.17,0,0,0-.23,0A1.12,1.12,0,0,0,12,11.5a3.69,3.69,0,0,0,1.17,1.95,9.78,9.78,0,0,0,2.91.91.12.12,0,1,1,0,.24h0a10,10,0,0,1-2.75-.82s-.08.05-.12.12a.92.92,0,0,0,.07.87,2,2,0,0,0,.9.83h0a11.11,11.11,0,0,0,3.24-.08.12.12,0,0,1,.14.11.12.12,0,0,1-.1.13,19.15,19.15,0,0,1-2.31.19,5.7,5.7,0,0,1-.76,0,.32.32,0,0,0,0,.18.91.91,0,0,0,.39.56,1.45,1.45,0,0,0,.76.3h.16a0,0,0,0,1,0,0,6.9,6.9,0,0,0,2.41-.59.12.12,0,0,1,.1.22,7.24,7.24,0,0,1-2.38.61,1.3,1.3,0,0,0,1.53.8,5.72,5.72,0,0,0,1.47-.9.12.12,0,1,1,.16.17,5.8,5.8,0,0,1-1.49.94.1.1,0,0,0-.06.09c0,.06.11.17.36.28a1.64,1.64,0,0,0,.78.08,4.9,4.9,0,0,0,1.17-.92.12.12,0,0,1,.17,0,.12.12,0,0,1,0,.17,5.82,5.82,0,0,1-1.2.94s0,0,0,.06.31.18.41.21a1.19,1.19,0,0,0,.53,0,2.66,2.66,0,0,0,.93-.71l.21-.23a.12.12,0,0,1,.17,0,.14.14,0,0,1,0,.17l-.21.21a2.64,2.64,0,0,1-.75.64.57.57,0,0,0,.26.26,1.09,1.09,0,0,0,.9-.08,6.53,6.53,0,0,0,.72-.88.12.12,0,0,1,.16,0,.12.12,0,0,1,0,.17,6.48,6.48,0,0,1-.76.95.23.23,0,0,0,0,.13s.09.1.3.14a.86.86,0,0,0,.48-.07,7.61,7.61,0,0,0,1-1,.12.12,0,1,1,.19.15,8.71,8.71,0,0,1-.9.93h0a.17.17,0,0,0,0,.07s.06.09.48.15a1.79,1.79,0,0,0,.8-.24,4.37,4.37,0,0,0,.58-.77.11.11,0,0,1,.16,0,.12.12,0,0,1,.05.16,5.41,5.41,0,0,1-.57.77.5.5,0,0,0,.47.25h0a1.11,1.11,0,0,0,.75-.39.11.11,0,0,1,.09,0,.1.1,0,0,1,.09,0,.61.61,0,0,0,.89,0,.14.14,0,0,1,.13,0,.12.12,0,0,1,.07.11s0,.05.07.07a2.89,2.89,0,0,0,1.35,0s.21-.47.63-.44l-.11.3.68.06-.11.61a4.49,4.49,0,0,1,.72.11c-1.21.9-2.93,2.19-3.22,2.48-.08.08-.1.15,0,.24a1,1,0,0,0,.95.26,14.09,14.09,0,0,0,1.08-.95.12.12,0,0,1,.17.17,11.25,11.25,0,0,1-1,.9.32.32,0,0,0,.12.35,1.15,1.15,0,0,0,1,.16c.07-.1.34-.51.65-1a.14.14,0,0,1,.17,0,.13.13,0,0,1,0,.17c-.31.5-.58.91-.65,1a.36.36,0,0,0,.08.37,1,1,0,0,0,.86.25h0a8,8,0,0,0,.44-1.18.12.12,0,0,1,.15-.09.12.12,0,0,1,.08.15A7.83,7.83,0,0,1,30,25.21c0,.1.08.24.14.44s.11.39.15.48a.33.33,0,0,0,.14.24c.23.12.69,0,.93-.14V24.12c0-.14.24-.14.24,0v2.09c.23.11.73.28,1,.16a.24.24,0,0,0,.13-.21c.05-.12.1-.31.16-.51s.11-.37.15-.48a6.83,6.83,0,0,1-.55-1.3.13.13,0,0,1,.09-.15.12.12,0,0,1,.15.09A5.91,5.91,0,0,0,33.13,25h0a1,1,0,0,0,.86-.25.4.4,0,0,0,.08-.33h0s-.31-.46-.67-1a.12.12,0,0,1,0-.17.12.12,0,0,1,.16,0c.31.5.58.91.65,1a1.15,1.15,0,0,0,1-.15.33.33,0,0,0,.13-.33,11.2,11.2,0,0,1-1-.92.12.12,0,0,1,.17-.17,12.27,12.27,0,0,0,1.07.94,1,1,0,0,0,1-.25.18.18,0,0,0,0-.24m-4.1-5.3a2,2,0,0,1,.85,0,.08.08,0,0,1,0,0,.82.82,0,0,1,.31,0c.48.06.78.18.68.39a.43.43,0,0,1-.55.18,1.21,1.21,0,0,1-.47-.36l0,0h0a1.51,1.51,0,0,0-.71,0,.12.12,0,0,1-.15-.07.14.14,0,0,1,.07-.16"/><path class="cls-1" d="M3.61,16.93a31.38,31.38,0,0,0,26.56,46V32.26Z"/><path class="cls-3" d="M11.68,47.22c.38.67-.34,1.59-.87,2.13H23.25c-.53-.54-1.25-1.46-.87-2.13a4.69,4.69,0,0,1,2.41-1.54s.57-3.67-.58-4.11S20.9,43.9,20.9,43.9s.85,2,0,3a8.42,8.42,0,0,1-3.07,2.18V32.9h.76V30.65h0V30H15.52V32.9h.75V49.07a8.42,8.42,0,0,1-3.07-2.18c-.88-1,0-3,0-3S11,41.13,9.85,41.57s-.58,4.11-.58,4.11a4.69,4.69,0,0,1,2.41,1.54m11-3.79a.76.76,0,1,1,0,1.16.82.82,0,0,1,0-1.16m-6.39-12.6h1.44v1.31H16.32ZM10.17,43.26a.91.91,0,0,1,1.19,1.33.91.91,0,0,1-1.19-1.33"/><path class="cls-3" d="M9.86,49.84l.31.39h.94c.65,0,.93.22,1.53.77a1.46,1.46,0,0,1,.25,1.48h8.33A1.46,1.46,0,0,1,21.47,51c.6-.55.88-.77,1.54-.77h.93l.31-.39Zm6,2.19a.57.57,0,1,1,.56-.57.57.57,0,0,1-.56.57m2.33,0a.57.57,0,1,1,.57-.57.57.57,0,0,1-.57.57"/><path class="cls-1" d="M32.72,62.9a31.38,31.38,0,0,0,26.57-46L32.72,32.26Z"/><path class="cls-2" d="M53.33,45.62c-.11-.19-.93-1.23-1.24-1.23h0c-.14.07-.1.35-.07.59a1.43,1.43,0,0,0,0,.21l-1.78,1-4.35-7.26,4.31-7.56,0-1.36L49,30.67l-4,6.69-4-6.71L39.77,30v1.39l4.3,7.53-4.34,7.24v0l-1.78-1s0-.14,0-.22c0-.24.07-.52-.11-.61s-1.09,1.06-1.2,1.25a.26.26,0,0,0,0,.21c0,.11.15.18.26.24l.07,0,.84.47,1.16.64a1.15,1.15,0,0,0-.19.73.86.86,0,0,0-.37.78c-.14.12-.58.66-.48,1-.15.14-.46.45-.35.8a1,1,0,0,0-.52.88.44.44,0,0,0-.12.33.71.71,0,0,0,.35.65.54.54,0,0,0,.27.07c.44,0,.75-.53.76-.79.18-.16.65-.67.58-.93.35-.33.51-.63.46-.86A1.4,1.4,0,0,0,40,49.2a.52.52,0,0,0,0-.29,3,3,0,0,0,.65-.75l1.27.75.82.48.06,0c.18.1.39.17.51,0a4.81,4.81,0,0,0,.51-1.61.13.13,0,0,0,0-.07l-.08,0a1.07,1.07,0,0,0-.47.26,1.31,1.31,0,0,0-.17.13l-1.75-1,4.33-7.61-.09.16,4.09,7v0a.71.71,0,0,1,.21,0,.61.61,0,0,1,.62.61.62.62,0,0,1-.62.62.62.62,0,0,1-.62-.62.6.6,0,0,1,.23-.47h0l-4-6.87-.4.71,3.71,6.5h0l-1.74,1a1.06,1.06,0,0,1-.18-.12c-.2-.15-.43-.31-.55-.24l-.05.05v0a4.81,4.81,0,0,0,.51,1.61c.12.2.33.14.51,0l.06,0,.77-.45c.52-.31,1.14-.68,1.31-.81a2.82,2.82,0,0,0,.66.78.51.51,0,0,0,0,.29,1.45,1.45,0,0,0,.61.69c0,.23.11.53.44.81,0,.31.42.82.58.95,0,.29.34.82.78.82a.54.54,0,0,0,.27-.07.71.71,0,0,0,.35-.65.44.44,0,0,0-.12-.33,1,1,0,0,0-.52-.88c.11-.35-.2-.66-.35-.8.11-.39-.38-.93-.47-1a.83.83,0,0,0-.36-.78,1.31,1.31,0,0,0-.21-.78l1.17-.65L53,46.1l.05,0a.52.52,0,0,0,.28-.24.32.32,0,0,0,0-.21M40.25,31.06a.12.12,0,0,1,.21-.12L44.59,38l-.13.22Zm.52,16.06a.62.62,0,1,1-.62-.61.64.64,0,0,1,.24.05l9.17-15.65a.11.11,0,0,1,.16,0,.12.12,0,0,1,0,.16L40.59,46.69a.6.6,0,0,1,.18.43"/></g></g></svg>