<svg xmlns="http://www.w3.org/2000/svg" viewBox="0 0 54.98 50.37"><defs><style>.cls-1{fill:#78a12f;}.cls-2{fill:#002b54;}</style></defs><title>AU06401</title><g id="Layer_2" data-name="Layer 2"><g id="Layer_1-2" data-name="Layer 1"><path class="cls-1" d="M25.79,0C11.6,0,0,10.42,0,24.82A25.11,25.11,0,0,0,6.35,41.61l8.88-7.34a15.08,15.08,0,0,1-2.92-9.45c0-9.51,7.1-14,13.16-14A11.66,11.66,0,0,1,36,16.93L45.55,9A25.94,25.94,0,0,0,25.79,0"/><path class="cls-2" d="M55,22.05H30.66v9.82h6.58c-1.29,4.67-5.39,7.72-11.49,7.72a13,13,0,0,1-10.52-5.32L6.35,41.61a25.43,25.43,0,0,0,19.46,8.76,25.89,25.89,0,0,0,19.37-8.44v6.46H55Z"/></g></g></svg>