<svg width="256" height="256" viewBox="0 0 256 256" fill="none" xmlns="http://www.w3.org/2000/svg">
<rect width="256" height="256" fill="black"/>
<rect x="101.122" y="87.3885" width="67.4892" height="14.0072" rx="7.0036" fill="white"/>
<rect x="101.122" y="124.317" width="52.2086" height="14.0072" rx="7.0036" fill="white"/>
<rect x="101.122" y="161.245" width="21.6475" height="14.0072" rx="7.0036" fill="white"/>
<path fill-rule="evenodd" clip-rule="evenodd" d="M128.5 216C177.377 216 217 176.377 217 127.5C217 78.6228 177.377 39 128.5 39C79.6228 39 40 78.6228 40 127.5C40 176.377 79.6228 216 128.5 216ZM128.5 201.993C169.641 201.993 202.993 168.641 202.993 127.5C202.993 86.3588 169.641 53.0072 128.5 53.0072C87.3588 53.0072 54.0072 86.3588 54.0072 127.5C54.0072 168.641 87.3588 201.993 128.5 201.993Z" fill="white"/>
</svg>
