<svg xmlns="http://www.w3.org/2000/svg" viewBox="0 0 264.91 35.58"><defs><style>.cls-1{fill:#1e3054;}</style></defs><title>AU07301</title><g id="Layer_2" data-name="Layer 2"><g id="Layer_1-2" data-name="Layer 1"><g id="Homepage"><g id="Hume-Bank---Homepage---Desktop"><g id="Header"><g id="hume-logo"><path id="Fill-1" class="cls-1" d="M19.71,0V12.73H9.47V0H0V34.69H9.47V20.4H19.71V34.69h9.53V0Z"/><path id="Fill-2" class="cls-1" d="M49.72,34.7V30.27a11,11,0,0,1-1.37,2.66,7.53,7.53,0,0,1-5.93,2.5c-6.45,0-8.06-5.16-8.06-8.7V9.39h9v15c0,1.57.24,4,2.33,4,3,0,3.5-3.48,3.5-6.24V9.39h9V34.7Z"/><path id="Fill-4" class="cls-1" d="M92.64,34.7V20.34c0-2-.29-4.61-2.75-4.61-2.8,0-3.13,2.65-3.13,4.91V34.7h-9V20.15c0-2-.29-4.37-2.71-4.37-2.89,0-3.17,2.75-3.17,5.06V34.7H63V9.39h8.49v3.78a8.28,8.28,0,0,1,7.82-4.52,6.87,6.87,0,0,1,6.83,4.72,8.09,8.09,0,0,1,7.64-4.72c6.49,0,7.77,4.77,7.77,9.14V34.7Z"/><path id="Fill-6" class="cls-1" d="M122.18,19.26c-.29-2.31-1.14-4.17-3.7-4.17s-3.56,1.82-3.94,4.17ZM118.53,8.5c9.58,0,12.75,7.57,12.75,14.89v.84H114.5c.14,2.46,1.23,4.62,3.93,4.62a3.79,3.79,0,0,0,3.46-2.31l9.11.64c-2.47,5.7-6.31,8.4-12.33,8.4-8.25,0-13.28-5.16-13.28-13.61S110.51,8.5,118.53,8.5Z"/><path id="Fill-8" class="cls-1" d="M158.74,27.13h6.35c2.23,0,4.41-.49,4.41-3.29s-2.23-3.25-4.45-3.25h-6.31Zm0-13.57h6.4c1.85,0,3.51-.78,3.51-2.94s-1.33-2.9-3.13-2.9h-6.78ZM166.28,0c5.83,0,11.81,1.38,11.81,8.85,0,4.71-2.33,6.43-6.36,7.42A12.41,12.41,0,0,1,175,17.35c2.79,1.52,3.93,4.47,3.93,7.62,0,3.83-1.66,7.37-5.26,8.79a19.31,19.31,0,0,1-6.93.94H149.16V0Z"/><path id="Fill-10" class="cls-1" d="M196.91,23c-1.52.54-3,1.08-4.6,1.57-1.14.35-2.13.69-2.13,2.21A2.09,2.09,0,0,0,192.5,29a6.82,6.82,0,0,0,4.41-2.17Zm.81,11.7-.38-2.31a11.24,11.24,0,0,1-7.69,3c-6.78,0-8.39-5-8.39-8,0-6.14,4.93-7.32,7.87-8l4.13-.93c1.9-.44,3.41-.54,3.41-2.07,0-1.23-1.18-1.91-2.89-1.91-2,0-3.13,1.08-3.13,2.7H182.3a14.26,14.26,0,0,1,1-3.54c1.71-3.54,5-5.11,10.62-5.11,3.27,0,8.77.64,10.77,5.8a14.76,14.76,0,0,1,.71,5V28a17.79,17.79,0,0,0,1,6.69Z"/><path id="Fill-12" class="cls-1" d="M225.08,34.7V20.2c0-2-.15-4.52-2.66-4.52-2.84,0-3.37,4-3.37,6.19V34.7h-8.86V9.39h8.34v4.32c1.57-3.34,3.27-5.06,7.07-5.06,6,0,8.34,3.69,8.34,9.39V34.7Z"/><path id="Fill-14" class="cls-1" d="M254.85,34.7l-5-9.93-2,2.11V34.7h-9V0h9V16.36l6.07-7h10.81l-8.58,8.84,8.82,16.47Z"/></g></g></g></g></g></g></svg>