<svg xmlns="http://www.w3.org/2000/svg" viewBox="0 0 150.72 83.69"><defs><style>.cls-1{fill:#008977;}.cls-2{fill:#c4d82d;}.cls-3{fill:#f7941d;}</style></defs><title>AU07601</title><g id="Layer_2" data-name="Layer 2"><g id="Layer_1-2" data-name="Layer 1"><path class="cls-1" d="M22,81.54h6.46l-.09-26.93a12.78,12.78,0,0,1,1.08-5.17,14.71,14.71,0,0,1,3-4.39A15,15,0,0,1,36.76,42,12.07,12.07,0,0,1,42,40.78a13.18,13.18,0,0,1,9.47,3.91,14.25,14.25,0,0,1,3,4.4,16,16,0,0,1,1.3,5.52l.09,26.93H62.3l-.09-26.93a13.68,13.68,0,0,1,1.07-5.39,14,14,0,0,1,7.32-7.36,13.74,13.74,0,0,1,10.68,0,13.47,13.47,0,0,1,4.31,3,14.39,14.39,0,0,1,2.92,4.4,13.68,13.68,0,0,1,1.07,5.39l.09,26.93h6.47l-.09-26.93a20.3,20.3,0,0,0-5.88-14.32,20.9,20.9,0,0,0-6.42-4.36,19.33,19.33,0,0,0-7.81-1.61,20.29,20.29,0,0,0-10,2.56,19.88,19.88,0,0,0-7.31,6.77,21.8,21.8,0,0,0-7-6.77,18.67,18.67,0,0,0-17.33-.81,15.43,15.43,0,0,0-5.88,4.62v-4H21.9Z"/><path class="cls-2" d="M25.66,14.17A7.23,7.23,0,1,1,17,25.05a12.88,12.88,0,0,0,8.66-10.88"/><path class="cls-3" d="M0,12.86a12.86,12.86,0,0,1,25.72,0c0,.44,0,.88-.06,1.31A7.23,7.23,0,0,0,17,25.05a13.16,13.16,0,0,1-4.14.67A12.86,12.86,0,0,1,0,12.86"/><rect class="cls-3" x="9.16" y="36.65" width="6.28" height="44.88"/><path class="cls-1" d="M101.34,59a24.15,24.15,0,0,0,1.93,9.61,24.88,24.88,0,0,0,13.15,13.15,24.89,24.89,0,0,0,19.22,0,24.88,24.88,0,0,0,13.15-13.15,24.87,24.87,0,0,0,0-19.21,24.88,24.88,0,0,0-13.15-13.15A24.05,24.05,0,0,0,126,34.32a23,23,0,0,0-10.5,2.74,19.17,19.17,0,0,0-7.9,6.77V9.68h-6.28Zm7.72-7.13A18.38,18.38,0,0,1,118.89,42a18.42,18.42,0,0,1,14.28,0A18.47,18.47,0,0,1,143,51.87a18.52,18.52,0,0,1,0,14.27A18.47,18.47,0,0,1,133.17,76a18.42,18.42,0,0,1-14.28,0,18.38,18.38,0,0,1-9.83-9.83,18.52,18.52,0,0,1,0-14.27"/></g></g></svg>