<svg xmlns="http://www.w3.org/2000/svg" viewBox="0 0 79.22 79.22"><title>AU08901</title><g id="Layer_2" data-name="Layer 2"><g id="Layer_1-2" data-name="Layer 1"><path d="M55.12,43c-3.31,0-4.78-2.59-4.74-5.18H65.25c-.08-2.35-.24-6.42-3-9.33a10.11,10.11,0,0,0-7.5-3c-4.84,0-7.69,2.25-9.21,5.13a5.88,5.88,0,0,0-.47-2c-.64-1.28-2.39-3-5.82-3a8.73,8.73,0,0,0-6.18,2.43,6.81,6.81,0,0,0-5.78-2.43,7.11,7.11,0,0,0-5.9,2.71V26.18H15.39V46.94h6.05V35.11c0-1.44,0-3.11,1.4-4a3.17,3.17,0,0,1,1.67-.48,3,3,0,0,1,2.39,1.08,5.38,5.38,0,0,1,.6,3V46.94h6.06V35.62c0-2.27,0-3.46,1.16-4.38a3.25,3.25,0,0,1,2-.64,2.69,2.69,0,0,1,2.67,1.88A15.69,15.69,0,0,1,39.62,36V46.94h6.06V43.1c1.79,3,5,4.6,9,4.6a11.43,11.43,0,0,0,7.86-3A16.55,16.55,0,0,0,65,41.64l-4.63-2.35C59.63,40.77,58.47,43,55.12,43M51.66,31.2a4.19,4.19,0,0,1,3.1-1.36,4.3,4.3,0,0,1,3,1.16,4.94,4.94,0,0,1,1.16,3H50.42a5.43,5.43,0,0,1,1.24-2.75m-12,32.54A17.63,17.63,0,0,1,27,58.52a3.14,3.14,0,1,1,4.44-4.44,11.49,11.49,0,0,0,16.28,0,3.14,3.14,0,1,1,4.44,4.44,17.65,17.65,0,0,1-12.58,5.22m0,15.48A39.61,39.61,0,1,1,79.22,39.61,39.66,39.66,0,0,1,39.61,79.22M39.61,9a30.6,30.6,0,1,0,30.6,30.6A30.63,30.63,0,0,0,39.61,9"/></g></g></svg>