<svg width="256" height="256" viewBox="0 0 256 256" fill="none" xmlns="http://www.w3.org/2000/svg">
<path d="M256 0H0V256H256V0Z" fill="#C4D600"/>
<g clip-path="url(#clip0_1404_293)">
<path d="M198.034 45H45V174.7L71.1948 148.992H198.034C205.196 148.992 211.006 143.209 211.006 136.08V57.9123C211 50.8003 205.202 45 198.034 45Z" fill="#DA291C"/>
<path d="M71.1944 79.866V89.6945L64.7878 90.6447V63.3803H73.2734C78.7724 63.3803 83.7443 65.1466 83.7443 71.1743C83.7443 77.4759 77.8998 79.866 72.7873 79.866H71.1944ZM71.1944 66.3241V76.9221H72.8986C76.2015 76.9221 77.1092 74.7419 77.1092 71.6581C77.1092 68.1255 75.4402 66.3241 72.3774 66.3241H71.1944ZM76.2776 128.449C67.8974 128.449 61.9299 122.59 61.9299 114.167C61.9299 104.402 68.7993 98.9925 76.0727 98.9925C81.5541 98.9925 87.1526 101.639 87.3986 107.457L79.5513 108.39C79.7972 104.606 77.8354 102.572 75.0947 102.572C71.8269 102.572 69.2502 105.749 69.2502 110.71C69.2502 117.828 73.3378 122.345 80.0022 122.345C82.9069 122.345 85.6827 121.29 87.4454 119.658C87.1526 125.033 81.9582 128.449 76.2776 128.449ZM91.211 99.4763L98.0803 98.6602V110.826C99.0641 108.751 101.067 106.798 104.663 106.798C108.053 106.798 110.794 108.955 110.794 113.916V127.953H103.925V116.119C103.925 113.03 102.619 111.438 99.8371 111.438C99.1813 111.438 98.6542 111.52 98.0803 111.724V127.959H91.211V99.4763ZM114.279 117.909C114.279 111.846 118.858 106.804 125.722 106.804C131.853 106.804 136.802 110.465 136.802 117.262C136.802 123.325 132.222 128.373 125.353 128.373C119.227 128.367 114.279 124.706 114.279 117.909ZM129.364 118.521C129.364 113.146 127.894 110.098 125.317 110.098C123.274 110.098 121.763 112.173 121.763 116.65C121.763 122.019 123.192 125.074 125.768 125.074C127.812 125.074 129.364 122.998 129.364 118.521ZM140.403 107.614L147.272 106.839V127.959H140.403V107.614ZM140.409 98.6894H147.272V103.137H140.409V98.6894ZM163.6 115.024V114.05C163.6 111.322 162.411 110.022 160.818 110.022C158.815 110.022 157.345 111.975 157.345 115.152C157.345 120.439 160.818 122.963 164.823 122.963C167.072 122.963 168.542 122.351 169.977 121.296C169.649 125.732 166.053 128.379 161.392 128.379C155.137 128.379 151.05 124.228 151.05 117.758C151.05 111.409 155.547 106.81 161.515 106.81C166.463 106.81 169.936 109.497 170.1 114.254L163.6 115.024ZM179.493 118.212C180.758 121.914 184.237 123.016 186.726 123.016C189.015 123.016 191.018 122.363 192.201 121.308C191.791 125.622 188.647 128.391 183.206 128.391C177.608 128.391 172.782 124.322 172.782 117.932C172.782 111.135 177.485 106.821 183.083 106.821C184.225 106.821 185.379 106.944 186.48 107.259C187.382 107.515 188.248 107.9 189.015 108.436C189.689 108.903 190.28 109.48 190.755 110.138C191.2 110.756 191.539 111.444 191.762 112.167C192.166 113.444 192.236 114.843 192.113 116.166C192.108 116.224 192.072 116.778 192.037 116.778L179.493 118.212ZM179.001 114.959L185.496 114.219C185.537 111.159 184.184 110.039 182.474 110.039C180.471 110.034 179.001 112.027 179.001 114.959ZM171.98 67.6008H173.977V68.1021C174.006 69.5012 173.865 70.1133 172.009 71.011C175.605 71.629 177.063 69.0232 177.063 67.1811V62.6807H171.98V67.6008V67.6008ZM176.167 83.2063C176.7 86.7273 180.155 87.9573 183.809 87.9573C189.121 87.9573 192.207 85.2175 192.207 81.8072C192.207 78.8983 190.187 77.4992 186.925 76.5782L184.846 75.9894C182.966 75.4881 182.234 74.6778 182.234 73.7509C182.234 72.7424 183.048 72.1012 184.061 72.1012C185.437 72.1012 186.222 72.8823 186.222 74.6195V74.9576L191.674 74.3163C191.335 71.0169 188.078 69.6469 184.653 69.6469C179.821 69.6469 177.04 72.2177 177.04 75.4065C177.04 78.0647 178.896 79.627 181.842 80.5539L184.003 81.2534C185.771 81.7839 186.532 82.5417 186.532 83.661C186.532 84.6112 185.689 85.4506 184.313 85.4506C182.656 85.4506 181.76 84.1915 181.76 82.8215V82.4834L176.167 83.2063ZM90.4379 79.3064C91.5155 82.4543 94.4729 83.387 96.5928 83.387C98.5371 83.387 100.241 82.8332 101.248 81.9355C100.903 85.6022 98.2267 87.9573 93.6003 87.9573C88.8392 87.9573 84.734 84.4946 84.734 79.0615C84.734 73.2845 88.7338 69.612 93.4949 69.612C94.467 69.612 95.445 69.7169 96.382 69.9851C97.1492 70.2007 97.8812 70.533 98.5371 70.9819C99.111 71.3783 99.6146 71.868 100.019 72.4334C100.393 72.9581 100.686 73.541 100.88 74.159C101.219 75.2432 101.284 76.4324 101.178 77.5634C101.172 77.61 101.143 78.0822 101.114 78.088C101.114 78.088 90.4379 79.3064 90.4379 79.3064ZM90.0163 76.5374L95.5387 75.9078C95.5738 73.3079 94.426 72.3518 92.9678 72.3518C91.2695 72.3518 90.0163 74.0482 90.0163 76.5374ZM103.462 79.0615C103.462 73.9083 107.357 69.612 113.195 69.612C118.407 69.612 122.618 72.7249 122.618 78.5077C122.618 83.661 118.723 87.9573 112.885 87.9573C107.667 87.9573 103.462 84.8444 103.462 79.0615ZM116.287 79.5862C116.287 75.0159 115.034 72.4218 112.844 72.4218C111.104 72.4218 109.822 74.1881 109.822 77.9947C109.822 82.565 111.04 85.1592 113.23 85.1592C114.97 85.1533 116.287 83.3928 116.287 79.5862ZM160.648 79.3064C161.726 82.4543 164.683 83.387 166.803 83.387C168.747 83.387 170.451 82.8332 171.459 81.9355C171.113 85.6022 168.437 87.9573 163.81 87.9573C159.049 87.9573 154.944 84.4946 154.944 79.0615C154.944 73.2845 158.944 69.612 163.705 69.612C164.677 69.612 165.655 69.7169 166.592 69.9851C167.359 70.2007 168.091 70.533 168.747 70.9819C169.321 71.3783 169.825 71.868 170.229 72.4334C170.604 72.9581 170.896 73.541 171.09 74.159C171.429 75.2432 171.494 76.4324 171.388 77.5634C171.382 77.61 171.353 78.0822 171.324 78.088L160.648 79.3064ZM160.232 76.5374L165.755 75.9078C165.79 73.3079 164.642 72.3518 163.184 72.3518C161.485 72.3518 160.232 74.0482 160.232 76.5374ZM146.189 63.3977L152.028 62.704V87.6192H146.189V63.3977ZM136.55 69.6178C133.838 69.6178 132.099 71.1743 131.373 73.0105V69.6528L125.534 70.3115V96.0661L131.373 95.1975V87.5726C132.38 87.8524 133.282 87.9515 134.119 87.9515C139.817 87.9515 143.261 83.865 143.261 78.2629C143.261 72.8706 140.022 69.6178 136.55 69.6178ZM133.786 84.8036C132.772 84.8036 132.017 84.4305 131.367 83.8592V73.8733C131.818 73.6751 132.24 73.5585 132.802 73.5585C135.496 73.5585 137.071 76.1701 137.071 80.1575C137.071 83.2238 135.724 84.8036 133.786 84.8036Z" fill="white"/>
<path d="M202.11 197.604C202.52 195.989 203.58 195.138 204.945 195.138C206.52 195.138 207.422 196.164 207.727 197.604H202.11ZM211 198.811C211 195.756 209.068 192.421 204.939 192.421C200.658 192.421 198.702 195.837 198.702 199.096C198.702 202.355 200.664 205.771 204.939 205.771C207.931 205.771 209.788 204.436 210.842 201.999L208.265 201.049C207.469 202.407 206.561 203.049 205.121 203.049C203.446 203.049 202.31 202.046 202.028 200.122H211V198.811ZM191.821 205.561H195.019V195.348H197.753V192.625H195.019V191.728C195.019 190.649 195.51 190.113 196.488 190.113C196.951 190.113 197.466 190.241 198.035 190.474L198.731 187.909C198.087 187.577 197.285 187.396 196.307 187.396C193.525 187.396 191.821 188.912 191.821 191.967V192.631H190.17V195.354H191.821V205.561ZM184.858 188.906C184.858 190.06 185.76 190.958 186.919 190.958C188.079 190.958 188.981 190.06 188.981 188.906C188.981 187.752 188.079 186.854 186.919 186.854C185.76 186.848 184.858 187.746 184.858 188.906ZM185.321 205.561H188.518V192.625H185.321V205.561ZM178.902 205.561H182.1V187.391H178.902V205.561ZM163.178 205.561H166.376V200.967C166.376 197.038 167.822 195.272 169.854 195.272C170.346 195.272 170.809 195.4 171.196 195.633L171.787 192.684C171.219 192.503 170.704 192.427 170.212 192.427C168.689 192.427 167.301 193.273 166.37 194.736V192.631H163.173V205.561H163.178ZM157.322 199.09C157.322 200.192 157.041 201.142 156.444 201.912C155.852 202.658 155.079 203.043 154.072 203.043C153.065 203.043 152.292 202.658 151.7 201.912C151.109 201.142 150.822 200.192 150.822 199.09C150.822 197.989 151.103 197.038 151.7 196.292C152.292 195.523 153.065 195.138 154.072 195.138C155.079 195.138 155.852 195.523 156.444 196.292C157.041 197.038 157.322 197.989 157.322 199.09ZM147.472 199.09C147.472 202.891 149.973 205.765 154.072 205.765C158.171 205.765 160.672 202.891 160.672 199.09C160.672 195.29 158.171 192.416 154.072 192.416C149.973 192.421 147.472 195.295 147.472 199.09ZM140.591 205.561H143.788V195.348H146.523V192.625H143.788V191.728C143.788 190.649 144.28 190.113 145.258 190.113C145.721 190.113 146.236 190.241 146.804 190.474L147.501 187.909C146.857 187.577 146.055 187.396 145.077 187.396C142.295 187.396 140.591 188.912 140.591 191.967V192.631H138.94V195.354H140.591V205.561ZM129.347 206.739C129.347 207.84 128.287 208.33 126.642 208.33C124.89 208.33 123.731 207.689 123.731 206.482C123.731 205.992 123.836 205.584 124.012 205.299C124.422 205.375 124.914 205.404 125.505 205.404H127.256C128.603 205.409 129.347 205.742 129.347 206.739ZM128.393 196.782C128.393 197.808 127.643 198.525 126.612 198.525C125.582 198.525 124.832 197.808 124.832 196.782C124.832 195.727 125.582 194.986 126.612 194.986C127.649 194.986 128.393 195.733 128.393 196.782ZM120.762 206.739C120.762 208.097 121.306 209.152 122.384 209.898C123.491 210.644 124.908 211 126.636 211C129.704 211 132.539 209.589 132.539 206.535C132.539 204.098 130.758 202.734 127.977 202.734H125.324C124.527 202.734 124.112 202.401 124.112 201.784C124.112 201.375 124.317 201.037 124.732 200.81C125.324 200.991 125.968 201.09 126.612 201.09C129.265 201.09 131.379 199.446 131.379 196.776C131.379 196.007 131.198 195.313 130.864 194.724L132.72 193.803L131.455 191.699L129.007 192.981C128.258 192.596 127.461 192.416 126.612 192.416C123.959 192.416 121.845 194.135 121.845 196.776C121.845 197.831 122.156 198.7 122.747 199.446C121.74 200.035 121.148 200.962 121.148 202.168C121.148 202.961 121.383 203.631 121.816 204.168C121.125 204.815 120.762 205.689 120.762 206.739ZM107.667 205.561H110.865V200.402C110.865 197.091 112.259 195.138 113.828 195.138C114.964 195.138 115.685 195.808 115.685 197.266V205.555H118.882V196.316C118.882 193.774 117.283 192.416 114.888 192.416C113.266 192.416 111.872 193.29 110.865 194.701V192.62H107.667V205.561ZM100.886 188.906C100.886 190.06 101.788 190.958 102.947 190.958C104.107 190.958 105.009 190.06 105.009 188.906C105.009 187.752 104.107 186.854 102.947 186.854C101.788 186.848 100.886 187.746 100.886 188.906ZM101.349 205.561H104.546V192.625H101.349V205.561ZM88.0725 205.561H91.27V199.452L95.8613 205.561H99.7791L94.2333 198.577L99.4394 192.625H95.4923L91.2642 197.709V187.391H88.0667V205.561H88.0725ZM73.6311 205.561H76.8286V200.402C76.8286 197.091 78.2224 195.138 79.7919 195.138C80.928 195.138 81.6483 195.808 81.6483 197.266V205.555H84.8458V196.316C84.8458 193.774 83.247 192.416 80.8518 192.416C79.2297 192.416 77.8359 193.29 76.8286 194.701V192.62H73.6311V205.561V205.561ZM67.57 200.379C67.57 201.993 66.2055 203.049 64.6594 203.049C63.8103 203.049 63.2129 202.536 63.2129 201.789C63.2129 200.658 64.0094 200.122 65.4324 200.122H67.57V200.379ZM59.8632 201.842C59.8632 204.331 61.5146 205.771 63.8103 205.771C65.4617 205.771 66.8028 205.153 67.8042 203.923L68.138 205.567H70.7674V197.843C70.7674 194.275 68.7822 192.427 65.3036 192.427C62.7269 192.427 60.765 193.867 60.3551 196.018L63.0607 196.636C63.4472 195.633 64.1968 195.15 65.3036 195.15C66.6212 195.15 67.57 195.791 67.57 197.05V197.615H65.3036C61.9773 197.604 59.8632 199.271 59.8632 201.842ZM48.5958 202.483V197.656H51.6645C53.7025 197.656 54.575 198.502 54.575 200.07C54.575 201.638 53.6966 202.483 51.6645 202.483H48.5958ZM48.5958 194.578V190.678H51.5884C53.0583 190.678 53.7786 191.215 53.7786 192.631C53.7786 194.042 53.0817 194.584 51.6645 194.584H48.5958V194.578ZM45.2461 205.561H51.9749C55.6877 205.561 57.9306 203.608 57.9306 200.145C57.9306 197.965 57.0288 196.502 55.2251 195.756C56.3612 195.167 57.0054 193.908 57.0054 192.445C57.0054 189.262 55.0201 187.595 51.846 187.595H45.2461V205.561Z" fill="#DA291C"/>
</g>
<defs>
<clipPath id="clip0_1404_293">
<rect width="166" height="166" fill="white" transform="translate(45 45)"/>
</clipPath>
</defs>
</svg>
