<svg xmlns="http://www.w3.org/2000/svg" viewBox="0 0 72.68 72.32"><defs><style>.cls-1{fill:#b0bd1f;}.cls-2{fill:#f68026;}.cls-3{fill:#241a06;}</style></defs><title>AU09701</title><g id="Layer_2" data-name="Layer 2"><g id="Layer_1-2" data-name="Layer 1"><path class="cls-1" d="M6.45,20.27a2.34,2.34,0,0,0-3.3,1.06A36.45,36.45,0,0,0,3.17,51a2.33,2.33,0,0,0,3.29,1.06L25.12,41.29l5.16-5.13L25.12,31Z"/><path class="cls-2" d="M6.91,57.49A36.35,36.35,0,0,0,32.62,72.31,2.34,2.34,0,0,0,35.19,70V48.48l-2.11-7.26-6.79,2.09L7.63,54.1A2.34,2.34,0,0,0,6.91,57.49Z"/><path class="cls-3" d="M40.87,44.15l4.6,1.32L63.89,56.1A34,34,0,0,1,39.86,70V48.65l1-4.5m-1.73-2.93-1.61,7.17V70a2.33,2.33,0,0,0,2.33,2.34l.25,0A36.28,36.28,0,0,0,65.78,57.47a2.34,2.34,0,0,0-.73-3.39L46.39,43.31l-7.25-2.09Z"/><path class="cls-1" d="M66.22,20.25,47.56,31,42.4,36.16l5.16,5.13L66.22,52.07A2.34,2.34,0,0,0,69.52,51a36.43,36.43,0,0,0,0-29.68A2.34,2.34,0,0,0,66.22,20.25Z"/><path class="cls-2" d="M37.53,23.93l1.61,6.93L46.39,29,65.05,18.24a2.33,2.33,0,0,0,.72-3.39A36.29,36.29,0,0,0,40.09,0a2.34,2.34,0,0,0-2.58,2.33Z"/><path class="cls-3" d="M26.29,29l7,1.85,1.88-7V2.33A2.34,2.34,0,0,0,32.6,0,36.33,36.33,0,0,0,6.89,14.86a2.34,2.34,0,0,0,.73,3.39Z"/></g></g></svg>