<svg width="256" height="256" viewBox="0 0 256 256" fill="none" xmlns="http://www.w3.org/2000/svg">
<rect width="256" height="256" fill="white"/>
<path d="M30.1502 144.481C28.2684 131.116 28.6448 117.563 31.6557 104.386C33.6316 95.8214 36.4544 87.4448 40.4062 79.3505C58.4718 42.0792 95.8262 23.1612 136.474 30.5966C160.843 35.1143 182.108 45.844 200.644 62.1266C225.578 84.2447 231.788 111.822 223.603 143.258C217.487 166.693 204.972 186.458 187.848 203.023C171.758 218.647 151.246 224.859 129.229 226.647C116.056 227.683 102.977 226.459 90.1807 222.694C58.9423 213.659 41.159 192.011 33.3494 161.423C31.8439 155.964 30.9971 150.222 30.1502 144.481Z" fill="#E42313"/>
<path d="M115.842 114.07C113.467 112.017 111.362 109.673 109.579 107.092C108.789 106.148 108.279 105.003 108.105 103.786C107.546 101.307 107.96 98.7081 109.262 96.5229C110.563 94.3377 112.654 92.7315 115.105 92.0338C116.503 91.7103 117.955 91.7026 119.355 92.0112C120.756 92.3199 122.07 92.9369 123.2 93.8173C124.331 94.6977 125.249 95.819 125.888 97.0991C126.528 98.3792 126.871 99.7857 126.895 101.215C126.895 106.357 123.947 109.663 115.842 114.07V114.07ZM115.474 164.753C113.745 164.891 112.007 164.654 110.379 164.057C108.752 163.46 107.274 162.518 106.047 161.295C104.821 160.073 103.876 158.599 103.277 156.977C102.678 155.354 102.44 153.622 102.579 151.898C102.605 149.542 103.226 147.23 104.385 145.176C105.545 143.122 107.204 141.392 109.211 140.146L126.895 159.978C123.82 162.937 119.746 164.64 115.474 164.753ZM158.211 160.346C162.141 156.48 164.724 151.46 165.579 146.022C167.421 135.004 160.789 130.597 153.053 129.495L150.474 129.128C149.954 135.091 147.345 140.682 143.105 144.92L142.737 144.553C142.737 144.553 134.263 135.371 128.368 128.761C133.712 126.59 138.285 122.879 141.501 118.103C144.717 113.326 146.43 107.702 146.421 101.95C146.454 97.0434 145.27 92.2048 142.973 87.8652C140.675 83.5256 137.337 79.8198 133.255 77.0779C129.173 74.3361 124.474 72.6433 119.577 72.1505C114.68 71.6576 109.736 72.3799 105.187 74.2531C100.638 76.1263 96.6239 79.0922 93.503 82.8865C90.3821 86.6808 88.2512 91.1858 87.3 96C86.3489 100.814 86.607 105.788 88.0515 110.479C89.496 115.17 92.0819 119.431 95.5789 122.884C90.5601 125.997 86.4097 130.321 83.5118 135.457C80.614 140.592 79.0622 146.374 79 152.266C79 174.669 93.7369 184.953 113.263 184.953C123.366 185.45 133.269 182.027 140.895 175.404C142.644 177.099 144.489 178.693 146.421 180.178C151.016 183.494 156.595 185.176 162.263 184.953C173.684 184.953 177 177.974 177 169.895V167.324C173.535 167.775 170.011 167.375 166.737 166.159C163.462 164.943 160.535 162.947 158.211 160.346" fill="white"/>
</svg>
