<svg xmlns="http://www.w3.org/2000/svg" viewBox="0 0 102.7 102.65"><defs><style>.cls-1{fill:#243c7a;}.cls-2{fill:#43c6d0;}.cls-3{fill:#eb1b5e;}</style></defs><title>AU10701</title><g id="Layer_2" data-name="Layer 2"><g id="Layer_1-2" data-name="Layer 1"><path id="navy" class="cls-1" d="M77.7,50.2A27.5,27.5,0,1,1,50.2,22.7,27.48,27.48,0,0,1,77.7,50.2m22.8,0a50.25,50.25,0,1,0-50.3,50.2,50.23,50.23,0,0,0,50.3-50.2"/><rect id="blue" class="cls-2" x="63.1" y="46.65" width="23.2" height="56" transform="translate(-30.9 74.68) rotate(-45)"/><g id="pink"><polygon class="cls-3" points="88.1 100.9 101 88 88.9 88.8 88.1 100.9"/><polygon class="cls-3" points="83.3 83.2 82.3 98.6 76.6 92.9 77.7 77.6 93 76.5 98.7 82.2 83.3 83.2"/><polygon class="cls-3" points="72 71.9 71 87.3 65.4 81.7 66.4 66.3 81.8 65.3 87.4 70.9 72 71.9"/><polygon class="cls-3" points="60.8 60.7 59.7 76 54.1 70.4 55.1 55 70.5 54 76.1 59.6 60.8 60.7"/></g></g></g></svg>