<svg xmlns="http://www.w3.org/2000/svg" xmlns:xlink="http://www.w3.org/1999/xlink" viewBox="0 0 261.04 66.28"><defs><style>.cls-1{fill:none;}.cls-2{fill:#002e6d;}.cls-3{clip-path:url(#clip-path);}.cls-4{fill:url(#linear-gradient);}.cls-5{clip-path:url(#clip-path-2);}.cls-6{fill:url(#linear-gradient-2);}</style><clipPath id="clip-path"><path class="cls-1" d="M196.1,37.22c5.29,0,8.92,2.34,11.87,5.87l11,13.15c3.92,4.56,9.9,9.58,19.11,5.78-5.18,1-10.41-1.31-14.24-5.78l-11-13.15c-3-3.53-6.58-5.87-11.88-5.87Z"/></clipPath><linearGradient id="linear-gradient" x1="-176.4" y1="485.04" x2="-174.5" y2="485.04" gradientTransform="matrix(0, 13.72, 13.72, 0, -6438.11, 2457.63)" gradientUnits="userSpaceOnUse"><stop offset="0" stop-color="#f7941d"/><stop offset="0.1" stop-color="#f9a515"/><stop offset="0.26" stop-color="#fcba0c"/><stop offset="0.44" stop-color="#fec905"/><stop offset="0.66" stop-color="#ffd101"/><stop offset="1" stop-color="#ffd400"/></linearGradient><clipPath id="clip-path-2"><path class="cls-1" d="M246.54,37.22c-5.3,0-8.92,2.34-11.88,5.87l-9.82,11.7c4.38,5.15,12.87,8.28,16.86,3.52l11.81-14.08a34.4,34.4,0,0,1,7.53-7Z"/></clipPath><linearGradient id="linear-gradient-2" x1="-119.34" y1="452.65" x2="-117.43" y2="452.65" gradientTransform="matrix(0, -12.3, -12.3, 0, 5810.77, -1407.28)" xlink:href="#linear-gradient"/></defs><title>AU10501</title><g id="Layer_2" data-name="Layer 2"><g id="Layer_1-2" data-name="Layer 1"><path class="cls-2" d="M112.56,36.22c0-9.24,2.74-17.93,9.06-24.59A35.7,35.7,0,0,1,148.32,0c10,0,17.45,4.06,21.26,7.87l-3.81,4.74c-2,2.49-3.49,3.47-5.35,3.71a9.13,9.13,0,0,1-5.52-.9,18,18,0,0,0-7.21-1.58c-10.88,0-18.91,8.29-18.91,21.11,0,12.17,7.05,15.62,13.25,15.62a23.93,23.93,0,0,0,9.63-2.22,11,11,0,0,1,4.74-1.13,5.61,5.61,0,0,1,5.06,3.25L165,55.88c-2.75,2.33-9.75,8.64-24.16,8.64a26.93,26.93,0,0,1-12.38-2.35c-8-3.83-15.87-12.34-15.87-25.95"/><path class="cls-2" d="M102.17.85H83.46L54.57,55.75l-5.34-10c-2.94-5.63-4.36-8-6.83-8.94,9.06-2.48,13.51-7.59,15-15.87s-3-13.7-9-17.23C44.12,1.12,36.5.93,28,.92H9.37L0,63.65H16.26L20,38.9h1.28a12.73,12.73,0,0,1,11.82,7s6.49,12.13,6.49,12.16c2.65,5.15,4.68,5.55,10.19,5.55h9.32c4.08,0,8,0,10.46-5.22l4.27-8.15H96.48s1.8,8.12,1.77,8.1c1,5.24,5.11,5.31,9.39,5.28h8.06ZM41.43,20.18C41,23,38.91,27.6,28,27.6H21.66L24,12.43s6.9,0,6.89,0c11,0,11,4.88,10.56,7.76M79.78,38.91,89.89,19.7,94,38.91Z"/><g class="cls-3"><rect class="cls-4" x="196.1" y="37.22" width="42.02" height="28.61"/></g><g class="cls-5"><rect class="cls-6" x="224.84" y="37.22" width="36.19" height="25.85"/></g><path class="cls-2" d="M238.12,62c-9.21,3.8-15.19-1.22-19.11-5.78L208,43.09c-3-3.53-6.59-5.87-11.88-5.87h-9.63a34.43,34.43,0,0,1,7.52,7l4.22,5a19,19,0,0,1-6.67,1.25c-8.37-.06-13.42-5.65-13.51-15.72,0-12.2,8.07-20.8,18.7-20.81,7.83,0,13.55,6.14,13.59,15.12A28.82,28.82,0,0,1,209,37.59,19.23,19.23,0,0,1,214.12,42l6.3,7.5a37.4,37.4,0,0,0,6.27-21.09c0-9.42-3.85-17.74-10.79-22.91C210.92,1.74,204.74,0,197.55,0a36,36,0,0,0-26.69,11.61c-6.05,6.5-9.07,15-9.07,24.59,0,11.82,6.39,21.7,16.57,26.3,3.53,1.59,7.93,2,11.69,2,10,0,14.61-2.46,17.73-3.92,4,4.06,9.21,5.7,16,5.7,5.9,0,10.62-1.24,14.37-4.26"/></g></g></svg>