<svg xmlns="http://www.w3.org/2000/svg" viewBox="0 0 146.6 115.88"><defs><style>.cls-1{fill:#96c93d;}.cls-2{fill:#1c5a7c;}.cls-3{fill:#003f52;}.cls-4{fill:#72be45;}</style></defs><title>AU11201</title><g id="Layer_2" data-name="Layer 2"><g id="Layer_1-2" data-name="Layer 1"><path class="cls-1" d="M15.46,109a37.8,37.8,0,0,0,15,5.64l31.13-56.5L29.82,0H10.67C7.22,0,4.85,0,2.91,1.3S0,4.63,0,8.3V68.49C0,88,5.16,102.13,15.46,109"/><path class="cls-2" d="M131.14,6.87C120.83,0,108.23,0,89.9,0H47.11L91.37,58.14,47.14,115.83c3,0,6.18,0,9.56,0h85.75a5.26,5.26,0,0,0,3-.51,2.91,2.91,0,0,0,1.13-2.72V40.8c0-19.47-5.16-27.06-15.46-33.93"/><path class="cls-3" d="M114,57.94c11.65,0,32.63-1.15,32.63-3V40.8c0-19.47-5.16-27.06-15.46-33.93S108.23,0,89.9,0H47.11l44.1,57.94Z"/><path class="cls-4" d="M29.82,0H4.15a5.35,5.35,0,0,0-3,.5A2.93,2.93,0,0,0,0,3.23v51.9c0,1.86,11.63,3,39.31,3H61.63Z"/></g></g></svg>