<svg xmlns="http://www.w3.org/2000/svg" xmlns:xlink="http://www.w3.org/1999/xlink" viewBox="0 0 134.41 67.27"><defs><style>.cls-1{fill:none;}.cls-2{clip-path:url(#clip-path);}.cls-3{fill:url(#linear-gradient);}.cls-4{clip-path:url(#clip-path-2);}.cls-5{fill:url(#linear-gradient-2);}.cls-6{clip-path:url(#clip-path-3);}.cls-7{fill:url(#linear-gradient-3);}.cls-8{fill:#00a78e;}</style><clipPath id="clip-path" transform="translate(0 0)"><path class="cls-1" d="M15.34,27.49V40.8A29.94,29.94,0,0,1,29.79,20.3c.42-.25.85-.47,1.28-.69l0,0,.64-.34a62,62,0,0,0-16.39,8.24"/></clipPath><linearGradient id="linear-gradient" x1="-185.07" y1="438.54" x2="-183.78" y2="438.54" gradientTransform="matrix(-12.79, 0, 0, 12.79, -2334.41, -5577.06)" gradientUnits="userSpaceOnUse"><stop offset="0" stop-color="#00a78f"/><stop offset="1" stop-color="#c5da5d"/></linearGradient><clipPath id="clip-path-2" transform="translate(0 0)"><path class="cls-1" d="M0,18.67v25A53.1,53.1,0,0,1,15.34,27.49V15.67C20.71,5,31.87,0,31.87,0S11.59,5.58,0,18.67"/></clipPath><linearGradient id="linear-gradient-2" x1="-179.77" y1="452.32" x2="-178.48" y2="452.32" gradientTransform="matrix(-24.66, 0, 0, 24.66, -4400.97, -11131.59)" gradientUnits="userSpaceOnUse"><stop offset="0" stop-color="#ffdc44"/><stop offset="0.34" stop-color="#e6db4f"/><stop offset="0.75" stop-color="#ceda59"/><stop offset="1" stop-color="#c5da5d"/></linearGradient><clipPath id="clip-path-3" transform="translate(0 0)"><path class="cls-1" d="M15.34,15.67V27.49a62,62,0,0,1,16.39-8.24l.14-.08V0S20.71,5,15.34,15.67"/></clipPath><linearGradient id="linear-gradient-3" x1="-185.07" y1="438.25" x2="-183.78" y2="438.25" gradientTransform="matrix(-12.79, 0, 0, 12.79, -2334.47, -5589.81)" gradientUnits="userSpaceOnUse"><stop offset="0" stop-color="#ffdc44"/><stop offset="0.2" stop-color="#fdc743"/><stop offset="0.44" stop-color="#fbb543"/><stop offset="0.69" stop-color="#f9ab42"/><stop offset="1" stop-color="#f9a842"/></linearGradient></defs><title>AU11901</title><g id="Layer_2" data-name="Layer 2"><g id="Layer_1-2" data-name="Layer 1"><g class="cls-2"><rect class="cls-3" x="15.34" y="19.25" width="16.39" height="21.55"/></g><g class="cls-4"><rect class="cls-5" width="31.87" height="43.67"/></g><g class="cls-6"><rect class="cls-7" x="15.34" width="16.53" height="27.49"/></g><path class="cls-8" d="M44.3,52h8.41v3.78A10.61,10.61,0,0,1,49.93,57a14.56,14.56,0,0,1-4,.53,10.6,10.6,0,0,1-4.18-.81,9.84,9.84,0,0,1-3.29-2.27A10.26,10.26,0,0,1,36.33,51a12.26,12.26,0,0,1-.77-4.41v-.11a11.63,11.63,0,0,1,.76-4.19,10.83,10.83,0,0,1,2.11-3.4,10.51,10.51,0,0,1,3.14-2.31,8.67,8.67,0,0,1,3.78-.84,14.05,14.05,0,0,1,2.77.25,13.25,13.25,0,0,1,2.31.69,12.54,12.54,0,0,1,2.07,1.11,19.32,19.32,0,0,1,2.06,1.54l.85.72,6.66-8-.83-.71A26,26,0,0,0,58.07,29a19.51,19.51,0,0,0-3.56-1.72,23.05,23.05,0,0,0-4.07-1,28.61,28.61,0,0,0-4.82-.37,21.46,21.46,0,0,0-8.37,1.63A20.49,20.49,0,0,0,24.63,46.54v.11a21.76,21.76,0,0,0,1.54,8.23,19.58,19.58,0,0,0,4.34,6.54,20,20,0,0,0,6.65,4.31,22.94,22.94,0,0,0,8.52,1.54,24.12,24.12,0,0,0,9.68-1.86A29.16,29.16,0,0,0,62.6,61l.39-.33V42.57H44.3Z" transform="translate(0 0)"/><path class="cls-8" d="M85.89,62.76l-.72.54a17.12,17.12,0,0,1-3.47,2,12.33,12.33,0,0,1-4.85.93,12.88,12.88,0,0,1-4-.61,9.53,9.53,0,0,1-3.22-1.75,8.07,8.07,0,0,1-2.14-2.77,8.2,8.2,0,0,1-.78-3.61V57.4a8.15,8.15,0,0,1,1.51-4.95,10.22,10.22,0,0,1,3.5-2.93l1-.53-.59-.94A10.88,10.88,0,0,1,71,45.82a9.38,9.38,0,0,1-.49-3V42.7a7.76,7.76,0,0,1,.6-3,7.42,7.42,0,0,1,1.77-2.54,8.51,8.51,0,0,1,2.88-1.75,10.81,10.81,0,0,1,3.92-.65,10,10,0,0,1,3.52.58A8.21,8.21,0,0,1,85.86,37a7.24,7.24,0,0,1,1.72,2.42,7.33,7.33,0,0,1,.6,3v.09a7.91,7.91,0,0,1-.45,2.74,6.73,6.73,0,0,1-1.29,2.18,9.53,9.53,0,0,1-2,1.69,15.42,15.42,0,0,1-1.46.8l-1.32.63L86,54.83l.69-1.15q.45-.75.9-1.56c.48-.85,1-1.72,1.43-2.62l4.71,2.59c-.57,1-1.18,2.1-1.82,3.16-.54.89-1.11,1.76-1.7,2.59l-.52.72,4.49,4.49-4.72,3.3ZM75.48,53.32a5,5,0,0,0-1.61,1.53,4.22,4.22,0,0,0-.69,2.28v.09A3.37,3.37,0,0,0,74.45,60a4.81,4.81,0,0,0,3.19,1A6.12,6.12,0,0,0,80,60.5a8.9,8.9,0,0,0,1.3-.67l1.1-.69-6.17-6.27Zm4-13.58a3,3,0,0,0-2.28.9A3.32,3.32,0,0,0,76.39,43v.09A4.31,4.31,0,0,0,76.83,45a7.43,7.43,0,0,0,1,1.48l.49.61.73-.3a8.64,8.64,0,0,0,2.48-1.48,3.22,3.22,0,0,0,1.08-2.5v-.09a2.9,2.9,0,0,0-.86-2.2,3.06,3.06,0,0,0-2.19-.81" transform="translate(0 0)"/><path class="cls-8" d="M127.62,52.5l-.78.71a22.38,22.38,0,0,1-4.26,3.07,10.42,10.42,0,0,1-5,1.09,9.3,9.3,0,0,1-7.11-3.16,10.71,10.71,0,0,1-2-3.45,12,12,0,0,1-.74-4.22v-.11a11.74,11.74,0,0,1,.74-4.18,10.81,10.81,0,0,1,2.07-3.43,9.4,9.4,0,0,1,3.13-2.28,9.61,9.61,0,0,1,4-.82,10.49,10.49,0,0,1,4.69,1,19.3,19.3,0,0,1,4.28,3l.83.75,6.72-7.75L133.4,32a25.4,25.4,0,0,0-3-2.5,19.39,19.39,0,0,0-3.52-2,22.16,22.16,0,0,0-4.17-1.26,26.44,26.44,0,0,0-5.1-.45,21.54,21.54,0,0,0-8.45,1.63,19.89,19.89,0,0,0-6.59,4.48,20.71,20.71,0,0,0-4.3,6.58,21.07,21.07,0,0,0-1.54,8v.11a21.26,21.26,0,0,0,1.54,8.06,19.73,19.73,0,0,0,10.84,10.95,20.73,20.73,0,0,0,8.18,1.61,25.21,25.21,0,0,0,5.21-.49,18.44,18.44,0,0,0,4.34-1.44,19.19,19.19,0,0,0,3.66-2.27,28.58,28.58,0,0,0,3.15-2.93l.72-.77Z" transform="translate(0 0)"/></g></g></svg>