<svg xmlns="http://www.w3.org/2000/svg" xmlns:xlink="http://www.w3.org/1999/xlink" viewBox="0 0 132.47 70.2"><defs><style>.cls-1{fill:none;}.cls-2{fill:url(#linear-gradient);}.cls-3{clip-path:url(#clip-path);}.cls-4{fill:url(#linear-gradient-2);}.cls-5{clip-path:url(#clip-path-2);}.cls-6{fill:url(#linear-gradient-3);}.cls-7{fill:#7bc043;}.cls-8{fill:#0082c2;}</style><linearGradient id="linear-gradient" x1="79.39" y1="21.79" x2="118.68" y2="21.79" gradientUnits="userSpaceOnUse"><stop offset="0" stop-color="#0078ba"/><stop offset="0.27" stop-color="#0076b7"/><stop offset="0.48" stop-color="#006fad"/><stop offset="0.67" stop-color="#00639d"/><stop offset="0.84" stop-color="#005286"/><stop offset="1" stop-color="#003c69"/></linearGradient><clipPath id="clip-path"><path class="cls-1" d="M110,21.76A24,24,0,0,1,104.92,30a19.93,19.93,0,0,1-2.24,2,13.19,13.19,0,0,1,3,1.54A11.08,11.08,0,0,1,109,37.31a9.83,9.83,0,0,1,.58,1.29h0a22.85,22.85,0,0,0,8-10c2.74-7.5.57-16.95-10.17-21.91,3.68,3.6,4.17,9.56,2.61,15"/></clipPath><linearGradient id="linear-gradient-2" x1="-247.24" y1="388.18" x2="-246.24" y2="388.18" gradientTransform="matrix(-42.68, 0, 0, 42.68, -10423.91, -16545.31)" gradientUnits="userSpaceOnUse"><stop offset="0" stop-color="#6dcef5"/><stop offset="0.43" stop-color="#00adee"/><stop offset="0.78" stop-color="#0087c6"/><stop offset="1" stop-color="#0072a9"/></linearGradient><clipPath id="clip-path-2"><path class="cls-1" d="M39.57,43l3,8.59h-6ZM9.06,39.85h6.42a4.44,4.44,0,0,1,2.93.82,3.4,3.4,0,0,1,.91,2.66,3.59,3.59,0,0,1-.91,2.76,4.38,4.38,0,0,1-2.93.83H9.06Zm83.07-6.1a11.2,11.2,0,0,0-3.63,1.69,9.09,9.09,0,0,0-2.63,2.89,8,8,0,0,0-1,4.11,7.31,7.31,0,0,0,2.9,6.1,11.46,11.46,0,0,0,2.88,1.59,29.48,29.48,0,0,0,3.19,1c1.05.3,2.1.57,3.13.81a20.15,20.15,0,0,1,2.67.83,5.3,5.3,0,0,1,1.79,1.1,2,2,0,0,1,.59,1.52,2.28,2.28,0,0,1-.45,1.47,3.45,3.45,0,0,1-1.23,1,6.22,6.22,0,0,1-1.67.5,9.93,9.93,0,0,1-4-.15,5.54,5.54,0,0,1-1.87-.85,4.05,4.05,0,0,1-1.23-1.45,3.41,3.41,0,0,1-.42-1.31,1.38,1.38,0,0,0-1.36-1.42H85.32a1.39,1.39,0,0,0-1.18.64V35.23a1.42,1.42,0,0,0-1.42-1.34H75.35a1.41,1.41,0,0,0-1.35,1l-5.73,17.8L62.21,34.86a1.42,1.42,0,0,0-1.34-1H53.49a1.43,1.43,0,0,0-1.42,1.42V57.47L43.59,34.81a1.41,1.41,0,0,0-1.32-.92H37a1.41,1.41,0,0,0-1.27.81L26.48,59.14c0-.39-.05-.77-.07-1.15,0-.62-.05-1.16-.08-1.63A19.14,19.14,0,0,0,26,54.12,7.88,7.88,0,0,0,25.26,52a5.88,5.88,0,0,0-1.37-1.72,4.79,4.79,0,0,0-1-.68A6.92,6.92,0,0,0,25.56,47a9.27,9.27,0,0,0,1.13-4.66,8.7,8.7,0,0,0-.62-3.28,7.83,7.83,0,0,0-1.81-2.7,8.85,8.85,0,0,0-2.83-1.83,9.9,9.9,0,0,0-3.69-.66H3.1a1.41,1.41,0,0,0-1.41,1.34V62.32h0a1.42,1.42,0,0,0,1.42,1.42H7.65a1.42,1.42,0,0,0,1.41-1.38V52.48h5.82a4.25,4.25,0,0,1,3.06.9,5.23,5.23,0,0,1,1.22,3c.16,1.14.28,2.35.36,3.6A12.92,12.92,0,0,0,20,62.74a1.42,1.42,0,0,0,1.36,1h9.9a1.41,1.41,0,0,0,1.34-1l1.92-5.46h10l1.86,5.44a1.41,1.41,0,0,0,1.32,1h9.91A1.42,1.42,0,0,0,59,62.32h0V45.83l5.93,17a1.44,1.44,0,0,0,1.33.92h3.6a1.42,1.42,0,0,0,1.35-1l5.91-17.1V62.32a1.43,1.43,0,0,0,1.42,1.42h4.14a1.43,1.43,0,0,0,1.42-1.42v-6a8.9,8.9,0,0,0,.77,2.23,9.45,9.45,0,0,0,2.87,3.36,12.15,12.15,0,0,0,4.13,1.92,18.82,18.82,0,0,0,4.76.61,18.3,18.3,0,0,0,5.33-.71,11.56,11.56,0,0,0,3.93-2,8.62,8.62,0,0,0,2.43-3.12,9.33,9.33,0,0,0,.81-3.88,7.64,7.64,0,0,0-1.12-4.27,9.11,9.11,0,0,0-2.59-2.62,11.24,11.24,0,0,0-3-1.42c-1-.28-1.73-.48-2.26-.59-1.8-.46-3.26-.83-4.37-1.13a14.47,14.47,0,0,1-2.54-.86,2.46,2.46,0,0,1-1-.76,2.16,2.16,0,0,1-.24-1.1,2.23,2.23,0,0,1,.32-1.25,3,3,0,0,1,.87-.86,3.72,3.72,0,0,1,1.22-.49,8.62,8.62,0,0,1,3.48,0A4.88,4.88,0,0,1,99.5,40a1.09,1.09,0,0,1,.17.13,7.12,7.12,0,0,1,1.72,1.82,1.23,1.23,0,0,0,1.68.48,20.42,20.42,0,0,0,3.72-1.77,1.46,1.46,0,0,0,.57-1.79c0-.11-.11-.23-.17-.34l-.22-.38-.2-.31-.07-.11-.15-.22-.21-.27v0a8.79,8.79,0,0,0-1.43-1.43l0,0c-.12-.1-.26-.2-.39-.29a11.21,11.21,0,0,0-3.87-1.71,17.73,17.73,0,0,0-4.28-.53,15.87,15.87,0,0,0-4.19.55"/></clipPath><linearGradient id="linear-gradient-3" x1="-262.45" y1="384.03" x2="-261.45" y2="384.03" gradientTransform="matrix(0, 16.08, 16.08, 0, -6121.37, 4260.08)" gradientUnits="userSpaceOnUse"><stop offset="0" stop-color="#00b5f0"/><stop offset="0.14" stop-color="#00adee"/><stop offset="0.32" stop-color="#00a0df"/><stop offset="0.64" stop-color="#007db9"/><stop offset="1" stop-color="#005281"/></linearGradient></defs><title>AU11301</title><g id="Layer_2" data-name="Layer 2"><g id="Layer_1-2" data-name="Layer 1"><path class="cls-2" d="M80.34,14.84C77.39,21.53,81.62,28,89,29.9c5.43,1.43,11.58-.53,13.78-4.66l-.8-.8a1.3,1.3,0,0,1,0-1.84L103.59,21l0,0c-.43-2.69-2.78-4.47-5.19-5.13-3.83-1-7.35.24-9.07,2.6-.23.32.24.52.24.52s1.66.77,1.91.9.49-.11.62-.22a4.55,4.55,0,0,1,4.21-.94c2.36.71,3.26,2.61,2.31,4.56-1.27,2.59-5,3.22-7.64,2.54-4.38-1.11-5.91-4.88-4.44-8.46,1.73-4.16,8.33-6.53,14.07-4.84,6.55,2.06,9.61,7.54,7,13.58A13.92,13.92,0,0,1,104.85,30l-.37.37a.94.94,0,0,0-.1.1l-.51.47h0c-.17.16-.36.32-.55.48l0,0-.6.47.35.14,0,0c.38.15.75.32,1.11.5l0,0,.25.13.12.06.26.16.1,0,.69.45A11.08,11.08,0,0,1,109,37.31c0,.1.1.21.16.31l0,.06a2.1,2.1,0,0,1,.13.26v0c.1.2.18.41.26.62a23,23,0,0,0,8-10h0v0c2.58-7.11.76-15.95-8.58-21.07-.34-.19-.68-.37-1-.54l-.57-.27,0,0A16.57,16.57,0,0,0,105,5.87a28.84,28.84,0,0,0-6-.85c-.49,0-1,0-1.46,0C89.4,5,82.93,8.81,80.34,14.84"/><g class="cls-3"><rect class="cls-4" x="93.34" y="7.96" width="36.35" height="29.39" transform="translate(44.22 114.42) rotate(-65.23)"/></g><g class="cls-5"><rect class="cls-6" x="0.92" y="30.32" width="109.01" height="36.96" transform="translate(-2.56 3.07) rotate(-3.1)"/></g><path class="cls-7" d="M65,62.82a1.44,1.44,0,0,0,1.33.92h3.6a1.4,1.4,0,0,0,1.34-1l4-11.56q-3.41.67-6.9,1.23l-.08.26-.08-.24q-3.24.51-6.52.93Z"/><path class="cls-7" d="M19.16,56.39c.16,1.14.28,2.35.36,3.6A13,13,0,0,0,20,62.74a1.42,1.42,0,0,0,1.36,1h9.9a1.41,1.41,0,0,0,1.34-1l1.92-5.46h10l1.86,5.44a1.41,1.41,0,0,0,1.32,1h9.91A1.42,1.42,0,0,0,59,62.32h0V53.7c-2.32.27-4.65.51-7,.72v3L51,54.52c-7.85.67-15.69,1-23.19,1.23l-1.28,3.39c0-.39-.06-.77-.08-1.15,0-.62-.05-1.16-.08-1.63,0-.19,0-.38,0-.57l-7.2.12c0,.15.06.31.08.48"/><path class="cls-7" d="M3.11,63.74H7.65a1.42,1.42,0,0,0,1.41-1.38V56H1.69v6.36h0a1.42,1.42,0,0,0,1.42,1.42"/><path class="cls-7" d="M77.16,50.8V62.32a1.43,1.43,0,0,0,1.42,1.42h4.13a1.42,1.42,0,0,0,1.42-1.42v-6a9.33,9.33,0,0,0,.78,2.23,9.54,9.54,0,0,0,2.87,3.36,12.15,12.15,0,0,0,4.13,1.92,18.8,18.8,0,0,0,4.75.61,18.32,18.32,0,0,0,5.34-.71,11.56,11.56,0,0,0,3.93-2,8.62,8.62,0,0,0,2.43-3.12,9.33,9.33,0,0,0,.81-3.88,7.61,7.61,0,0,0-1.12-4.27,9.11,9.11,0,0,0-2.59-2.62,11.24,11.24,0,0,0-3-1.42c-1-.28-1.73-.49-2.26-.59l-3-.76c-2.78,1-6,2.15-9.83,3.25l.34.28a11.46,11.46,0,0,0,2.88,1.59,30.19,30.19,0,0,0,3.19,1c1.05.3,2.1.57,3.13.81a18.77,18.77,0,0,1,2.67.83,5.3,5.3,0,0,1,1.79,1.1,2,2,0,0,1,.59,1.52,2.28,2.28,0,0,1-.45,1.47,3.56,3.56,0,0,1-1.23,1,6.22,6.22,0,0,1-1.67.5,9.93,9.93,0,0,1-4-.15,5.63,5.63,0,0,1-1.87-.85,4.14,4.14,0,0,1-1.23-1.45,3.41,3.41,0,0,1-.42-1.31,1.38,1.38,0,0,0-1.36-1.42H85.32a1.43,1.43,0,0,0-1.19.64V49.16c-2.27.6-4.6,1.14-7,1.64"/><rect class="cls-8" x="102.91" y="21.92" width="3.2" height="3.2" rx="0.49" ry="0.49" transform="translate(13.98 80.79) rotate(-45)"/></g></g></svg>