<svg xmlns="http://www.w3.org/2000/svg" viewBox="0 0 42.53 51.6"><defs><style>.cls-1{fill:#6db61e;}.cls-2{fill:#fff;}.cls-3{fill:#003f2d;}</style></defs><title>Asset 1AU12301</title><g id="Layer_2" data-name="Layer 2"><g id="Layer_2-2" data-name="Layer 2"><path class="cls-1" d="M13.64,51.35c.31-.06-3-2.54-3.3-8.82S8.44,32.89,5.39,30.1c3.5-.46,7.89-1.4,6.38-4.37A25.52,25.52,0,0,0,7.56,20.1s6.08,2.74,8.15-.52,1.18-6.2-.85-8.9c4.17,2.46,9,4.09,9.91,1.68a53.09,53.09,0,0,1,3.61-7.82c0,4.5-.56,7.52,1.5,8.27s4.31,2.14,3.77,5.38-.71,7.48.88,8.07c.91.34,3.57.06,5.52.68a3.83,3.83,0,0,1,2.43,2.19c0,.94-2.62,6.15-2.62,6.15a7.11,7.11,0,0,1-4.49,2.88c-3.37.85-4.89-3.83-7-4.29s-4.86.29-6,2.12-.11,7.47,1.89,8.9,8.28,6.71,8.28,6.71Z"/><circle class="cls-2" cx="27.16" cy="20.88" r="1.89"/><circle class="cls-2" cx="38.11" cy="30.57" r="0.71"/><path class="cls-3" d="M38.77,37.09l1.5-1.88s-7.18-2.25-9.8-6C31,33,35.93,36.08,38.77,37.09Z"/><path class="cls-3" d="M37.28,38.4s-1.5,2.61-4,1.74S29.88,37.2,29.05,36s-4.63-2.52-5.83.67,1.2,6.6,3.37,8.85,6,6.09,6,6.09-7.55-2.9-10.39-8-.82-8.64.67-9.94a5.85,5.85,0,0,1,7.62,1C32.57,37.31,33.84,39,37.28,38.4Z"/><path class="cls-3" d="M27.36,5a10.84,10.84,0,0,0-.6,4.53,6.65,6.65,0,0,0,.55,2.09,4.64,4.64,0,0,0,1.3,1.62,8.28,8.28,0,0,0,1.91,1.12l.54.24.28.13.3.15a3.22,3.22,0,0,1,1.19,1,4.21,4.21,0,0,1,.65,1.33,6.92,6.92,0,0,1,.2,1.32A16.86,16.86,0,0,1,33.6,21a10.3,10.3,0,0,0-.05,2.21c0,.18.05.35.07.53a3.89,3.89,0,0,0,.12.49,2.9,2.9,0,0,0,.4.85,1.92,1.92,0,0,0,.67.56,1.63,1.63,0,0,0,.44.15,2.1,2.1,0,0,0,.24.06l.26,0a4.8,4.8,0,0,0,.58,0l.61,0c.41,0,.82,0,1.24.08a11.41,11.41,0,0,1,1.27.18,4.26,4.26,0,0,1,1.26.46,3.26,3.26,0,0,1,1,.88,4.77,4.77,0,0,1,.62,1.13,3,3,0,0,1-.22,2.48,3.3,3.3,0,0,1-1.87,1.54A3.32,3.32,0,0,0,41.81,31a2.62,2.62,0,0,0,0-2.11,4.26,4.26,0,0,0-.61-.91,2.62,2.62,0,0,0-.84-.61,5.78,5.78,0,0,0-2.2-.34l-1.2,0-.61,0c-.2,0-.38,0-.63,0h-.36L35,27a3.58,3.58,0,0,1-.71-.2,3.25,3.25,0,0,1-1.23-.9,4,4,0,0,1-.7-1.24,5.31,5.31,0,0,1-.19-.65c0-.22-.1-.44-.12-.65a12.41,12.41,0,0,1,0-2.51,17.13,17.13,0,0,0,.06-2.25,3.62,3.62,0,0,0-.54-1.82,1.74,1.74,0,0,0-.63-.54l-.25-.12L30.37,16l-.55-.28a9.86,9.86,0,0,1-2.18-1.43,5.69,5.69,0,0,1-1.5-2.2A6.73,6.73,0,0,1,25.7,9.6,7.52,7.52,0,0,1,27.36,5Z"/><path class="cls-3" d="M28.38,0a46.78,46.78,0,0,0-3.06,5.07c-.2.43-.39.86-.55,1.29s-.27.86-.39,1.33c-.22.92-.38,1.85-.54,2.84a11.8,11.8,0,0,1-.34,1.53,4.84,4.84,0,0,1-.81,1.6,3.92,3.92,0,0,1-1.5,1.13,3.84,3.84,0,0,1-1.8.32,4.15,4.15,0,0,1-1.67-.47,6.44,6.44,0,0,1-1.34-.91,9.56,9.56,0,0,1-1.94-2.38,13.31,13.31,0,0,0,2.42,1.76,5.77,5.77,0,0,0,1.29.51,2.89,2.89,0,0,0,1.22.1,2.2,2.2,0,0,0,1-.39,2.28,2.28,0,0,0,.73-.72,7.53,7.53,0,0,0,.82-2.39,23.21,23.21,0,0,1,.8-3,10.37,10.37,0,0,1,.63-1.46,13.67,13.67,0,0,1,.82-1.34A23.08,23.08,0,0,1,28.38,0Z"/><path class="cls-3" d="M10.32,9.79A20.72,20.72,0,0,1,12,11.47a19.29,19.29,0,0,1,1.45,1.89,14.11,14.11,0,0,1,2,4.39,8,8,0,0,1,.24,2.53,3.84,3.84,0,0,1-.39,1.41,2.87,2.87,0,0,1-.5.66,2.42,2.42,0,0,1-.72.47,2.75,2.75,0,0,1-1.53.16,4.31,4.31,0,0,1-1.27-.42A5.17,5.17,0,0,1,9.43,21a8.55,8.55,0,0,0,2.18.75,2.51,2.51,0,0,0,1.8-.19,1,1,0,0,0,.36-.51,2.53,2.53,0,0,0,.12-.82,9.09,9.09,0,0,0-.09-1c-.06-.34-.12-.68-.21-1A28.42,28.42,0,0,0,12.13,14c-.3-.69-.61-1.38-.92-2.08l-.46-1.07A9.66,9.66,0,0,1,10.32,9.79Z"/><path class="cls-3" d="M3.35,20.69a11.19,11.19,0,0,1,2.6.62,12.2,12.2,0,0,1,2.43,1.2,8.76,8.76,0,0,1,2.1,1.85A5.83,5.83,0,0,1,11.7,27a6.34,6.34,0,0,1,.07.75,4.65,4.65,0,0,1,0,.75,3.94,3.94,0,0,1-.46,1.5,3.23,3.23,0,0,1-1.16,1.25,3.79,3.79,0,0,1-1.54.51,6.51,6.51,0,0,1-2.82-.36,9.94,9.94,0,0,1-1.25-.52,6.92,6.92,0,0,1-1.14-.69,21.41,21.41,0,0,0,2.57.31,7.12,7.12,0,0,0,2.35-.18,2.23,2.23,0,0,0,.86-.42,1.64,1.64,0,0,0,.49-.67,2.65,2.65,0,0,0,.22-.93c0-.17,0-.34,0-.51a4,4,0,0,0-.06-.5,6.61,6.61,0,0,0-2.35-3.67A29.34,29.34,0,0,0,3.35,20.69Z"/><path class="cls-3" d="M0,31.17a34.1,34.1,0,0,1,3.55.56l1.73.37.46.12a2.84,2.84,0,0,1,.47.15,2.28,2.28,0,0,1,.45.2,2.64,2.64,0,0,1,.44.23,5.25,5.25,0,0,1,1.47,1.31,4,4,0,0,1,.78,1.79,4.06,4.06,0,0,1-.1,1.87,4.89,4.89,0,0,1-.79,1.62L8.52,39c0-.14.06-.28.07-.42a8,8,0,0,0,0-.84,4.28,4.28,0,0,0-2.2-3.83,2.27,2.27,0,0,0-.34-.19l-.36-.17-.37-.14L5,33.24Q4.1,33,3.26,32.67A22.79,22.79,0,0,1,0,31.17Z"/><path class="cls-3" d="M19.42,18.42c-1.24,2.5-2.43,5-3.48,7.52-.52,1.27-1,2.55-1.4,3.84a36.42,36.42,0,0,0-1,3.89,20.71,20.71,0,0,0-.4,3.89v1l0,1c0,.68.08,1.36.14,2a38.92,38.92,0,0,0,.52,4c.13.64.26,1.28.44,1.87.09.3.18.59.29.86a3.34,3.34,0,0,0,.16.38l.07.16,0,.06h0s0,0,0,0l0,0a1.55,1.55,0,0,1-.4,2.21,1.67,1.67,0,0,1-2.29-.38l-.06-.1,0,0-.06-.1-.1-.17c-.06-.11-.1-.2-.15-.31s-.17-.39-.24-.58c-.14-.38-.25-.75-.35-1.12a19.89,19.89,0,0,1-.46-2.19,35.21,35.21,0,0,1-.39-4.31c0-.71,0-1.42,0-2.13V38.56c0-.17,0-.35,0-.53l0-.56a23,23,0,0,1,.72-4.33,34.46,34.46,0,0,1,3.23-7.94,34.55,34.55,0,0,1,4.87-7,.16.16,0,0,1,.23,0,.14.14,0,0,1,0,.18Z"/><ellipse class="cls-3" cx="38.86" cy="30.1" rx="1" ry="0.97"/><path class="cls-3" d="M29.2,20.69a2.34,2.34,0,0,0-2.37-1.82,2.45,2.45,0,0,0-2.06,1.06,2.51,2.51,0,0,1,1.64-.59,3,3,0,0,1,.6.07,1.68,1.68,0,0,0,.49,3.3,1.79,1.79,0,0,0,1.16-.42,1.75,1.75,0,0,1-.2.35,2.05,2.05,0,0,0,.77-1.44.76.76,0,0,0,0-.15A1.42,1.42,0,0,0,29.2,20.69Z"/></g></g></svg>