<svg width="256" height="256" viewBox="0 0 256 256" fill="none" xmlns="http://www.w3.org/2000/svg">
<rect width="256" height="256" fill="#00A5B5"/>
<path d="M154.913 150.176H96.8017C95.3987 150.179 94.0187 149.819 92.7961 149.13C91.5736 148.442 90.55 147.449 89.825 146.248C89.1 145.046 88.6983 143.678 88.659 142.276C88.6196 140.873 88.944 139.484 89.6005 138.244L136.958 48.1431C137.999 46.2988 139.717 44.9322 141.748 44.333C143.779 43.7337 145.964 43.949 147.839 44.933C149.714 45.917 151.133 47.5926 151.794 49.6045C152.455 51.6165 152.306 53.8067 151.38 55.7111L110.277 133.901H154.913C157.002 134.002 158.973 134.904 160.416 136.419C161.859 137.934 162.664 139.946 162.664 142.038C162.664 144.13 161.859 146.142 160.416 147.657C158.973 149.172 157.002 150.074 154.913 150.176Z" fill="white"/>
<path d="M126.108 212.862C94.7549 212.862 68.7304 196.703 56.4517 169.578C55.9535 168.597 55.6591 167.525 55.5864 166.427C55.5137 165.329 55.6642 164.228 56.0288 163.19C56.3934 162.151 56.9645 161.198 57.7077 160.386C58.451 159.575 59.3509 158.922 60.3532 158.468C61.3555 158.014 62.4394 157.767 63.5395 157.744C64.6397 157.72 65.7332 157.919 66.7542 158.33C67.7752 158.74 68.7025 159.353 69.4801 160.131C70.2578 160.91 70.8696 161.838 71.2788 162.86C80.9318 184.289 100.971 196.587 126.089 196.587H126.301C152.248 196.51 175.744 182.976 184.721 162.898C185.129 161.88 185.738 160.954 186.512 160.177C187.286 159.4 188.209 158.787 189.225 158.375C190.242 157.964 191.331 157.761 192.428 157.781C193.525 157.8 194.606 158.041 195.608 158.488C196.609 158.935 197.51 159.58 198.256 160.384C199.002 161.188 199.578 162.135 199.95 163.167C200.321 164.199 200.481 165.295 200.418 166.39C200.356 167.485 200.073 168.556 199.587 169.539C188.003 195.371 158.6 212.785 126.34 212.862H126.108Z" fill="white"/>
<path d="M168.022 66.5997C168.014 68.8321 168.669 71.0165 169.904 72.8761C171.139 74.7357 172.899 76.1868 174.959 77.0455C177.02 77.9042 179.289 78.1319 181.479 77.6997C183.669 77.2674 185.682 76.1947 187.262 74.6176C188.842 73.0404 189.918 71.0297 190.354 68.8403C190.79 66.6509 190.566 64.3813 189.711 62.3192C188.856 60.2571 187.408 58.4953 185.55 57.257C183.693 56.0187 181.509 55.3598 179.277 55.3636C176.288 55.3687 173.423 56.5582 171.31 58.6715C169.197 60.7848 168.007 63.6496 168.002 66.6383" fill="white"/>
<path d="M65.4678 66.5997C65.4602 68.8312 66.1149 71.0149 67.3492 72.8741C68.5834 74.7333 70.3416 76.1844 72.4011 77.0436C74.4606 77.9029 76.7288 78.1317 78.9184 77.7011C81.108 77.2704 83.1206 76.1996 84.7012 74.6244C86.2819 73.0491 87.3596 71.0402 87.7977 68.8521C88.2359 66.664 88.0149 64.395 87.1627 62.3326C86.3105 60.2702 84.8654 58.507 83.0105 57.2664C81.1555 56.0258 78.9741 55.3636 76.7426 55.3636C73.7523 55.3636 70.8846 56.5514 68.7701 58.6658C66.6557 60.7803 65.4678 63.648 65.4678 66.6383" fill="white"/>
</svg>
