<svg width="256" height="256" viewBox="0 0 256 256" fill="none" xmlns="http://www.w3.org/2000/svg">
<rect width="256" height="256" fill="white"/>
<g clip-path="url(#clip0)">
<path d="M66.3289 150.795C69.5803 150.553 72.8408 151.125 75.8168 152.459C76.4287 152.887 77.062 153.284 77.7144 153.648V81.623H62.771V150.795H66.3289Z" fill="#A1CE9A"/>
<path d="M52.097 150.795H55.1806V70.2131H40V154.361C42.1348 152.221 45.9299 150.795 52.097 150.795Z" fill="#008A44"/>
<path d="M115.666 150.795H115.903C118.714 150.609 121.496 151.454 123.73 153.172V55H108.55V150.795H115.666Z" fill="#72B54E"/>
<path d="M100.96 71.877H85.7791V129.164H100.96V71.877Z" fill="#38A444"/>
<path d="M169.984 89.2295H155.041V150.795H169.984V89.2295Z" fill="#72B54E"/>
<path d="M147.213 69.7377H132.032V150.795H147.213V69.7377Z" fill="#A1CE9A"/>
<path d="M189.671 150.795H193.229V79.959H178.286V154.836C180.421 151.984 183.979 150.795 189.671 150.795" fill="#38A444"/>
<path d="M215.526 150.795H216V59.7541H201.294V150.795H215.526Z" fill="#008A44"/>
<path d="M77.9515 188.352V183.836H63.4825V188.352H57.5526C56.9772 188.265 56.4499 187.98 56.0606 187.547C55.6714 187.113 55.4442 186.558 55.4178 185.975V170.525C55.4618 169.909 55.7259 169.329 56.1615 168.893C56.5972 168.456 57.1752 168.192 57.7898 168.148H63.4825V172.664H77.9515V166.246C77.9515 163.393 78.1887 159.59 74.3935 157.451C71.909 156.462 69.2315 156.055 66.566 156.262H51.8598C40.4744 156.262 40 160.541 40 171.475V189.303C40 192.631 40.2372 197.861 47.1159 199.525C48.9865 199.918 50.8987 200.078 52.8086 200H66.8032C77.0027 200 77.9515 196.672 77.9515 188.352V188.352Z" fill="#005DAA"/>
<path d="M169.509 188.352V156.5H154.329V188.352H148.636C147.45 188.115 146.501 187.402 146.501 186.213V156.5H127.525V168.148H131.321V189.541C131.242 191.121 131.497 192.7 132.07 194.175C132.642 195.649 133.518 196.986 134.641 198.098C137.119 199.643 140.042 200.313 142.943 200H173.542V188.352H169.509Z" fill="#005DAA"/>
<path d="M194.652 166.959H192.992V168.623C192.985 168.403 193.024 168.183 193.105 167.979C193.186 167.774 193.308 167.588 193.464 167.432C193.619 167.276 193.805 167.154 194.009 167.072C194.214 166.991 194.433 166.952 194.652 166.959V166.959Z" fill="#005DAA"/>
<path d="M199.159 189.779H200.82V188.115C200.826 188.335 200.788 188.554 200.707 188.759C200.625 188.964 200.503 189.15 200.348 189.306C200.192 189.462 200.007 189.584 199.802 189.665C199.598 189.747 199.379 189.785 199.159 189.779Z" fill="#0054A4"/>
<path d="M106.178 188.352H100.722V168.385H106.415C107.601 168.385 108.312 169.336 108.55 170.525V186.451C108.371 186.958 108.055 187.406 107.635 187.742C107.216 188.078 106.711 188.29 106.178 188.352ZM123.493 188.59V165.533C123.817 163.321 123.4 161.064 122.307 159.115C120.41 156.5 117.326 156.5 114.717 156.262H100.959V134.631H81.9836V146.516H85.7788V188.352H81.9836V200H113.294C116.14 200 120.647 200 122.781 195.721C123.613 193.442 123.858 190.989 123.493 188.59Z" fill="#005DAA"/>
<path d="M215.526 169.811V156.5H189.197C180.895 156.5 177.811 158.639 177.811 166.959V175.754C177.79 176.679 178.084 177.583 178.644 178.318C179.205 179.052 179.999 179.574 180.895 179.795V179.795L200.819 184.311V189.541H192.992V186.213H178.049V199.762H205.801C212.442 199.762 215.763 198.098 215.526 189.541V180.033C215.619 179.038 215.362 178.041 214.799 177.216C214.235 176.391 213.402 175.79 212.442 175.516V175.516L192.992 170.762V166.721H200.819V169.574H215.526V169.811Z" fill="#005DAA"/>
</g>
<defs>
<clipPath id="clip0">
<rect width="176" height="145" fill="white" transform="translate(40 55)"/>
</clipPath>
</defs>
</svg>
