<svg width="256" height="256" viewBox="0 0 256 256" fill="none" xmlns="http://www.w3.org/2000/svg">
<rect width="256" height="256" fill="#00244B"/>
<path d="M219.429 84.3972V109.487H182.785V73H208.045C209.545 72.9966 211.031 73.2886 212.419 73.8595C213.806 74.4304 215.067 75.269 216.13 76.3273C217.194 77.3856 218.038 78.643 218.615 80.0276C219.192 81.4123 219.491 82.8971 219.495 84.3972" fill="white"/>
<path d="M219.416 145.973H182.785V182.46H219.416V145.973Z" fill="white"/>
<path d="M146.141 73H109.51V109.487H146.141V73Z" fill="#FFD600"/>
<path d="M72.8662 102.26V73H36.2352V171.063C36.2387 172.563 36.5376 174.048 37.1148 175.432C37.6921 176.817 38.5364 178.074 39.5996 179.133C40.6628 180.191 41.924 181.03 43.3113 181.601C44.6986 182.171 46.1847 182.463 47.6849 182.46H72.8662V153.2C72.8731 151.279 73.6421 149.439 75.0043 148.084C76.3666 146.729 78.2107 145.97 80.132 145.973H109.51V109.487H80.132C78.2107 109.49 76.3666 108.731 75.0043 107.376C73.6421 106.021 72.8731 104.181 72.8662 102.26" fill="white"/>
<path d="M146.141 145.973H109.51V182.46H146.141V145.973Z" fill="white"/>
</svg>
