<svg width="256" height="256" viewBox="0 0 256 256" fill="none" xmlns="http://www.w3.org/2000/svg">
<rect width="256" height="256" fill="#6623DC"/>
<path d="M65.04 60H50V195H65.04V60Z" fill="white"/>
<path d="M206.04 60H191V195H206.04V60Z" fill="white"/>
<path d="M99.74 162.1H111.57C112.024 162.1 112.46 161.92 112.783 161.6C113.105 161.279 113.287 160.845 113.29 160.39V132.51H143.23V160.34C143.23 160.794 143.41 161.229 143.731 161.549C144.052 161.87 144.486 162.05 144.94 162.05H156.78C157.234 162.05 157.668 161.87 157.989 161.549C158.31 161.229 158.49 160.794 158.49 160.34V94.6701C158.48 94.2236 158.295 93.7988 157.975 93.4867C157.656 93.1747 157.227 93 156.78 93.0001H144.94C144.715 93.0001 144.491 93.0447 144.283 93.1312C144.075 93.2178 143.886 93.3447 143.727 93.5045C143.568 93.6644 143.443 93.854 143.357 94.0627C143.272 94.2713 143.229 94.4947 143.23 94.7201V118.72H113.29V94.7201C113.29 94.264 113.109 93.8265 112.786 93.5039C112.464 93.1813 112.026 93.0001 111.57 93.0001H99.74C99.2889 92.9947 98.8537 93.1667 98.5283 93.4791C98.2028 93.7914 98.0131 94.2192 98 94.6701V160.34C98.0026 160.795 98.185 161.229 98.5073 161.55C98.8296 161.87 99.2656 162.05 99.72 162.05" fill="white"/>
</svg>
