<svg xmlns="http://www.w3.org/2000/svg" xmlns:xlink="http://www.w3.org/1999/xlink" viewBox="0 0 69.56 61.27"><defs><style>.cls-1,.cls-10,.cls-100,.cls-101,.cls-102,.cls-103,.cls-104,.cls-105,.cls-106,.cls-107,.cls-108,.cls-109,.cls-11,.cls-110,.cls-111,.cls-112,.cls-113,.cls-114,.cls-115,.cls-116,.cls-117,.cls-118,.cls-119,.cls-12,.cls-120,.cls-121,.cls-122,.cls-123,.cls-124,.cls-13,.cls-14,.cls-15,.cls-16,.cls-17,.cls-18,.cls-19,.cls-20,.cls-21,.cls-22,.cls-23,.cls-24,.cls-25,.cls-26,.cls-27,.cls-28,.cls-29,.cls-30,.cls-31,.cls-32,.cls-33,.cls-34,.cls-35,.cls-36,.cls-37,.cls-38,.cls-39,.cls-40,.cls-41,.cls-42,.cls-43,.cls-44,.cls-45,.cls-46,.cls-47,.cls-48,.cls-49,.cls-50,.cls-51,.cls-52,.cls-53,.cls-54,.cls-55,.cls-56,.cls-57,.cls-58,.cls-59,.cls-6,.cls-60,.cls-61,.cls-62,.cls-63,.cls-64,.cls-65,.cls-66,.cls-67,.cls-68,.cls-69,.cls-7,.cls-70,.cls-71,.cls-72,.cls-73,.cls-74,.cls-75,.cls-76,.cls-77,.cls-78,.cls-79,.cls-8,.cls-80,.cls-81,.cls-82,.cls-83,.cls-84,.cls-85,.cls-86,.cls-87,.cls-88,.cls-89,.cls-9,.cls-90,.cls-91,.cls-92,.cls-93,.cls-94,.cls-95,.cls-96,.cls-97,.cls-98,.cls-99{fill:none;}.cls-2{clip-path:url(#clip-path);}.cls-3{fill:url(#linear-gradient);}.cls-4{fill:#fff;}.cls-5{clip-path:url(#clip-path-2);}.cls-6{stroke:#b1b3b6;}.cls-10,.cls-100,.cls-101,.cls-102,.cls-103,.cls-104,.cls-105,.cls-106,.cls-107,.cls-108,.cls-109,.cls-11,.cls-110,.cls-111,.cls-112,.cls-113,.cls-114,.cls-115,.cls-116,.cls-117,.cls-118,.cls-119,.cls-12,.cls-120,.cls-121,.cls-122,.cls-123,.cls-124,.cls-13,.cls-14,.cls-15,.cls-16,.cls-17,.cls-18,.cls-19,.cls-20,.cls-21,.cls-22,.cls-23,.cls-24,.cls-25,.cls-26,.cls-27,.cls-28,.cls-29,.cls-30,.cls-31,.cls-32,.cls-33,.cls-34,.cls-35,.cls-36,.cls-37,.cls-38,.cls-39,.cls-40,.cls-41,.cls-42,.cls-43,.cls-44,.cls-45,.cls-46,.cls-47,.cls-48,.cls-49,.cls-50,.cls-51,.cls-52,.cls-53,.cls-54,.cls-55,.cls-56,.cls-57,.cls-58,.cls-59,.cls-6,.cls-60,.cls-61,.cls-62,.cls-63,.cls-64,.cls-65,.cls-66,.cls-67,.cls-68,.cls-69,.cls-7,.cls-70,.cls-71,.cls-72,.cls-73,.cls-74,.cls-75,.cls-76,.cls-77,.cls-78,.cls-79,.cls-8,.cls-80,.cls-81,.cls-82,.cls-83,.cls-84,.cls-85,.cls-86,.cls-87,.cls-88,.cls-89,.cls-9,.cls-90,.cls-91,.cls-92,.cls-93,.cls-94,.cls-95,.cls-96,.cls-97,.cls-98,.cls-99{stroke-width:0.01px;}.cls-7{stroke:#b3b5b7;}.cls-8{stroke:#b4b6b8;}.cls-9{stroke:#b5b7b9;}.cls-10{stroke:#b6b8ba;}.cls-11{stroke:#b7b9bc;}.cls-12{stroke:#b8babd;}.cls-13{stroke:#babcbe;}.cls-14{stroke:#bbbdbf;}.cls-15{stroke:#bcbec0;}.cls-16{stroke:#bdbfc1;}.cls-17{stroke:#bec0c2;}.cls-18{stroke:#c0c1c4;}.cls-19{stroke:#c1c2c5;}.cls-20{stroke:#c2c4c6;}.cls-21{stroke:#c3c5c7;}.cls-22{stroke:#c4c6c8;}.cls-23{stroke:#c5c7c9;}.cls-24{stroke:#c7c8ca;}.cls-25{stroke:#c8cacb;}.cls-26{stroke:#c9cbcc;}.cls-27{stroke:#caccce;}.cls-28{stroke:#cbcdcf;}.cls-29{stroke:#cdced0;}.cls-30{stroke:#cecfd1;}.cls-31{stroke:#cfd0d2;}.cls-32{stroke:#d0d1d3;}.cls-33{stroke:#d1d3d4;}.cls-34{stroke:#d2d4d5;}.cls-35{stroke:#d4d5d6;}.cls-36{stroke:#d5d6d8;}.cls-37{stroke:#d6d7d9;}.cls-38{stroke:#d7d8da;}.cls-39{stroke:#d8d9db;}.cls-40{stroke:#d9dbdc;}.cls-41{stroke:#dadcdd;}.cls-42{stroke:#dcddde;}.cls-43{stroke:#dddedf;}.cls-44{stroke:#dedfe0;}.cls-45{stroke:#dfe0e2;}.cls-46{stroke:#e0e1e3;}.cls-47{stroke:#e2e3e4;}.cls-48{stroke:#e3e4e5;}.cls-49{stroke:#e4e5e6;}.cls-50{stroke:#e5e6e7;}.cls-51{stroke:#e6e7e8;}.cls-52{stroke:#e8e8e9;}.cls-53{stroke:#e9eaea;}.cls-54{stroke:#eaebec;}.cls-55{stroke:#ebeced;}.cls-56{stroke:#ecedee;}.cls-57{stroke:#edeeef;}.cls-58{stroke:#efeff0;}.cls-59{stroke:#f0f0f1;}.cls-60{stroke:#f1f2f2;}.cls-61{stroke:#f2f3f3;}.cls-62{stroke:#f3f4f4;}.cls-63{stroke:#f5f5f6;}.cls-64{stroke:#f6f6f7;}.cls-65{stroke:#f7f8f8;}.cls-66{stroke:#f9f9f9;}.cls-67{stroke:#fbfbfb;}.cls-68{stroke:#fcfdfd;}.cls-69{stroke:#fff;}.cls-70{stroke:#b2b4b7;}.cls-71{stroke:#b5b7ba;}.cls-72{stroke:#b7b9bb;}.cls-73{stroke:#b8babc;}.cls-74{stroke:#b9bbbd;}.cls-75{stroke:#babcbf;}.cls-76{stroke:#bfc1c3;}.cls-77{stroke:#c0c2c4;}.cls-78{stroke:#c1c3c5;}.cls-79{stroke:#c4c5c7;}.cls-80{stroke:#c6c8ca;}.cls-81{stroke:#c8c9cb;}.cls-82{stroke:#c8cacc;}.cls-83{stroke:#c9cbcd;}.cls-84{stroke:#cbcdce;}.cls-85{stroke:#cccdcf;}.cls-86{stroke:#cdcfd1;}.cls-87{stroke:#ced0d1;}.cls-88{stroke:#cfd1d2;}.cls-89{stroke:#d1d2d4;}.cls-90{stroke:#d2d3d5;}.cls-91{stroke:#d3d4d6;}.cls-92{stroke:#d4d5d7;}.cls-93{stroke:#d6d7d8;}.cls-94{stroke:#d6d8d9;}.cls-95{stroke:#d7d9da;}.cls-96{stroke:#d9dadc;}.cls-97{stroke:#dadbdc;}.cls-98{stroke:#dbdcde;}.cls-99{stroke:#dcdddf;}.cls-100{stroke:#dfe0e1;}.cls-101{stroke:#e0e1e2;}.cls-102{stroke:#e1e2e3;}.cls-103{stroke:#e4e4e6;}.cls-104{stroke:#e7e8e9;}.cls-105{stroke:#e8e9ea;}.cls-106{stroke:#e9eaeb;}.cls-107{stroke:#eceded;}.cls-108{stroke:#ededee;}.cls-109{stroke:#eeeeef;}.cls-110{stroke:#eeeff0;}.cls-111{stroke:#eff0f0;}.cls-112{stroke:#f0f1f1;}.cls-113{stroke:#f1f1f2;}.cls-114{stroke:#f2f2f3;}.cls-115{stroke:#f3f3f4;}.cls-116{stroke:#f4f5f5;}.cls-117{stroke:#f5f6f6;}.cls-118{stroke:#f6f7f7;}.cls-119{stroke:#f7f7f8;}.cls-120{stroke:#f8f8f9;}.cls-121{stroke:#f9f9fa;}.cls-122{stroke:#fafafb;}.cls-123{stroke:#fcfcfc;}.cls-124{stroke:#fdfdfd;}.cls-125{clip-path:url(#clip-path-3);}.cls-126{fill:url(#linear-gradient-2);}</style><clipPath id="clip-path"><path class="cls-1" d="M31.62,16.53a33.36,33.36,0,0,0-8.07,1.16c-7.71,2.12-13.31,8-13.9,15s2.45,9.08,2.74,9.12,7.42,2.86,21.19,2.89a91.59,91.59,0,0,0,24-3A11.26,11.26,0,0,0,60.47,34c0-3.51-3.83-9.15-9-12.12A38.49,38.49,0,0,0,33,16.53Z"/></clipPath><linearGradient id="linear-gradient" x1="-487.04" y1="829.2" x2="-486.04" y2="829.2" gradientTransform="matrix(0, 34.25, 34.25, 0, -28369.1, 16697.87)" gradientUnits="userSpaceOnUse"><stop offset="0" stop-color="#febd38"/><stop offset="0.26" stop-color="#fec138"/><stop offset="0.47" stop-color="#f8b032"/><stop offset="0.78" stop-color="#ec8e26"/><stop offset="0.84" stop-color="#e48725"/><stop offset="0.93" stop-color="#d07522"/><stop offset="0.95" stop-color="#cb7121"/><stop offset="1" stop-color="#cb7121"/></linearGradient><clipPath id="clip-path-2"><path class="cls-1" d="M33.15,26.86V38.62H41v-3H37V26.86Zm-7.08,0-1.36,4.63a11.78,11.78,0,0,0-.29,1.46V33h-.07l-1.65-6.17H18.36L16.42,38.6h4.06l.51-5,.08-1.06s0-.3,0-.33h.1a7.88,7.88,0,0,0,.27,1.44l1.56,5h2.58l1.73-5.27a7.71,7.71,0,0,0,.28-1.15h.05s.58,6.42.58,6.42h4.06l-2-11.78Zm14.89,6a5.63,5.63,0,0,0,5.86,5.94,6.22,6.22,0,0,0,4.38-1.66,6.1,6.1,0,0,0,1.11-1.6l-3-1.48A2.42,2.42,0,0,1,47,35.92c-1.76,0-2.39-1.58-2.39-3.27a3.52,3.52,0,0,1,.85-2.54A2.12,2.12,0,0,1,47,29.5a2.53,2.53,0,0,1,2.34,1.87l3-1.48a5.11,5.11,0,0,0-.94-1.33,6.25,6.25,0,0,0-4.53-1.83A5.83,5.83,0,0,0,41,32.86"/></clipPath><clipPath id="clip-path-3"><path class="cls-1" d="M10.51,52.44c1.45.89,9,4.74,22,4.79h.82c19.71-.16,23.14-4.7,23.14-4.7.66-.65,1-1.68.06-1.44,0,0-7.36,2.84-22.5,2.94A82.05,82.05,0,0,1,9.9,50.84l-.08,0c-.39,0-.15,1.11.69,1.62m50-12.75s3.79,2.22-.58,4C47,49,31,51.53,5.47,47c-.11,0-.14.16,0,.21C19.14,52.86,50.56,54.64,63.83,46a4.07,4.07,0,0,0,1.89-3.08v0c0-1.44-1.27-2.89-5.18-3.45l-.07,0c-.15,0,0,.28,0,.28M3.36,41.87h0a1.67,1.67,0,0,0,.82,1.34s6,4.51,22.23,4.69c11.36.13,20.87-1.48,26-3,.16,0,.13-.21,0-.18S23.45,48.64,9.21,42.91C6.52,41.82,7,40.15,8.48,38.84l.15-.27c-3.05.5-5.27,1.93-5.27,3.3"/></clipPath><linearGradient id="linear-gradient-2" x1="-487.04" y1="829.16" x2="-486.04" y2="829.16" gradientTransform="matrix(57.09, 0, 0, -57.09, 27806.11, 47381.58)" gradientUnits="userSpaceOnUse"><stop offset="0" stop-color="#fec13e"/><stop offset="0.29" stop-color="#f9b83a"/><stop offset="0.76" stop-color="#eda02f"/><stop offset="1" stop-color="#e59128"/></linearGradient></defs><title>AU14901</title><g id="Layer_2" data-name="Layer 2"><g id="Layer_1-2" data-name="Layer 1"><g class="cls-2"><rect class="cls-3" x="5.79" y="8.58" width="57.98" height="44.1" transform="translate(-8.38 13.74) rotate(-20)"/></g><path class="cls-4" d="M28.25,38.6s-.58-6.38-.58-6.42h-.05a7.71,7.71,0,0,1-.28,1.15L25.61,38.6H23l-1.56-5a7.88,7.88,0,0,1-.27-1.44h-.1s0,.33,0,.33L21,33.57l-.51,5H16.42l1.94-11.78h4.33L24.34,33h.07v-.08a11.78,11.78,0,0,1,.29-1.46l1.36-4.63h4.26l2,11.78Zm12.7,0h-7.8V26.86H37v8.76h4ZM51.2,37.14a6.22,6.22,0,0,1-4.38,1.66A5.63,5.63,0,0,1,41,32.86a5.83,5.83,0,0,1,5.86-6.13,6.25,6.25,0,0,1,4.53,1.83,5.11,5.11,0,0,1,.94,1.33l-3,1.48A2.53,2.53,0,0,0,47,29.5a2.12,2.12,0,0,0-1.52.61,3.53,3.53,0,0,0-.85,2.55c0,1.68.63,3.26,2.39,3.26a2.42,2.42,0,0,0,2.29-1.86l3,1.48a6.1,6.1,0,0,1-1.11,1.6"/><g class="cls-5"><path class="cls-6" d="M48.74,30.37a4.3,4.3,0,0,1,.56,1"/><path class="cls-7" d="M49.3,31.37a4.3,4.3,0,0,0-.56-1"/><path class="cls-8" d="M49.3,31.37a4.3,4.3,0,0,0-.56-1"/><path class="cls-9" d="M49.3,31.37a4.3,4.3,0,0,0-.56-1"/><path class="cls-10" d="M49.31,31.37a4.55,4.55,0,0,0-.57-1"/><path class="cls-11" d="M49.31,31.37a4.55,4.55,0,0,0-.57-1"/><path class="cls-12" d="M49.31,31.37a4.55,4.55,0,0,0-.57-1"/><path class="cls-13" d="M49.31,31.37a4,4,0,0,0-.57-1"/><path class="cls-14" d="M49.31,31.37a4,4,0,0,0-.57-1"/><path class="cls-15" d="M49.31,31.37a4,4,0,0,0-.57-1"/><path class="cls-16" d="M49.32,31.37a4.06,4.06,0,0,0-.58-1"/><path class="cls-17" d="M49.32,31.36a4.21,4.21,0,0,0-.58-1"/><path class="cls-18" d="M49.32,31.36a4,4,0,0,0-.58-1"/><path class="cls-19" d="M49.32,31.36a4,4,0,0,0-.58-1"/><path class="cls-20" d="M49.32,31.36a4,4,0,0,0-.58-1"/><path class="cls-21" d="M49.33,31.36a4.08,4.08,0,0,0-.59-1"/><path class="cls-22" d="M49.33,31.36a4.08,4.08,0,0,0-.59-1"/><path class="cls-23" d="M49.33,31.36a4.08,4.08,0,0,0-.59-1"/><path class="cls-24" d="M49.33,31.36a3.91,3.91,0,0,0-.59-1"/><path class="cls-25" d="M49.33,31.36a3.74,3.74,0,0,0-.59-1"/><path class="cls-26" d="M49.33,31.36a3.74,3.74,0,0,0-.59-1"/><path class="cls-27" d="M49.34,31.36a4.09,4.09,0,0,0-.6-1"/><path class="cls-28" d="M49.34,31.35a3.92,3.92,0,0,0-.6-1"/><path class="cls-29" d="M49.34,31.35a3.92,3.92,0,0,0-.6-1"/><path class="cls-30" d="M49.34,31.35a3.92,3.92,0,0,0-.6-1"/><path class="cls-31" d="M49.34,31.35a3.92,3.92,0,0,0-.6-1"/><path class="cls-32" d="M49.35,31.35a3.81,3.81,0,0,0-.61-1"/><path class="cls-33" d="M49.35,31.35a3.81,3.81,0,0,0-.61-1"/><path class="cls-34" d="M49.35,31.35a3.81,3.81,0,0,0-.61-1"/><path class="cls-35" d="M49.35,31.35a3.41,3.41,0,0,0-.61-1"/><path class="cls-36" d="M49.35,31.35a3.41,3.41,0,0,0-.61-1"/><path class="cls-37" d="M49.35,31.35a3.41,3.41,0,0,0-.61-1"/><path class="cls-38" d="M49.36,31.35a3.7,3.7,0,0,0-.62-1"/><path class="cls-39" d="M49.36,31.34a3.83,3.83,0,0,0-.62-1"/><path class="cls-40" d="M49.36,31.34a3.66,3.66,0,0,0-.62-1"/><path class="cls-41" d="M49.36,31.34a3.66,3.66,0,0,0-.62-1"/><path class="cls-42" d="M49.36,31.34a3.66,3.66,0,0,0-.62-1"/><path class="cls-43" d="M49.37,31.34a3.72,3.72,0,0,0-.63-1"/><path class="cls-44" d="M49.37,31.34a3.72,3.72,0,0,0-.63-1"/><path class="cls-45" d="M49.37,31.34a3.72,3.72,0,0,0-.63-1"/><path class="cls-46" d="M49.37,31.34a3.34,3.34,0,0,0-.63-1"/><path class="cls-47" d="M49.37,31.34a3.21,3.21,0,0,0-.63-1"/><path class="cls-48" d="M49.37,31.34a3.21,3.21,0,0,0-.63-1"/><path class="cls-49" d="M49.38,31.34a3.46,3.46,0,0,0-.64-1"/><path class="cls-50" d="M49.38,31.33a3.35,3.35,0,0,0-.64-1"/><path class="cls-51" d="M49.38,31.33a3.35,3.35,0,0,0-.64-1"/><path class="cls-52" d="M49.38,31.33a3.35,3.35,0,0,0-.64-1"/><path class="cls-53" d="M49.38,31.33a3.35,3.35,0,0,0-.64-1"/><path class="cls-54" d="M49.39,31.33a3.47,3.47,0,0,0-.65-1"/><path class="cls-55" d="M49.39,31.33a3.47,3.47,0,0,0-.65-1"/><path class="cls-56" d="M49.39,31.33a3.47,3.47,0,0,0-.65-1"/><path class="cls-57" d="M49.39,31.33a3.47,3.47,0,0,0-.65-1"/><path class="cls-58" d="M49.39,31.33a3.14,3.14,0,0,0-.65-1"/><path class="cls-59" d="M49.39,31.33a3.14,3.14,0,0,0-.65-1"/><path class="cls-60" d="M49.4,31.33a3.37,3.37,0,0,0-.66-1"/><path class="cls-61" d="M49.4,31.32a3.27,3.27,0,0,0-.66-.95"/><path class="cls-62" d="M49.4,31.32a3.14,3.14,0,0,0-.66-.95"/><path class="cls-63" d="M49.4,31.32a3.14,3.14,0,0,0-.66-.95"/><path class="cls-64" d="M49.4,31.32a3.14,3.14,0,0,0-.66-.95"/><path class="cls-65" d="M49.41,31.32a3.38,3.38,0,0,0-.67-.95"/><path class="cls-66" d="M49.41,31.32a3.19,3.19,0,0,0-.67-.95"/><path class="cls-67" d="M49.41,31.32a3.19,3.19,0,0,0-.67-.95"/><path class="cls-68" d="M49.41,31.32a3.19,3.19,0,0,0-.67-.95"/><path class="cls-69" d="M49.41,31.32a3,3,0,0,0-.67-.95"/><path class="cls-6" d="M51.6,28.84a3.15,3.15,0,0,0-.25-.28,6.25,6.25,0,0,0-4.53-1.83A5.83,5.83,0,0,0,41,32.86a6.14,6.14,0,0,0,1.67,4.34"/><path class="cls-70" d="M51.6,28.84a3.15,3.15,0,0,0-.25-.28,6.25,6.25,0,0,0-4.53-1.83C43,26.73,41,29.82,41,32.87a6.18,6.18,0,0,0,1.67,4.33"/><path class="cls-7" d="M51.6,28.84a3.15,3.15,0,0,0-.25-.28,6.24,6.24,0,0,0-4.53-1.82A5.84,5.84,0,0,0,41,32.87a6.18,6.18,0,0,0,1.67,4.33"/><path class="cls-8" d="M51.6,28.84a3.15,3.15,0,0,0-.25-.28,6.28,6.28,0,0,0-4.53-1.82C43,26.74,41,29.83,41,32.87a6.17,6.17,0,0,0,1.66,4.33"/><path class="cls-9" d="M51.6,28.84a3.15,3.15,0,0,0-.25-.28,6.24,6.24,0,0,0-4.52-1.82C43,26.74,41,29.83,41,32.88a6.17,6.17,0,0,0,1.66,4.32"/><path class="cls-71" d="M51.6,28.84c-.07-.09-.16-.18-.25-.28a6.25,6.25,0,0,0-4.52-1.81A5.83,5.83,0,0,0,41,32.88a6.17,6.17,0,0,0,1.66,4.32"/><path class="cls-10" d="M51.6,28.84c-.07-.09-.16-.18-.25-.28a6.25,6.25,0,0,0-4.52-1.81C43,26.75,41,29.84,41,32.88a6.18,6.18,0,0,0,1.65,4.32"/><path class="cls-72" d="M51.6,28.84c-.07-.09-.16-.18-.25-.28a6.28,6.28,0,0,0-4.51-1.81C43,26.75,41,29.84,41,32.89a6.18,6.18,0,0,0,1.65,4.31"/><path class="cls-73" d="M51.6,28.84c-.07-.09-.16-.18-.25-.28a6.27,6.27,0,0,0-4.51-1.8A5.83,5.83,0,0,0,41,32.89a6.18,6.18,0,0,0,1.65,4.31"/><path class="cls-74" d="M51.6,28.84c-.07-.09-.16-.18-.25-.28a6.26,6.26,0,0,0-4.51-1.8A5.84,5.84,0,0,0,41,32.89a6.18,6.18,0,0,0,1.65,4.31"/><path class="cls-13" d="M51.6,28.84c-.07-.09-.16-.18-.25-.28a6.23,6.23,0,0,0-4.5-1.8C43,26.76,41,29.85,41,32.9a6.21,6.21,0,0,0,1.64,4.3"/><path class="cls-75" d="M51.6,28.84c-.07-.09-.16-.18-.25-.28a6.23,6.23,0,0,0-4.5-1.79A5.83,5.83,0,0,0,41,32.9a6.19,6.19,0,0,0,1.64,4.3"/><path class="cls-14" d="M51.6,28.84c-.07-.09-.16-.18-.25-.28a6.27,6.27,0,0,0-4.5-1.79A5.84,5.84,0,0,0,41,32.9a6.19,6.19,0,0,0,1.64,4.3"/><path class="cls-15" d="M51.6,28.84c-.07-.09-.16-.18-.25-.28a6.26,6.26,0,0,0-4.49-1.79C43,26.77,41,29.86,41,32.91a6.17,6.17,0,0,0,1.63,4.29"/><path class="cls-16" d="M51.6,28.84l-.25-.28a6.25,6.25,0,0,0-4.49-1.78A5.83,5.83,0,0,0,41,32.91a6.17,6.17,0,0,0,1.63,4.29"/><path class="cls-17" d="M51.6,28.84l-.25-.28a6.29,6.29,0,0,0-4.49-1.78A5.84,5.84,0,0,0,41,32.91a6.22,6.22,0,0,0,1.63,4.29"/><path class="cls-17" d="M51.6,28.84l-.25-.28a6.28,6.28,0,0,0-4.49-1.78C43,26.78,41,29.87,41,32.92a6.17,6.17,0,0,0,1.62,4.28"/><path class="cls-76" d="M51.6,28.84l-.25-.28a6.26,6.26,0,0,0-4.48-1.77A5.83,5.83,0,0,0,41,32.92a6.17,6.17,0,0,0,1.62,4.28"/><path class="cls-77" d="M51.6,28.84l-.25-.28a6.26,6.26,0,0,0-4.48-1.77A5.83,5.83,0,0,0,41,32.92a6.17,6.17,0,0,0,1.62,4.28"/><path class="cls-78" d="M51.6,28.84l-.25-.28a6.26,6.26,0,0,0-4.48-1.77c-3.82,0-5.85,3.09-5.85,6.14a6.15,6.15,0,0,0,1.61,4.27"/><path class="cls-20" d="M51.6,28.84l-.25-.28a6.29,6.29,0,0,0-4.47-1.76A5.83,5.83,0,0,0,41,32.93a6.2,6.2,0,0,0,1.61,4.27"/><path class="cls-21" d="M51.6,28.84l-.25-.27a6.25,6.25,0,0,0-4.47-1.77A5.83,5.83,0,0,0,41,32.93a6.2,6.2,0,0,0,1.61,4.27"/><path class="cls-79" d="M51.6,28.84l-.25-.27a6.24,6.24,0,0,0-4.47-1.77c-3.82,0-5.86,3.09-5.86,6.14a6.17,6.17,0,0,0,1.61,4.26"/><path class="cls-22" d="M51.6,28.84l-.25-.27a6.22,6.22,0,0,0-4.46-1.76A5.83,5.83,0,0,0,41,32.94a6.16,6.16,0,0,0,1.6,4.26"/><path class="cls-23" d="M51.6,28.84l-.25-.27a6.26,6.26,0,0,0-4.46-1.76A5.83,5.83,0,0,0,41,32.94a6.21,6.21,0,0,0,1.6,4.26"/><path class="cls-80" d="M51.6,28.84l-.25-.27a6.26,6.26,0,0,0-4.46-1.76C43.07,26.81,41,29.9,41,33a6.2,6.2,0,0,0,1.6,4.25"/><path class="cls-24" d="M51.6,28.84l-.25-.27a6.25,6.25,0,0,0-4.45-1.75A5.83,5.83,0,0,0,41,33a6.19,6.19,0,0,0,1.59,4.25"/><path class="cls-81" d="M51.6,28.84l-.25-.27a6.25,6.25,0,0,0-4.45-1.75A5.83,5.83,0,0,0,41,33a6.18,6.18,0,0,0,1.59,4.25"/><path class="cls-82" d="M51.6,28.84l-.25-.27a6.28,6.28,0,0,0-4.45-1.74A5.83,5.83,0,0,0,41,33a6.17,6.17,0,0,0,1.59,4.24"/><path class="cls-83" d="M51.6,28.84l-.25-.27a6.26,6.26,0,0,0-4.44-1.74A5.83,5.83,0,0,0,41.05,33a6.21,6.21,0,0,0,1.58,4.24"/><path class="cls-27" d="M51.6,28.84l-.25-.27a6.26,6.26,0,0,0-4.44-1.74A5.83,5.83,0,0,0,41.05,33a6.21,6.21,0,0,0,1.58,4.24"/><path class="cls-84" d="M51.6,28.84l-.25-.27a6.26,6.26,0,0,0-4.44-1.74c-3.83,0-5.86,3.09-5.86,6.14a6.2,6.2,0,0,0,1.58,4.23"/><path class="cls-85" d="M51.6,28.84l-.25-.27a6.29,6.29,0,0,0-4.44-1.73c-3.82,0-5.85,3.09-5.85,6.13a6.17,6.17,0,0,0,1.57,4.23"/><path class="cls-29" d="M51.6,28.84l-.25-.27a6.29,6.29,0,0,0-4.43-1.73A5.83,5.83,0,0,0,41.06,33a6.17,6.17,0,0,0,1.57,4.23"/><path class="cls-86" d="M51.6,28.84l-.25-.27a6.29,6.29,0,0,0-4.43-1.73c-3.83,0-5.86,3.09-5.86,6.14a6.21,6.21,0,0,0,1.57,4.22"/><path class="cls-87" d="M51.6,28.84l-.25-.27a6.26,6.26,0,0,0-4.43-1.72A5.84,5.84,0,0,0,41.06,33a6.21,6.21,0,0,0,1.57,4.22"/><path class="cls-88" d="M51.6,28.84l-.25-.27a6.3,6.3,0,0,0-4.42-1.72A5.83,5.83,0,0,0,41.07,33a6.2,6.2,0,0,0,1.56,4.22"/><path class="cls-32" d="M51.6,28.84l-.25-.27a6.29,6.29,0,0,0-4.42-1.71A5.83,5.83,0,0,0,41.07,33a6.18,6.18,0,0,0,1.56,4.21"/><path class="cls-89" d="M51.6,28.84l-.25-.27a6.29,6.29,0,0,0-4.42-1.71A5.84,5.84,0,0,0,41.07,33a6.18,6.18,0,0,0,1.56,4.21"/><path class="cls-90" d="M51.6,28.84l-.25-.27a6.28,6.28,0,0,0-4.41-1.71A5.83,5.83,0,0,0,41.08,33a6.22,6.22,0,0,0,1.55,4.21"/><path class="cls-34" d="M51.6,28.84l-.25-.27a6.32,6.32,0,0,0-4.41-1.7A5.83,5.83,0,0,0,41.08,33a6.21,6.21,0,0,0,1.55,4.2"/><path class="cls-91" d="M51.6,28.84l-.25-.27a6.28,6.28,0,0,0-4.41-1.7A5.84,5.84,0,0,0,41.08,33a6.21,6.21,0,0,0,1.55,4.2"/><path class="cls-92" d="M51.6,28.84l-.25-.27a6.27,6.27,0,0,0-4.4-1.7A5.83,5.83,0,0,0,41.09,33a6.18,6.18,0,0,0,1.54,4.2"/><path class="cls-36" d="M51.6,28.84l-.25-.27A6.27,6.27,0,0,0,47,26.88,5.83,5.83,0,0,0,41.09,33a6.22,6.22,0,0,0,1.54,4.19"/><path class="cls-93" d="M51.6,28.84a3.07,3.07,0,0,0-.25-.26,6.27,6.27,0,0,0-4.4-1.7A5.83,5.83,0,0,0,41.09,33a6.22,6.22,0,0,0,1.54,4.19"/><path class="cls-94" d="M51.6,28.84a3.07,3.07,0,0,0-.25-.26,6.27,6.27,0,0,0-4.4-1.7C43.13,26.88,41.1,30,41.1,33a6.22,6.22,0,0,0,1.53,4.19"/><path class="cls-95" d="M51.6,28.84a3.07,3.07,0,0,0-.25-.26A6.26,6.26,0,0,0,47,26.89,5.83,5.83,0,0,0,41.1,33a6.19,6.19,0,0,0,1.53,4.18"/><path class="cls-39" d="M51.6,28.84a3.07,3.07,0,0,0-.25-.26A6.24,6.24,0,0,0,47,26.89,5.83,5.83,0,0,0,41.1,33a6.19,6.19,0,0,0,1.53,4.18"/><path class="cls-96" d="M51.6,28.84a3.07,3.07,0,0,0-.25-.26A6.24,6.24,0,0,0,47,26.89c-3.82,0-5.85,3.09-5.85,6.14a6.21,6.21,0,0,0,1.52,4.17"/><path class="cls-97" d="M51.6,28.84a3.07,3.07,0,0,0-.25-.26A6.27,6.27,0,0,0,47,26.9,5.83,5.83,0,0,0,41.11,33a6.21,6.21,0,0,0,1.52,4.17"/><path class="cls-41" d="M51.6,28.84a3.07,3.07,0,0,0-.25-.26A6.27,6.27,0,0,0,47,26.9,5.83,5.83,0,0,0,41.11,33a6.21,6.21,0,0,0,1.52,4.17"/><path class="cls-98" d="M51.6,28.84a3.07,3.07,0,0,0-.25-.26A6.27,6.27,0,0,0,47,26.9c-3.82,0-5.86,3.09-5.86,6.14a6.2,6.2,0,0,0,1.52,4.16"/><path class="cls-99" d="M51.6,28.84l-.25-.26A6.25,6.25,0,0,0,47,26.91,5.83,5.83,0,0,0,41.12,33a6.19,6.19,0,0,0,1.51,4.16"/><path class="cls-43" d="M51.6,28.84l-.25-.26A6.28,6.28,0,0,0,47,26.91,5.83,5.83,0,0,0,41.12,33a6.22,6.22,0,0,0,1.51,4.16"/><path class="cls-44" d="M51.6,28.84l-.25-.26A6.28,6.28,0,0,0,47,26.91c-3.82,0-5.86,3.09-5.86,6.14a6.21,6.21,0,0,0,1.51,4.15"/><path class="cls-100" d="M51.6,28.84l-.25-.26A6.27,6.27,0,0,0,47,26.92a5.83,5.83,0,0,0-5.86,6.13,6.2,6.2,0,0,0,1.5,4.15"/><path class="cls-101" d="M51.6,28.84l-.25-.26A6.27,6.27,0,0,0,47,26.92a5.83,5.83,0,0,0-5.86,6.13,6.2,6.2,0,0,0,1.5,4.15"/><path class="cls-46" d="M51.6,28.84l-.25-.26A6.31,6.31,0,0,0,47,26.92c-3.83,0-5.86,3.09-5.86,6.14a6.2,6.2,0,0,0,1.5,4.14"/><path class="cls-102" d="M51.6,28.84l-.25-.26A6.3,6.3,0,0,0,47,26.93c-3.82,0-5.85,3.09-5.85,6.13a6.24,6.24,0,0,0,1.49,4.14"/><path class="cls-47" d="M51.6,28.84l-.25-.26A6.28,6.28,0,0,0,47,26.93a5.83,5.83,0,0,0-5.86,6.13,6.22,6.22,0,0,0,1.49,4.14"/><path class="cls-48" d="M51.6,28.84l-.25-.26A6.28,6.28,0,0,0,47,26.93c-3.83,0-5.86,3.09-5.86,6.14a6.21,6.21,0,0,0,1.49,4.13"/><path class="cls-103" d="M51.6,28.84l-.25-.26A6.32,6.32,0,0,0,47,26.94c-3.82,0-5.85,3.09-5.85,6.13a6.2,6.2,0,0,0,1.48,4.13"/><path class="cls-49" d="M51.6,28.84l-.25-.26A6.31,6.31,0,0,0,47,26.94a5.83,5.83,0,0,0-5.86,6.13,6.25,6.25,0,0,0,1.48,4.13"/><path class="cls-50" d="M51.6,28.84l-.25-.26A6.31,6.31,0,0,0,47,26.94c-3.83,0-5.86,3.09-5.86,6.14a6.25,6.25,0,0,0,1.48,4.12"/><path class="cls-51" d="M51.6,28.84l-.25-.26A6.3,6.3,0,0,0,47,27a5.84,5.84,0,0,0-5.86,6.13,6.23,6.23,0,0,0,1.48,4.12"/><path class="cls-104" d="M51.6,28.84l-.25-.26A6.32,6.32,0,0,0,47,27a5.83,5.83,0,0,0-5.86,6.13,6.22,6.22,0,0,0,1.47,4.12"/><path class="cls-105" d="M51.6,28.84l-.25-.26A6.32,6.32,0,0,0,47,27c-3.83,0-5.86,3.09-5.86,6.14a6.21,6.21,0,0,0,1.47,4.11"/><path class="cls-53" d="M51.6,28.84l-.25-.26A6.31,6.31,0,0,0,47,27a5.84,5.84,0,0,0-5.86,6.13,6.26,6.26,0,0,0,1.47,4.11"/><path class="cls-106" d="M51.6,28.84l-.25-.26A6.31,6.31,0,0,0,47,27a5.83,5.83,0,0,0-5.86,6.13,6.25,6.25,0,0,0,1.46,4.11"/><path class="cls-54" d="M51.6,28.84a3,3,0,0,0-.25-.25A6.31,6.31,0,0,0,47,27c-3.83,0-5.86,3.09-5.86,6.14a6.23,6.23,0,0,0,1.46,4.1"/><path class="cls-55" d="M51.6,28.84a3,3,0,0,0-.25-.25A6.31,6.31,0,0,0,47,27a5.84,5.84,0,0,0-5.86,6.13,6.23,6.23,0,0,0,1.46,4.1"/><path class="cls-107" d="M51.6,28.84a3,3,0,0,0-.25-.25A6.29,6.29,0,0,0,47,27c-3.82,0-5.85,3.09-5.85,6.13a6.22,6.22,0,0,0,1.45,4.1"/><path class="cls-108" d="M51.6,28.84a3,3,0,0,0-.25-.25A6.26,6.26,0,0,0,47,27c-3.83,0-5.86,3.09-5.86,6.14a6.26,6.26,0,0,0,1.45,4.09"/><path class="cls-109" d="M51.6,28.84a3,3,0,0,0-.25-.25A6.25,6.25,0,0,0,47,27a5.83,5.83,0,0,0-5.86,6.13,6.26,6.26,0,0,0,1.45,4.09"/><path class="cls-110" d="M51.6,28.84a3,3,0,0,0-.25-.25A6.3,6.3,0,0,0,47,27c-3.82,0-5.85,3.09-5.85,6.13a6.26,6.26,0,0,0,1.44,4.09"/><path class="cls-111" d="M51.6,28.84a3,3,0,0,0-.25-.25A6.29,6.29,0,0,0,47.05,27c-3.83,0-5.86,3.09-5.86,6.14a6.23,6.23,0,0,0,1.44,4.08"/><path class="cls-112" d="M51.6,28.84a3,3,0,0,0-.25-.25,6.28,6.28,0,0,0-4.3-1.6,5.83,5.83,0,0,0-5.86,6.13,6.28,6.28,0,0,0,1.44,4.08"/><path class="cls-113" d="M51.6,28.84a3,3,0,0,0-.25-.25,6.27,6.27,0,0,0-4.3-1.6,5.84,5.84,0,0,0-5.86,6.13,6.28,6.28,0,0,0,1.44,4.08"/><path class="cls-114" d="M51.6,28.84a3,3,0,0,0-.25-.25A6.31,6.31,0,0,0,47.06,27c-3.83,0-5.86,3.09-5.86,6.14a6.27,6.27,0,0,0,1.43,4.07"/><path class="cls-115" d="M51.6,28.84a3,3,0,0,0-.25-.25A6.3,6.3,0,0,0,47.06,27a5.83,5.83,0,0,0-5.86,6.13,6.25,6.25,0,0,0,1.43,4.07"/><path class="cls-62" d="M51.6,28.84c-.08-.09-.17-.17-.25-.25A6.3,6.3,0,0,0,47.06,27a5.84,5.84,0,0,0-5.86,6.13,6.23,6.23,0,0,0,1.43,4.07"/><path class="cls-116" d="M51.6,28.84c-.08-.09-.17-.17-.25-.25A6.29,6.29,0,0,0,47.07,27c-3.83,0-5.86,3.09-5.86,6.14a6.27,6.27,0,0,0,1.42,4.06"/><path class="cls-117" d="M51.6,28.84c-.08-.09-.17-.17-.25-.25A6.33,6.33,0,0,0,47.07,27a5.83,5.83,0,0,0-5.86,6.13,6.27,6.27,0,0,0,1.42,4.06"/><path class="cls-118" d="M51.6,28.84c-.08-.09-.17-.17-.25-.25A6.33,6.33,0,0,0,47.07,27a5.84,5.84,0,0,0-5.86,6.13,6.27,6.27,0,0,0,1.42,4.06"/><path class="cls-119" d="M51.6,28.84c-.08-.09-.17-.17-.25-.25A6.31,6.31,0,0,0,47.08,27c-3.83,0-5.86,3.09-5.86,6.14a6.25,6.25,0,0,0,1.41,4.05"/><path class="cls-120" d="M51.6,28.84c-.08-.09-.17-.17-.25-.25A6.3,6.3,0,0,0,47.08,27a5.83,5.83,0,0,0-5.86,6.13,6.23,6.23,0,0,0,1.41,4.05"/><path class="cls-121" d="M51.6,28.84c-.08-.09-.17-.17-.25-.25A6.35,6.35,0,0,0,47.08,27a5.83,5.83,0,0,0-5.86,6.13,6.28,6.28,0,0,0,1.41,4.05"/><path class="cls-122" d="M51.6,28.84c-.08-.09-.17-.17-.25-.25A6.35,6.35,0,0,0,47.08,27c-3.82,0-5.85,3.09-5.85,6.14a6.27,6.27,0,0,0,1.4,4"/><path class="cls-123" d="M51.6,28.84c-.08-.09-.17-.17-.25-.25A6.33,6.33,0,0,0,47.09,27a5.83,5.83,0,0,0-5.86,6.13,6.27,6.27,0,0,0,1.4,4"/><path class="cls-124" d="M51.6,28.84c-.08-.09-.17-.17-.25-.25A6.33,6.33,0,0,0,47.09,27a5.83,5.83,0,0,0-5.86,6.13,6.27,6.27,0,0,0,1.4,4"/><path class="cls-69" d="M42.63,37.2a6.26,6.26,0,0,1-1.4-4c0-3.05,2-6.14,5.86-6.14a6.25,6.25,0,0,1,4.51,1.81"/><line class="cls-6" x1="40.95" y1="35.62" x2="37.25" y2="35.62"/><line class="cls-70" x1="40.95" y1="35.62" x2="37.25" y2="35.62"/><line class="cls-7" x1="40.95" y1="35.63" x2="37.25" y2="35.63"/><line class="cls-8" x1="40.95" y1="35.63" x2="37.25" y2="35.63"/><line class="cls-9" x1="40.95" y1="35.63" x2="37.25" y2="35.63"/><line class="cls-71" x1="40.95" y1="35.64" x2="37.25" y2="35.64"/><line class="cls-10" x1="40.95" y1="35.64" x2="37.25" y2="35.64"/><line class="cls-72" x1="40.95" y1="35.64" x2="37.25" y2="35.64"/><line class="cls-73" x1="40.95" y1="35.65" x2="37.25" y2="35.65"/><line class="cls-74" x1="40.95" y1="35.65" x2="37.25" y2="35.65"/><line class="cls-13" x1="40.95" y1="35.65" x2="37.25" y2="35.65"/><line class="cls-75" x1="40.95" y1="35.66" x2="37.25" y2="35.66"/><line class="cls-14" x1="40.95" y1="35.66" x2="37.25" y2="35.66"/><line class="cls-15" x1="40.95" y1="35.66" x2="37.25" y2="35.66"/><line class="cls-16" x1="40.95" y1="35.67" x2="37.25" y2="35.67"/><line class="cls-17" x1="40.95" y1="35.67" x2="37.25" y2="35.67"/><line class="cls-17" x1="40.95" y1="35.67" x2="37.25" y2="35.67"/><line class="cls-76" x1="40.95" y1="35.68" x2="37.25" y2="35.68"/><line class="cls-77" x1="40.95" y1="35.68" x2="37.25" y2="35.68"/><line class="cls-78" x1="40.95" y1="35.68" x2="37.25" y2="35.68"/><line class="cls-20" x1="40.95" y1="35.69" x2="37.25" y2="35.69"/><line class="cls-21" x1="40.95" y1="35.69" x2="37.25" y2="35.69"/><line class="cls-79" x1="40.95" y1="35.69" x2="37.25" y2="35.69"/><line class="cls-22" x1="40.95" y1="35.7" x2="37.25" y2="35.7"/><line class="cls-23" x1="40.95" y1="35.7" x2="37.25" y2="35.7"/><line class="cls-80" x1="40.95" y1="35.7" x2="37.25" y2="35.7"/><line class="cls-24" x1="40.95" y1="35.71" x2="37.25" y2="35.71"/><line class="cls-81" x1="40.95" y1="35.71" x2="37.25" y2="35.71"/><line class="cls-82" x1="40.95" y1="35.71" x2="37.25" y2="35.71"/><line class="cls-83" x1="40.95" y1="35.72" x2="37.25" y2="35.72"/><line class="cls-27" x1="40.95" y1="35.72" x2="37.25" y2="35.72"/><line class="cls-84" x1="40.95" y1="35.72" x2="37.25" y2="35.72"/><line class="cls-85" x1="40.95" y1="35.73" x2="37.25" y2="35.73"/><line class="cls-29" x1="40.95" y1="35.73" x2="37.25" y2="35.73"/><line class="cls-86" x1="40.95" y1="35.73" x2="37.25" y2="35.73"/><line class="cls-87" x1="40.95" y1="35.74" x2="37.25" y2="35.74"/><line class="cls-88" x1="40.95" y1="35.74" x2="37.25" y2="35.74"/><line class="cls-32" x1="40.95" y1="35.74" x2="37.25" y2="35.74"/><line class="cls-89" x1="40.95" y1="35.75" x2="37.25" y2="35.75"/><line class="cls-90" x1="40.95" y1="35.75" x2="37.25" y2="35.75"/><line class="cls-34" x1="40.95" y1="35.75" x2="37.25" y2="35.75"/><line class="cls-91" x1="40.95" y1="35.76" x2="37.25" y2="35.76"/><line class="cls-92" x1="40.95" y1="35.76" x2="37.25" y2="35.76"/><line class="cls-36" x1="40.95" y1="35.77" x2="37.25" y2="35.77"/><line class="cls-93" x1="40.95" y1="35.77" x2="37.25" y2="35.77"/><line class="cls-94" x1="40.95" y1="35.77" x2="37.25" y2="35.77"/><line class="cls-95" x1="40.95" y1="35.78" x2="37.25" y2="35.78"/><line class="cls-39" x1="40.95" y1="35.78" x2="37.25" y2="35.78"/><line class="cls-96" x1="40.95" y1="35.78" x2="37.25" y2="35.78"/><line class="cls-97" x1="40.95" y1="35.79" x2="37.25" y2="35.79"/><line class="cls-41" x1="40.95" y1="35.79" x2="37.25" y2="35.79"/><line class="cls-98" x1="40.95" y1="35.79" x2="37.25" y2="35.79"/><line class="cls-99" x1="40.95" y1="35.8" x2="37.25" y2="35.8"/><line class="cls-43" x1="40.95" y1="35.8" x2="37.25" y2="35.8"/><line class="cls-44" x1="40.95" y1="35.8" x2="37.25" y2="35.8"/><line class="cls-100" x1="40.95" y1="35.81" x2="37.25" y2="35.81"/><line class="cls-101" x1="40.95" y1="35.81" x2="37.25" y2="35.81"/><line class="cls-46" x1="40.95" y1="35.81" x2="37.25" y2="35.81"/><line class="cls-102" x1="40.95" y1="35.82" x2="37.25" y2="35.82"/><line class="cls-47" x1="40.95" y1="35.82" x2="37.25" y2="35.82"/><line class="cls-48" x1="40.95" y1="35.82" x2="37.25" y2="35.82"/><line class="cls-103" x1="40.95" y1="35.83" x2="37.25" y2="35.83"/><line class="cls-49" x1="40.95" y1="35.83" x2="37.25" y2="35.83"/><line class="cls-50" x1="40.95" y1="35.83" x2="37.25" y2="35.83"/><line class="cls-51" x1="40.95" y1="35.84" x2="37.25" y2="35.84"/><line class="cls-104" x1="40.95" y1="35.84" x2="37.25" y2="35.84"/><line class="cls-105" x1="40.95" y1="35.84" x2="37.25" y2="35.84"/><line class="cls-53" x1="40.95" y1="35.85" x2="37.25" y2="35.85"/><line class="cls-106" x1="40.95" y1="35.85" x2="37.25" y2="35.85"/><line class="cls-54" x1="40.95" y1="35.85" x2="37.25" y2="35.85"/><line class="cls-55" x1="40.95" y1="35.86" x2="37.25" y2="35.86"/><line class="cls-107" x1="40.95" y1="35.86" x2="37.25" y2="35.86"/><line class="cls-108" x1="40.95" y1="35.86" x2="37.25" y2="35.86"/><line class="cls-109" x1="40.95" y1="35.87" x2="37.25" y2="35.87"/><line class="cls-110" x1="40.95" y1="35.87" x2="37.25" y2="35.87"/><line class="cls-111" x1="40.95" y1="35.87" x2="37.25" y2="35.87"/><line class="cls-112" x1="40.95" y1="35.88" x2="37.25" y2="35.88"/><line class="cls-113" x1="40.95" y1="35.88" x2="37.25" y2="35.88"/><line class="cls-114" x1="40.95" y1="35.88" x2="37.25" y2="35.88"/><line class="cls-115" x1="40.95" y1="35.89" x2="37.25" y2="35.89"/><line class="cls-62" x1="40.95" y1="35.89" x2="37.25" y2="35.89"/><line class="cls-116" x1="40.95" y1="35.89" x2="37.25" y2="35.89"/><line class="cls-117" x1="40.95" y1="35.9" x2="37.25" y2="35.9"/><line class="cls-118" x1="40.95" y1="35.9" x2="37.25" y2="35.9"/><line class="cls-119" x1="40.95" y1="35.9" x2="37.25" y2="35.9"/><line class="cls-120" x1="40.95" y1="35.91" x2="37.25" y2="35.91"/><line class="cls-121" x1="40.95" y1="35.91" x2="37.25" y2="35.91"/><line class="cls-122" x1="40.95" y1="35.91" x2="37.25" y2="35.91"/><line class="cls-123" x1="40.95" y1="35.92" x2="37.25" y2="35.92"/><line class="cls-124" x1="40.95" y1="35.92" x2="37.25" y2="35.92"/><line class="cls-69" x1="37.25" y1="35.92" x2="40.95" y2="35.92"/><path class="cls-6" d="M52.31,35.54l-3-1.48A2.42,2.42,0,0,1,47,35.92a2.09,2.09,0,0,1-1.45-.51"/><path class="cls-70" d="M52.31,35.54l-2.68-1.3-.36-.17a2.48,2.48,0,0,1-1.89,1.82,2.63,2.63,0,0,1-.41,0,2.08,2.08,0,0,1-1.44-.51"/><path class="cls-7" d="M52.31,35.54l-2.68-1.3-.36-.16a2.48,2.48,0,0,1-1.89,1.82,2.63,2.63,0,0,1-.41,0,2.14,2.14,0,0,1-1.44-.52"/><path class="cls-8" d="M52.31,35.54l-2.69-1.3s-.35-.16-.35-.15a2.47,2.47,0,0,1-1.89,1.81,2.73,2.73,0,0,1-.41,0,2.07,2.07,0,0,1-1.44-.52"/><path class="cls-9" d="M52.31,35.54l-2.69-1.29a3.68,3.68,0,0,0-.35-.15,2.45,2.45,0,0,1-1.89,1.8,2.73,2.73,0,0,1-.41,0,2.09,2.09,0,0,1-1.44-.52"/><path class="cls-71" d="M52.3,35.54l-2.68-1.29a3.68,3.68,0,0,0-.35-.15,2.45,2.45,0,0,1-1.9,1.81,2.5,2.5,0,0,1-.4,0,2.12,2.12,0,0,1-1.44-.53"/><path class="cls-10" d="M52.3,35.55l-2.68-1.3-.34-.14a2.49,2.49,0,0,1-1.91,1.8,2.6,2.6,0,0,1-.4,0,2.08,2.08,0,0,1-1.44-.54"/><path class="cls-72" d="M52.3,35.55l-2.68-1.3s-.34-.15-.34-.13a2.49,2.49,0,0,1-1.91,1.8l-.4,0a2.12,2.12,0,0,1-1.44-.53"/><path class="cls-73" d="M52.3,35.55l-2.68-1.3-.34-.13a2.47,2.47,0,0,1-1.91,1.8A2.63,2.63,0,0,1,47,36a2.06,2.06,0,0,1-1.43-.55"/><path class="cls-74" d="M52.3,35.55l-2.68-1.3s-.33-.13-.34-.12a2.45,2.45,0,0,1-1.91,1.79A2.63,2.63,0,0,1,47,36a2.06,2.06,0,0,1-1.43-.54"/><path class="cls-13" d="M52.3,35.55l-2.68-1.3s-.33-.13-.34-.11a2.45,2.45,0,0,1-1.91,1.79L47,36a2.06,2.06,0,0,1-1.43-.54"/><path class="cls-75" d="M52.3,35.55l-2.68-1.3s-.33-.12-.34-.1a2.46,2.46,0,0,1-1.92,1.78,1.73,1.73,0,0,1-.4,0,2.06,2.06,0,0,1-1.43-.54"/><path class="cls-14" d="M52.3,35.56l-2.68-1.3s-.33-.13-.34-.1a2.44,2.44,0,0,1-1.92,1.77,2.6,2.6,0,0,1-.4,0,2.06,2.06,0,0,1-1.43-.55"/><path class="cls-15" d="M52.3,35.56l-2.69-1.3a2.58,2.58,0,0,0-.33-.1,2.45,2.45,0,0,1-1.92,1.78L47,36a2.06,2.06,0,0,1-1.43-.55"/><path class="cls-16" d="M52.3,35.56l-2.69-1.3a3,3,0,0,0-.32-.09,2.46,2.46,0,0,1-1.93,1.77,1.76,1.76,0,0,1-.4,0,2.06,2.06,0,0,1-1.43-.55"/><path class="cls-17" d="M52.3,35.56l-2.69-1.3s-.31-.11-.32-.08A2.46,2.46,0,0,1,47.36,36L47,36a2.11,2.11,0,0,1-1.43-.56"/><path class="cls-17" d="M52.3,35.56l-2.69-1.3s-.31-.1-.32-.07A2.45,2.45,0,0,1,47.36,36,2.75,2.75,0,0,1,47,36a2.11,2.11,0,0,1-1.42-.56"/><path class="cls-76" d="M52.29,35.56l-2.68-1.3s-.31-.1-.32-.07A2.44,2.44,0,0,1,47.36,36,1.85,1.85,0,0,1,47,36a2.09,2.09,0,0,1-1.42-.56"/><path class="cls-77" d="M52.29,35.56l-2.68-1.29s-.3-.1-.32-.07A2.44,2.44,0,0,1,47.35,36L47,36a2,2,0,0,1-1.42-.57"/><path class="cls-78" d="M52.29,35.57l-2.68-1.3s-.3-.1-.32-.06A2.43,2.43,0,0,1,47.35,36a2.61,2.61,0,0,1-.4,0,2,2,0,0,1-1.42-.57"/><path class="cls-20" d="M52.29,35.57l-2.68-1.3s-.3-.09-.31-.05A2.44,2.44,0,0,1,47.35,36a1.76,1.76,0,0,1-.4,0,2,2,0,0,1-1.42-.57"/><path class="cls-21" d="M52.29,35.57l-2.68-1.3s-.3-.08-.31-.05A2.43,2.43,0,0,1,47.35,36a2.64,2.64,0,0,1-.4,0,2,2,0,0,1-1.42-.57"/><path class="cls-79" d="M52.29,35.57l-2.68-1.3s-.29-.08-.31,0A2.44,2.44,0,0,1,47.35,36a2.68,2.68,0,0,1-.4,0,2,2,0,0,1-1.42-.59"/><path class="cls-22" d="M52.29,35.57l-2.68-1.3s-.29-.07-.31,0A2.42,2.42,0,0,1,47.35,36a1.85,1.85,0,0,1-.41,0,2,2,0,0,1-1.41-.58"/><path class="cls-23" d="M52.29,35.57l-2.68-1.3s-.29-.07-.31,0A2.42,2.42,0,0,1,47.35,36a2.77,2.77,0,0,1-.41,0,2,2,0,0,1-1.41-.58"/><path class="cls-80" d="M52.29,35.57l-2.69-1.3s-.28-.06-.3,0A2.4,2.4,0,0,1,47.35,36a2.82,2.82,0,0,1-.41,0,2.08,2.08,0,0,1-1.41-.59"/><path class="cls-24" d="M52.29,35.58l-2.69-1.3s-.27-.06-.3,0a2.41,2.41,0,0,1-2,1.73,2.64,2.64,0,0,1-.4,0,2.08,2.08,0,0,1-1.41-.59"/><path class="cls-81" d="M52.29,35.58l-2.69-1.3s-.27-.06-.29,0a2.44,2.44,0,0,1-2,1.72,2.64,2.64,0,0,1-.4,0,2,2,0,0,1-1.41-.59"/><path class="cls-82" d="M52.29,35.58l-2.69-1.3s-.27-.05-.29,0a2.42,2.42,0,0,1-2,1.71,2.68,2.68,0,0,1-.4,0,2,2,0,0,1-1.41-.6"/><path class="cls-83" d="M52.29,35.58l-2.69-1.3s-.27-.05-.29,0a2.42,2.42,0,0,1-2,1.71,2.67,2.67,0,0,1-.4,0,2,2,0,0,1-1.41-.6"/><path class="cls-27" d="M52.28,35.58l-2.68-1.3s-.27,0-.29,0a2.41,2.41,0,0,1-2,1.71,1.86,1.86,0,0,1-.41,0,2,2,0,0,1-1.4-.6"/><path class="cls-84" d="M52.28,35.58l-2.68-1.3s-.26,0-.29,0a2.39,2.39,0,0,1-2,1.7,1.88,1.88,0,0,1-.41,0,2,2,0,0,1-1.4-.6"/><path class="cls-85" d="M52.28,35.58l-2.68-1.3s-.26,0-.29,0a2.4,2.4,0,0,1-2,1.7h-.4a2,2,0,0,1-1.4-.62"/><path class="cls-29" d="M52.28,35.59l-2.68-1.3s-.26,0-.29,0a2.39,2.39,0,0,1-2,1.69,1.77,1.77,0,0,1-.4,0,2,2,0,0,1-1.4-.61"/><path class="cls-86" d="M52.28,35.59l-2.68-1.3s-.26,0-.28,0a2.42,2.42,0,0,1-2,1.7h-.4a2,2,0,0,1-1.4-.61"/><path class="cls-87" d="M52.28,35.59l-2.69-1.3s-.24,0-.27,0a2.41,2.41,0,0,1-2,1.69h-.4a2.08,2.08,0,0,1-1.4-.62"/><path class="cls-88" d="M52.28,35.59l-2.69-1.3s-.24,0-.27.05a2.39,2.39,0,0,1-2,1.68,1.79,1.79,0,0,1-.4,0,2.08,2.08,0,0,1-1.4-.62"/><path class="cls-32" d="M52.28,35.59l-2.69-1.3s-.24,0-.27.06a2.4,2.4,0,0,1-2,1.68h-.41a2,2,0,0,1-1.39-.62"/><path class="cls-89" d="M52.28,35.59l-2.69-1.3s-.24,0-.27.06a2.39,2.39,0,0,1-2,1.68h-.41a2,2,0,0,1-1.39-.63"/><path class="cls-90" d="M52.28,35.6l-2.69-1.31s-.24,0-.27.07a2.37,2.37,0,0,1-2,1.67,1.88,1.88,0,0,1-.41,0,2,2,0,0,1-1.39-.63"/><path class="cls-34" d="M52.28,35.6l-2.69-1.3s-.23,0-.26.07a2.41,2.41,0,0,1-2,1.67h-.4a2,2,0,0,1-1.39-.63"/><path class="cls-91" d="M52.28,35.6l-2.69-1.3s-.23,0-.26.08a2.39,2.39,0,0,1-2,1.66h-.4a2,2,0,0,1-1.39-.64"/><path class="cls-92" d="M52.27,35.6l-2.68-1.3s-.23,0-.26.08a2.39,2.39,0,0,1-2,1.67,2.67,2.67,0,0,1-.4,0,2,2,0,0,1-1.39-.64"/><path class="cls-36" d="M52.27,35.6l-2.68-1.3s-.23,0-.26.09a2.39,2.39,0,0,1-2,1.66,2.67,2.67,0,0,1-.4,0,2,2,0,0,1-1.39-.64"/><path class="cls-93" d="M52.27,35.6l-2.68-1.3s-.22,0-.26.1a2.37,2.37,0,0,1-2,1.65,2.67,2.67,0,0,1-.4,0,2,2,0,0,1-1.39-.65"/><path class="cls-94" d="M52.27,35.6l-2.68-1.3c0,.05-.22,0-.26.11a2.39,2.39,0,0,1-2,1.65h-.41a2.05,2.05,0,0,1-1.38-.65"/><path class="cls-95" d="M52.27,35.61l-2.69-1.3s-.21,0-.25.11a2.36,2.36,0,0,1-2,1.64h-.41a2.05,2.05,0,0,1-1.38-.65"/><path class="cls-39" d="M52.27,35.61l-2.69-1.3s-.21,0-.24.11a2.37,2.37,0,0,1-2,1.64h-.4a2,2,0,0,1-1.38-.65"/><path class="cls-96" d="M52.27,35.61l-2.69-1.3s-.21,0-.24.12a2.4,2.4,0,0,1-2,1.64h-.4a2,2,0,0,1-1.38-.66"/><path class="cls-97" d="M52.27,35.61l-2.69-1.3s-.2,0-.24.13a2.37,2.37,0,0,1-2,1.63h-.4a2,2,0,0,1-1.38-.66"/><path class="cls-41" d="M52.27,35.61l-2.69-1.3s-.2,0-.24.14a2.39,2.39,0,0,1-2,1.63,2.67,2.67,0,0,1-.4,0,2,2,0,0,1-1.38-.66"/><path class="cls-98" d="M52.27,35.61l-2.69-1.3s-.2,0-.24.14a2.36,2.36,0,0,1-2,1.63,2.81,2.81,0,0,1-.41,0,2,2,0,0,1-1.37-.67"/><path class="cls-99" d="M52.27,35.62l-2.69-1.31s-.2.06-.24.15a2.34,2.34,0,0,1-2,1.62,2.81,2.81,0,0,1-.41,0,2,2,0,0,1-1.37-.67"/><path class="cls-43" d="M52.27,35.62l-2.69-1.3s-.19,0-.24.15a2.35,2.35,0,0,1-2,1.62,2.81,2.81,0,0,1-.41,0,2,2,0,0,1-1.37-.67"/><path class="cls-44" d="M52.27,35.62l-2.69-1.3s-.19.06-.23.16a2.38,2.38,0,0,1-2.05,1.61h-.4a2.05,2.05,0,0,1-1.37-.68"/><path class="cls-100" d="M52.26,35.62l-2.68-1.3s-.19.06-.23.16a2.36,2.36,0,0,1-2.05,1.61h-.4a2.05,2.05,0,0,1-1.37-.68"/><path class="cls-101" d="M52.26,35.62l-2.68-1.3s-.19.07-.23.17A2.36,2.36,0,0,1,47.3,36.1a2.67,2.67,0,0,1-.4,0,2,2,0,0,1-1.37-.68"/><path class="cls-46" d="M52.26,35.62l-2.69-1.3s-.17.08-.22.18a2.34,2.34,0,0,1-2.05,1.6,1.77,1.77,0,0,1-.4,0,2,2,0,0,1-1.37-.68"/><path class="cls-102" d="M52.26,35.62l-2.69-1.3c0,.06-.17.08-.22.19a2.35,2.35,0,0,1-2.05,1.6h-.4a2,2,0,0,1-1.37-.69"/><path class="cls-47" d="M52.26,35.63l-2.69-1.31c0,.06-.17.09-.22.19a2.34,2.34,0,0,1-2.05,1.6,2.81,2.81,0,0,1-.41,0,2,2,0,0,1-1.36-.69"/><path class="cls-48" d="M52.26,35.63l-2.69-1.3c0,.05-.17.08-.22.19a2.33,2.33,0,0,1-2.05,1.59,1.88,1.88,0,0,1-.41,0,2,2,0,0,1-1.36-.7"/><path class="cls-103" d="M52.26,35.63l-2.69-1.3c0,.05-.17.09-.21.2a2.36,2.36,0,0,1-2.07,1.59h-.4a2,2,0,0,1-1.36-.7"/><path class="cls-49" d="M52.26,35.63l-2.69-1.3c0,.06-.16.09-.21.21a2.36,2.36,0,0,1-2.07,1.58,2.67,2.67,0,0,1-.4,0,2,2,0,0,1-1.36-.71"/><path class="cls-50" d="M52.26,35.63l-2.69-1.3c0,.06-.16.1-.21.21a2.33,2.33,0,0,1-2.07,1.58,1.79,1.79,0,0,1-.4,0,2,2,0,0,1-1.36-.7"/><path class="cls-51" d="M52.26,35.63l-2.69-1.3c0,.06-.16.11-.21.22a2.33,2.33,0,0,1-2.07,1.58h-.4a2,2,0,0,1-1.36-.71"/><path class="cls-104" d="M52.26,35.63l-2.69-1.3c0,.06-.16.11-.21.23a2.33,2.33,0,0,1-2.07,1.57,2.64,2.64,0,0,1-.4,0,2,2,0,0,1-1.36-.71"/><path class="cls-105" d="M52.26,35.64l-2.69-1.31c0,.07-.15.12-.21.24a2.35,2.35,0,0,1-2.07,1.57,2.82,2.82,0,0,1-.41,0,2,2,0,0,1-1.35-.71"/><path class="cls-53" d="M52.25,35.64l-2.68-1.3c0,.06-.15.11-.21.23a2.32,2.32,0,0,1-2.07,1.57,2.75,2.75,0,0,1-.41,0,2,2,0,0,1-1.35-.71"/><path class="cls-106" d="M52.25,35.64l-2.69-1.3c0,.06-.14.12-.19.24a2.34,2.34,0,0,1-2.09,1.56,2.67,2.67,0,0,1-.4,0,2,2,0,0,1-1.35-.72"/><path class="cls-54" d="M52.25,35.64l-2.69-1.3c0,.06-.14.13-.19.25a2.34,2.34,0,0,1-2.09,1.56,2.68,2.68,0,0,1-.4,0,2,2,0,0,1-1.35-.72"/><path class="cls-55" d="M52.25,35.64l-2.69-1.3c0,.07-.13.13-.19.26a2.33,2.33,0,0,1-2.09,1.55,1.76,1.76,0,0,1-.4,0,2,2,0,0,1-1.35-.72"/><path class="cls-107" d="M52.25,35.64l-2.69-1.3c0,.07-.13.14-.19.27a2.33,2.33,0,0,1-2.09,1.54,2.64,2.64,0,0,1-.4,0,2,2,0,0,1-1.35-.73"/><path class="cls-108" d="M52.25,35.64l-2.69-1.3c0,.07-.13.14-.19.27a2.33,2.33,0,0,1-2.09,1.55l-.4,0a2,2,0,0,1-1.35-.74"/><path class="cls-109" d="M52.25,35.65l-2.69-1.31c0,.07-.13.15-.19.28a2.3,2.3,0,0,1-2.09,1.54,2.61,2.61,0,0,1-.4,0,2,2,0,0,1-1.35-.73"/><path class="cls-110" d="M52.25,35.65l-2.69-1.3c0,.06-.13.14-.18.28a2.32,2.32,0,0,1-2.1,1.53,2.77,2.77,0,0,1-.41,0,2,2,0,0,1-1.34-.75"/><path class="cls-111" d="M52.25,35.65l-2.69-1.3a3.31,3.31,0,0,0-.18.29,2.35,2.35,0,0,1-2.1,1.53,2.75,2.75,0,0,1-.41,0,2,2,0,0,1-1.34-.74"/><path class="cls-112" d="M52.25,35.65l-2.69-1.3c0,.07-.12.16-.18.29a2.31,2.31,0,0,1-2.11,1.53,1.76,1.76,0,0,1-.4,0,2,2,0,0,1-1.34-.74"/><path class="cls-113" d="M52.25,35.65l-2.69-1.3c0,.07-.12.16-.18.3a2.32,2.32,0,0,1-2.11,1.53l-.4,0a2,2,0,0,1-1.34-.75"/><path class="cls-114" d="M52.25,35.65l-2.69-1.3c0,.07-.12.17-.18.31a2.3,2.3,0,0,1-2.11,1.52,2.61,2.61,0,0,1-.4,0,2,2,0,0,1-1.34-.75"/><path class="cls-115" d="M52.25,35.66l-2.7-1.31c0,.08-.1.17-.17.32a2.29,2.29,0,0,1-2.11,1.51,1.76,1.76,0,0,1-.4,0,2,2,0,0,1-1.34-.75"/><path class="cls-62" d="M52.24,35.66l-2.69-1.31a2.67,2.67,0,0,1-.17.32,2.29,2.29,0,0,1-2.11,1.52,2.5,2.5,0,0,1-.4,0,2,2,0,0,1-1.34-.75"/><path class="cls-116" d="M52.24,35.66l-2.69-1.3c0,.07-.1.18-.16.32a2.31,2.31,0,0,1-2.12,1.51l-.41,0a2,2,0,0,1-1.33-.76"/><path class="cls-117" d="M52.24,35.66l-2.69-1.3c0,.07-.1.18-.16.33a2.32,2.32,0,0,1-2.13,1.51,2.6,2.6,0,0,1-.4,0,2,2,0,0,1-1.33-.76"/><path class="cls-118" d="M52.24,35.66l-2.69-1.3a3,3,0,0,1-.16.34,2.3,2.3,0,0,1-2.13,1.5,2.6,2.6,0,0,1-.4,0,2,2,0,0,1-1.33-.76"/><path class="cls-119" d="M52.24,35.66l-2.69-1.3c0,.08-.09.19-.16.34a2.28,2.28,0,0,1-2.13,1.5,2.61,2.61,0,0,1-.4,0,2,2,0,0,1-1.33-.78"/><path class="cls-120" d="M52.24,35.66l-2.69-1.3c0,.08-.09.2-.16.35a2.29,2.29,0,0,1-2.13,1.5,2.6,2.6,0,0,1-.4,0,2,2,0,0,1-1.33-.77"/><path class="cls-121" d="M52.24,35.67l-2.69-1.31c0,.08-.09.21-.16.36a2.28,2.28,0,0,1-2.13,1.49,2.5,2.5,0,0,1-.4,0,1.94,1.94,0,0,1-1.33-.78"/><path class="cls-122" d="M52.24,35.67l-2.69-1.31c0,.09-.09.21-.16.37a2.26,2.26,0,0,1-2.13,1.48l-.41,0a2,2,0,0,1-1.32-.78"/><path class="cls-123" d="M52.24,35.67l-2.69-1.3c0,.08-.08.21-.15.36a2.29,2.29,0,0,1-2.14,1.49,2.73,2.73,0,0,1-.41,0,2,2,0,0,1-1.32-.79"/><path class="cls-124" d="M52.24,35.67l-2.69-1.3c0,.08-.08.21-.15.37a2.27,2.27,0,0,1-2.14,1.48,2.63,2.63,0,0,1-.41,0,2,2,0,0,1-1.32-.78"/><path class="cls-69" d="M45.53,35.41a2,2,0,0,0,1.72.81,2.4,2.4,0,0,0,2.29-1.85l2.7,1.3"/><path class="cls-6" d="M30.33,26.82H26.07l-1.36,4.63a10.26,10.26,0,0,0-.26,1.25"/><path class="cls-70" d="M30.34,26.83H26.07l-1.28,4.36-.08.26a10.09,10.09,0,0,0-.23,1.12.15.15,0,0,0,0,.07v.06"/><path class="cls-7" d="M30.34,26.83H26.07L24.79,31.2l-.08.26a10.4,10.4,0,0,0-.23,1.11s0,0,0,.07,0,0,0,.07"/><path class="cls-8" d="M30.34,26.83H26.08L24.79,31.2l-.08.27a9.92,9.92,0,0,0-.23,1.11.17.17,0,0,1,0,.07s0,0,0,.07"/><path class="cls-9" d="M30.34,26.84H26.08l-1.29,4.37-.07.26a10.09,10.09,0,0,0-.23,1.12l0,.07s0,0,0,.06"/><path class="cls-71" d="M30.34,26.84H26.08L24.8,31.22a2,2,0,0,0-.08.26,10.09,10.09,0,0,0-.23,1.12.15.15,0,0,0,0,.07s0,0,0,.06"/><path class="cls-10" d="M30.34,26.84H26.08L24.8,31.22s-.08.26-.08.27a10.4,10.4,0,0,0-.23,1.11s0,0,0,.07a.19.19,0,0,1,0,.07"/><path class="cls-72" d="M30.34,26.85H26.09L24.8,31.23l-.08.26a10.09,10.09,0,0,0-.23,1.12.17.17,0,0,1,0,.07s0,0,0,.06"/><path class="cls-73" d="M30.34,26.85H26.09L24.8,31.24s-.07.25-.07.26a8.23,8.23,0,0,0-.23,1.12.64.64,0,0,0,0,.07s0,0,0,.06"/><path class="cls-74" d="M30.34,26.85H26.09L24.8,31.24s-.07.26-.07.26a11.13,11.13,0,0,0-.23,1.12s0,.05,0,.07a.25.25,0,0,0,0,.07"/><path class="cls-13" d="M30.34,26.86H26.1l-1.29,4.39a2.58,2.58,0,0,0-.08.26,10.09,10.09,0,0,0-.23,1.12v.07s0,0,0,.06"/><path class="cls-75" d="M30.34,26.86H26.1l-1.29,4.39a2.76,2.76,0,0,1-.08.27,10.09,10.09,0,0,0-.23,1.12.17.17,0,0,1,0,.07.14.14,0,0,1,0,.06"/><path class="cls-14" d="M30.34,26.86H26.1l-1.29,4.4a2.58,2.58,0,0,1-.08.26,10.74,10.74,0,0,0-.22,1.13.64.64,0,0,0,0,.07.14.14,0,0,1,0,.06"/><path class="cls-15" d="M30.34,26.87H26.11l-1.3,4.4s-.07.25-.07.26a10.59,10.59,0,0,0-.23,1.12s0,.05,0,.07a.14.14,0,0,0,0,.06"/><path class="cls-16" d="M30.34,26.87H26.11l-1.29,4.4a2.76,2.76,0,0,0-.08.27,10.09,10.09,0,0,0-.23,1.12s0,.05,0,.07,0,0,0,.06"/><path class="cls-17" d="M30.34,26.88H26.11l-1.29,4.4s-.07.25-.08.26a10.77,10.77,0,0,0-.23,1.13.17.17,0,0,1,0,.07s0,0,0,.06"/><path class="cls-17" d="M30.34,26.88H26.12l-1.3,4.41s-.07.24-.08.26a10.26,10.26,0,0,0-.22,1.13l0,.07s0,0,0,0"/><path class="cls-76" d="M30.34,26.88H26.12l-1.3,4.41s-.07.25-.07.27a10.09,10.09,0,0,0-.23,1.12v.07l0,.06"/><path class="cls-77" d="M30.35,26.89H26.12l-1.3,4.41s-.07.24-.07.26a10.77,10.77,0,0,0-.23,1.13v.07s0,0,0,.06"/><path class="cls-78" d="M30.35,26.89H26.12L24.83,31.3s-.07.25-.08.27a10.27,10.27,0,0,0-.23,1.13v.07s0,0,0,0"/><path class="cls-20" d="M30.35,26.89H26.13l-1.3,4.42s-.07.24-.08.27a10.08,10.08,0,0,0-.22,1.12l0,.08s0,0,0,0"/><path class="cls-21" d="M30.35,26.9H26.13l-1.3,4.42s-.07.24-.08.26c-.09.37-.16.75-.22,1.13a.17.17,0,0,0,0,.07s0,0,0,.06"/><path class="cls-79" d="M30.35,26.9H26.13l-1.3,4.42s-.07.25-.07.27a10.27,10.27,0,0,0-.23,1.13s0,.05,0,.07a.09.09,0,0,1,0,.05"/><path class="cls-22" d="M30.35,26.9H26.14l-1.3,4.43s-.07.24-.08.27a10.27,10.27,0,0,0-.23,1.13.23.23,0,0,1,0,.07s0,0,0,.05"/><path class="cls-23" d="M30.35,26.91H26.14l-1.3,4.43s-.07.24-.08.26a10.74,10.74,0,0,0-.22,1.13s0,.05,0,.08,0,0,0,0"/><path class="cls-80" d="M30.35,26.91H26.14l-1.3,4.43-.08.27c-.09.36-.16.75-.22,1.13,0,0,0,0,0,.07l0,0"/><path class="cls-24" d="M30.35,26.91h-4.2l-1.31,4.44a2.13,2.13,0,0,0-.07.27,10.27,10.27,0,0,0-.23,1.13v.07s0,0,0,0"/><path class="cls-81" d="M30.35,26.92h-4.2l-1.31,4.43a2.68,2.68,0,0,1-.07.27,10.77,10.77,0,0,0-.23,1.13.25.25,0,0,1,0,.08s0,0,0,.05"/><path class="cls-82" d="M30.35,26.92h-4.2l-1.3,4.44-.08.27a10.74,10.74,0,0,0-.22,1.13s0,.05,0,.07a.09.09,0,0,1,0,.05"/><path class="cls-83" d="M30.35,26.92H26.16l-1.31,4.45-.08.26c-.09.37-.16.76-.22,1.14,0,0,0,0,0,.07s0,0,0,0"/><path class="cls-27" d="M30.35,26.93H26.16l-1.31,4.44a2.68,2.68,0,0,0-.07.27,11,11,0,0,0-.23,1.14s0,0,0,.07,0,0,0,0"/><path class="cls-84" d="M30.35,26.93H26.16l-1.31,4.45-.07.27a10.77,10.77,0,0,0-.23,1.13.25.25,0,0,1,0,.08l0,0"/><path class="cls-85" d="M30.35,26.93H26.17l-1.31,4.46-.08.26a10.92,10.92,0,0,0-.22,1.14s0,.05,0,.07,0,0,0,0"/><path class="cls-29" d="M30.35,26.94H26.17l-1.31,4.45-.08.27a10.92,10.92,0,0,0-.22,1.14s0,.05,0,.07,0,0,0,0"/><path class="cls-86" d="M30.35,26.94H26.17L24.86,31.4a2.13,2.13,0,0,0-.07.27,10.45,10.45,0,0,0-.23,1.14s0,0,0,.07l0,0"/><path class="cls-87" d="M30.35,26.94H26.17L24.86,31.4l-.07.27a11,11,0,0,0-.23,1.14s0,0,0,.08,0,0,0,0"/><path class="cls-88" d="M30.36,27H26.18l-1.32,4.46-.07.27a10.92,10.92,0,0,0-.22,1.14l0,.07s0,0,0,0"/><path class="cls-32" d="M30.36,27H26.18l-1.31,4.47-.08.27c-.09.37-.16.76-.22,1.14v.07l0,0"/><path class="cls-89" d="M30.36,27H26.18l-1.31,4.47-.08.27c-.09.37-.16.76-.22,1.14v.08s0,0,0,0"/><path class="cls-90" d="M30.36,27H26.19l-1.32,4.47-.07.27a11,11,0,0,0-.23,1.14v.08s0,0,0,0"/><path class="cls-34" d="M30.36,27H26.19l-1.32,4.48s-.06.22-.07.27a10.92,10.92,0,0,0-.22,1.14l0,.07s0,0,0,0"/><path class="cls-91" d="M30.36,27H26.19l-1.31,4.48a2.76,2.76,0,0,0-.08.27,10.62,10.62,0,0,0-.22,1.15v.07l0,0"/><path class="cls-92" d="M30.36,27H26.2l-1.32,4.48s-.07.22-.08.27c-.09.37-.16.76-.22,1.14v.08s0,0,0,0"/><path class="cls-36" d="M30.36,27H26.2l-1.32,4.48c0,.05-.06.23-.07.27a11.7,11.7,0,0,0-.23,1.15v.07s0,0,0,0"/><path class="cls-93" d="M30.36,27H26.2l-1.32,4.49c0,.05-.06.22-.07.27-.1.37-.16.76-.23,1.15a.2.2,0,0,1,0,.07s0,0,0,0"/><path class="cls-94" d="M30.36,27H26.21l-1.33,4.49s-.06.22-.07.27a10.62,10.62,0,0,0-.22,1.15s0,0,0,.07l0,0"/><path class="cls-95" d="M30.36,27H26.21l-1.32,4.49c0,.05-.07.23-.08.27-.09.38-.16.77-.22,1.15,0,0,0,0,0,.08l0,0"/><path class="cls-39" d="M30.36,27H26.21l-1.32,4.5a2.76,2.76,0,0,1-.08.27c-.09.38-.16.77-.22,1.15V33s0,0,0,0"/><path class="cls-96" d="M30.36,27H26.21l-1.32,4.5c0,.05-.06.22-.07.27a10.62,10.62,0,0,0-.22,1.15s0,.05,0,.07,0,0,0,0"/><path class="cls-97" d="M30.36,27H26.22l-1.33,4.5c0,.05-.06.22-.07.27a11.64,11.64,0,0,0-.22,1.15s0,.05,0,.08-.05,0-.05,0"/><path class="cls-41" d="M30.36,27H26.22L24.9,31.5a2.76,2.76,0,0,0-.08.27c-.09.38-.16.77-.22,1.15,0,0,0,0,0,.08l-.05,0"/><path class="cls-98" d="M30.36,27H26.22L24.9,31.5c0,.06-.06.22-.08.28-.09.37-.16.76-.22,1.15,0,0,0,0,0,.07l-.05,0"/><path class="cls-99" d="M30.36,27H26.23L24.9,31.51c0,.06-.06.22-.07.27a11.3,11.3,0,0,0-.22,1.16s0,.05,0,.07,0,0,0,0"/><path class="cls-43" d="M30.36,27H26.23L24.9,31.52c0,.05-.06.21-.07.27a11.64,11.64,0,0,0-.22,1.15s0,.05,0,.08l-.05,0"/><path class="cls-44" d="M30.37,27H26.23L24.9,31.52c0,.06-.06.22-.07.28-.09.37-.16.76-.22,1.15,0,0,0,0,0,.08l-.05,0"/><path class="cls-100" d="M30.37,27H26.24l-1.33,4.52c0,.06-.06.22-.08.27-.09.38-.16.77-.22,1.16a.2.2,0,0,1,0,.07s-.05,0-.05,0"/><path class="cls-101" d="M30.37,27H26.24l-1.33,4.53a2.13,2.13,0,0,0-.07.27c-.1.38-.16.77-.23,1.16a.23.23,0,0,1,0,.07l-.05,0"/><path class="cls-46" d="M30.37,27H26.24l-1.33,4.52c0,.06-.06.22-.07.28A11.11,11.11,0,0,0,24.62,33s0,.05,0,.08l-.06,0"/><path class="cls-102" d="M30.37,27H26.25l-1.34,4.53c0,.06-.06.21-.07.27A11.3,11.3,0,0,0,24.62,33v.08l-.05,0"/><path class="cls-47" d="M30.37,27H26.25l-1.33,4.54-.08.27c-.09.38-.16.77-.22,1.16v.07s-.05,0-.05,0"/><path class="cls-48" d="M30.37,27H26.25l-1.33,4.53a2.29,2.29,0,0,0-.07.28A11.11,11.11,0,0,0,24.63,33l0,.08-.05,0"/><path class="cls-103" d="M30.37,27H26.25l-1.33,4.54a2.68,2.68,0,0,0-.07.27A11.3,11.3,0,0,0,24.63,33v.08l-.06,0"/><path class="cls-49" d="M30.37,27H26.26l-1.34,4.54c0,.07-.06.21-.07.28A11.3,11.3,0,0,0,24.63,33v.07s-.06,0-.06,0"/><path class="cls-50" d="M30.37,27H26.26l-1.34,4.54a2.13,2.13,0,0,1-.07.27c-.09.38-.16.78-.22,1.17v.07l-.05,0"/><path class="cls-51" d="M30.37,27H26.26l-1.33,4.55-.08.27c-.09.38-.15.78-.21,1.16,0,0,0,.06,0,.08l-.05,0"/><path class="cls-104" d="M30.37,27h-4.1l-1.34,4.55a2.86,2.86,0,0,0-.07.28A11.3,11.3,0,0,0,24.64,33v.08s-.06,0-.06,0"/><path class="cls-105" d="M30.37,27.05h-4.1L24.93,31.6c0,.07-.06.21-.07.27A11.49,11.49,0,0,0,24.64,33a.56.56,0,0,0,0,.07l-.06,0"/><path class="cls-53" d="M30.37,27.05h-4.1l-1.34,4.56c0,.06-.05.2-.07.27-.09.38-.16.78-.22,1.16,0,0,0,.06,0,.08s-.06,0-.06,0"/><path class="cls-106" d="M30.37,27.05H26.28l-1.34,4.56-.08.28c-.09.38-.15.77-.22,1.16a.28.28,0,0,1,0,.08l-.06,0"/><path class="cls-54" d="M30.37,27.06H26.28l-1.34,4.56a2.68,2.68,0,0,0-.07.27,11.49,11.49,0,0,0-.22,1.17.54.54,0,0,0,0,.08h-.06"/><path class="cls-55" d="M30.37,27.06H26.28l-1.34,4.56c0,.08-.06.21-.07.28a11.49,11.49,0,0,0-.22,1.17v.07l-.06,0"/><path class="cls-107" d="M30.38,27.06H26.29l-1.35,4.57-.07.28c-.09.38-.16.78-.22,1.16,0,0,0,.06,0,.08s-.06,0-.06,0"/><path class="cls-108" d="M30.38,27.07H26.29l-1.35,4.57-.07.27c-.09.38-.16.78-.22,1.17v.08h-.06"/><path class="cls-109" d="M30.38,27.07H26.29L25,31.64c0,.08-.06.2-.08.28-.09.38-.15.78-.21,1.17v.08h-.07"/><path class="cls-110" d="M30.38,27.07H26.29L25,31.65a2.86,2.86,0,0,0-.07.28,11.49,11.49,0,0,0-.22,1.17.56.56,0,0,0,0,.07l-.07,0"/><path class="cls-111" d="M30.38,27.08H26.3L25,31.66l-.07.27c-.09.38-.16.78-.22,1.17,0,0,0,.06,0,.08h-.06"/><path class="cls-112" d="M30.38,27.08H26.3L25,31.66l-.07.28c-.09.38-.15.78-.21,1.17,0,0,0,0,0,.08h-.06"/><path class="cls-113" d="M30.38,27.08H26.3L25,31.67a2.29,2.29,0,0,0-.08.28c-.09.38-.15.78-.21,1.17a.54.54,0,0,0,0,.08h-.07"/><path class="cls-114" d="M30.38,27.09H26.31L25,31.67l-.07.28a11.49,11.49,0,0,0-.22,1.17v.08h-.07"/><path class="cls-115" d="M30.38,27.09H26.31L25,31.68l-.07.28c-.09.38-.16.78-.22,1.17v.08h-.07"/><path class="cls-62" d="M30.38,27.09H26.31L25,31.69l-.07.27c-.09.39-.15.79-.22,1.18v.08H24.6"/><path class="cls-116" d="M30.38,27.1H26.32L25,31.69c0,.09-.06.2-.08.28-.09.39-.15.79-.21,1.18v.08H24.6"/><path class="cls-117" d="M30.38,27.1H26.32L25,31.7a2.29,2.29,0,0,0-.07.28,11.49,11.49,0,0,0-.22,1.17v.08H24.6"/><path class="cls-118" d="M30.38,27.1H26.32L25,31.71,24.9,32c-.09.39-.16.79-.22,1.18v.08H24.6"/><path class="cls-119" d="M30.38,27.11H26.33L25,31.71c0,.09,0,.19-.07.28-.09.39-.16.79-.22,1.18v.08H24.6"/><path class="cls-120" d="M30.38,27.11H26.33L25,31.72c0,.09,0,.19-.07.28-.09.38-.15.78-.21,1.18v.07H24.6"/><path class="cls-121" d="M30.38,27.11H26.33L25,31.73c0,.08-.05.18-.08.27-.09.39-.15.79-.21,1.18v.08h-.07"/><path class="cls-122" d="M30.38,27.12h-4L25,31.73a2.86,2.86,0,0,0-.07.28c-.1.39-.16.79-.22,1.18a.54.54,0,0,0,0,.08h-.07"/><path class="cls-123" d="M30.38,27.12h-4L25,31.74c0,.09-.05.18-.07.28-.09.38-.16.79-.22,1.18v.08h-.07"/><path class="cls-124" d="M30.39,27.13H26.34L25,31.74c0,.1-.05.19-.07.28-.09.39-.15.79-.21,1.18l0,.08h-.07"/><path class="cls-69" d="M23.21,38.6l-1.46-4.67a11.69,11.69,0,0,1-.39-1.45m3.25.81h.08v-.08A10.19,10.19,0,0,1,25,31.75l1.35-4.62h4.05"/><path class="cls-124" d="M21.36,32.48a4,4,0,0,0,.12.58c.06.17.12.35.17.54a3.18,3.18,0,0,1,.09.33l1.47,4.67"/><path class="cls-123" d="M21.35,32.48c0,.19.08.39.13.58s.11.35.17.54.06.22.09.33l1.47,4.67"/><path class="cls-122" d="M21.35,32.48a4,4,0,0,0,.13.58c.05.17.11.35.17.54s.06.22.09.33L23.2,38.6"/><path class="cls-121" d="M21.35,32.48a3,3,0,0,0,.13.58c.05.17.11.35.17.54s.06.22.09.33L23.2,38.6"/><path class="cls-120" d="M21.35,32.48a2.86,2.86,0,0,0,.13.58c.05.17.11.35.16.54s.07.22.1.33L23.2,38.6"/><path class="cls-119" d="M21.35,32.48a3.73,3.73,0,0,0,.12.58c.06.17.11.35.17.54a3.18,3.18,0,0,1,.09.33L23.2,38.6"/><path class="cls-118" d="M21.35,32.48a4,4,0,0,0,.12.58c.05.17.11.35.17.54a3.18,3.18,0,0,1,.09.33L23.2,38.6"/><path class="cls-117" d="M21.34,32.48c0,.18.08.4.13.58s.11.35.17.54.06.23.09.33l1.46,4.67"/><path class="cls-116" d="M21.34,32.48a5.43,5.43,0,0,0,.13.58c.05.17.11.35.17.54s.06.23.09.33l1.46,4.67"/><path class="cls-62" d="M21.34,32.48a3.75,3.75,0,0,0,.13.58c.05.17.11.35.16.54l.1.33,1.46,4.67"/><path class="cls-115" d="M21.34,32.48a3.75,3.75,0,0,0,.13.58c.05.17.11.35.16.54s.07.23.09.33l1.47,4.67"/><path class="cls-114" d="M21.34,32.48a3.73,3.73,0,0,0,.12.58c.05.17.11.36.17.54a3.18,3.18,0,0,1,.09.33l1.47,4.67"/><path class="cls-113" d="M21.34,32.48a4,4,0,0,0,.12.58c.05.18.11.36.17.54s.07.23.09.33l1.46,4.67"/><path class="cls-112" d="M21.34,32.48a3.73,3.73,0,0,0,.12.58c.05.18.11.36.17.54s.06.23.09.33l1.46,4.67"/><path class="cls-111" d="M21.33,32.48a3.75,3.75,0,0,0,.13.58c.05.18.11.36.16.54l.1.33,1.46,4.67"/><path class="cls-110" d="M21.33,32.48a3.75,3.75,0,0,0,.13.58c.05.18.11.36.16.54s.07.24.09.33l1.47,4.67"/><path class="cls-109" d="M21.33,32.48a3.75,3.75,0,0,0,.13.58c.05.18.1.36.16.54s.07.24.09.33l1.47,4.67"/><path class="cls-108" d="M21.33,32.48a5.41,5.41,0,0,0,.12.58c.05.18.11.36.17.55s.07.23.09.32l1.46,4.67"/><path class="cls-107" d="M21.33,32.48a5.41,5.41,0,0,0,.12.58c.05.18.11.36.16.55a3,3,0,0,1,.1.32l1.46,4.67"/><path class="cls-55" d="M21.33,32.48a5.41,5.41,0,0,0,.12.58c.05.18.11.36.16.55s.07.23.1.32l1.46,4.67"/><path class="cls-54" d="M21.33,32.48a3.73,3.73,0,0,0,.12.58c.05.18.11.36.16.55s.07.24.09.32l1.47,4.67"/><path class="cls-106" d="M21.32,32.48a5.43,5.43,0,0,0,.13.58c.05.18.1.36.16.55l.09.32,1.47,4.67"/><path class="cls-53" d="M21.32,32.48a3.51,3.51,0,0,0,.13.58c0,.18.1.36.16.55l.09.32,1.46,4.67"/><path class="cls-105" d="M21.32,32.48a5.41,5.41,0,0,0,.12.58c0,.18.11.36.16.55a3,3,0,0,1,.1.32l1.46,4.67"/><path class="cls-104" d="M21.32,32.48a5.41,5.41,0,0,0,.12.58c0,.18.11.36.16.55a3,3,0,0,1,.1.32l1.46,4.67"/><path class="cls-51" d="M21.32,32.48a5.41,5.41,0,0,0,.12.58c0,.18.11.36.16.55l.09.32,1.47,4.67"/><path class="cls-50" d="M21.32,32.48a3.73,3.73,0,0,0,.12.58c0,.18.1.36.16.55l.09.32,1.47,4.67"/><path class="cls-49" d="M21.32,32.48a3.5,3.5,0,0,0,.12.58c0,.18.1.36.16.55l.09.32,1.46,4.67"/><path class="cls-103" d="M21.31,32.48a4.93,4.93,0,0,0,.13.58c0,.18.1.36.15.55s.08.25.1.32l1.46,4.67"/><path class="cls-48" d="M21.31,32.48c0,.14.09.45.12.58s.11.36.16.55l.1.32,1.46,4.67"/><path class="cls-47" d="M21.31,32.48c0,.14.09.45.12.58s.11.36.16.55l.1.32,1.46,4.67"/><path class="cls-102" d="M21.31,32.48a3.5,3.5,0,0,0,.12.58c.05.18.1.36.16.55l.09.32,1.47,4.67"/><path class="cls-46" d="M21.31,32.48a3.5,3.5,0,0,0,.12.58c.05.18.1.36.16.55l.09.32,1.46,4.67"/><path class="cls-101" d="M21.31,32.48a3.5,3.5,0,0,0,.12.58c0,.18.1.36.15.55l.1.32,1.46,4.67"/><path class="cls-100" d="M21.31,32.48a3.5,3.5,0,0,0,.12.58c0,.18.1.36.15.55l.1.32,1.46,4.67"/><path class="cls-44" d="M21.3,32.48c0,.13.09.46.12.58s.11.36.16.55l.1.32,1.46,4.67"/><path class="cls-43" d="M21.3,32.48c0,.13.09.47.12.58s.1.36.16.55.08.26.09.32l1.47,4.67"/><path class="cls-99" d="M21.3,32.48a5,5,0,0,0,.12.58c0,.18.1.36.16.55s.08.26.09.32l1.46,4.67"/><path class="cls-98" d="M21.3,32.48a5,5,0,0,0,.12.58l.15.55.1.33,1.46,4.66"/><path class="cls-41" d="M21.3,32.48a5,5,0,0,0,.12.58c0,.18.1.36.15.55l.1.33,1.46,4.66"/><path class="cls-97" d="M21.3,32.48a3.73,3.73,0,0,0,.12.58c0,.18.1.36.15.55l.1.33,1.46,4.66"/><path class="cls-96" d="M21.3,32.48a5,5,0,0,0,.11.58c.05.18.1.36.16.55s.08.27.09.33l1.47,4.66"/><path class="cls-39" d="M21.29,32.48c0,.12.09.48.12.58l.15.55c0,.06.09.27.1.33l1.46,4.66"/><path class="cls-95" d="M21.29,32.48a5,5,0,0,0,.12.58l.15.55a3.18,3.18,0,0,1,.1.33l1.46,4.66"/><path class="cls-94" d="M21.29,32.48a5,5,0,0,0,.12.58c0,.18.1.36.15.55s.08.27.1.33l1.46,4.66"/><path class="cls-93" d="M21.29,32.48a4.56,4.56,0,0,0,.12.58c0,.18.1.36.15.55s.08.27.1.33l1.46,4.66"/><path class="cls-36" d="M21.29,32.48a5,5,0,0,0,.12.58c0,.18.09.36.15.55s.08.27.09.33l1.47,4.66"/><path class="cls-92" d="M21.29,32.48c0,.11.09.49.11.58l.15.55s.09.28.1.33l1.46,4.66"/><path class="cls-91" d="M21.29,32.48c0,.11.09.49.11.58l.15.55s.09.28.1.33l1.46,4.66"/><path class="cls-34" d="M21.28,32.48c0,.11.1.49.12.58l.15.55s.09.28.1.33l1.46,4.66"/><path class="cls-90" d="M21.28,32.48a4.56,4.56,0,0,0,.12.58c0,.18.1.36.15.55s.08.28.1.33l1.46,4.66"/><path class="cls-89" d="M21.28,32.48a4.56,4.56,0,0,0,.12.58c0,.18.09.36.15.55s.08.28.09.33L23.1,38.6"/><path class="cls-32" d="M21.28,32.48a5,5,0,0,0,.12.58c0,.18.09.36.14.55s.09.28.1.33L23.1,38.6"/><path class="cls-88" d="M21.28,32.48c0,.1.09.5.11.58l.15.55s.09.28.1.33L23.1,38.6"/><path class="cls-87" d="M21.28,32.48a4.6,4.6,0,0,0,.11.58l.15.55.1.33L23.1,38.6"/><path class="cls-86" d="M21.27,32.48c0,.1.1.51.12.58s.1.36.15.55l.1.33L23.1,38.6"/><path class="cls-29" d="M21.27,32.48c0,.1.1.51.12.58s.09.36.15.55l.09.33,1.46,4.66"/><path class="cls-85" d="M21.27,32.48c0,.09.1.51.12.58s.09.36.14.55.09.29.1.33l1.46,4.66"/><path class="cls-84" d="M21.27,32.48c0,.09.1.51.12.58s.09.36.14.55l.1.33,1.46,4.66"/><path class="cls-27" d="M21.27,32.48c0,.09.1.52.11.58l.15.55.1.33,1.46,4.66"/><path class="cls-83" d="M21.27,32.48a4.6,4.6,0,0,0,.11.58l.15.55.1.33,1.46,4.66"/><path class="cls-82" d="M21.27,32.48a4.6,4.6,0,0,0,.11.58c0,.18.09.36.15.55s.09.3.09.33l1.47,4.66"/><path class="cls-81" d="M21.26,32.48c0,.09.1.52.12.58s.09.36.14.56l.1.32,1.46,4.66"/><path class="cls-24" d="M21.26,32.48c0,.08.1.53.12.58s.09.36.14.56l.1.32,1.46,4.66"/><path class="cls-80" d="M21.26,32.48c0,.08.1.53.12.58s.09.36.14.56c0,0,.09.29.1.32l1.46,4.66"/><path class="cls-23" d="M21.26,32.48c0,.08.1.53.11.58s.1.36.15.56c0,0,.09.29.1.32l1.46,4.66"/><path class="cls-22" d="M21.26,32.48c0,.08.1.53.11.58s.09.36.15.56c0,0,.09.29.1.32l1.46,4.66"/><path class="cls-79" d="M21.26,32.48c0,.08.1.53.11.58s.09.36.14.56c0,0,.1.3.1.32l1.46,4.66"/><path class="cls-21" d="M21.26,32.48c0,.08.1.54.11.58s.09.36.14.56c0,0,.09.3.1.32l1.46,4.66"/><path class="cls-20" d="M21.25,32.48c0,.07.1.54.12.58s.09.36.14.56c0,0,.09.3.1.32l1.46,4.66"/><path class="cls-78" d="M21.25,32.48c0,.07.1.54.12.58s.09.36.14.56c0,0,.09.3.1.32l1.46,4.66"/><path class="cls-77" d="M21.25,32.48c0,.07.1.54.11.58s.09.36.14.56c0,0,.1.3.1.32l1.46,4.66"/><path class="cls-76" d="M21.25,32.48c0,.07.1.54.11.58s.09.36.14.56c0,0,.1.3.1.32l1.46,4.66"/><path class="cls-17" d="M21.25,32.48c0,.07.1.55.11.58s.09.36.14.56c0,0,.1.3.1.32l1.46,4.66"/><path class="cls-17" d="M21.25,32.48c0,.06.1.55.11.58s.09.36.14.56a3,3,0,0,0,.1.32l1.46,4.66"/><path class="cls-16" d="M21.25,32.48c0,.06.1.55.11.58s.09.36.14.56c0,0,.09.31.1.32l1.46,4.66"/><path class="cls-15" d="M21.24,32.48c0,.06.11.55.12.58s.08.36.13.56c0,0,.1.31.11.32l1.45,4.66"/><path class="cls-14" d="M21.24,32.48c0,.06.11.56.11.58,0,.18.09.36.14.56,0,0,.1.31.1.32l1.46,4.66"/><path class="cls-75" d="M21.24,32.48c0,.06.11.56.11.58,0,.18.09.36.14.56,0,0,.1.31.1.33l1.46,4.65"/><path class="cls-13" d="M21.24,32.48c0,.06.1.56.11.58,0,.18.09.36.14.56,0,0,.1.31.1.33l1.46,4.65"/><path class="cls-74" d="M21.24,32.48c0,.05.1.56.11.58,0,.18.09.36.14.56,0,0,.09.31.1.33l1.46,4.65"/><path class="cls-73" d="M21.24,32.48c0,.05.1.56.11.58,0,.18.08.36.13.56,0,0,.1.32.11.33L23,38.6"/><path class="cls-72" d="M21.24,32.48a4.28,4.28,0,0,0,.11.58c0,.18.08.36.13.56,0,0,.1.32.1.33L23,38.6"/><path class="cls-10" d="M21.23,32.48c0,.05.11.57.11.58,0,.18.09.36.14.56,0,0,.1.32.1.33L23,38.6"/><path class="cls-71" d="M21.23,32.48c0,.05.11.57.11.58,0,.18.09.36.14.56,0,0,.1.32.1.33L23,38.6"/><path class="cls-9" d="M21.23,32.48c0,.05.11.57.11.58,0,.18.09.36.14.56,0,0,.1.32.1.33L23,38.6"/><path class="cls-8" d="M21.23,32.48s.11.58.11.58c0,.18.08.36.13.56,0,0,.1.32.11.33L23,38.6"/><path class="cls-7" d="M21.23,32.48s.11.58.11.58c0,.18.08.37.13.56l.1.33L23,38.6"/><path class="cls-70" d="M21.23,32.48s.1.58.1.58c0,.18.09.37.14.56l.1.33L23,38.6"/><path class="cls-6" d="M21.23,32.48s.1.58.1.58c0,.18.09.37.14.56l1.56,5"/><path class="cls-69" d="M28.5,38.6c-.11-1.27-.55-6.08-.56-6.12"/><path class="cls-124" d="M28.5,38.6c-.12-1.25-.55-6.06-.56-6.11"/><path class="cls-123" d="M28.5,38.6c-.12-1.24-.55-6-.56-6.1"/><path class="cls-122" d="M28.49,38.6c-.11-1.23-.54-6-.55-6.1"/><path class="cls-121" d="M28.49,38.6l-.55-6.09"/><path class="cls-120" d="M28.49,38.6c-.11-1.2-.54-6-.56-6.08"/><path class="cls-119" d="M28.48,38.6c-.1-1.18-.53-5.92-.55-6.07"/><path class="cls-118" d="M28.48,38.6c-.1-1.17-.53-5.89-.55-6.07"/><path class="cls-117" d="M28.48,38.6c-.11-1.16-.53-5.87-.55-6.06"/><path class="cls-116" d="M28.48,38.6c-.11-1.14-.53-5.84-.55-6.05"/><path class="cls-62" d="M28.47,38.6c-.1-1.13-.53-5.81-.55-6"/><path class="cls-115" d="M28.47,38.6c-.1-1.11-.53-5.79-.55-6"/><path class="cls-114" d="M28.47,38.6c-.1-1.1-.53-5.76-.55-6"/><path class="cls-113" d="M28.47,38.6c-.1-1.09-.53-5.73-.55-6"/><path class="cls-112" d="M28.46,38.6c-.09-1.07-.52-5.7-.54-6"/><path class="cls-111" d="M28.46,38.6c-.1-1.06-.52-5.68-.55-6"/><path class="cls-110" d="M28.46,38.6c-.1-1-.52-5.65-.55-6"/><path class="cls-109" d="M28.45,38.6c-.09-1-.51-5.62-.54-6"/><path class="cls-108" d="M28.45,38.6c-.09-1-.51-5.6-.54-6"/><path class="cls-107" d="M28.45,38.6c-.09-1-.51-5.57-.55-6"/><path class="cls-55" d="M28.45,38.6c-.09-1-.51-5.54-.55-6"/><path class="cls-54" d="M28.44,38.6c-.08-1-.5-5.51-.54-6"/><path class="cls-106" d="M28.44,38.6c-.09-1-.5-5.49-.54-6"/><path class="cls-53" d="M28.44,38.6c-.09-.94-.5-5.46-.54-6"/><path class="cls-105" d="M28.43,38.6c-.08-.93-.49-5.43-.54-5.94"/><path class="cls-104" d="M28.43,38.6c-.08-.92-.49-5.41-.54-5.93"/><path class="cls-51" d="M28.43,38.6c-.08-.9-.49-5.38-.54-5.92"/><path class="cls-50" d="M28.43,38.6c-.08-.89-.49-5.35-.54-5.92"/><path class="cls-49" d="M28.42,38.6c-.08-.87-.48-5.33-.53-5.91"/><path class="cls-103" d="M28.42,38.6c-.08-.86-.48-5.3-.54-5.9"/><path class="cls-48" d="M28.42,38.6c-.08-.85-.48-5.27-.54-5.89"/><path class="cls-47" d="M28.42,38.6c-.08-.83-.48-5.24-.54-5.89"/><path class="cls-102" d="M28.41,38.6c-.07-.82-.47-5.22-.53-5.88"/><path class="cls-46" d="M28.41,38.6c-.07-.8-.47-5.19-.53-5.87"/><path class="cls-101" d="M28.41,38.6c-.08-.79-.47-5.16-.54-5.86"/><path class="cls-100" d="M28.4,38.6c-.07-.78-.46-5.14-.53-5.86"/><path class="cls-44" d="M28.4,38.6c-.07-.76-.46-5.11-.53-5.85"/><path class="cls-43" d="M28.4,38.6c-.07-.75-.46-5.08-.53-5.84"/><path class="cls-99" d="M28.4,38.6c-.07-.73-.46-5.05-.54-5.83"/><path class="cls-98" d="M28.39,38.6c-.06-.72-.45-5-.53-5.83"/><path class="cls-41" d="M28.39,38.6c-.06-.71-.45-5-.53-5.82"/><path class="cls-97" d="M28.39,38.6c-.07-.69-.45-5-.53-5.81"/><path class="cls-96" d="M28.38,38.6c-.06-.68-.45-5-.52-5.8"/><path class="cls-39" d="M28.38,38.6l-.53-5.8"/><path class="cls-95" d="M28.38,38.6c-.06-.65-.45-4.89-.53-5.79"/><path class="cls-94" d="M28.38,38.6c-.06-.63-.45-4.86-.53-5.78"/><path class="cls-93" d="M28.37,38.6c-.05-.62-.44-4.84-.52-5.77"/><path class="cls-36" d="M28.37,38.6c-.05-.61-.44-4.81-.52-5.77"/><path class="cls-92" d="M28.37,38.6c-.06-.59-.44-4.78-.53-5.76"/><path class="cls-91" d="M28.37,38.6c-.06-.58-.44-4.76-.53-5.75"/><path class="cls-34" d="M28.36,38.6c-.05-.56-.43-4.73-.52-5.74"/><path class="cls-90" d="M28.36,38.6c-.05-.55-.43-4.7-.52-5.74"/><path class="cls-89" d="M28.36,38.6c-.05-.54-.43-4.67-.52-5.73"/><path class="cls-32" d="M28.35,38.6c0-.52-.42-4.65-.52-5.72"/><path class="cls-88" d="M28.35,38.6c0-.51-.42-4.62-.52-5.71"/><path class="cls-87" d="M28.35,38.6c-.05-.49-.42-4.59-.52-5.71"/><path class="cls-86" d="M28.35,38.6c-.05-.48-.42-4.57-.52-5.7"/><path class="cls-29" d="M28.34,38.6c0-.47-.41-4.54-.52-5.69"/><path class="cls-85" d="M28.34,38.6c0-.45-.41-4.51-.52-5.68"/><path class="cls-84" d="M28.34,38.6l-.52-5.68"/><path class="cls-27" d="M28.33,38.6c0-.42-.4-4.46-.51-5.67"/><path class="cls-83" d="M28.33,38.6c0-.41-.4-4.43-.51-5.66"/><path class="cls-82" d="M28.33,38.6c0-.4-.4-4.4-.52-5.65"/><path class="cls-81" d="M28.33,38.6c0-.38-.4-4.38-.52-5.65"/><path class="cls-24" d="M28.32,38.6c0-.37-.39-4.35-.51-5.64"/><path class="cls-80" d="M28.32,38.6c0-.35-.39-4.32-.51-5.63"/><path class="cls-23" d="M28.32,38.6,27.81,33"/><path class="cls-22" d="M28.32,38.6c0-.32-.39-4.27-.52-5.62"/><path class="cls-79" d="M28.31,38.6c0-.31-.38-4.24-.51-5.61"/><path class="cls-21" d="M28.31,38.6c0-.3-.38-4.21-.51-5.6"/><path class="cls-20" d="M28.31,38.6c0-.28-.38-4.19-.51-5.59"/><path class="cls-78" d="M28.3,38.6c0-.27-.37-4.16-.5-5.59"/><path class="cls-77" d="M28.3,38.6c0-.25-.37-4.13-.51-5.58"/><path class="cls-76" d="M28.3,38.6c0-.24-.37-4.11-.51-5.57"/><path class="cls-17" d="M28.3,38.6c0-.23-.38-4.08-.51-5.56"/><path class="cls-17" d="M28.29,38.6c0-.21-.37-4.05-.5-5.56"/><path class="cls-16" d="M28.29,38.6c0-.2-.37-4-.5-5.55"/><path class="cls-15" d="M28.29,38.6c0-.18-.37-4-.51-5.54"/><path class="cls-14" d="M28.28,38.6c0-.17-.36-4-.5-5.53"/><path class="cls-75" d="M28.28,38.6c0-.16-.36-3.94-.5-5.53"/><path class="cls-13" d="M28.28,38.6c0-.14-.36-3.92-.5-5.52"/><path class="cls-74" d="M28.28,38.6c0-.13-.36-3.89-.5-5.51"/><path class="cls-73" d="M28.27,38.6c0-.11-.35-3.86-.5-5.5"/><path class="cls-72" d="M28.27,38.6c0-.1-.35-3.83-.5-5.5"/><path class="cls-10" d="M28.27,38.6c0-.09-.35-3.81-.5-5.49"/><path class="cls-71" d="M28.26,38.6c0-.07-.34-3.78-.49-5.48"/><path class="cls-9" d="M28.26,38.6c0-.06-.34-3.75-.5-5.47"/><path class="cls-8" d="M28.26,38.6s-.34-3.73-.5-5.47"/><path class="cls-7" d="M28.26,38.6s-.34-3.7-.5-5.46"/><path class="cls-70" d="M28.25,38.6l-.49-5.45"/><path class="cls-6" d="M22.69,26.82H18.36L16.41,38.6m11.35-5.44c.16,1.8.49,5.44.49,5.44"/><polyline class="cls-70" points="22.69 26.83 18.36 26.83 16.42 38.6"/><polyline class="cls-7" points="22.69 26.83 18.37 26.83 16.42 38.6"/><polyline class="cls-8" points="22.69 26.83 18.37 26.83 16.43 38.6"/><polyline class="cls-9" points="22.69 26.84 18.37 26.84 16.43 38.6"/><polyline class="cls-71" points="22.69 26.84 18.38 26.84 16.43 38.6"/><polyline class="cls-10" points="22.69 26.84 18.38 26.84 16.44 38.6"/><polyline class="cls-72" points="22.69 26.85 18.38 26.85 16.44 38.6"/><polyline class="cls-73" points="22.69 26.85 18.39 26.85 16.44 38.6"/><polyline class="cls-74" points="22.69 26.86 18.39 26.86 16.45 38.6"/><polyline class="cls-13" points="22.7 26.86 18.39 26.86 16.45 38.6"/><polyline class="cls-75" points="22.7 26.86 18.4 26.86 16.46 38.6"/><polyline class="cls-14" points="22.7 26.86 18.4 26.86 16.46 38.6"/><polyline class="cls-15" points="22.7 26.87 18.4 26.87 16.46 38.6"/><polyline class="cls-16" points="22.7 26.87 18.41 26.87 16.47 38.6"/><polyline class="cls-17" points="22.7 26.88 18.41 26.88 16.47 38.6"/><polyline class="cls-17" points="22.7 26.88 18.41 26.88 16.47 38.6"/><polyline class="cls-76" points="22.7 26.88 18.41 26.88 16.48 38.6"/><polyline class="cls-77" points="22.7 26.89 18.42 26.89 16.48 38.6"/><polyline class="cls-78" points="22.7 26.89 18.42 26.89 16.48 38.6"/><polyline class="cls-20" points="22.7 26.89 18.42 26.89 16.49 38.6"/><polyline class="cls-21" points="22.7 26.89 18.43 26.89 16.49 38.6"/><polyline class="cls-79" points="22.71 26.9 18.43 26.9 16.5 38.6"/><polyline class="cls-22" points="22.71 26.9 18.43 26.9 16.5 38.6"/><polyline class="cls-23" points="22.71 26.91 18.44 26.91 16.5 38.6"/><polyline class="cls-80" points="22.71 26.91 18.44 26.91 16.51 38.6"/><polyline class="cls-24" points="22.71 26.91 18.44 26.91 16.51 38.6"/><polyline class="cls-81" points="22.71 26.91 18.45 26.91 16.51 38.6"/><polyline class="cls-82" points="22.71 26.92 18.45 26.92 16.52 38.6"/><polyline class="cls-83" points="22.71 26.92 18.45 26.92 16.52 38.6"/><polyline class="cls-27" points="22.71 26.93 18.45 26.93 16.52 38.6"/><polyline class="cls-84" points="22.71 26.93 18.46 26.93 16.53 38.6"/><polyline class="cls-85" points="22.71 26.93 18.46 26.93 16.53 38.6"/><polyline class="cls-29" points="22.72 26.94 18.46 26.94 16.54 38.6"/><polyline class="cls-86" points="22.72 26.94 18.47 26.94 16.54 38.6"/><polyline class="cls-87" points="22.72 26.94 18.47 26.94 16.54 38.6"/><polyline class="cls-88" points="22.72 26.95 18.47 26.95 16.55 38.6"/><polyline class="cls-32" points="22.72 26.95 18.48 26.95 16.55 38.6"/><polyline class="cls-89" points="22.72 26.95 18.48 26.95 16.55 38.6"/><polyline class="cls-90" points="22.72 26.96 18.48 26.96 16.56 38.6"/><polyline class="cls-34" points="22.72 26.96 18.49 26.96 16.56 38.6"/><polyline class="cls-91" points="22.72 26.96 18.49 26.96 16.57 38.6"/><polyline class="cls-92" points="22.72 26.97 18.49 26.97 16.57 38.6"/><polyline class="cls-36" points="22.73 26.97 18.5 26.97 16.57 38.6"/><polyline class="cls-93" points="22.73 26.97 18.5 26.97 16.57 38.6"/><polyline class="cls-94" points="22.73 26.98 18.5 26.98 16.58 38.6"/><polyline class="cls-95" points="22.73 26.98 18.5 26.98 16.58 38.6"/><polyline class="cls-39" points="22.73 26.98 18.51 26.98 16.59 38.6"/><polyline class="cls-96" points="22.73 26.99 18.51 26.99 16.59 38.6"/><polyline class="cls-97" points="22.73 26.99 18.51 26.99 16.59 38.6"/><polyline class="cls-41" points="22.73 26.99 18.52 26.99 16.6 38.6"/><polyline class="cls-98" points="22.73 27 18.52 27 16.6 38.6"/><polyline class="cls-99" points="22.73 27 18.52 27 16.61 38.6"/><polyline class="cls-43" points="22.73 27 18.53 27 16.61 38.6"/><polyline class="cls-44" points="22.73 27.01 18.53 27.01 16.61 38.6"/><polyline class="cls-100" points="22.73 27.01 18.53 27.01 16.62 38.6"/><polyline class="cls-101" points="22.74 27.01 18.54 27.01 16.62 38.6"/><polyline class="cls-46" points="22.74 27.02 18.54 27.02 16.62 38.6"/><polyline class="cls-102" points="22.74 27.02 18.54 27.02 16.63 38.6"/><polyline class="cls-47" points="22.74 27.02 18.54 27.02 16.63 38.6"/><polyline class="cls-48" points="22.74 27.03 18.55 27.03 16.63 38.6"/><polyline class="cls-103" points="22.74 27.03 18.55 27.03 16.64 38.6"/><polyline class="cls-49" points="22.74 27.03 18.55 27.03 16.64 38.6"/><polyline class="cls-50" points="22.74 27.04 18.56 27.04 16.64 38.6"/><polyline class="cls-51" points="22.74 27.04 18.56 27.04 16.65 38.6"/><polyline class="cls-104" points="22.74 27.04 18.56 27.04 16.65 38.6"/><polyline class="cls-105" points="22.75 27.05 18.57 27.05 16.66 38.6"/><polyline class="cls-53" points="22.75 27.05 18.57 27.05 16.66 38.6"/><polyline class="cls-106" points="22.75 27.05 18.57 27.05 16.66 38.6"/><polyline class="cls-54" points="22.75 27.06 18.57 27.06 16.67 38.6"/><polyline class="cls-55" points="22.75 27.06 18.58 27.06 16.67 38.6"/><polyline class="cls-107" points="22.75 27.06 18.58 27.06 16.67 38.6"/><polyline class="cls-108" points="22.75 27.07 18.59 27.07 16.68 38.6"/><polyline class="cls-109" points="22.75 27.07 18.59 27.07 16.68 38.6"/><polyline class="cls-110" points="22.75 27.07 18.59 27.07 16.69 38.6"/><polyline class="cls-111" points="22.75 27.08 18.59 27.08 16.69 38.6"/><polyline class="cls-112" points="22.75 27.08 18.6 27.08 16.69 38.6"/><polyline class="cls-113" points="22.75 27.09 18.6 27.09 16.7 38.6"/><polyline class="cls-114" points="22.76 27.09 18.6 27.09 16.7 38.6"/><polyline class="cls-115" points="22.76 27.09 18.61 27.09 16.7 38.6"/><polyline class="cls-62" points="22.76 27.09 18.61 27.09 16.71 38.6"/><polyline class="cls-116" points="22.76 27.1 18.61 27.1 16.71 38.6"/><polyline class="cls-117" points="22.76 27.1 18.61 27.1 16.71 38.6"/><polyline class="cls-118" points="22.76 27.11 18.62 27.11 16.72 38.6"/><polyline class="cls-119" points="22.76 27.11 18.62 27.11 16.72 38.6"/><polyline class="cls-120" points="22.76 27.11 18.63 27.11 16.73 38.6"/><polyline class="cls-121" points="22.76 27.11 18.63 27.11 16.73 38.6"/><polyline class="cls-122" points="22.76 27.12 18.63 27.12 16.73 38.6"/><polyline class="cls-123" points="22.77 27.12 18.63 27.12 16.74 38.6"/><polyline class="cls-124" points="22.77 27.13 18.64 27.13 16.74 38.6"/><polyline class="cls-69" points="16.74 38.6 18.64 27.13 22.77 27.13"/><polyline class="cls-6" points="36.98 26.86 33.15 26.86 33.15 38.62"/><polyline class="cls-70" points="36.98 26.86 33.15 26.86 33.15 38.62"/><polyline class="cls-7" points="36.98 26.87 33.15 26.87 33.15 38.62"/><polyline class="cls-8" points="36.98 26.87 33.16 26.87 33.16 38.62"/><polyline class="cls-9" points="36.98 26.87 33.16 26.87 33.16 38.62"/><polyline class="cls-71" points="36.98 26.88 33.16 26.88 33.16 38.62"/><polyline class="cls-10" points="36.98 26.88 33.16 26.88 33.16 38.62"/><polyline class="cls-72" points="36.98 26.89 33.17 26.89 33.17 38.62"/><polyline class="cls-73" points="36.98 26.89 33.17 26.89 33.17 38.62"/><polyline class="cls-74" points="36.98 26.89 33.17 26.89 33.17 38.62"/><polyline class="cls-13" points="36.98 26.89 33.18 26.89 33.18 38.62"/><polyline class="cls-75" points="36.98 26.9 33.18 26.9 33.18 38.62"/><polyline class="cls-14" points="36.98 26.9 33.18 26.9 33.18 38.62"/><polyline class="cls-15" points="36.98 26.91 33.19 26.91 33.19 38.62"/><polyline class="cls-16" points="36.98 26.91 33.19 26.91 33.19 38.62"/><polyline class="cls-17" points="36.98 26.91 33.19 26.91 33.19 38.62"/><polyline class="cls-17" points="36.98 26.91 33.2 26.91 33.2 38.62"/><polyline class="cls-76" points="36.98 26.92 33.2 26.92 33.2 38.62"/><polyline class="cls-77" points="36.98 26.92 33.2 26.92 33.2 38.62"/><polyline class="cls-78" points="36.98 26.93 33.2 26.93 33.2 38.62"/><polyline class="cls-20" points="36.98 26.93 33.21 26.93 33.21 38.62"/><polyline class="cls-21" points="36.98 26.93 33.21 26.93 33.21 38.62"/><polyline class="cls-79" points="36.98 26.93 33.21 26.93 33.21 38.62"/><polyline class="cls-22" points="36.98 26.94 33.22 26.94 33.22 38.62"/><polyline class="cls-23" points="36.98 26.94 33.22 26.94 33.22 38.62"/><polyline class="cls-80" points="36.98 26.95 33.22 26.95 33.22 38.62"/><polyline class="cls-24" points="36.98 26.95 33.23 26.95 33.23 38.62"/><polyline class="cls-81" points="36.98 26.95 33.23 26.95 33.23 38.62"/><polyline class="cls-82" points="36.98 26.95 33.23 26.95 33.23 38.62"/><polyline class="cls-83" points="36.98 26.96 33.23 26.96 33.23 38.62"/><polyline class="cls-27" points="36.98 26.96 33.24 26.96 33.24 38.62"/><polyline class="cls-84" points="36.98 26.97 33.24 26.97 33.24 38.62"/><polyline class="cls-85" points="36.98 26.97 33.24 26.97 33.24 38.62"/><polyline class="cls-29" points="36.98 26.97 33.25 26.97 33.25 38.62"/><polyline class="cls-86" points="36.98 26.98 33.25 26.98 33.25 38.62"/><polyline class="cls-87" points="36.98 26.98 33.25 26.98 33.25 38.62"/><polyline class="cls-88" points="36.98 26.98 33.26 26.98 33.26 38.62"/><polyline class="cls-32" points="36.98 26.99 33.26 26.99 33.26 38.62"/><polyline class="cls-89" points="36.98 26.99 33.26 26.99 33.26 38.62"/><polyline class="cls-90" points="36.98 26.99 33.27 26.99 33.27 38.62"/><polyline class="cls-34" points="36.98 27 33.27 27 33.27 38.62"/><polyline class="cls-91" points="36.98 27 33.27 27 33.27 38.62"/><polyline class="cls-92" points="36.98 27 33.27 27 33.27 38.62"/><polyline class="cls-36" points="36.98 27.01 33.28 27.01 33.28 38.62"/><polyline class="cls-93" points="36.98 27.01 33.28 27.01 33.28 38.62"/><polyline class="cls-94" points="36.98 27.01 33.28 27.01 33.28 38.62"/><polyline class="cls-95" points="36.98 27.02 33.29 27.02 33.29 38.62"/><polyline class="cls-39" points="36.98 27.02 33.29 27.02 33.29 38.62"/><polyline class="cls-96" points="36.98 27.02 33.29 27.02 33.29 38.62"/><polyline class="cls-97" points="36.98 27.03 33.3 27.03 33.3 38.62"/><polyline class="cls-41" points="36.98 27.03 33.3 27.03 33.3 38.62"/><polyline class="cls-98" points="36.98 27.03 33.3 27.03 33.3 38.62"/><polyline class="cls-99" points="36.98 27.04 33.31 27.04 33.31 38.62"/><polyline class="cls-43" points="36.98 27.04 33.31 27.04 33.31 38.62"/><polyline class="cls-44" points="36.98 27.04 33.31 27.04 33.31 38.62"/><polyline class="cls-100" points="36.98 27.05 33.31 27.05 33.31 38.62"/><polyline class="cls-101" points="36.98 27.05 33.32 27.05 33.32 38.62"/><polyline class="cls-46" points="36.98 27.05 33.32 27.05 33.32 38.62"/><polyline class="cls-102" points="36.98 27.06 33.33 27.06 33.33 38.62"/><polyline class="cls-47" points="36.98 27.06 33.33 27.06 33.33 38.62"/><polyline class="cls-48" points="36.98 27.06 33.33 27.06 33.33 38.62"/><polyline class="cls-103" points="36.98 27.07 33.33 27.07 33.33 38.62"/><polyline class="cls-49" points="36.98 27.07 33.34 27.07 33.34 38.62"/><polyline class="cls-50" points="36.98 27.07 33.34 27.07 33.34 38.62"/><polyline class="cls-51" points="36.98 27.08 33.34 27.08 33.34 38.62"/><polyline class="cls-104" points="36.98 27.08 33.35 27.08 33.35 38.62"/><polyline class="cls-105" points="36.98 27.08 33.35 27.08 33.35 38.62"/><polyline class="cls-53" points="36.98 27.09 33.35 27.09 33.35 38.62"/><polyline class="cls-106" points="36.98 27.09 33.35 27.09 33.35 38.62"/><polyline class="cls-54" points="36.98 27.09 33.36 27.09 33.36 38.62"/><polyline class="cls-55" points="36.98 27.1 33.36 27.1 33.36 38.62"/><polyline class="cls-107" points="36.98 27.1 33.37 27.1 33.37 38.62"/><polyline class="cls-108" points="36.98 27.1 33.37 27.1 33.37 38.62"/><polyline class="cls-109" points="36.98 27.11 33.37 27.11 33.37 38.62"/><polyline class="cls-110" points="36.98 27.11 33.37 27.11 33.37 38.62"/><polyline class="cls-111" points="36.98 27.11 33.38 27.11 33.38 38.62"/><polyline class="cls-112" points="36.98 27.12 33.38 27.12 33.38 38.62"/><polyline class="cls-113" points="36.98 27.12 33.38 27.12 33.38 38.62"/><polyline class="cls-114" points="36.98 27.12 33.39 27.12 33.39 38.62"/><polyline class="cls-115" points="36.98 27.13 33.39 27.13 33.39 38.62"/><polyline class="cls-62" points="36.98 27.13 33.39 27.13 33.39 38.62"/><polyline class="cls-116" points="36.98 27.14 33.4 27.14 33.4 38.62"/><polyline class="cls-117" points="36.98 27.14 33.4 27.14 33.4 38.62"/><polyline class="cls-118" points="36.98 27.14 33.4 27.14 33.4 38.62"/><polyline class="cls-119" points="36.98 27.14 33.41 27.14 33.41 38.62"/><polyline class="cls-120" points="36.98 27.15 33.41 27.15 33.41 38.62"/><polyline class="cls-121" points="36.98 27.15 33.41 27.15 33.41 38.62"/><polyline class="cls-122" points="36.98 27.16 33.41 27.16 33.41 38.62"/><polyline class="cls-123" points="36.98 27.16 33.42 27.16 33.42 38.62"/><polyline class="cls-124" points="36.98 27.16 33.42 27.16 33.42 38.62"/><polyline class="cls-69" points="33.42 38.62 33.42 27.16 36.98 27.16"/></g><g class="cls-125"><rect class="cls-126" x="3.36" y="38.57" width="62.36" height="18.66"/></g></g></g></svg>