<svg width="256" height="256" viewBox="0 0 256 256" fill="none" xmlns="http://www.w3.org/2000/svg">
<rect width="256" height="256" fill="#D5002B"/>
<path d="M99.7458 159.447L80.4807 99.7015C77.7564 90.5746 73.1294 88 66.0689 88H30.2786C33.0899 89.1524 34.9473 96.3992 34.9473 96.3992L52.2349 156.395C54.2264 163.929 60.4601 167.898 67.5137 167.898H105.452C102.733 167.404 99.7458 159.447 99.7458 159.447Z" fill="white"/>
<path d="M156.892 159.447L176.164 99.7015C178.888 90.5746 183.515 88 190.574 88H226.365C223.553 89.1524 221.691 96.3992 221.691 96.3992L204.41 156.395C202.418 163.929 196.185 167.898 189.126 167.898H151.188C153.907 167.404 156.892 159.447 156.892 159.447Z" fill="white"/>
<path d="M149.464 88.4717H107.348V167.893H149.464V88.4717Z" fill="white"/>
</svg>
