<svg width="256" height="256" viewBox="0 0 256 256" fill="none" xmlns="http://www.w3.org/2000/svg">
<rect width="256" height="256" fill="white"/>
<path d="M102.188 180.79C88.2337 166.813 80.396 147.869 80.396 128.118C80.396 108.366 88.2337 89.4225 102.188 75.4448C106.905 70.7924 112.174 66.7355 117.877 63.3645C112.038 61.7528 106.003 60.9576 99.9459 61.0017C82.2772 61.2017 65.4 68.3608 52.9764 80.9257C40.5529 93.4907 33.5851 110.448 33.5851 128.118C33.5851 145.787 40.5529 162.745 52.9764 175.309C65.4 187.874 82.2772 195.034 99.9459 195.233C106.003 195.278 112.038 194.482 117.877 192.871C112.098 189.614 106.814 185.545 102.188 180.79V180.79Z" fill="#84B816"/>
<path d="M164.574 112.055C161.5 112.086 158.507 113.041 155.982 114.796C158.57 118.386 159.965 122.699 159.969 127.125C159.974 131.081 158.851 134.956 156.73 138.295C155.02 137.082 153.647 135.452 152.743 133.561C153.841 131.24 154.347 128.684 154.217 126.12C154.086 123.557 153.323 121.065 151.996 118.868V118.868C151.008 117.138 149.646 115.649 148.009 114.512V114.512C145.512 112.704 142.5 111.743 139.417 111.771C131.195 111.771 124.725 118.499 124.725 126.962C124.725 135.425 131.452 142.153 139.417 142.153C142.491 142.121 145.485 141.166 148.009 139.412C145.421 135.821 144.027 131.508 144.022 127.082C144.017 123.127 145.141 119.252 147.262 115.913C148.972 117.126 150.344 118.755 151.248 120.647C150.229 122.741 149.716 125.046 149.753 127.374C149.753 135.717 156.481 142.565 164.445 142.565C166.409 142.536 168.347 142.119 170.149 141.34C171.951 140.56 173.581 139.432 174.946 138.021C176.311 136.609 177.384 134.942 178.103 133.115C178.823 131.288 179.174 129.337 179.138 127.374C179.223 125.403 178.911 123.435 178.219 121.588C177.527 119.74 176.469 118.051 175.11 116.621C173.751 115.191 172.117 114.05 170.307 113.266C168.497 112.481 166.547 112.069 164.574 112.055Z" fill="#007944"/>
<path d="M154.737 61.0017C141.461 61.0017 128.484 64.9382 117.447 72.3135C106.409 79.6887 97.8058 90.1715 92.7257 102.436C87.6455 114.701 86.3163 128.196 88.9061 141.216C91.496 154.236 97.8886 166.196 107.275 175.583C116.662 184.97 128.622 191.362 141.642 193.952C154.662 196.542 168.158 195.213 180.422 190.133C192.687 185.053 203.17 176.45 210.545 165.412C217.92 154.374 221.857 141.397 221.857 128.122C221.864 119.306 220.132 110.575 216.761 102.428C213.391 94.2816 208.447 86.8796 202.213 80.6456C195.979 74.4116 188.577 69.4678 180.43 66.0971C172.284 62.7264 163.553 60.9949 154.737 61.0017V61.0017ZM115.884 146.302C115.884 147.062 115.582 147.791 115.045 148.329C114.507 148.866 113.778 149.168 113.018 149.168C112.259 149.168 111.53 148.866 110.992 148.329C110.455 147.791 110.153 147.062 110.153 146.302V108.412C110.153 107.652 110.455 106.923 110.992 106.386C111.53 105.848 112.259 105.547 113.018 105.547C113.778 105.547 114.507 105.848 115.045 106.386C115.582 106.923 115.884 107.652 115.884 108.412V146.302ZM164.574 148.167C160.021 148.114 155.607 146.585 151.996 143.811C148.413 146.637 143.981 148.172 139.417 148.167C128.248 148.167 118.994 138.827 118.994 127.245C118.994 115.664 128.205 106.324 139.417 106.324C143.971 106.377 148.384 107.906 151.996 110.68C155.579 107.853 160.011 106.319 164.574 106.324C175.744 106.324 184.997 115.664 184.997 127.245C185.047 129.965 184.557 132.667 183.555 135.195C182.552 137.724 181.058 140.028 179.158 141.974C177.258 143.92 174.991 145.47 172.487 146.533C169.984 147.596 167.294 148.151 164.574 148.167V148.167ZM207.663 113.567H193.057V125.252H202.765C203.525 125.252 204.254 125.554 204.792 126.091C205.329 126.629 205.631 127.358 205.631 128.118C205.631 128.877 205.329 129.606 204.792 130.144C204.254 130.681 203.525 130.983 202.765 130.983H193.057V146.216C193.057 146.976 192.755 147.705 192.217 148.243C191.68 148.78 190.951 149.082 190.191 149.082C189.431 149.082 188.702 148.78 188.165 148.243C187.628 147.705 187.326 146.976 187.326 146.216V112.424C187.346 111.175 187.851 109.982 188.734 109.099C189.618 108.215 190.811 107.71 192.06 107.69H207.663C208.04 107.684 208.415 107.754 208.765 107.896C209.114 108.038 209.432 108.248 209.699 108.515C209.966 108.782 210.176 109.1 210.318 109.45C210.46 109.799 210.53 110.174 210.524 110.551C210.546 110.94 210.489 111.329 210.355 111.695C210.221 112.061 210.014 112.395 209.746 112.678C209.477 112.96 209.154 113.185 208.796 113.338C208.438 113.491 208.052 113.569 207.663 113.567V113.567Z" fill="#007944"/>
</svg>
