<?xml version="1.0" encoding="utf-8"?>
<!-- Generator: Adobe Illustrator 23.0.1, SVG Export Plug-In . SVG Version: 6.00 Build 0)  -->
<svg version="1.1" id="Layer_1" xmlns="http://www.w3.org/2000/svg" xmlns:xlink="http://www.w3.org/1999/xlink" x="0px" y="0px"
	 viewBox="0 0 512 512" style="enable-background:new 0 0 512 512;" xml:space="preserve">
<style type="text/css">
	.st0{fill:#0046AA;}
	.st1{fill:#FFFFFF;}
</style>
<rect class="st0" width="512" height="512"/>
<g>
	<path class="st1" d="M246.3,180.1c0.3,0.1,0.5,0.1,0.8,0.2c13.6,0.3,25.4,5.1,35.3,14.4c2,1.9,3.9,4,5.9,6.1
		c-21.3,21.3-42.6,42.6-64,64c0.2,0.2,0.4,0.4,0.6,0.5c4.1,3,8.7,4.7,13.7,5.5c4,0.6,8.1,0.7,12.1,0.2c6.3-0.8,11.8-3.3,16.9-7
		c4.3-3,7.2-7.2,10-11.5c5.3-8.2,9.1-17.1,11.1-26.6c1.1-5.4,2.3-10.8,4-16.1c1.7-5.4,3.8-10.7,7.4-15.1c1.8-2.3,3.9-4.4,6-6.4
		c3.3-2.9,7.3-3.9,11.6-3.7c4.1,0.2,7.3,1.8,10,4.9c0.2,0.3,0.5,0.6,0.7,0.8c0.1,0,0.2,0,0.3-0.1c4.5-3.4,9.6-5.2,15.1-6.3
		c6.2-1.2,12.4-1.1,18.5,0.7c4.9,1.5,9.4,3.9,13,7.6c0.1,0.1,0.3,0.3,0.5,0.5c0.4-0.4,0.7-0.7,1.1-1.1c3.9-3.6,8.5-5.6,13.5-7
		c4.1-1.1,8.2-1.7,12.5-1.5c7.6,0.3,14.6,2.5,20.4,7.5c5.9,5.1,9.5,11.5,10.4,19.3c0.1,1.2,0.2,2.3,0.2,3.5c0,23.8,0,47.6,0,71.5
		c0,0.4,0,0.7,0,1.1c-5.6,0-11,0-16.6,0c0-0.3,0-0.7,0-1c0-23.8,0-47.6,0-71.5c0-5.7-2.6-9.6-7.6-12c-4.1-2-8.3-2.2-12.7-1.3
		c-2.1,0.4-4.1,1-6.1,1.9c-4,1.8-5.9,5.2-6.7,9.4c-0.2,0.8-0.2,1.7-0.2,2.6c0,23.6,0,47.2,0,70.8c0,0.3,0,0.7,0,1.1
		c-5.5,0-11,0-16.6,0c0-0.4,0-0.7,0-1.1c0-23.7-0.1-47.4,0.1-71.1c0-6.2-4.1-11.2-9.4-12.9c-6.3-2-12.3-1.1-18.1,1.8
		c-3.3,1.7-4.9,4.9-5.7,8.4c-0.3,1.2-0.3,2.4-0.3,3.6c0,23.5,0,47.1,0,70.6c0,0.3,0,0.5,0,0.8c-5.5,0-10.9,0-16.5,0
		c0-0.4,0-0.7,0-1.1c0-25.1,0-50.3,0-75.4c0-1.1-0.2-2.2-0.5-3.2c-0.6-1.9-2.4-2.4-3.8-1c-1.1,1.1-2.1,2.5-2.8,3.9
		c-2.5,4.9-4,10.3-5,15.7c-2.9,15.3-7.9,29.7-17.1,42.4c-6,8.3-13.7,14.5-23.4,18.1c-4.9,1.8-9.9,2.8-15.1,3.1
		c-7.5,0.5-14.8-0.2-22-2.6c-7.9-2.7-14.7-7.1-20.6-12.9c-7.1-7-12-15.3-14.4-25c-0.9-3.8-1.4-7.6-1.5-11.5
		c-0.3-7.6,0.9-15,3.7-22.1c3.7-9.1,9.6-16.5,17.2-22.5c7.5-5.9,15.9-9.6,25.4-10.8c2-0.3,4.1-0.3,6.1-0.5c0.2,0,0.5-0.1,0.7-0.2
		C245.2,180.1,245.7,180.1,246.3,180.1z M263.5,201.8c-9.3-6-31.2-8.2-45.4,7.6c-6.7,7.5-9.9,16.2-9.6,26.2c0.2,6,1.3,11.7,4.4,16.8
		C229.8,235.5,246.7,218.7,263.5,201.8z"/>
	<path class="st1" d="M185,189.2c0-0.8-0.2-0.9-1-0.9c-4.9,0-9.8,0-14.6,0c-0.3,0-0.6,0-1,0.1v5.5c-0.4-0.3-0.6-0.5-0.8-0.6
		c-3.3-2.7-6.9-5.1-10.7-7.1c-8.8-4.5-18.2-6.3-28.1-5.8c-4.6,0.3-9.1,1.1-13.6,2.5c-16.9,5.3-34.9,22.4-36.8,45.9
		c-0.7,6.3,0.5,15.1,1.1,17.9c2.3,10.7,7.8,19.5,15.6,27c13.1,12.4,28.7,16.6,46.3,14c8.9-1.3,16.8-4.9,23.9-10.5
		c0.2-0.1,0.4-0.3,0.6-0.4c-0.4,1.2-0.9,2.3-1.6,3.3c-4,6.8-9.3,12.3-16.4,16c-6.5,3.3-13.4,4.3-20.5,3.6
		c-6.5-0.6-12.4-2.9-17.7-6.7c-3.2-2.4-6.4-6.1-9-9.1c-5,1.8-10.9,4-16,5.8c-0.2,0.1-0.5,0.2-0.7,0.3c0.9,1.2,1.7,2.3,2.5,3.4
		c3.4,4.7,7.2,9.1,11.9,12.6c8.1,6.2,17.2,9.9,27.4,10.8c5.2,0.5,10.4,0.3,15.5-0.6c11.8-2.1,21.7-7.6,29.7-16.4
		c9.5-10.4,13.9-22.9,14.1-36.8C185.1,238.4,185,213.8,185,189.2z M131.7,271.6c-20.4-0.2-37.1-16.9-36.8-37.7
		c0.3-20.6,17.3-36.6,37.1-36.5c20.4-0.1,37.3,16.7,37.1,37.5C169,254.7,152.9,271.7,131.7,271.6z"/>
	<path class="st1" d="M395.7,327.3c0-5.5,0-11,0-16.5c0.2,0,0.3-0.1,0.5-0.1c2.4,0,4.8,0,7.2,0c3.9,0.1,7,2.7,7.7,6.6
		c1,6-2.8,9.9-8.1,10.1c-2.2,0.1-4.4,0-6.6,0C396.2,327.4,395.9,327.3,395.7,327.3z M397.9,325.1c1.8,0,3.6,0.1,5.3,0
		c3.3-0.2,5.6-2.6,5.7-5.6c0.2-3.4-1.8-5.8-5.3-6.3c-1.6-0.2-3.3-0.1-4.9-0.2c-0.7,0-0.9,0.2-0.9,0.9c0,3.1,0,6.2,0,9.3
		C397.9,323.8,397.9,324.4,397.9,325.1z"/>
	<path class="st1" d="M424.1,325.1c3,0,6.7,0,9.8,0c0,0.8,0,1.5,0,2.2c-4,0-8,0-12,0c0-5.5,0-11,0-16.5c4,0,7.9,0,12,0
		c0,0.7,0,1.4,0,2.2c-3.2,0-6.4,0-9.7,0l0,4.9c0.3,0,8,0,8.4,0c0,0.8,0,1.5,0,2.3c-1.5,0-7,0-8.4,0V325.1z"/>
	<path class="st1" d="M221.8,319.9c0.9,0.7,1.6,1.7,1.8,2.9c0.3,2.4-1.5,4.5-3.9,4.6c-2.8,0-5.7,0-8.5,0c0-4.8,0-9.5,0-14.3
		c0.2,0,0.5,0,0.7,0c2.1,0,4.3,0,6.4,0c1.7,0,3.1,0.6,4,2.1C223.6,317.4,221.9,319.8,221.8,319.9z M213.1,325.4h6.3
		c1.2,0,2.1-1,2.1-2.1c0-1.1-0.9-2-2.1-2.1c-0.8,0-1.6,0-2.3,0c-1.3,0-2.6,0-4,0L213.1,325.4z M213.1,319.3h5.4c1.2,0,2.1-1,2.1-2.1
		c0-1.1-0.9-2-2.1-2.1c-0.8,0-0.7,0-1.4,0c-1.3,0-2.6,0-4,0L213.1,319.3z"/>
	<path class="st1" d="M381.6,310.8c0.8,0,1.5,0,2.3,0c0,0.2,0.1,0.4,0.1,0.6c0,3.3,0,6.6-0.1,10c-0.1,3.2-2,5.4-5,6
		c-2.6,0.5-5.1,0.4-7.2-1.7c-1.4-1.4-1.8-3.2-1.9-5.1c-0.1-3.1,0-6.3,0-9.4c0-0.2,0-0.3,0.1-0.5c0.7,0,1.4,0,2.2,0
		c0,0.3,0.1,0.6,0.1,1c0,3,0,5.9,0.1,8.9c0.2,4.5,3.7,5.3,6.6,4.4c2.1-0.7,2.7-2.5,2.7-4.5c0.1-2.9,0-5.9,0-8.8
		C381.6,311.4,381.6,311.1,381.6,310.8z"/>
	<path class="st1" d="M295.8,322.6c-2.4,0-6,0-8.4,0l-2,4.6h-2.5c2.3-5.1,5.3-11.6,7.6-16.7h2.3c2.1,4.9,5.4,11.8,7.6,16.7h-2.5
		L295.8,322.6z M291.7,313c-1.1,2.5-2.1,4.8-3.2,7.2c2.2,0,4.2,0,6.3,0C293.8,317.8,292.8,315.5,291.7,313z"/>
	<path class="st1" d="M353.3,327.3c-0.9,0-1.6,0-2.4,0c0-4.8,0-9.5,0-14.3c-1.9,0-3.8,0-5.7,0c0-0.8,0-1.5,0-2.3c4.6,0,9.1,0,13.8,0
		c0,0.8,0,1.5,0,2.2c-1.9,0-3.7,0-5.7,0C353.3,317.8,353.3,322.5,353.3,327.3z"/>
	<path class="st1" d="M243.7,316.6c-0.5,1.1-4.3,9.8-5.5,12.7c-1.2,2.7-4.2,3.5-6.5,1.8c0.2-0.6,0.5-1.1,0.8-1.8
		c0.3,0.1,0.4,0.3,0.6,0.4c1.5,0.8,3.1,0.1,3.4-1.6c0.1-0.3-0.1-0.7-0.2-1c-1.4-3.2-3.1-7.3-4.5-10.5h2.2c1,2.2,3.6,8.1,3.8,8.6
		c0.8-1.8,3.4-7.7,3.8-8.6H243.7z"/>
	<path class="st1" d="M264.5,325.1c0-4.8,0-9.7,0-14.5h-2.3c0,4.9,0,16.8,0,16.8c4,0,8.1,0,12.1,0c0-0.8,0-1.5,0-2.3
		C271,325.1,267.8,325.1,264.5,325.1z"/>
	<rect x="331.9" y="310.7" class="st1" width="2.3" height="16.7"/>
	<path class="st1" d="M315.4,327.3c-0.9,0-1.6,0-2.4,0c0-4.8,0-9.5,0-14.3c-1.9,0-3.8,0-5.7,0c0-0.8,0-1.5,0-2.3c4.6,0,9.1,0,13.8,0
		c0,0.8,0,1.5,0,2.2c-1.9,0-3.7,0-5.7,0C315.4,317.8,315.4,322.5,315.4,327.3z"/>
</g>
</svg>
