<?xml version="1.0" encoding="utf-8"?>
<!-- Generator: Adobe Illustrator 23.0.1, SVG Export Plug-In . SVG Version: 6.00 Build 0)  -->
<svg version="1.1" id="Layer_1" xmlns="http://www.w3.org/2000/svg" xmlns:xlink="http://www.w3.org/1999/xlink" x="0px" y="0px"
	 viewBox="0 0 512 512" style="enable-background:new 0 0 512 512;" xml:space="preserve">
<style type="text/css">
	.st0{fill:#FFFFFF;}
	.st1{fill:url(#SVGID_1_);}
	.st2{fill:url(#SVGID_2_);}
	.st3{fill:url(#SVGID_3_);}
	.st4{fill:url(#SVGID_4_);}
	.st5{fill:url(#SVGID_5_);}
	.st6{fill:url(#SVGID_6_);}
</style>
<rect y="0" class="st0" width="512" height="512"/>
<g>
	<g>
		
			<linearGradient id="SVGID_1_" gradientUnits="userSpaceOnUse" x1="391.4413" y1="160.0966" x2="288.9395" y2="184.0136" gradientTransform="matrix(1 0 0 -1 0 511.8898)">
			<stop  offset="0.1209" style="stop-color:#009950"/>
			<stop  offset="0.5336" style="stop-color:#6BB453"/>
			<stop  offset="0.8432" style="stop-color:#9CC854"/>
			<stop  offset="1" style="stop-color:#B1D355"/>
		</linearGradient>
		<path class="st1" d="M317.4,359.9c-7.3,0-14.3-0.9-20.8-2.6l0,0l0,0c-10.8,14.8-24.7,27.6-40.8,36.4c14.2,7.7,30.2,12.3,47.2,12.3
			c65.2,0,109.7-67.9,114.9-125.6C415.9,288.2,402.5,359.9,317.4,359.9z"/>
		
			<linearGradient id="SVGID_2_" gradientUnits="userSpaceOnUse" x1="352.8646" y1="381.617" x2="352.8646" y2="150.2848" gradientTransform="matrix(1 0 0 -1 0 511.8898)">
			<stop  offset="0" style="stop-color:#06A94E"/>
			<stop  offset="0.1489" style="stop-color:#5AB450"/>
			<stop  offset="0.3179" style="stop-color:#81C052"/>
			<stop  offset="0.4786" style="stop-color:#9BCA53"/>
			<stop  offset="0.6258" style="stop-color:#ABD155"/>
			<stop  offset="0.7473" style="stop-color:#B1D355"/>
		</linearGradient>
		<path class="st2" d="M333.7,179.6c-31.4,0-46.5,18.2-46.5,18.2c32.4,3.3,72.2,26.1,72.2,73.5c0,46-30.1,66.9-54.8,73.8
			c-2.4,4.2-5.1,8.3-8,12.2c6.5,1.7,13.5,2.6,20.8,2.6c85.1,0,98.5-71.8,100.6-79.4c0.4-3.9,0.5-7.7,0.5-11.4
			C418.5,204.4,369.1,179.6,333.7,179.6z"/>
		
			<linearGradient id="SVGID_3_" gradientUnits="userSpaceOnUse" x1="167.0312" y1="381.617" x2="167.0312" y2="150.2848" gradientTransform="matrix(1 0 0 -1 0 511.8898)">
			<stop  offset="0" style="stop-color:#06A94E"/>
			<stop  offset="0.1489" style="stop-color:#5AB450"/>
			<stop  offset="0.3179" style="stop-color:#81C052"/>
			<stop  offset="0.4786" style="stop-color:#9BCA53"/>
			<stop  offset="0.6258" style="stop-color:#ABD155"/>
			<stop  offset="0.7473" style="stop-color:#B1D355"/>
		</linearGradient>
		<path class="st3" d="M194.3,359.9c18.1,0,33.8-5.5,46.5-14.4c-4.3,1.3-9.6,2.4-15,2.4c-24,0-73.4-17.8-73.4-76.6
			c0-47.3,39.8-70.2,72.2-73.5c0,0-15.1-18.2-46.5-18.2c-35.5,0-84.9,24.8-84.9,89.5c0,3.8,0.2,7.5,0.5,11.4
			C95.8,288.2,109,359.9,194.3,359.9z"/>
		
			<linearGradient id="SVGID_4_" gradientUnits="userSpaceOnUse" x1="223.9561" y1="273.6526" x2="223.9561" y2="160.9518" gradientTransform="matrix(1 0 0 -1 0 511.8898)">
			<stop  offset="0.1868" style="stop-color:#009950"/>
			<stop  offset="0.5435" style="stop-color:#74B753"/>
			<stop  offset="0.7802" style="stop-color:#B1D355"/>
		</linearGradient>
		<path class="st4" d="M225.8,347.9c5.3,0,10.7-1.1,15-2.4c0,0,0,0,0,0c5.8-4.1,11-8.9,15.3-14.1c0,0,0,0,0,0
			c-3-3.8-16.9-22.6-16.9-47.8c0-23.6,12.6-33.6,16.8-36.3c0,0,0,0,0,0l0,0c-8.7-6.5-18.4-8.3-24-8.3c-9,0-33.1,6.1-38.8,33.7
			c0,0,0,0,0,0c0,0,0,0.1,0,0.1c-0.2,1.1-0.4,2.2-0.5,3.3c-0.6,4.6-0.9,9.7-0.9,15.3c0,22.1,9.4,42,16.8,54.1
			C214.9,347.2,220.9,347.9,225.8,347.9z"/>
		
			<linearGradient id="SVGID_5_" gradientUnits="userSpaceOnUse" x1="180.0066" y1="117.8181" x2="265.1192" y2="438.8877" gradientTransform="matrix(1 0 0 -1 0 511.8898)">
			<stop  offset="5.490000e-02" style="stop-color:#009950"/>
			<stop  offset="0.1254" style="stop-color:#32A451"/>
			<stop  offset="0.2496" style="stop-color:#6FB553"/>
			<stop  offset="0.3615" style="stop-color:#92C454"/>
			<stop  offset="0.4561" style="stop-color:#A8CE55"/>
			<stop  offset="0.522" style="stop-color:#B1D355"/>
		</linearGradient>
		<path class="st5" d="M256.3,217.2c-39.4,0-58.1,29-63.1,55.6c5.7-27.6,29.9-33.7,38.8-33.7c5.6,0,15.3,1.9,24,8.3c0,0,0,0,0,0
			c9.4,7,17.6,18.9,17.6,37.9c0,16.2-6.3,32.8-17.5,46.1c0,0,0,0,0,0c-13.9,16.7-35.5,28.5-61.8,28.5c-85.3,0-98.5-71.7-100.6-79.4
			c5.3,57.7,49.7,125.6,114.9,125.6c63.7,0,112.4-64.3,112.4-118.2C321.1,250.6,299.9,217.2,256.3,217.2z"/>
		
			<linearGradient id="SVGID_6_" gradientUnits="userSpaceOnUse" x1="241.9141" y1="307.1052" x2="340.2644" y2="404.1891" gradientTransform="matrix(1 0 0 -1 0 511.8898)">
			<stop  offset="0" style="stop-color:#5CB249"/>
			<stop  offset="0.4836" style="stop-color:#88C14E"/>
			<stop  offset="1" style="stop-color:#B1D355"/>
		</linearGradient>
		<path class="st6" d="M257.5,195.2c0,0-13.6-13.1-14.5-30.9c-0.7-13,4.6-32.8,25.1-43.8c48-25.7,89.8,11.7,84.9,35.9
			c0,0-35.8-16.3-68.7,3.2C260.1,174,257.5,195.2,257.5,195.2z"/>
	</g>
</g>
</svg>
