<?xml version="1.0" encoding="utf-8"?>
<!-- Generator: Adobe Illustrator 23.0.1, SVG Export Plug-In . SVG Version: 6.00 Build 0)  -->
<svg version="1.1" id="Layer_1" xmlns="http://www.w3.org/2000/svg" xmlns:xlink="http://www.w3.org/1999/xlink" x="0px" y="0px"
	 viewBox="0 0 512 512" style="enable-background:new 0 0 512 512;" xml:space="preserve">
<style type="text/css">
	.st0{fill:#0046AA;}
	.st1{fill-rule:evenodd;clip-rule:evenodd;fill:none;}
	.st2{fill-rule:evenodd;clip-rule:evenodd;fill:#FFFFFF;}
</style>
<rect class="st0" width="512" height="512"/>
<circle class="st1" cx="256" cy="256" r="256"/>
<g>
	<polygon class="st2" points="180.8,140.4 140.4,140.4 140.4,371.6 371.6,371.6 371.6,331.2 180.8,331.2 	"/>
	<path class="st2" d="M287.8,180.8c26.9,0,26.9-40.5,0-40.5C260.8,140.4,260.8,180.8,287.8,180.8L287.8,180.8z"/>
	<path class="st2" d="M351.4,267.6c-26.9,0-26.9,40.5,0,40.5C378.3,308,378.3,267.6,351.4,267.6L351.4,267.6z"/>
	<path class="st2" d="M224.2,180.8c27,0,27-40.5,0-40.5S197.2,180.8,224.2,180.8L224.2,180.8z"/>
	<path class="st2" d="M351.4,204c-11.3-0.3-20.7,8.9-20.7,20.2c0,11.4,9.3,20.5,20.7,20.2C377.8,243.9,377.8,204.5,351.4,204
		L351.4,204z"/>
	<path class="st2" d="M371.6,160.6c0,26.9-40.5,26.9-40.5,0C331.2,133.7,371.6,133.7,371.6,160.6L371.6,160.6z"/>
	<path class="st2" d="M371.6,160.6"/>
</g>
</svg>
