<?xml version="1.0" encoding="utf-8"?>
<!-- Generator: Adobe Illustrator 23.0.1, SVG Export Plug-In . SVG Version: 6.00 Build 0)  -->
<svg version="1.1" id="Layer_1" xmlns="http://www.w3.org/2000/svg" xmlns:xlink="http://www.w3.org/1999/xlink" x="0px" y="0px"
	 viewBox="0 0 512 512" style="enable-background:new 0 0 512 512;" xml:space="preserve">
<style type="text/css">
	.st0{fill:#E10A0A;}
	.st1{fill-rule:evenodd;clip-rule:evenodd;fill:#FFFFFF;}
</style>
<rect class="st0" width="512" height="512"/>
<g>
	<path class="st1" d="M255.7,113.4c78.8,0,142.7,63.9,142.7,142.7s-63.9,142.7-142.7,142.7S113,334.8,113,256
		C113,177.2,176.9,113.4,255.7,113.4"/>
	<path class="st0" d="M192.3,269.2c0.5-0.5,0-1.4,0.2-1.8c0-0.2,0.2-0.5,0.2-0.7v-0.2c-0.2,0-0.2,0-0.2-0.2c0,0,0-0.2,0.2-0.2
		c0-0.7,0.2-0.9,0.5-1.6c0-0.2,0.5-1.8,0.2-1.8c-0.2,0,0-1.1,0-1.4c-0.3,0.1-0.5,0.3-0.6,0.5c0-0.2,0-0.5,0-0.7c0-0.5-0.2-0.7,0-1.1
		c0-0.5,0.2-0.7,0.2-1.1c0-0.2,0-0.5,0-0.5c0.2-0.2,0.5-0.2,0.7-0.5c0.2-0.2,0.5-0.9,0-0.9c-0.2,0,0-0.2,0-0.5c0,0,0.2-0.2,0.2-0.5
		l-0.2-0.2c0-0.5,0.2-0.5,0.2-0.9c0-0.2,0-0.2,0-0.5c0-0.7,0.2-1.1,0.5-1.8c0.2-0.5,0-0.9,0.2-1.4c0.2-1.1,0.5-2.3,0.7-3.4
		c0-0.9,0.5-2.5,0.7-3.2c0-0.9,0.5-2,0.7-2.9c0.2-1.1,0.5-2,0.9-3.2c0.2-0.5,0.2-0.9,0.5-1.4c0.2-0.5,0.5-0.7,0.7-0.9
		c0.2-0.5,0.2-0.9,0.5-1.4c0-0.2,0.2-0.5,0.2-0.7c0-0.2,0-0.5,0.2-0.7c0.2-0.5,0.5-0.7,0.7-0.9c0-0.2,0.2-0.9,0.2-1.4
		c0-0.5,0.2-0.9,0.2-1.1c0.2-0.5,0.5-0.5,0.9-0.9c0.5-0.5,0.7-1.1,0.7-1.6c0.2-0.5,0.2-1.1,0.2-1.6c0-0.7,0-1.6,0.2-2.3
		c0-0.2,0-0.5,0.2-0.7c0-0.2,0.2-0.5,0.2-0.7v-0.7c0-0.2,0.2-0.2,0.2-0.5c0-0.2-0.2-0.5,0-0.9c0.2-0.5,0.5-0.7,0.5-1.1
		c0.2-0.5,0.5-0.9,0.7-1.4v-0.7c0-0.2,0.2-0.7,0.2-0.9c0-0.5,0-1.1,0.2-1.6c0-0.2,0.2,0,0.5-0.2c0.2-0.2,0-0.5,0.2-0.7
		c0.2-0.5,0.5-0.5,0.5-0.9c0-0.5-0.5-0.5-0.2-0.9c0-0.2,0.2-0.2,0.2-0.5c0.2-0.5,0.2-0.9,0.5-1.4c0.2-0.5,0.5-0.5,0.5-0.9v-0.7
		c0-0.2,0.2-0.5,0.2-0.7c0,0,0-0.9,0.2-0.9c-0.7-0.5,0.9-2.9,0.9-3.6c0-0.2,0-0.5,0-0.5c0-0.2,0.2-0.2,0.2-0.5s0-0.2,0-0.5
		c0-0.2,0.2,0,0.2-0.2c0-0.2,0-0.2,0-0.2c0.2-0.5,0.2-0.9,0.2-1.6c0.2-0.5,0.2-1.1,0.7-1.6c0.5-0.7,0.7-0.7,0.7-1.4
		c0,0.2,0-0.7,0.2-0.7c0-0.2,0.2-0.5,0.2-0.7c0-0.2,0.2-0.5,0.5-0.7c0-0.2,0-0.5,0.2-0.9c0.5-0.9,0.7-1.6,1.1-2.3
		c0.5-0.7,0.5-1.6,0.9-2.3c0-0.2,0.2-0.2,0.5-0.2c0.2-0.5,0-0.9,0-1.4c0-0.7,0.7-2,1.1-2.9c0.5-1.1,0.9-2,1.4-2.9
		c0.5,0,1.1-2.9,1.6-3.4c-0.2,0,1.4-3.2,1.6-3.6c0.2-0.9,0.7-1.8,1.4-2.5l0.2-0.2c0,0,0-0.2,0-0.5c0.2-0.2,0.5-0.5,0.7-0.9
		c0,0-0.2-0.2,0-0.2l0.2-0.2l0.2-0.2c0,0,0.2-0.2,0.2-0.5c0-0.2,0.2-0.2,0.5-0.5c0.5-0.7,0.9-1.6,1.4-2.3c0.7-1.1,1.4-1.8,2-2.5
		c0.2-0.2,0.2-0.5,0.2-0.5l0.5-0.5c0,0,0.2,0,0.5,0v-0.2c0.2-0.2,0.2-0.5,0.2-0.7c0.2-0.2,0.2,0,0.2,0.2c0,0,0.5,0.2,0.5,0
		c0-0.2,0-0.5,0-0.5c0-0.2,0.2-0.2,0.2-0.5c0.2,0,0.2,0.2,0,0.2h0.5c0,0,0-0.2,0.2-0.2c0.2-0.2,0-0.2,0.2-0.2c0.2,0,0.2,0,0.2,0.2
		c0,0,0,0,0.2,0c0.2-0.2,0.5-0.7,0.7-0.9c0-0.2,0-1.8,0.7-1.1c0-0.5,0-0.5,0.2-0.7c0-0.2,0-0.2,0.2-0.5c0.2-0.5,0.7-0.9,0.9-1.1
		c0.2-0.5,0.5-0.9,0.7-1.4c0.2-0.2,0.2-0.7,0.2-0.9c0-0.2,0.2-0.2,0.2-0.5c0-0.2-0.2-0.2-0.2-0.2v-2.5c0-0.7-0.2-1.4-0.5-2
		c-0.5-1.4-1.1-2.3-2.3-3.2c-0.9-0.7-2-1.8-3.4-1.8c-0.2,0-0.2-0.2-0.7-0.5c-0.5-0.2-1.1,0-1.6-0.2c-0.9,0-1.4-0.2-2.3,0
		c-1.1,0.5-2.3,0.9-3.4,1.6c-0.5,0.2-0.9,0.7-1.1,1.1h-0.2c-0.2,0.2-0.2,0.5-0.5,0.7c-1.1,1.4-2.3,2.7-3.2,4.5
		c-1.4,2.5-2.3,5.2-3.2,7.9c-0.5,1.4-1.1,2.9-1.6,4.3c-0.5,1.4-0.9,2.7-1.6,4.1c-0.7,1.4-1.1,2.9-1.6,4.3c-0.7,1.6-1.1,3.2-1.8,4.8
		c-1.1,2.7-2,5.4-2.9,8.2c-0.5,1.6-1.1,2.9-1.6,4.5c-0.5,1.4-0.7,2.9-1.6,4.3c-0.7,1.1-0.9,2.5-1.4,3.6c-0.2,0.7-0.5,1.4-0.7,1.8
		c-0.5,0.7-0.7,1.4-0.9,2.3c-0.5,0.9-0.5,2-0.9,2.9c-0.2,0.5-0.2,1.1-0.5,1.8c-0.2,0.2-0.5,0.5-0.5,0.9c-0.2,0.5,0,0.9,0,1.4
		c0,0.5,0,0.5,0,0.7c0,0.2-0.2,0.2-0.5,0.5c-0.2,0.5-0.2,1.1-0.5,1.6c-0.7,1.6-0.9,3.4-1.4,5c-0.5,1.4-0.9,2.7-1.1,4.1
		c-0.2,1.4-0.5,2.7-0.9,3.8c-0.2,0.7-0.2,1.1-0.5,1.8s-0.5,1.4-0.7,2c-0.5,1.6-1.1,3.2-1.4,5c-0.2,1.4-0.5,2.5-0.9,3.8
		c-0.2,0.5-0.2,0.7-0.5,1.1c-0.2,0.7-0.2,1.6-0.5,2.5l-2,8.8c0,0.5-0.2,1.1-0.2,1.6s-0.2,1.1-0.2,1.6c-0.2,1.4-0.7,2.9-0.9,4.3
		c-0.7,3.6-1.1,7.2-1.8,10.9c-0.7,3.4-1.1,7-1.8,10.4c-0.2,1.8-0.7,3.6-0.7,5.4c0,1.1-0.2,2.5-0.7,3.4l-0.2,0.5
		c-0.2,0.5,0,0.5-0.5,0.2c0,0-0.2-0.2-0.2-0.5c-0.2,0.2-0.2,0-0.2-0.2c0-0.2-0.2-0.2-0.2-0.5c0-0.2,0.2-0.5,0.2-0.5
		c0-0.5-0.2-0.7-0.2-1.1c0-0.7,0.2-0.7-0.7-0.9c0-0.9,0.2-1.8,0-2.7c0-0.5-0.2-0.9-0.5-1.4c0-0.5,0.2-0.9,0.2-1.1
		c0-0.5,0.2-1.4,0-1.6c-0.2-0.5-0.5-0.5-0.7-0.7c-0.2-0.3,0-0.4,0.1-0.4c-0.2,0-0.4,0.2-0.4-0.2c0-0.2,0.5-0.9,0.5-0.9
		c-0.5,0-0.5,0.5-0.7,0.2v-0.9c0-0.2,0.2-0.5,0.2-0.5v-0.5c0,0,0,0,0-0.2c0,0,0.2-0.2,0.2-0.5c0-0.2,0.2-0.7,0.2-0.9
		c0-0.2,0.2-0.2,0.2-0.5c0-0.5-0.2-0.9-0.2-1.1c-0.5-1.1-0.9-2-0.9-3.6c0-0.9-0.2-1.1-0.7-1.8c-0.2-0.2,0-0.7-0.2-0.9
		c0-0.2-0.2-0.7-0.2-0.7s0.5-0.2,0.5-0.5c0-0.2-0.2-0.2-0.2-0.5c0-0.2-0.5-0.5-0.5-0.7v-0.9c0-0.5,0-1.1-0.2-1.4
		c-0.2-0.5-0.7-0.9-0.5-1.4c-0.2-0.2-0.5-0.5-0.2-0.9c0-0.5,0.5,0,0-0.7c-0.2-0.5-0.2,0-0.5-0.5v-1.6c0-0.2-0.2-0.2-0.2-0.5
		c-0.2-0.7-0.2-1.6-0.2-2c0-0.2-0.2-0.7-0.2-0.9v-0.9c0,0,0.2,0,0.2-0.2l-0.2-0.2c0,0-0.2,0-0.2-0.2c0,0,0.2-0.2,0-0.2
		c-0.2-0.7-0.2-1.4-0.2-2c0,0,0-0.2,0-0.5v-0.2c0-0.2,0.2-0.2,0.2-0.2V247c0-0.2-0.5-0.7-0.5-0.7l0.2-0.2c0,0,0,0-0.2-0.2
		c0.2-0.2,0,0,0-0.2c0,0-0.2,0-0.2-0.2c0-0.2,0.2-0.2,0.2-0.5c0-0.5-0.5-0.5,0-1.1c0-0.2-0.5,0-0.7,0c-0.2-0.2,0.2-0.2,0.2-0.7
		c0,0-0.2-0.2-0.2-0.5c0,0,0.2,0,0.2-0.2c0-0.5-0.5-0.7-0.2-1.1c0-0.2,0.2-0.2,0.2-0.5c0-0.2-0.2-0.5-0.2-0.7
		c-0.2-0.7-0.2-1.6-0.2-2.3c0-0.5-0.2-1.1-0.2-1.6c0-0.7,0-1.1-0.2-1.6c-0.7-3.4-0.5-7.2-2.3-10.6c-1.6-3.4-6.1-5-9.1-2
		c-1.4,1.4-1.6,2.5-2.3,4.3c-0.2,0.9-0.7,1.6-1.1,2.5c-0.2,0.7-0.5,1.8-0.7,2.7c-0.2,0.7-0.7,1.6-0.9,2.3c-0.2,0.5-0.2,0.9-0.5,1.4
		c-0.2,0.5-0.5,0.7-0.5,1.1s0,0.7-0.2,1.1c-0.2,0.5-0.5,0.7-0.5,1.1c-0.5,0.9-0.5,1.6-0.7,2.5c-0.2,1.6-1.4,3.2-1.8,4.8
		c-0.2,0.7-0.2,1.6-0.5,2.3c-0.2,0.5-0.2,1.1-0.5,1.6c-0.2,0.5-0.5,0.7-0.7,0.9c-0.5,0.7-0.2,1.6-0.5,2.5c0,0.2-0.9,1.1-0.7,1.4
		c-0.2,0.2-0.2,0.5-0.2,0.7c0,0.2-0.2,0.2-0.2,0.5c0,0.2,0,0.7-0.2,0.9c-0.2,0.5-0.5,0.9-0.5,1.4c-0.7,1.6-1.1,2.9-1.6,4.3
		c-0.2,0.5-0.5,1.1-0.7,1.6c-0.2,0.7-0.5,1.4-0.7,2.3c-0.7,1.4-1.1,3.2-0.9,4.8c0.2,1.8,1.8,2.9,3.4,3.4c0.9,0.2,2,0.2,2.9-0.2
		c0.5-0.2,1.1-0.5,1.6-0.9c0.2-0.2,0.5-0.5,0.5-0.5s0-0.2,0.2-0.2l0.5-0.2h0.2c0-0.2,0-0.7,0.2-0.9c0-0.2,0.2-0.2,0.2-0.5
		c0-0.2,0-0.5,0-0.5c0-0.5,0.5-0.7,0.5-1.1c0-0.2,0.5-0.7,0.5-0.9V268c0,0,0-0.2,0-0.5c0-0.2,0.2-0.5,0.5-0.7c0-0.2,0.2-0.2,0.2-0.7
		c0-0.2,0.2-0.7,0.5-0.9c0-0.2,0.7-0.5,0.7-0.7c0-0.2-0.5,0-0.5-0.2c0-0.2,0-0.2,0-0.2c0-0.2,0.2-0.5,0.2-0.7c0-0.2,0.2-0.5,0.2-0.9
		c0,0.2,0.2-0.2,0.2-0.2c0.2-0.2,0.2-0.2,0.2-0.5v-0.7c0,0,0.2,0,0.2-0.2c0,0-0.5-0.2-0.2-0.5l0.3,0.2c0,0-0.1-0.1-0.1-0.2v-1.4
		c0,0,0.2,0,0.2-0.2c0-0.2-0.2,0-0.2-0.2c0-0.2,0.5-0.5,0.5-0.5l0.2-0.5c0.2-0.2,0.5,0,0.5-0.2c0,0-0.2-0.5,0-0.7
		c0-0.2,0.5-0.5,0.5-0.7l0.2-0.2c0.2-0.2-0.2-0.2-0.2-0.2c0-0.2,0.5-0.2,0.2-0.5c0-0.2,0.5,0,0.5-0.2v-0.2c0,0-0.2-0.5,0-0.5
		c0,0,0.2,0.2,0.2,0c0-0.2,0-0.5,0.2-0.7c-0.2,0.2-0.2-0.2-0.2-0.5c-0.2,0.2,0.7,0,0.5,0h0.7c0,0-0.2-0.2-0.2-0.5c0-0.2-0.2,0-0.2,0
		c-0.2-0.2,0-0.7,0.2-0.7c0.5,0,0.7,0.2,0.7-0.5c0.2,0,0.5-0.9,0.7-1.1c0.5-0.5,0-1.1,0.9-1.4c0,0,0.7,0,0.7,0.2
		c0,0,0.7,0.7,0.7,0.5c-0.2,0.2-0.7,1.4,0,1.4c0.2,0,0.2-0.5,0.5-0.2c0.5,0.2,0,0.5,0,0.5c0,0.5,0.2,0.5,0,0.9l0.5,0.2
		c0,0,0,0-0.2,0.2c0,0-0.2,0-0.2,0.5v0.9c0.2,0,0.2,0.2,0.2,0.2c0,0.2,0,0.2-0.2,0.5c0,0.5,0.2,0.5,0.5,0.9c0.2,0.5,0.7,1.1,0.5,2
		c0.2,0.2,0.2-0.2,0.2-0.2c0.2,0.7,0.2,1.4,0.2,2c0.2,0.9,0.2,1.6,0.5,2.5c0.2,1.1,0.2,2,0.5,3.2c0,0.7,0.5,1.1,0.2,1.8
		c0,0.5-0.2,0.9-0.2,1.4c0,0,0,0.5,0.2,0.9l0.2,0.2c0.2,0.2,0.2,0.7,0.2,1.1c0.2,2.7,0.9,5.7,1.4,8.4c0.5,2.3,0.7,4.5,1.1,7
		c0,0.5,0.2,0.9,0.2,1.4v0.9c0,0.2,0.2,0.7,0.5,1.1c0,0.2,0,0.2,0,0.5c0,0.9,0.5,1.6,0.5,2.7c0.2,0.2,0.2,0.9,0.2,1.1
		c0,1.1,0.5,2.5,0.5,3.6c0,0.7,0.2,1.1,0.5,1.8c0,0.5,0,0.9,0.2,1.4c0,0.7,0.2,1.1,0.5,1.8c0,0.2,0.2,0.7,0.2,0.9
		c0,0.5-0.2,0.7-0.2,1.1c0,0.9,0.7,0.7,0.7,1.6c0,0.5,0,0.5-0.2,0.7c0,0-0.5,0.2-0.5,0.5l0.2-0.2c0.7-0.7,0.9,1.8,0.9,2.3v0.7
		c0,0.2,0,0.5,0,0.5l-0.2,0.5c0.5,0.5,0.7,1.1,0.7,1.8c0,0.2,0,0.5,0.2,0.7c0,0.2-0.2,0.2-0.2,0.5c0,0.2,0.5,0.7,0.5,1.1
		c0.5,1.1,0.5,2.7,0.5,3.6c0,0,0.2,0.2,0.2,0.5c0,0.2,0.2,0.7,0.2,0.9c0.2,0.7,0,1.4,0.2,2c0,0.5,0.2,0.9,0.5,1.6
		c0,0.2,0,0.9,0.2,1.1c-0.2,0.2-0.2,0.7-0.2,0.9c0,0.2,0.5,0.9,0.2,1.1c0.2,0,0.5,2.5,0.5,2.9c0.2,1.1,0.2,2.3,0.9,3.4
		c0.5,0.9,0.9,1.6,1.6,2.3c1.1,0.9,2.9,0.5,4.3,0c0,0,1.1-0.7,1.4-0.9c0.5-0.5,0.7-0.7,0.9-1.1c0.2-0.7,0.5-1.4,0.7-2
		c0.2-0.7,0.2-2,0.7-2.5c0-0.7,0.2-1.6,0.2-2.3c0.2-1.1,0.2-2.3,0.5-3.2c0-0.5,0.5-4.1,0.9-4.1c-0.5-0.2,0-1.4,0.2-1.8
		c0-0.5,0-0.9,0.2-1.4c0-0.2,0-0.5,0.2-0.7c0.2-0.7,0.2-1.6,0.2-2.3v-1.8c0.2-0.2,0.5-1.4,0.5-1.8c0-0.9,0-1.6,0.2-2.5
		c0-0.5,0-0.9,0.2-1.4c0-0.2,0-1.6,0.2-1.8c0,0,0,0-0.2-0.2c0.5-0.5,0.2-1.8,0.2-2.5c0-0.5,0.2-1.8,0.5-2c0-0.5-0.2-2.5,0.2-2.7
		c-0.2-0.2,0-0.7,0.2-0.9c0-0.5,0.2-0.9,0.2-1.6c0-0.5,0.2-0.7,0.2-1.1c0-0.2,0.2-0.5,0.2-0.7c0,0,0-1.6,0.5-1.1
		c0,0.5,0.9-0.2,0.7-0.5c0-0.7-0.7-0.7-0.9-1.1v-0.7c0-0.5,0.2-0.7,0.2-1.1c0.2-0.9,0.2-2,0.2-2.7c0-0.5,0-0.7,0.2-1.1
		c0-0.2,0-0.5,0.2-0.7c0-0.2,0.2-0.2,0.5-0.2c0.5-0.5,0.2-1.1,0.5-1.4h0.2v-0.7c0-0.5,0.2-0.7,0.2-1.1c0-0.2-0.2-0.2-0.2-0.5v-0.2
		c0,0,0-0.2,0-0.5c0,0.2-0.2-0.5,0-0.2c-0.2-0.2-0.2,0.2-0.2,0c-0.2-0.2-0.5-0.5-0.5-0.9c0,0.2,0.2-0.7,0.2-0.7V276
		c0,0,0-0.5,0.2-0.7c0-0.2,0.2-0.2,0.2-0.5c0.2-0.2,0.2-0.7,0.2-0.9v-0.7l0.2-0.2c0-0.5-0.2-1.6,0.5-1.6c-0.2,0.2,0-0.7,0-0.7
		c0-0.2-0.2-0.5-0.2-0.9C191.8,269.4,192.1,269.4,192.3,269.2z"/>
	<path class="st0" d="M231,240.2c-0.5,0-1.8,0.7-2.3,0.9c-1.1,0.5-2.3,1.4-3.2,2.3c-0.9,1.1-1.1,2.5-1.6,3.8c-0.2,1.1-0.5,2-0.5,3.2
		v1.4c0,0.2,0,0.7,0,0.7c0,1.6-0.2,3.2-0.5,4.8v2.5c0,0.7-0.2,1.4-0.2,2v1.4c-0.2,0.7-0.7,1.1-0.7,1.6c-0.2,0.5,0,0.7,0,1.1v0.7
		c0,0.2,0.2,0.5,0.2,0.5c0,0.5-0.2,0.7-0.2,1.4c0,0.5,0.2,0.5,0,0.9c-0.2,0.7-0.2,1.4-0.2,2c0,0.5,0,0.5,0,0.7
		c0.2,0.5,0.2,0.7,0.2,1.1s-0.2,0.7-0.2,0.9c0,0.2,0.2,0.7,0.2,0.9c0,0.7,0,1.1-0.2,1.8v3.6c0,0.9,0,2.3,0.5,3.2
		c0.2,0.5,0.7,0.9,0.9,1.4c0.5,0,0.2,0.2,0.5,0.5c0.2,0,0.9,0.2,1.1,0.2c0.9,0,1.8-0.2,2.7-0.5c1.1-0.2,2-1.1,2.9-1.8h0.5
		c0.2,0,0.2-0.2,0.2-0.5c0.2-0.5,0.7-0.7,0.9-1.1c0.7-0.9,1.1-1.8,1.4-2.7c0.5-1.1,0.2-2.3,0.5-3.4c0-0.5,0.5-0.9,0.5-1.4
		c0,0-0.2-1.1,0-1.1c-0.5-0.2,0-2.5,0-3.2c0.2-0.7,0.2-1.8,0.2-2.7V266c0,0,0.2-0.2,0.2-0.5v-0.9c0.2-0.5,0.2-0.7,0.2-1.1
		c0-0.7,0.2-1.1,0-1.6c0.2,0,0-0.2,0-0.2c0.2,0,0.2-1.1,0.2-1.1c0.2-0.2,0.7-0.9,0.2-0.9c0-0.2,0.7-0.2,0.7-0.2c0.2-0.2,0-0.7,0-1.1
		c0-0.7,0.2-0.9,0.5-1.4c0-0.5-0.2-0.5,0.2-0.9c-0.5-0.2,0.2-0.5,0.2-0.7c0.2,0,0.2,0,0.2-0.2c0,0,0-0.2,0-0.5
		c0.2-0.7,0.7-1.1,0.9-1.6c0.5-0.7,1.1-1.1,1.6-1.8c0-0.2,0.2-0.7,0.5-0.9c0.2-0.2,0.2,0.2,0.2,0c0.5-0.2,0.5-0.5,0.7-0.7
		c0.2-0.2,0.5-0.2,0.7-0.5c0.2,0,1.1-0.9,1.4-1.1c0.2-0.2,0.5-0.5,0.7-0.7c0.7-0.5,1.6-0.9,2-1.4s0.7-0.9,0.9-1.4
		c0-0.5,0.2-0.5,0.5-0.9c0.2-0.7,0-1.1,0.2-1.6c0.2-0.5,0.2-0.9,0.2-1.4c-0.7-0.5-0.9-2-1.4-2.7c-0.7-0.9-1.8-1.4-2.9-1.1
		c-0.2,0.2-1.8,0.9-1.8,0.7c0,0,0,0.5-0.2,0c0,0,0,0.2-0.2,0.2c0.2,0.2,0.2,0.2,0.2,0.2c-0.5,0.5-0.9,0.2-1.4,0.5s-0.7,0.5-0.9,0.5
		c0,0.1-0.1,0.2-0.2,0.2c0,0.2,0,0.2,0,0.2c-0.5,0.2-0.9,0.2-1.4,0.5c-0.5,0.2-0.9,0.5-1.6,0.7c-0.7,0.2-1.1,0.2-1.8,0.2
		c-0.5,0.2-1.1,0.5-1.6,0.5C232.6,241.1,231.9,240,231,240.2z"/>
	<path class="st0" d="M294.2,252.2c0.2,0.2,0.5,0.7,0.9,0.9c0.5,0.2,0.7,0.5,1.1,0.5c1.6,0.2,2.5-0.2,3.8-0.9c0.9-0.7,2-0.9,2.9-1.8
		c0.5-0.5,1.4-1.4,1.6-2c0.2,0,0.2-0.5,0.2-0.5c0.2,0,0.5-0.2,0.5-0.2c0.2-0.5,0.5-0.7,0.5-1.1c-0.2,0.2-0.2,0-0.2,0
		c0-0.2,0.2-0.5,0.2-0.5c-0.2,0,0-0.5,0-0.5c0-0.2,0.2-0.2,0.2-0.2c0.2-0.2,0-0.2,0-0.2v-0.7c-0.2-0.2-0.5-0.5-0.5-0.7
		c0-0.5,0.2-0.9,0.2-1.1c0.2-0.5,0.2-0.9,0.2-1.1c0.2-0.9,0.2-2,0.2-3.2V237l0.7,0.5c0,0,0.2-0.7,0-0.7c-0.5,0.5-0.5-0.7-0.5-0.7
		c0-0.2-0.2,0-0.2-0.2v-0.2c0,0,0.2,0,0.2,0.2c0-0.2,0.5,0.5,0.5,0.5c0.5,0,0.2-0.7,0.2-0.7c-0.2-0.5-0.5-0.5-0.7-0.9
		c0-0.5,0-0.9,0.2-1.1c-0.2-0.5-0.2-1.1,0.2-0.7c0,0-0.2-0.7,0.2-0.7c-0.5-0.5,0-0.5,0-0.9c0,0-0.2-0.2-0.2-0.5
		c0-0.2,0.2-0.2,0.2-0.5c0-0.5-0.5-0.7-0.2-1.1c0.2-0.2,0.5-0.5,0.5-0.7l-0.2,0.2c0.2-0.2,0.2-0.5,0.2-0.7c0,0,0.2,0,0.2-0.2h-0.2
		c0-0.2,0-1.4-0.2-1.4c0.2-0.2,0.5-0.5,0.5-0.7c-0.7,0-0.2-0.9,0-1.4c0-0.2,0-0.5-0.2-0.5l0.2-0.5c-0.2,0-0.5-0.2-0.5-0.2
		c-0.2,0-0.2,0-0.2,0c0.2,0,0.5-0.2,0.5-0.2h-0.2c0-0.9-0.2-1.6-0.2-2.5c0.2,0,0.2,0,0.2,0c0.2-0.2,0-0.2,0-0.5c0,0-0.2-0.5,0-0.2
		c0.2-0.2,0-0.7-0.2-0.9c0.2,0,0.5-0.2,0.5,0c0.2,0,0.2,0,0.2,0l0.2-0.5h-0.7c0.2,0,0.5-0.5,0.5-0.7c0.2-0.2,0.2-0.2,0.2-0.2
		c-0.2,0-0.2-0.2-0.2-0.5c0.2,0,0.2,0,0.2,0c0.2,0,0-0.2,0-0.5c0,0,0.2,0,0.2-0.2v-0.2c0.2,0,0.2-0.2,0-0.2c-0.2,0,0.2-0.2,0.2-0.2
		H308c0-0.2,0.2-0.5,0.2-0.7c0-0.2,0-0.5,0-0.5l-0.2-0.2h0.2c0.2,0,0.2,0,0.2-0.2c-0.5,0,0-0.5,0-0.7c0-0.5,0-0.5,0-0.7
		c0-0.2,0-1.4-0.5-0.9c0-0.2-0.2-0.5-0.2-0.5c0.2-0.5-0.2-0.5-0.5-0.2c0-0.2,0-0.2-0.2-0.2c0-0.2,0-0.5-0.2-0.5
		c0.5-0.2-0.2-1.1-0.5-1.4c-0.7-0.5-2-0.7-2.5-0.2c0.2-0.2-0.9,0-0.7,0c-0.5,0-0.7,0-1.1,0.2c-0.5,0.2-1.1,0.7-1.6,1.1
		c-0.7,0.7-1.1,0.9-1.6,1.6c-0.2,0.2-0.5,0.5-0.7,0.7c-0.2,0.2-0.2,0.7-0.5,1.1c0.2,0,0.2,0,0.2,0c-0.2,0.2-0.2,0.2-0.2,0.2
		c0,0.5-0.2,1.1-0.5,1.4c-0.2,0.2-0.5,0.5-0.5,0.9c0,0.2,0,0.7-0.2,0.7c0.2,0,0,0.2,0,0.2c0.2,0.2,0.2,0.2,0.2,0.2
		c-0.5,0.2-0.2,1.1-0.2,1.6c0,0.2-0.5,1.1-0.5,1.1c-0.2,0.2-0.2,0.5,0,0.5l-0.2,1.1v1.8c0,0.5,0,1.4-0.2,1.6h0.2c0,0-0.2,0,0,0.2
		c-0.7,0-0.2,0.5-0.2,0.7c-0.2,0-0.2,0.2-0.2,0.2c0.2,0,0,2.3-0.2,2.5c0,0.5,0.2,1.6-0.2,2c0.2,0.2,0.2,0.5,0.2,0.5
		c0,0.2,0,0.2,0,0.5c-0.2,0.5-0.2,0.7-0.2,1.1c0.2,0.2,0.2,0.5,0.2,0.5c0,0.2,0,0.2,0,0.2c-0.5,0-0.5,1.4-0.5,1.6
		c0,0.9-0.2,1.6-0.2,2.3c-0.2,1.1-0.5,2.3-0.7,3.4c-0.2,0-0.2,0-0.2,0s-0.9,8.4-0.5,9.3C293.3,250.8,294.6,250.4,294.2,252.2z"/>
	<path class="st0" d="M300.1,197.4c0.2,0.5,0.2,0.7,0.7,0.9c0.5,0.2,0.9,0.5,1.4,0.7c0.2,0.2,0.7,0.2,1.1,0.2h0.7
		c0.5,0.2,0.5,0.2,0.9,0.2c0.5,0,0.9-0.5,1.1-0.7c0.9-0.5,1.8-0.9,2.5-1.8c0.5-0.9,0.9-1.6,1.6-2.3c0.5-0.5,0.7-0.9,0.9-1.4
		c0.2-0.2,0.2-0.5,0.2-0.7c0.2-0.5,0.7-0.9,0.7-1.1c0-0.2-0.2-0.7-0.2-0.9c-0.2-0.7-0.5-1.1-0.7-1.6l-0.2-0.5
		c-0.5-0.5-0.2-0.2-0.7-0.2c-0.7,0-1.1-0.2-1.8-0.2c-0.7,0-0.9,0-1.4,0.2c-0.9,0.2-1.4,0.2-2,0.7c-0.2,0.2-0.7,0.2-0.9,0.5
		c-0.7,0.5-1.1,1.1-1.8,1.6c-0.5,0.5-1.1,1.6-1.6,2.3c-0.2,0.7-0.9,2.5-0.5,2.9C300.1,196.7,300.3,197.2,300.1,197.4z"/>
	<path class="st0" d="M373,227.7c0.2,0,0.2,0.2,0.2,0.2c-0.7,0-0.7-0.7-1.1-0.7c0,0,0,0.2,0.2,0.2c-0.7,0.5-1.6,0-2.3-0.2
		c-0.7-0.2-1.6,0-2.3,0c-0.5,0.5-1.4,0.5-2,0.7c-0.5,0-1.1,0.5-1.6,0.7c0,0.2-0.5,0.7-0.7,0.7c-0.5-0.5-2.9,1.4-3.4,1.6
		c-0.2,0-0.7,0.2-0.9,0.5c-0.2,0.2-1.1,0.7-1.1,0.7c-0.7,0-1.4,0.2-2,0.7c-1.1,0.7-2.7,1.8-4.1,1.4c-0.2,0-0.2,0-0.5-0.2
		c-0.5-0.2-0.5-0.5-0.7-0.7c0-0.2-0.2-0.2-0.5-0.2c0-0.1,0-0.2,0-0.2h-0.2c-0.2-0.2-0.2-0.5-0.2-0.5V232c-0.2-0.5-0.5-0.2-0.7-0.5
		c0.2,0,0.2,0,0.2,0c0-0.2-0.5-0.2-0.2-0.5c0-0.2,0.5-0.2,0.5-0.5c0-0.5,0-0.2-0.2-0.5c-0.2-0.2-0.2,0-0.5-0.2c0,0,0,0,0-0.2
		s0.2-0.2,0-0.5c0-0.2-0.5,0-0.5-0.2c0.2-0.5,0-1.1,0.2-1.6c0,0,0.2,0.2,0.2,0c0-0.5-0.2-0.2-0.2-0.5c-0.2-0.2-0.5,0-0.5-0.5
		c0-0.2,0.2-0.1,0.4-0.2c-0.1-0.1-0.2-0.3-0.2-0.3s0.5,0,0.5-0.2c0.2-0.7-0.5-0.2-0.5-0.2c0.2-0.2-0.2-0.7,0-0.9
		c0.2,0,0.2,0.5,0.5,0.2c0-0.5-0.2-1.1,0.2-1.6c0,0.1,0,0.2,0,0.2l0.2-0.2c-0.2-0.2-0.5-0.5-0.5-0.7c0-0.5,0.2-0.5,0.2-0.7
		c0-0.5-0.5-0.2-0.7-0.7v-0.7c0.2-0.2,0.2,0,0.2-0.2l-0.2-0.5c0-0.2,0.2-0.2,0-0.5l0.5-0.2c0-0.2-0.5-0.5-0.5-0.7
		c-0.2-0.7,0-1.6,0-2.3v-2.3c0-0.2-0.2-0.7,0-0.7c0.2-0.2,0.5,0.2,0.7,0l-0.5-0.5c-0.2-0.2-0.2,0.2-0.2-0.2c0-0.5,0.7-0.7,0.5-0.9
		c0-0.2-0.5,0-0.5-0.5s0.2-0.2,0.5-0.5c0.5-0.2,0.5,0.2,0.7-0.2c-0.5-0.5-0.2-1.1-0.5-1.6c0.2,0,0.2,0,0.2,0c0-0.2-0.5-0.2-0.5-0.2
		s0.2,0,0.2-0.2l-0.2-0.5c0.2-0.5,0.7,0,0.7-0.5c-0.5,0.5-0.5-1.4-0.5-1.6c-0.2-0.2-0.5,0.7-0.7,0.5c0-0.2,0.2-0.5,0.2-0.7v-1.1
		c0-0.5,0.2-0.7,0.7-0.7c-0.2-0.2-0.5-0.7,0-1.1c0,0-0.7-0.5-0.7-0.7c-0.2-0.2-0.2-0.5-0.2-0.7c0.2-0.7,0,0.2,0.5-0.2
		c-0.2-0.2-0.5-0.5-0.7-0.7c-0.2-0.2,0-0.7,0-1.1c0,0.2-0.2,0.2-0.2,0.2c0-0.5-0.2-0.5-0.5-0.9c0-0.2,0-0.9,0-0.9s-0.2,0.2-0.5,0.2
		c-0.2-0.2-0.5-0.7-0.7-0.7c-0.5-0.5-1.4-0.7-2-0.9c-1.1-0.5-2.3-0.2-3.4,0c-1.1,0.5-2.3,0.9-3.4,1.6c-0.5,0.2-1.6,0.7-2,1.1
		c-0.5,0.5-0.7,0.9-1.1,1.4c-1.4,1.4-2.3,2.5-3.6,3.6c-0.9,0.7-1.8,1.1-2.7,1.4c-0.7,0-0.9-0.2-1.6-0.2c-0.5,0-0.7-0.2-1.1-0.5
		c-0.7-0.2-0.9,0-1.4,0.2c-0.7,0.2-0.9,0-1.6,0c-1.1,0-2.5,0.2-3.4,0.9c-0.7,0.5-1.4,0.7-2,1.1c-0.9,0.5-1.6,1.6-2,2.5
		c-0.7,1.1-1.1,2.7-1.1,4.1c-0.2,1.6-0.5,2.9-0.5,4.5c0,2,0.2,4.3,0,6.3c-0.2,0.9-0.2,1.6-0.2,2.5c0,1.1-0.2,1.8-0.2,2.7v5.2
		c0,0.2,0,0.9-0.2,1.1c0.2,0,0,1.8,0,2.3c-0.2,0.9-0.2,1.8-0.2,2.7c-0.2,0.7,0,1.1,0,1.6v1.6c0.2,0.5,0.5,1.6,0.9,2
		c1.8,1.8,4.3,0.5,6.1-0.2c0.7-0.2,1.4-0.5,1.8-0.9c0.2-0.2,0.2-0.2,0.5-0.5c0,0,0.2-0.4,0.5-0.5c0-0.2,0.4-0.2,0.4-0.4v-0.7
		c0-0.2,0.2-0.9,0.5-0.7c-0.5-0.5,0-0.9,0.2-1.1c0-0.2,0.2-0.9,0.7-0.9c0-0.9-0.5-1.4-0.5-2c0,0,0.2,0.7,0.5,0.5
		c0.2,0-0.2-0.7-0.2-0.9c0,0,0.5-1.1,0.2-0.9c0.5-0.5,0.2-0.7,0-0.9c0,0-0.1-0.1-0.1-0.1c0,0,0.1-0.1,0.1-0.2c0-0.2,0.2,0,0.2-0.5
		c0,0-0.5-0.2-0.5-0.5c0-0.2,0.2-0.5,0.2-0.5v-0.2h0.2c0.2-0.5,0.5-0.5,0.2-0.7c0-0.2-0.2,0.2-0.2,0.2c-0.5-0.2-0.2-0.2-0.2-0.2
		v-3.2c0.2-0.5,0.2-0.7,0.7-0.7c0-0.5-0.5-0.7-0.2-1.1l0.2-0.2c0-0.2,0-0.2,0-0.2V228c0.2,0,0.2,0.7,0.2,0.7c0.2,0,0.9-0.5,0.9-0.5
		l-0.5-0.2v-0.5c-0.2,0-0.2-0.2-0.2-0.2h0.2c0-0.2,0-0.2,0-0.5c0,0,0,0,0-0.2c0-0.2-0.5-0.2-0.5-0.5c-0.2-0.5-0.2-0.7-0.2-0.9
		c0.2,0,0.2,0.2,0.5,0l-0.2-0.5c0-0.2,0.7-0.2,0.2-0.5c0,0,0.7-0.5,0.7-0.7c0-0.2-0.2-0.5-0.2-0.7l-0.2-0.2v-0.2
		c0-0.5-0.5-1.1,0-1.4c0.2-0.2,0.7,0,0.7-0.2c0-0.2-0.7-0.2-0.7-0.2c0.2-0.2,0.2,0,0.5-0.2c0.2-0.2,0-0.2,0-0.2l0.2-0.5
		c0-0.2-0.2,0-0.5-0.2c0-0.2,0.2-0.2,0.2-0.5v-0.5c0.2-0.2,0.5,0,0.2,0.2c0.2,0,0.5,0,0.5-0.2c0.2-0.5,0-0.2-0.2-0.5
		c0-0.2,0.5-0.2,0.5-0.5c0-0.2,0-0.2,0-0.5s0-0.2,0-0.5c0-0.5-0.5-1.6,0.2-1.4c0-0.5,0.2-1.1,0.5-1.6c0-0.2-0.2-0.2,0-0.5l0.7-0.2
		c0.2-0.2,0.5-0.2,0.5-0.7c0-0.2-0.2-0.5-0.2-0.7c0.5,0,0.2,0.2,0.7-0.2l1.1-1.1c0.2-0.2,0.2-0.5,0.5-0.7c0-0.2,0-0.5,0.2-0.5
		c0.2,0,0.2-0.2,0.5-0.2c0.2-0.2,0.2-0.5,0.5-0.7c0.7-0.5,1.4-0.9,2-1.4c0.5-0.2,0.7-0.2,1.1-0.5c0,0,0.5-0.2,0.7-0.2l0.2,0.2
		c0.2-0.2,1.4,0,1.6,0.2c0.2,0.2,0.9,1.1,0.9,1.4v2.9c0,0.7,0.5,1.8,0,2.3c0,0.2,0.2,0.7,0.2,0.9v1.4c-0.2,0.9-0.2,1.8-0.2,2.5
		c0,0.2,0,0.7,0,0.7s0,0.2,0,0.5c0,0-0.2,0-0.2,0.2c0,0.2,0.2,0.7,0.2,1.1c0.2,0.7-0.2,1.4-0.2,2c-0.2,0.9,0,1.8,0,2.7
		c0,0.7,0.2,1.6,0,2.3c0,0.5-0.2,0.9-0.2,1.4c0,0.7,0.2,1.4,0.2,2v2.5c0.2,1.4,0.5,2.5,1.4,3.4c0.2,0.2,0.5,0.2,0.7,0.5
		c0.2,0.2,0.9,0.5,0.9,0.5c0.2,0.7-0.5,1.1-0.9,1.4c-1.1,0.7-2,1.4-3.2,1.8c-2.9,1.8-5.9,3.4-8.8,5c-2.3,1.1-4.5,2.9-6.8,4.1
		c-1.4,0.7-3.2,1.6-4.5,2.5l-0.7,0.7c-0.2,0.2-0.5,0.2-0.7,0.2c-0.9,0.2-1.6,0.9-2.3,1.4c-1.4,0.7-2.7,1.6-4.1,2.3
		c0,0-0.5,0.2-0.7,0.2h-0.7c-0.5,0-0.5,0.5-0.9,0.7c-0.2,0.2-0.5,0.2-0.7,0.2c-0.2,0-0.5,0.2-0.7,0.5c-0.9,0.5-1.8,0.7-2.7,1.1
		c-0.7,0.2-1.1,0.7-1.6,1.1c-0.7,0.5-1.1,0.7-1.8,1.1c-0.5,0.5-1.1,0.9-1.6,1.1c-0.2,0-1.4,0.2-1.4,0.7c0.2,0,0.2,0,0.2,0
		c-0.9,0.2-2,1.1-2.7,1.6c-0.9,0.7-2,1.1-2.9,1.8c-1.6,0.9-2.9,2-4.3,2.7c-1.1,0.5-2.3,1.1-3.2,1.8c-0.5,0.5-1.1,1.4-1.8,1.4
		c0.2-0.2,0-0.9,0-1.1c0-0.2,0.2-0.2,0.2-0.5l-0.2-0.2c0-0.2,0.2-0.5,0.2-0.7v-1.1c0-0.7,0.2-1.1,0.2-1.8c0-0.2,0-0.5,0-0.5
		c0.2-0.5,0.2-0.5,0.2-0.7c-0.2-0.2-0.2-0.2-0.2-0.5c-0.2-0.5,0-0.9-0.2-1.1c0-0.1,0-0.5,0-0.5c0-0.2-0.2-0.5,0.2-0.5
		c0-0.2-0.2-0.2-0.2-0.5c0,0,0.2-0.2,0.2-0.5v-0.9c-0.2-0.5-0.5-0.7-0.5-1.1v-1.1c0-0.2,0-0.2,0-0.5c0-0.5,0.2-1.1,0.2-1.6
		c0-0.2,0-0.2,0-0.5c0-0.2,0.2,0,0.2-0.2c-0.2-0.5-0.2-0.2-0.2-0.7c0-0.7,0.2-1.1,0.2-1.6c0.2-0.5,0.2-1.4,0.2-2
		c0.2-0.9,0.2-1.8,0.2-2.5c0.2-0.9,0.2-1.8,0.2-2.5c0.2-1.1,0.5-2.5,0.5-3.6c0.2-1.1,0.2-2.3,0.2-3.4c0-0.7,0.2-1.1,0.2-1.8
		c0-0.5-0.2-1.1,0-1.6c0.2-0.2,0.9-0.2,0.5-0.5l-0.2,0.2c0-0.2,0-1.1,0-1.1c0.2,0.2,0.2,0.2,0.2,0.2c0.5-0.5-0.5-0.7,0.2-0.7
		c0-0.5,0.2-0.7,0.2-0.9c0.2-0.5,0-0.9,0-1.4c0-0.2-0.2,0-0.2-0.2l0.2-0.2c0.2-0.5,0-0.2,0-0.7v-1.4c0-0.7,0.5-0.5,0.2-1.1v-0.9
		c0,0,0.2,0,0.2-0.2c0-0.2-0.2-0.2-0.2-0.5v-2.9c0,0.2,0.2-0.5,0.2-0.2V225c0,0.2-0.2-0.2-0.2-0.2c-0.2-0.2,0-0.5-0.2-0.7
		c-1.1-1.8-4.3-2.3-6.3-1.6c-0.7,0.2-1.1,0.5-1.6,0.9c-0.2,0.2-1.6,1.4-1.6,1.4s-0.7,1.1-0.7,1.4c-0.2,0.7-0.2,1.4-0.2,2
		c-0.2,0.9-0.5,1.6-0.5,2.5v1.4c0,0.2-0.2,0.7-0.2,0.9c0.2,0.5,0,1.6,0,2v2.7c0,1.1-0.2,2-0.2,2.9c0,0.9,0,2-0.2,2.9
		c-0.2,0.2-0.2,0.2-0.2,0.5c0,0-0.2,0-0.2,0.2c-0.2,0.2,0,0.2,0,0.2s0,0.2,0,0.5c0,0.5-0.2,1.1-0.2,1.8c0,0.7,0,1.6-0.2,2.3
		c0,0.5-0.2,2.5-0.5,2.7c0,0-0.9,7.5-1.1,8.2c-0.7,2.3-2,3.8-3.8,5c-1.6,0.9-4.8,1.6-5.7-0.7c-0.5-1.1-0.7-2.3-0.7-3.6
		c0-0.2,0.2-0.2,0.2-0.5l-0.2-0.2c0,0,0-0.2,0-0.5c0-0.2-0.2-0.7-0.2-1.1c0-0.2,0.5-0.5,0.5-0.7v-0.9c0-0.7,0-1.1,0.2-1.8
		c0.2-1.1,0.2-2,0.5-2.9c0.2-0.9-0.5-1.1-0.5-1.8c0-0.5,0.2-0.7,0.2-1.1v-1.1c0.2-0.2,0.5-0.5,0.5-0.7c0.2-0.2,0.2-0.5,0.2-0.7
		c0.2-0.2,0.5-0.7,0.5-1.1c0.2-0.7,0.2-1.4,0.7-2c0.5-0.7,0.5-0.9,0.7-1.6c0.2-0.7,0.5-0.9,0.7-1.4c0.2-0.2,0.2-0.7,0.5-0.9
		c0-0.2,0,0.2,0.2,0c0.2-0.2,0.2-0.2,0.2-0.5c0-0.2,0-0.5,0-0.5c0.2-0.5,0.7-0.7,0.9-0.9c0.2-0.5,0.5-1.1,0.9-1.6
		c0.5-0.2,0.9-0.7,1.4-1.1c0-0.2,0.5-0.5,0.5-0.7c0-0.2,0-0.5,0-0.5c0-0.2,0.5-0.2,0.5-0.5c0.2-0.2,0.2-0.7,0.2-0.9
		c0.2-0.2,0.7-1.4,0.2-1.4c0-0.7,0.5-0.9,0.2-1.6c0-0.2,0-0.7-0.2-0.9c-0.5-0.9-1.8-0.9-2.7-0.9c-1.1,0-2,0.5-3.2,0.9
		c-1.1,0.5-1.4,0.9-2,1.4h-0.2c-0.7,0.7-1.8,1.4-2.5,2c-0.5,0.7-0.7,1.1-1.1,1.6c-0.9,1.1-1.6,2.3-2.5,3.4c-1.4,1.6-2.3,3.8-2.9,5.9
		c-0.2,1.1-0.7,2.3-0.9,3.4c0,0.5-0.2,1.1-0.2,1.6c0,0.2-0.2,0.2-0.2,0.5s0.2,0.2,0.2,0.5c0,0.9-0.5,1.6-0.5,2.5
		c-0.2,0.5-0.2,0.9-0.2,1.4c0,1.4,0,2.7-0.2,4.1c0,0.2-0.2,0.7-0.2,1.1c-0.2,0.5,0,0.9,0,1.1v0.7c0,0.2,0.2,0.2,0.2,0.5
		c0.2,0.5,0.2,0.9,0.2,1.6v3.8c0,2,0,3.8,0.5,6.1c0.2,0.9,0.5,1.8,0.9,2.5c0.2,0.5,1.8,1.6,1.8,2c0.2-0.2,0.2-0.2,0.2-0.2
		c0.7,0.5,1.4,0.9,2,1.1c0.2,0,0.2,0.2,0.7,0.2c0.5,0,2.7,0.2,2.7,0.5c0.2-0.2,0.9,0,0.9-0.2c1.1,0,2.3-0.5,3.4-0.7
		c0-0.2,0-0.2,0.2-0.2l0.2,0.2c0,0.2,1.1,0.5,1.1,0.2h-0.2c-0.2,0,0.7-0.5,0.7-0.5c0.5,0,0.5,0.2,0.5-0.2c0.7,0,0.2-0.2,0.7-0.2h0.9
		c0.5-0.2,0.7-0.2,1.1-0.5c0.7-0.5,1.4-0.9,2-1.4c0.2-0.2,0.5-0.2,0.7-0.5c0.2-0.2,0.5-0.7,0.7-0.7c0.5,0,0.5,0,0.7,0.5
		c0.2,0.7,0.2,1.8,0.2,2.3v0.9c0,0.2-0.2,0.2-0.2,0.2c0,0.2,0.2,0.5,0.2,0.9v1.4c-0.2,0.5-1.4,0.9-1.8,1.4c-0.7,0.5-1.1,0.7-1.6,1.1
		c-0.2,0-0.7,0.7-0.9,0.7c-1.1,0.5-2.5,1.6-3.4,2.3c-1.4,0.9-2.5,2-3.8,2.9c-1.1,0.7-2,1.4-2.9,2.3c-0.7,0.9-1.6,1.1-2.5,1.8
		c-0.9,0.7-1.8,1.4-2.7,2c-0.5,0.5-1.1,0.7-1.6,1.1c-0.2,0.2-0.7,0.5-0.9,0.7c-0.7,0.5-1.4,0.9-2,1.4c-0.5,0.2-0.7,0.7-1.1,0.9
		c-0.2,0.2-0.9,0.9-1.1,0.9c0-0.2,0-0.2,0-0.2s-0.7,0.7-0.9,0.7c-0.5,0.2-0.7,0.5-1.1,0.7c-0.7,0.2-1.1,0.7-1.6,1.1
		c-0.7,0.7-1.1,1.1-1.8,1.6c-0.7,0.5-1.4,0.9-2,1.6c-1.4,1.6-3.2,2.7-4.8,4.1c-0.9,0.7-1.8,1.4-2.7,2c-0.2,0-1.6,1.1-1.6,1.4
		c-0.2,0,0-0.2-0.2,0c0,0-0.2,0.2-0.5,0.5c-0.5,0.5-0.7,0.7-1.1,0.9c-0.5,0.2-0.5,0.2-0.7,0.5c-0.2,0.2-0.2,0.5-0.5,0.7
		c-0.5,0.5-1.1,0.9-1.6,1.4c-0.9,0.7-1.4,0.9-2,1.6c-1.8,1.4-3.4,2.9-5.2,4.5c-0.7,0.7-1.8,1.1-2.5,1.8c-0.9,0.9-2,1.8-2.9,2.7
		c-0.7,0.7-1.1,1.4-1.8,1.8c-0.9,0.7-1.6,1.4-2.3,2c-3.6,3.4-7.2,6.6-10.6,10c-1.8,2-3.8,4.1-5.4,6.3c-1.1,1.8-0.7,3.8,0.2,5.7
		c0.9,1.8,2.7,2.5,4.8,2.9c0.5,0.2,1.1,0.2,1.8,0.2s0.9,0,1.4-0.2c0.2,0,0.5,0,0.7-0.2c0.2,0,0.5-0.2,0.7-0.5
		c0.2-0.2,0.7-0.5,0.9-0.7c0.7-0.7,1.4-1.1,1.8-1.6c0.7-0.7,1.4-1.1,2-1.8c0.5-0.7,1.4-0.9,1.8-1.6c0.2-0.2,0.2-0.7,0.7-0.9
		c0.5-0.2,0.7-0.5,0.9-0.7c0.7-0.5,1.1-1.4,1.6-2c0.7-1.1,1.6-1.8,2.5-2.7c1.1-0.9,2-2,3.2-3.2c0.5-0.5,0.9-1.1,1.4-1.6
		c0.5-0.5,0.9-0.7,1.4-1.1c0.2-0.5,0.5-1.1,0.9-1.6c0.5-0.2,0.9-0.5,1.1-0.9c0.2-0.2,0.5-0.7,0.7-0.9l0.7-0.7
		c0.2-0.2,0.5-0.7,0.7-0.9c0.7-0.7,1.6-1.4,2.3-1.8c0.7-0.5,1.1-1.1,1.8-1.6c1.4-1.1,2.5-2.5,3.4-3.6c0.2-0.2,0.7-0.5,0.9-0.7
		c0.2-0.2,0.5-0.5,0.7-0.7c0.7-0.5,1.4-0.9,2-1.6c0,0.2,0,0.2,0,0.2c0.9-0.9,1.8-1.6,2.7-2.3c1.1-0.9,2-1.6,2.9-2.3
		c1.6-1.4,3.2-2.5,4.8-3.8c0.9-0.9,1.8-2,2.9-2.7c0,0,0.2-0.2,0.5-0.2c0,0,0.2-0.2,0.5-0.5c0.5-0.2,0.7-0.7,1.1-0.9
		c0.5-0.2,0.9-0.5,1.1-0.9c0.9-1.1,2.5-2.3,3.6-3.2c1.1-0.9,2-1.6,3.2-2.5c0.5-0.5,0.9-1.1,1.6-1.4c0.5-0.2,0.9-0.7,1.1-0.9
		c0.9-0.9,2.3-1.8,3.4-2.5c2.5-1.8,5-4.5,8.2-5.7v5c0,0.5-0.2,0.9-0.2,1.1c-0.2,1.4,0,2.5,0,3.8c-0.2,0.9-0.2,1.8-0.2,2.7
		c0,2.3,0,4.5-0.2,6.8c0,0.9,0.2,1.8,0.2,2.7v1.4c0,0.5,0.2,1.6,0,2c0,0,0,1.8,0,2c0,0.2-0.2,0-0.2,0.2c0,0.2,0.2,0.5,0.2,0.7v1.8
		c0,0.7-0.2,1.4-0.2,2c0,0.7,0.2,1.1,0.2,1.8c0,1.4-0.2,2.7-0.2,4.1c0,2-0.2,4.3-0.2,6.6c0,0.9-0.2,2-0.2,2.9v3.4
		c0.2,2-0.2,4.1-0.2,6.1c0,1.1-0.2,2.5,0,3.8c0.2,1.6,0.7,2.9,1.1,4.5c0.7,1.8,3.4,3.2,5.2,3.4c1.4,0.2,2.7,0.2,3.8-0.2
		c0.9-0.2,1.8-1.1,2.5-1.8c0.5-0.5,0.7-1.4,1.1-1.8c0,0,0.9-0.5,0.9-0.7c-0.5-0.2-1.4-0.2-0.9-0.9c0-0.2,0.5-0.2,0.5-0.5
		c0-0.2-0.5,0-0.5-0.2c0.7,0,0-0.2,0.2-0.5c0-0.2,0.7-0.5,0.5-0.7c0,0.2-0.7-0.2-0.9-0.2c-0.5,0.2-0.2,0-0.2-0.2
		c-0.2-0.2,0.2-0.5,0-0.7c0,0.2-0.2,0.2-0.2,0.2c0.2-0.2,0.2-0.2,0.2-0.2l-0.5-0.2c0.2,0,0-0.7,0-0.7l0.5-0.2c-0.2,0,0-0.5-0.2-0.5
		c-0.2,0-0.2,0.5-0.5,0c0-0.2,0-0.2,0-0.2c0.2-0.2,0-0.2,0.2-0.2c-0.2,0,0.7,0.9,0.5,0h0.2l-0.2-0.5h0.2c0.2-0.5,0,0,0-0.2
		c0,0,0.5-0.2,0.5,0v0.2c0.5-0.5,0-0.5-0.2-0.7c-0.2-0.2-0.5-0.5-0.5-0.5c-0.2-0.2-0.2,0.2-0.5,0c0,0,0.7-0.2,0.5-0.2
		c0-0.2,0.2,0.2,0.2-0.2l-0.4-0.4c0-0.4,0.1-0.7-0.2-0.7c-0.2,0.2,0,0.9-0.7,0.2c-0.2-0.5,0-0.5,0-0.7c0,0-0.2-0.2-0.2-0.5
		c0-0.2,0.2,0,0.2-0.2c0-0.2-0.2-0.2-0.2-0.2c0.2,0,0.2,0,0.2,0c0-0.2-0.5-0.2-0.2-0.5c0.5-0.2,0.7,0.2,0.9-0.2
		c-0.5-0.2-0.5-0.2-0.7,0c-0.7-0.5,0.7-0.5,0.9-0.7c-0.5,0,0.2-0.5,0.2-0.7c0-0.2,0.2-0.2,0.2-0.2c0.2,0,0.2-0.2,0-0.2
		c0-0.2,0-0.5,0-0.5s-0.2,0.2-0.2,0l-0.2-0.5v-0.2c-0.2-0.2-0.2-0.2-0.2-0.2c-0.2-0.2-0.5-0.9-0.5-0.9c0-0.2,0-0.5,0.2-0.2l0.2-0.7
		c0,0-0.5-0.7-0.5-0.5c0,0,0.2-0.5,0-0.5c-0.2,0.5-0.2,0.9-0.7,0.2l-0.5-0.5c0.2-0.2,0.5-0.5,0.5-0.7c0-0.2,0-0.2,0-0.5
		c0-0.2-0.5-0.2-0.2-0.5c0.2,0,0.2,0,0.5,0c0.5,0.2,0,0.2,0,0.5c0.2,0.2,0.5-0.9,0.5-1.1c-0.2,0-0.5,0-0.5,0
		c-0.2-0.5,0.2-0.2,0.2-0.5c0-0.2-0.5-0.2-0.5-0.5l0.2-0.7c-0.2,0.5-0.5-0.2-0.5-0.5l0.2-0.2c0-0.2,0.2,0-0.2-0.2
		c-0.2,0-0.2,0.2-0.5,0c0-0.2,0.2-0.2,0.2-0.2c-0.2-0.5,0.2-0.7,0.2-0.9l0.2-0.2c-0.2-0.2-0.5,0-0.7,0c0.2-0.2,0.2-0.2,0-0.5
		c-0.2,0.2-0.2-0.2-0.2-0.2c0.2-0.2,0-0.5-0.2-0.5c-0.2,0-0.2-0.2-0.2-0.2c-0.2-0.2,0.2-0.2,0.2-0.5c0-0.2,0-0.2,0-0.5l-0.2-0.5
		c0-0.2,0.5-0.2,0.7-0.5l-0.5-0.2c0-0.2,0-0.5,0.2-0.7c0,0-0.2-0.2-0.2,0c0,0.5-0.7,0.5-0.7,0c0,0,0.2,0,0.2-0.2
		c0-0.2-0.2-0.2-0.2-0.5c0-0.2,0.2,0,0.5-0.2c0.1,0,0.1,0,0.1,0c0,0-0.1-0.1-0.1-0.2v-0.2c-0.2-0.2-0.2,0-0.5-0.2c0,0,0-0.2,0-0.5
		c0-0.2-0.1-0.2-0.2-0.2c0.1-0.1,0.4-0.5,0.4-0.5c0.2-0.2,0.5-0.2,0.5-0.2c0,0,0.1-0.1,0.1-0.1c0,0.1-0.1,0.1-0.1-0.1
		c0-0.2,0.5-0.5,0.5-0.7c-0.2-0.2-0.2,0.2-0.5,0.2c-0.2-0.2,0-0.5-0.2-0.5c0-0.2,0.2-0.2,0.2-0.5v-0.2l-0.2,0.2
		c-0.2-0.2,0,0-0.2-0.2V324c0,0-0.2-0.2-0.2-0.5c0-0.5,0-0.2,0-0.5c0.2-0.2,0.5-0.2,0.5-0.5c0-0.2-0.2-0.2-0.2-0.5
		c0-0.2,0.5-0.2,0.5-0.2c0-0.2-0.7,0-0.7-0.2h0.7c0.2,0,0.2-0.2,0.2-0.5v-0.5c-0.2,0-0.5-0.2-0.5-0.2c0.2-0.5,0.7,0,0.5-0.5
		l-0.5-0.2c-0.5-0.7,0-0.9,0.5-0.5c0.2-0.2,0.2-0.2,0-0.5c-0.2,0,0-0.2-0.2-0.2c-0.2,0-0.2,0.5-0.5,0.2c0,0,0.5-0.9,0-0.5
		c0,0.2,0,0.2,0,0.2c-0.5,0,0.2-0.7,0.2-0.7c-0.7,0-0.2-0.5-0.2-0.7c0-0.2-0.2-0.2,0-0.5c0-0.2,0.7-0.5,0.7-0.5h-0.2v-0.7l-0.2-0.2
		c0-0.2,0.2-0.2,0.2-0.5c-0.2,0-0.2,0-0.2,0l0.2-0.7c-0.2,0.2-0.5,0.5-0.5,0.5c0-0.5,0.7-0.9,0.2-1.1l0.2-0.2c0,0-0.2,0.2-0.2-0.2
		c0,0,0.2-0.2,0.2-0.5v-0.7c0,0-0.5,0-0.5-0.2c0-0.2,0-0.5,0-0.5c0-0.2,0.2-0.2,0-0.5c-0.2-0.2-0.5,0-0.5,0l0.2-0.5
		c0.2-0.5,0.2-0.7,0.2-0.9c0-0.2-0.2-0.2-0.2-0.2c0-0.2,0.2,0,0.2-0.2c0,0,0-0.2,0-0.5v-0.7c0-0.2,0-0.7,0-0.7v-0.2
		c0-0.5-0.2,0-0.2-0.2c0.2-0.2,0.5-0.2,0.5-0.5c0-0.7,0.2-0.9,0.2-1.4c0-0.2,0-0.5,0.5-0.5c-0.2-0.2-0.2,0-0.2-0.2
		c-0.2,0-0.2-0.7-0.2-0.9c0-0.7-0.2-0.2-0.5-0.5c0.2,0,0.5-0.5,0.2-0.5c0-0.5,0.5,0,0.5-0.2v-0.2c-0.2,0.2-0.2-0.2-0.2-0.2
		s0.2,0,0.2-0.2c-0.2,0-0.5-0.5-0.5-0.5s0,0.2-0.2,0l0.2-0.5c0.2-0.5,0-0.2,0-0.5v-2.3c0-0.2,0-0.5,0-0.5c0-0.2,0.2-0.2,0.2-0.5
		c0-0.2-0.2-0.2-0.2-0.5c0.2-0.2,0.5-0.5,0.5-0.7v-0.5c-0.2-0.5-0.2-0.5-0.2-0.9l0.2-0.2v-0.2c0-0.5-0.5-0.9-0.5-1.4
		c0-0.7,0.2,0,0.5,0c0,0,0-0.5,0-0.7c-0.2,0-0.2,0-0.5-0.2c0.2,0,0.2-0.9,0.2-1.1c0-0.2,0.7-1.6,0.2-1.6c0,0,0-0.2-0.2-0.2
		s0.2-0.7,0.2-0.9v-0.9c0,0-0.5,0.5-0.5,0c0.2,0,1.1-1.4,0.7-1.4l-0.2,0.2c-0.2-0.2,0-0.7,0-0.9v-0.9c0-0.2-0.2-0.5-0.2-0.5
		s0.2-0.2,0.2-0.5c0,0-0.2,0-0.2-0.2l0.2-0.5c0-0.2-0.2-0.5-0.2-0.7c0-0.5,0.5-0.7,0.5-0.9c-0.2,0,0,0,0-0.2c0,0.2,0.2,0.2,0.2,0.2
		c0-0.7,1.4-0.7,1.6-1.4c0.5,0,0.2-0.5,0.7-0.5c0-0.2,0.5-0.7,0.7-0.7c0.2-0.2,0.2-0.2,0.2-0.2c0.2,0,0.2-0.2,0.2,0
		c0.5,0,1.1-0.9,1.6-1.1c0.7-0.5,1.4-0.9,2-1.4c0.5-0.5,0.9-0.9,1.6-1.1c0.5-0.2,0.9-0.2,1.1-0.5c0.2,0,0.5-0.2,0.5-0.2
		c0.2-0.2,0.5-0.2,0.7-0.2c0.5-0.2,0-0.2,0.2-0.5c0.2-0.2,0.7-0.5,0.9-0.7c0.5-0.2,0.9-0.5,1.4-0.7c0.5-0.2,0.7-0.7,1.1-0.9
		c0.5-0.2,0.9-0.5,1.4-0.7c0.7-0.2,0.9-0.9,1.6-1.1c0.5-0.2,0.9-0.5,1.4-0.7c0.2-0.2,0.2-0.5,0.5-0.5c0,0,0.2,0,0.5-0.2
		c1.4-0.9,2.9-1.8,4.5-2.7c1.4-0.9,2.7-1.6,4.1-2.5c0.7-0.7,1.8-1.1,2.7-1.6c0.7-0.5,1.4-0.9,2.3-1.4l3.4-2c1.6-1.1,3.2-2,5-2.9
		c0.9-0.5,1.8-1.1,2.7-1.6c0.5-0.2,0.9-0.7,1.4-0.9c0.2,0,0.5-0.2,0.7-0.2l0.2-0.2c0.2,0,0.2,0,0.5,0c0.9-0.2,1.8-0.9,2.7-1.4
		c1.1-0.7,2.5-1.4,3.6-2c0.2-0.2,0.7-0.2,0.9-0.5c0.5-0.2,0.7-0.5,1.1-0.7c0.5-0.2,0.7-0.2,1.1-0.5c0.2-0.2,1.1-0.9,1.1-0.7l0.7-0.5
		c0.2-0.2,0.7-0.5,0.9-0.7c0.5-0.2,1.1-0.5,1.8-0.9c0.5-0.2,1.1-0.7,1.8-0.9c0.5-0.2,0.7-0.7,1.1-0.9c0.7-0.5,1.6-0.5,2.3-0.9
		c0.5-0.2,0.7-0.2,0.9-0.5c0.2,0,0.5-0.2,0.7-0.2l0.5-0.2c0.5-0.2,0.9-0.2,1.1-0.5c0.7-0.2,1.1-0.5,1.8-0.7c2.7-0.9,5.4-1.8,8.2-2.7
		c2.9-0.9,5.9-1.6,8.4-3.4c0.5-0.5,0.9-0.7,1.4-1.1c0.2-0.5,0.7-0.5,0.9-0.9c0.5-0.5,0.7-1.1,1.1-1.6l0,0c-0.1-0.1-0.2-0.3-0.2-0.4
		C374.1,228.9,373.7,227.7,373,227.7z"/>
	<path class="st0" d="M217.7,234.1l0.9-0.7c0.2-0.2,0-0.5,0.2-0.7c0-0.2,0.5-0.5,0.7-0.7l0.2-0.7c0.2,0.2,0.7-1.4,0.9-1.4v-1.1
		c0.2-0.7,0.5-0.9-0.2-1.4c-0.2-0.5-0.2-0.7-0.5-0.9c-0.2-0.7-0.2-1.1-0.9-1.4c-0.7-0.2-1.6-0.2-2.3,0c-0.9,0.2-2,0.7-2.9,1.4
		c-0.9,0.7-1.8,1.6-2.7,2.5c-0.9,0.9-1.1,1.8-1.6,2.7c-0.2,0.5-0.2,0.9-0.5,1.4c0,0.2-0.2,0.9-0.2,1.1l0.2,0.2
		c0,0.2-0.2,0.5-0.2,0.5c0,0.5,0.2,0.9,0.2,1.4c0.2-0.2,0.2,0,0.2-0.2c0.2,0,0.2,0.7,0.5,0.9c0.2,0.5,0.7,0.2,0.9,0.5
		c-0.2,0.2,0.2,0,0.5,0.2c0.2,0,0.5-0.2,0.7-0.2c0.2,0.7,1.1-0.2,1.4-0.2c0,0.2,1.4-0.7,1.6-0.9c0.5-0.5,1.4-0.9,1.6-1.1
		C216.8,235,217.2,234.1,217.7,234.1z"/>
	<path class="st0" d="M216,255.1c-0.1-0.2-0.4-0.5-0.4-0.7c-0.2-1.1-0.7-1.8-1.8-2c-1.4-0.2-2.5,0-3.6,0.7c-0.5,0.2-2.5,1.4-2.3,1.6
		c-0.7,0-0.9,0.5-1.1,0.7c-0.5,0.5-0.9,0.9-1.1,1.4c-0.7,1.1-1.4,2.5-1.8,3.8c-0.5,2-0.5,4.1-0.7,6.3c0,1.1-0.2,2-0.2,2.9v2.5
		c0,1.1,0,2.3-0.2,3.4c0,0.9,0.2,2,0,2.9c-0.5-0.5-0.2,0.5-0.2,0.7v1.8c0,0.9-0.5,1.8-0.5,2.7c0,0,0.2,0,0.2,0.2v1.1
		c0,3.2-0.2,6.3-0.2,9.7c0,0.9,0.2,2.3,0.9,2.9c0.7,0.7,2.5,0.9,3.6,0.5c1.1-0.5,2.3-1.6,3.2-2.3c0.2-0.2,0.7-0.5,0.9-0.7
		c0.2-0.2,0.5-0.7,0.7-0.7c0.2,0,0.5,0.2,0.7,0c0.5-0.2,0.2-0.7,0.5-0.9c0,0.5,0.2,0.5,0.5,0.5c0.2,0,0.2-0.2,0.2-0.5
		c0.2-0.9-0.2-0.2-0.7-0.5c-0.2-0.2,0-1.1,0-1.1c0-0.2,0.2-0.5,0.2-0.7c0,0,0-0.2,0-0.5c0.2-0.5,0.2-0.7,0.2-1.1
		c0-0.2,0.2-0.5,0.2-0.7v-0.5c0-0.7,0.5-1.1,0.5-1.8c0-0.2-0.2-0.9-0.2-1.1c0-0.2-0.2-0.7-0.2-1.1c0-0.5,0.2-0.9,0.2-1.4v-1.1
		c0-0.7,0.2-1.4,0.2-2c0.2-0.7,0.2-1.6,0.5-2.3c0.5-1.4,0.7-2.5,0.7-3.8v-1.4c0-0.2,0.2-0.7,0.2-0.9c0-0.5,0.2-0.9,0.2-1.6V268
		c-0.2-0.5-0.2-1.1-0.2-1.6c0-0.5,0.2-0.9,0.5-1.4c0-0.2,0.2-0.7,0.2-0.9c0-0.2-0.2-0.2-0.2-0.5c0-0.2,0.2-0.2,0.2-0.5v-1.8
		c0-0.5-0.2-0.5,0-0.9c0-0.2,0.5-0.7,0.5-0.9c0-0.2-0.2-0.5-0.2-0.7c-0.2-0.5,0.2-0.7,0.2-0.9c0-0.2-0.5-0.7-0.5-0.7
		c-0.2-0.5-0.5-0.7-0.5-1.1c0-0.5,0-0.7,0.2-0.9c0.1,0,0.2,0,0.3,0c0,0.1,0,0.3,0.1,0.5c0.1-0.2,0.3-0.3,0.3-0.5
		C216.1,255.3,216,255.3,216,255.1C216,255.2,216.1,255.2,216,255.1C216,255.1,216,255.1,216,255.1z"/>
</g>
</svg>
