<svg xmlns="http://www.w3.org/2000/svg" xmlns:xlink="http://www.w3.org/1999/xlink" width="256" height="256" viewBox="0 0 256 256"><defs><linearGradient id="a" x1="0.5" x2="0.5" y2="1" gradientUnits="objectBoundingBox"><stop offset="0" stop-color="#009cde"/><stop offset="1" stop-color="#003087"/></linearGradient><clipPath id="c"><rect width="256" height="256"/></clipPath></defs><g id="b" clip-path="url(#c)"><rect width="256" height="256" fill="url(#a)"/><g transform="translate(-3.706 -32.693)"><g transform="translate(62 79)"><path d="M124.917,41.556c2-12.725-.013-21.381-6.9-29.225C110.445,3.7,96.757,0,79.244,0H28.408a7.272,7.272,0,0,0-7.184,6.141L.055,140.373a4.364,4.364,0,0,0,4.31,5.043H35.748l-2.166,13.736a3.816,3.816,0,0,0,3.77,4.412H63.807a6.362,6.362,0,0,0,6.284-5.371l.26-1.346,4.983-31.6.322-1.746a6.365,6.365,0,0,1,6.284-5.373H85.9c25.628,0,45.695-10.411,51.557-40.522,2.451-12.582,1.183-23.084-5.3-30.468a25.209,25.209,0,0,0-7.24-5.581h0" transform="translate(-0.001 0)" fill="#fff" opacity="0.68"/><path d="M124.917,41.556c2-12.725-.013-21.381-6.9-29.225C110.445,3.7,96.757,0,79.244,0H28.408a7.272,7.272,0,0,0-7.184,6.141L.055,140.373a4.364,4.364,0,0,0,4.31,5.043H35.748l7.883-49.991-.245,1.568a7.248,7.248,0,0,1,7.159-6.141H65.463c29.295,0,52.234-11.9,58.934-46.321.2-1.016.368-2,.52-2.974" transform="translate(-0.001 0)" fill="#fff" opacity="0.7"/><path d="M52.1,41.725a6.362,6.362,0,0,1,6.286-5.371H98.236a83.1,83.1,0,0,1,13.146.958q1.724.277,3.357.64t3.164.81c.511.148,1.013.307,1.508.47a35.881,35.881,0,0,1,5.509,2.327c2-12.725-.013-21.381-6.9-29.225C110.445,3.7,96.757,0,79.244,0H28.408a7.272,7.272,0,0,0-7.184,6.141L.055,140.373a4.364,4.364,0,0,0,4.31,5.043H35.748l7.883-49.991Z" transform="translate(-0.001 0)" fill="#fff"/></g></g></g></svg>