<svg width="512" height="512" viewBox="0 0 512 512" fill="none" xmlns="http://www.w3.org/2000/svg">
<path d="M512 0H0V512H512V0Z" fill="black"/>
<path d="M92.5746 286.9C93.5746 291.4 98.4746 292.4 100.975 292.6L107.675 292.9C121.975 285.3 157.375 266.4 157.975 266.1C166.175 256.5 158.875 247.6 154.975 241.5L150.075 234.6L98.6746 263C92.3746 266.6 88.9746 269.3 90.2746 276.2L92.5746 286.9Z" fill="#008E96"/>
<path d="M100.975 292.7C98.4746 292.5 93.5746 291.4 92.5746 287L99.0746 315.5C100.875 322.3 105.275 323.3 112.375 323.8L179.475 327.6C186.775 328.3 198.175 328.2 200.575 340.6C201.475 335.9 203.875 323.1 203.875 323.1C204.375 320.3 204.375 317.2 203.575 313.8C201.175 303.4 191.975 296.4 181.875 296.1L100.975 292.7Z" fill="#00B6C9"/>
<path d="M416.175 304.9C417.175 300.4 413.275 297.4 411.075 296.1L405.175 293C388.975 293.7 348.875 295.3 348.275 295.3C336.775 300.4 339.375 311.5 340.375 318.8L341.775 327.1L400.475 323.8C407.675 323.3 411.975 322.3 413.775 315.5L416.175 304.9Z" fill="#82C341"/>
<path d="M154.775 138.2C148.075 135.5 143.775 134.5 139.175 139.9L132.375 148.4C129.475 152 131.775 156.4 133.175 158.5L137.075 163.9C151.975 170.3 188.775 186.3 189.375 186.5C201.975 186.9 204.375 175.7 206.675 168.8L208.975 160.7L154.775 138.2Z" fill="#2CB34A"/>
<path d="M287.475 104.2C285.375 97.3 283.475 93.3 276.475 93H265.575C260.975 93 258.875 97.5 258.075 99.9L256.375 106.3C260.575 121.9 271.175 160.7 271.275 161.3C278.875 171.4 289.075 166.3 295.975 163.8L303.775 160.6L287.475 104.2Z" fill="#C4D82E"/>
<path d="M398.675 171.2L391.875 162.7C389.075 159.1 384.175 160.3 381.875 161.2L375.775 163.8C366.175 176.9 342.475 209.3 342.075 209.7C338.875 221.9 349.275 226.8 355.475 230.5L362.875 234.6L396.875 186.7C400.875 180.8 402.875 176.8 398.675 171.2Z" fill="#F1D312"/>
<path d="M185.875 401.5L190.275 396.5C193.275 380.6 200.575 341.1 200.675 340.5C198.275 328.1 186.775 328.2 179.575 327.5L171.075 327L161.275 384.9C160.175 392 160.175 396.5 166.375 399.7L176.175 404.4C180.275 406.5 184.075 403.4 185.875 401.5Z" fill="#008E96"/>
<path d="M258.175 99.9C258.975 97.5 261.075 93 265.675 93H236.475C229.475 93.3 227.475 97.3 225.475 104.2L206.875 168.8C204.575 175.7 202.175 186.9 189.575 186.5C193.975 188.4 205.975 193.6 205.975 193.6C208.575 194.7 211.675 195.4 215.075 195.4C225.675 195.4 234.675 188 237.175 178.1L258.175 99.9Z" fill="#82C341"/>
<path d="M133.175 158.4C131.775 156.3 129.575 151.8 132.375 148.3L114.175 171.2C109.975 176.9 111.875 180.9 115.975 186.8L154.875 241.6C158.875 247.7 166.075 256.6 157.875 266.2C162.075 263.9 173.675 257.9 173.675 257.9C176.175 256.5 178.575 254.6 180.775 251.9C187.375 243.6 187.175 232 181.075 223.9L133.175 158.4Z" fill="#00B6C9"/>
<path d="M320.175 412.5C324.275 410.5 324.275 405.5 323.875 403L322.675 396.4C312.075 384.1 285.775 353.8 285.375 353.3C274.175 347.5 267.175 356.5 262.075 361.7L256.475 368L295.675 411.8C300.575 417.1 303.975 419.9 310.475 417.1L320.175 412.5Z" fill="#009448"/>
<path d="M323.875 403.1C324.175 405.6 324.275 410.6 320.175 412.6L346.475 399.9C352.675 396.6 352.675 392.2 351.575 385.1L340.375 318.8C339.475 311.6 336.775 300.4 348.275 295.3C343.475 295.5 330.475 296 330.475 296C327.675 296.2 324.575 296.9 321.475 298.4C311.875 303 307.075 313.6 309.075 323.5L323.875 403.1Z" fill="#2CB34A"/>
<path d="M185.875 401.5C184.075 403.3 180.275 406.5 176.175 404.5L202.475 417.2C208.975 420 212.375 417.2 217.275 411.9L262.075 361.8C267.175 356.5 274.175 347.5 285.375 353.4C282.275 349.8 273.775 339.9 273.775 339.9C271.875 337.8 269.375 335.8 266.275 334.3C256.675 329.7 245.475 332.5 238.875 340.2L185.875 401.5Z" fill="#00B6C9"/>
<path d="M411.075 296.1C413.275 297.4 417.175 300.4 416.175 304.9L422.675 276.4C423.975 269.5 420.475 266.7 414.275 263.2L355.475 230.7C349.175 226.9 338.875 222.1 342.075 209.9C339.275 213.8 331.475 224.3 331.475 224.3C329.875 226.6 328.475 229.5 327.675 232.8C325.275 243.2 330.575 253.5 339.575 258.2L411.075 296.1Z" fill="#C4D82E"/>
<path d="M381.875 161.2C384.275 160.3 389.075 159.1 391.975 162.7L373.775 139.8C369.175 134.5 364.875 135.5 358.175 138.1L296.075 163.8C289.175 166.3 278.975 171.4 271.375 161.3C272.675 165.9 275.975 178.5 275.975 178.5C276.775 181.2 278.175 184.1 280.275 186.8C286.875 195.1 298.275 197.5 307.575 193.3L381.875 161.2Z" fill="#F5EB00"/>
</svg>
