<svg id="Layer_1" data-name="Layer 1" xmlns="http://www.w3.org/2000/svg" xmlns:xlink="http://www.w3.org/1999/xlink" viewBox="0 0 64.04 58.57"><defs><style>.cls-1{fill:none;}.cls-2{clip-path:url(#clip-path);}.cls-3{fill:url(#radial-gradient);}</style><clipPath id="clip-path" transform="translate(-11.07 -9.74)"><path class="cls-1" d="M17.51,42.21A8.57,8.57,0,0,0,13.1,44a3,3,0,0,0-.7,4.29C13.65,50,25.14,63.51,28.17,67a2.74,2.74,0,0,0,2.58,1c1.51-.32,3.21-2.09,3.88-3.37a11.29,11.29,0,0,0,1.14-3,15.33,15.33,0,0,0-2.26-12.31,18.31,18.31,0,0,0-7.56-6,17.23,17.23,0,0,0-6.2-1.19,15.85,15.85,0,0,0-2.24.16m42.71,1a18.44,18.44,0,0,0-7.56,6,15.37,15.37,0,0,0-2.25,12.31,11.29,11.29,0,0,0,1.14,3c.67,1.28,2.37,3.05,3.89,3.37A2.73,2.73,0,0,0,58,67c3-3.48,14.52-17,15.77-18.71a3,3,0,0,0-.7-4.29,8.57,8.57,0,0,0-4.41-1.78,15.85,15.85,0,0,0-2.24-.16,17.39,17.39,0,0,0-6.21,1.19M26.13,26.81a16.88,16.88,0,0,0,3.7,10.58c3,3.61,6.75,4.91,8.26,4.89,2.34-.05,1.92-1.93,1.73-2.72a8.66,8.66,0,0,0-1.16-2.49,7.85,7.85,0,0,1-1.47-4.56c0-3.28,3.13-5.66,5.9-5.66S49,29.23,49,32.51a7.85,7.85,0,0,1-1.46,4.56,8.46,8.46,0,0,0-1.17,2.49c-.19.79-.61,2.67,1.73,2.72,1.51,0,5.25-1.28,8.26-4.89A17,17,0,1,0,26.13,26.81"/></clipPath><radialGradient id="radial-gradient" cx="-103.16" cy="337.67" r="1.94" gradientTransform="matrix(0, 36.67, 27.18, 0, -9134.21, 3791.72)" gradientUnits="userSpaceOnUse"><stop offset="0" stop-color="#00b1e5"/><stop offset="0.17" stop-color="#00a7e2"/><stop offset="0.65" stop-color="#00a0df"/><stop offset="1" stop-color="#003f62"/></radialGradient></defs><title>03_ANZ_icon_button</title><g class="cls-2"><rect class="cls-3" x="11.12" y="9.79" width="63.93" height="58.45" transform="translate(-11.14 -9.66) rotate(-0.1)"/></g></svg>