<svg xmlns="http://www.w3.org/2000/svg" xmlns:xlink="http://www.w3.org/1999/xlink" viewBox="0 0 76.93 37.4"><defs><style>.cls-1{fill:none;}.cls-2{clip-path:url(#clip-path);}.cls-3{fill:#002960;}.cls-4{fill:#faa61a;}</style><clipPath id="clip-path"><rect class="cls-1" width="76.93" height="37.4"/></clipPath></defs><title>NZ00201</title><g id="Layer_2" data-name="Layer 2"><g id="Layer_1-2" data-name="Layer 1"><g class="cls-2"><path class="cls-3" d="M8.33,21.83a6,6,0,0,1,4.4-1.72c3.51.14,5.7,2.08,5.7,5.88,0,7.29-4.32,11.39-10.76,11.39A22.58,22.58,0,0,1,0,36l3.75-21.1c.29-1.72,1-2.4,3.09-2.4H10ZM6.43,32.72a4,4,0,0,0,1.46.17c2.67,0,4.52-2.54,4.52-6.08,0-1.63-.75-2.25-2.06-2.25A4.1,4.1,0,0,0,7.6,26Z"/><path class="cls-3" d="M37.05,36.54c.2.42.69.85,1.8.84,1.28,0,2.72-.2,4.29-.2,2.46,0,3.33.16,6.53.21a1.91,1.91,0,0,0,2.21-1.76c.17-.78.34-1.69.53-3a22.67,22.67,0,0,1-3.61,0,33.66,33.66,0,0,0-4.32-.09A19.15,19.15,0,0,1,47.54,29c.73-.69,2.06-1.81,3.47-3.35s3.05-3.32,2.55-5.59c-1.56.1-2.67.15-4.74.15-2.55,0-5.73-.15-7.43-.15-1.45,0-2.14.48-2.41,1.64-.23,1-.62,3.16-.62,3.16a15.57,15.57,0,0,1,2.35-.14c1,0,3.55.07,4.11.15-.24.72-2.54,2.43-4,4a31.06,31.06,0,0,0-3.16,4c-2,1.06-3.12.74-2.94-.79l.82-4.6a17.8,17.8,0,0,0,.28-2.68c-.17-3-2.08-4.82-5.37-4.82a6.16,6.16,0,0,0-4.09,1.76,2,2,0,0,0-2.1-1.48h-3.2L18.5,34.94c-.36,1.92.32,2.2,2,2.2h3.25l2-11a3.48,3.48,0,0,1,2.83-1.66c.93,0,1.74.45,1.54,1.66-.06.37-1,5.92-1,5.92a4.82,4.82,0,0,0,1,4,4.72,4.72,0,0,0,3.25,1.32,6.11,6.11,0,0,0,3.64-.85"/><path class="cls-4" d="M66.44,0l.42,2.66a.52.52,0,0,0,.52.43h2.8L67.64,4.74a.72.72,0,0,0-.35.69s.41,2.67.41,2.67h0l-2-1.65a.66.66,0,0,0-.74,0L62.44,8.1l1.31-2.66a.58.58,0,0,0-.1-.7l-2-1.65h2.8a.79.79,0,0,0,.67-.43L66.44,0"/><path class="cls-4" d="M57.73,5.51l.42,2.66a.53.53,0,0,0,.52.44h2.8l-2.54,1.64a.74.74,0,0,0-.35.7L59,13.61h0L57,12a.64.64,0,0,0-.74,0l-2.54,1.65L55,11a.58.58,0,0,0-.1-.7L53,8.6h2.8a.8.8,0,0,0,.67-.43l1.31-2.67"/><path class="cls-4" d="M73.2,5.51l.41,2.66a.53.53,0,0,0,.52.44h2.8l-2.54,1.64a.75.75,0,0,0-.34.7l.41,2.66h0l-2-1.64a.63.63,0,0,0-.73,0l-2.55,1.65L70.51,11a.58.58,0,0,0-.11-.7l-2-1.65h2.8a.8.8,0,0,0,.66-.43S73.2,5.51,73.2,5.51"/><path class="cls-4" d="M63.25,17l.41,2.66a.51.51,0,0,0,.52.43H67L64.44,21.7a.75.75,0,0,0-.35.7l.42,2.66h0l-2-1.65a.65.65,0,0,0-.73,0l-2.55,1.65,1.31-2.66a.58.58,0,0,0-.1-.7l-2-1.65h2.8a.78.78,0,0,0,.67-.43L63.25,17"/></g></g></g></svg>