<svg width="21" height="21" fill="none" xmlns="http://www.w3.org/2000/svg"><path fill-rule="evenodd" clip-rule="evenodd" d="M5.216 14.003a.75.75 0 0 1-.594-1.207l2.993-3.89a.75.75 0 0 1 1.058-.132l2.82 2.215 2.467-3.183a.75.75 0 1 1 1.186.918l-2.93 3.78a.746.746 0 0 1-.5.285.741.741 0 0 1-.556-.154L8.342 10.42 5.811 13.71a.75.75 0 0 1-.595.293Z" fill="#FEFEFE"/><mask id="a" style="mask-type:alpha" maskUnits="userSpaceOnUse" x="15" y="0" width="6" height="6"><path fill-rule="evenodd" clip-rule="evenodd" d="M15.296 0h5.344v5.345h-5.344V0Z" fill="#fff"/></mask><g mask="url(#a)"><path fill-rule="evenodd" clip-rule="evenodd" d="M17.968 1.5a1.173 1.173 0 0 0 0 2.345 1.173 1.173 0 0 0 0-2.345Zm0 3.845a2.676 2.676 0 0 1-2.672-2.673A2.675 2.675 0 0 1 17.968 0a2.674 2.674 0 0 1 2.672 2.672 2.675 2.675 0 0 1-2.672 2.673Z" fill="#FEFEFE"/></g><mask id="b" style="mask-type:alpha" maskUnits="userSpaceOnUse" x="-1" y="0" width="21" height="21"><path fill-rule="evenodd" clip-rule="evenodd" d="M0 .841h19.862v19.861H0V.842Z" fill="#fff"/></mask><g mask="url(#b)"><path fill-rule="evenodd" clip-rule="evenodd" d="M14.233 20.702H5.629c-3.367 0-5.63-2.365-5.63-5.885V6.735C0 3.21 2.263.841 5.63.841h7.268a.75.75 0 0 1 0 1.5H5.629c-2.508 0-4.13 1.724-4.13 4.394v8.082c0 2.705 1.583 4.385 4.13 4.385h8.604c2.508 0 4.129-1.72 4.129-4.385V7.778a.75.75 0 0 1 1.5 0v7.04c0 3.52-2.262 5.884-5.63 5.884Z" fill="#FEFEFE"/></g></svg>