<svg width="25" height="12" fill="none" xmlns="http://www.w3.org/2000/svg"><path fill-rule="evenodd" clip-rule="evenodd" d="M3.59.16h14.82c1.249 0 1.701.13 2.158.374.456.244.814.602 1.058 1.058.244.457.374.91.374 2.157V8.07c0 1.249-.13 1.701-.374 2.157a2.544 2.544 0 0 1-1.058 1.059c-.457.244-.91.374-2.157.374H3.589c-1.248 0-1.7-.13-2.157-.374a2.544 2.544 0 0 1-1.058-1.059C.13 9.771 0 9.32 0 8.07V3.75C0 2.5.13 2.048.374 1.591A2.544 2.544 0 0 1 1.432.534C1.89.29 2.342.16 3.59.16Zm0 1c-.988 0-1.332.066-1.686.256-.282.15-.497.366-.648.648-.19.354-.256.698-.256 1.685V8.07c0 .987.067 1.332.256 1.686.15.282.366.497.648.648.354.19.698.256 1.685.256h14.822c.986 0 1.331-.067 1.685-.256.282-.15.497-.366.648-.648.19-.354.256-.699.256-1.686V3.75c0-.988-.067-1.332-.256-1.686a1.544 1.544 0 0 0-.648-.648c-.354-.19-.698-.256-1.685-.256H3.589ZM24.5 5.85c0 1.236-1.5 2-1.5 2v-4s1.5.763 1.5 2Z" fill="#000" fill-opacity=".36"/><rect x="2" y="2.077" width="18" height="7.667" rx="1.6" fill="#000"/></svg>