<svg width="29" height="31" fill="none" xmlns="http://www.w3.org/2000/svg"><path fill-rule="evenodd" clip-rule="evenodd" d="M27.277 13.031H2.027a1.063 1.063 0 0 1 0-2.125h25.25a1.063 1.063 0 0 1 0 2.125ZM20.952 18.564a1.068 1.068 0 0 1-1.069-1.063c0-.587.47-1.063 1.056-1.063h.013a1.063 1.063 0 0 1 0 2.126ZM14.665 18.564a1.068 1.068 0 0 1-1.068-1.063c0-.587.469-1.063 1.056-1.063h.012a1.063 1.063 0 0 1 0 2.126ZM8.366 18.564c-.587 0-1.07-.477-1.07-1.063 0-.587.47-1.063 1.057-1.063h.013a1.063 1.063 0 0 1 0 2.126ZM20.952 24.07a1.068 1.068 0 0 1-1.069-1.063c0-.586.47-1.062 1.056-1.062h.013a1.063 1.063 0 0 1 0 2.125ZM14.665 24.07a1.068 1.068 0 0 1-1.068-1.063c0-.586.469-1.062 1.056-1.062h.012a1.063 1.063 0 0 1 0 2.125ZM8.366 24.07c-.587 0-1.07-.476-1.07-1.063 0-.586.47-1.062 1.057-1.062h.013a1.063 1.063 0 0 1 0 2.125ZM20.374 7.204a1.063 1.063 0 0 1-1.062-1.063V1.48a1.063 1.063 0 0 1 2.125 0v4.662c0 .587-.476 1.063-1.063 1.063ZM8.93 7.204A1.063 1.063 0 0 1 7.868 6.14V1.48a1.063 1.063 0 0 1 2.125 0v4.662c0 .587-.476 1.063-1.063 1.063Z" fill="#4A56E2"/><mask id="a" style="mask-type:alpha" maskUnits="userSpaceOnUse" x="0" y="2" width="29" height="29"><path fill-rule="evenodd" clip-rule="evenodd" d="M.833 2.654h27.625v28.221H.833V2.654Z" fill="#fff"/></mask><g mask="url(#a)"><path fill-rule="evenodd" clip-rule="evenodd" d="M8.655 4.779c-3.674 0-5.697 1.959-5.697 5.516v12.82c0 3.635 2.023 5.635 5.697 5.635h11.982c3.673 0 5.696-1.963 5.696-5.528V10.295c.006-1.75-.464-3.11-1.398-4.044-.96-.964-2.44-1.472-4.285-1.472H8.655Zm11.982 26.096H8.655c-4.824 0-7.822-2.973-7.822-7.76v-12.82c0-4.714 2.998-7.641 7.822-7.641H20.65c2.42 0 4.423.725 5.79 2.095 1.327 1.333 2.025 3.25 2.018 5.55v12.923c0 4.72-2.997 7.653-7.821 7.653Z" fill="#4A56E2"/></g></svg>