<svg width="18" height="12" fill="none" xmlns="http://www.w3.org/2000/svg"><path fill-rule="evenodd" clip-rule="evenodd" d="M14.623 1.566c-.023.116-.023.255-.023.534v7.7c0 .279 0 .418.023.534a1.2 1.2 0 0 0 .943.943c.116.023.255.023.534.023s.418 0 .534-.023a1.2 1.2 0 0 0 .943-.943c.023-.116.023-.255.023-.534V2.1c0-.279 0-.418-.023-.534a1.2 1.2 0 0 0-.943-.943C16.518.6 16.38.6 16.1.6s-.418 0-.534.023a1.2 1.2 0 0 0-.943.943ZM9.9 4.5c0-.279 0-.418.023-.534a1.2 1.2 0 0 1 .943-.943C10.982 3 11.12 3 11.4 3s.418 0 .534.023a1.2 1.2 0 0 1 .943.943c.023.116.023.255.023.534v5.3c0 .279 0 .418-.023.534a1.2 1.2 0 0 1-.943.943c-.116.023-.255.023-.534.023s-.418 0-.534-.023a1.2 1.2 0 0 1-.943-.943C9.9 10.218 9.9 10.079 9.9 9.8V4.5ZM5.323 6.266C5.3 6.382 5.3 6.52 5.3 6.8v3c0 .279 0 .418.023.534a1.2 1.2 0 0 0 .943.943c.116.023.255.023.534.023s.418 0 .534-.023a1.2 1.2 0 0 0 .943-.943c.023-.116.023-.255.023-.534v-3c0-.279 0-.418-.023-.534a1.2 1.2 0 0 0-.943-.943C7.218 5.3 7.08 5.3 6.8 5.3s-.418 0-.534.023a1.2 1.2 0 0 0-.943.943Zm-4.8 2C.5 8.382.5 8.52.5 8.8v1c0 .279 0 .418.023.534a1.2 1.2 0 0 0 .943.943c.116.023.255.023.534.023s.418 0 .534-.023a1.2 1.2 0 0 0 .943-.943c.023-.116.023-.255.023-.534v-1c0-.279 0-.418-.023-.534a1.2 1.2 0 0 0-.943-.943C2.418 7.3 2.28 7.3 2 7.3s-.418 0-.534.023a1.2 1.2 0 0 0-.943.943Z" fill="#000"/></svg>