<svg width="22" height="22" fill="none" xmlns="http://www.w3.org/2000/svg"><path fill-rule="evenodd" clip-rule="evenodd" d="M6.371 16.562a.75.75 0 0 1-.75-.75v-6.86a.75.75 0 0 1 1.5 0v6.86a.75.75 0 0 1-.75.75ZM11.038 16.561a.75.75 0 0 1-.75-.75V5.668a.75.75 0 0 1 1.5 0v10.143a.75.75 0 0 1-.75.75ZM15.628 16.561a.75.75 0 0 1-.75-.75v-3.234a.75.75 0 0 1 1.5 0v3.234a.75.75 0 0 1-.75.75Z" fill="#4A56E2"/><path fill-rule="evenodd" clip-rule="evenodd" d="M6.314 1.5C3.542 1.5 1.75 3.397 1.75 6.335v8.83C1.75 18.103 3.542 20 6.314 20h9.372c2.773 0 4.564-1.897 4.564-4.835v-8.83c0-2.938-1.791-4.835-4.564-4.835H6.314Zm9.372 20H6.314C2.687 21.5.25 18.954.25 15.165v-8.83C.25 2.546 2.687 0 6.314 0h9.372c3.627 0 6.064 2.546 6.064 6.335v8.83c0 3.789-2.437 6.335-6.064 6.335Z" fill="#4A56E2"/></svg>