<svg width="30" height="30" fill="none" xmlns="http://www.w3.org/2000/svg"><path fill-rule="evenodd" clip-rule="evenodd" d="M11.603 19.444a1.061 1.061 0 0 1-.75-1.813l6.788-6.79a1.061 1.061 0 1 1 1.502 1.503l-6.789 6.788a1.054 1.054 0 0 1-.75.312Z" fill="#24CCA7"/><path fill-rule="evenodd" clip-rule="evenodd" d="M18.395 19.448c-.272 0-.544-.104-.75-.312L10.85 12.34a1.061 1.061 0 1 1 1.502-1.501l6.794 6.795a1.061 1.061 0 0 1-.75 1.814Z" fill="#24CCA7"/><path fill-rule="evenodd" clip-rule="evenodd" d="M15 2.958C8.36 2.958 2.958 8.36 2.958 15S8.36 27.042 15 27.042 27.042 21.64 27.042 15 21.64 2.958 15 2.958Zm0 26.209C7.188 29.167.833 22.81.833 15S7.188.833 15 .833C22.81.833 29.167 7.19 29.167 15S22.81 29.167 15 29.167Z" fill="#24CCA7"/></svg>