<svg width="20" height="20" fill="none" xmlns="http://www.w3.org/2000/svg"><path fill-rule="evenodd" clip-rule="evenodd" d="M10 1.5c-4.687 0-8.5 3.813-8.5 8.5 0 4.687 3.813 8.5 8.5 8.5 4.687 0 8.5-3.813 8.5-8.5 0-4.687-3.813-8.5-8.5-8.5ZM10 20C4.486 20 0 15.514 0 10S4.486 0 10 0s10 4.486 10 10-4.486 10-10 10Z" fill="#4A56E2"/><path fill-rule="evenodd" clip-rule="evenodd" d="M9.994 11.373a.75.75 0 0 1-.75-.75V6.204a.75.75 0 0 1 1.5 0v4.419a.75.75 0 0 1-.75.75ZM10.004 14.796a1.003 1.003 0 0 1-1.005-1c0-.553.443-1 .995-1h.01a1 1 0 1 1 0 2Z" fill="#4A56E2"/></svg>