<svg width="32" height="32" fill="none" xmlns="http://www.w3.org/2000/svg"><path fill-rule="evenodd" clip-rule="evenodd" d="M16.002 22.055a1 1 0 0 1-1-1V5a1 1 0 0 1 2 0v16.055a1 1 0 0 1-1 1Z" fill="#4A56E2"/><path fill-rule="evenodd" clip-rule="evenodd" d="M16 22.055a.995.995 0 0 1-.707-.295l-3.888-3.903a.999.999 0 1 1 1.416-1.412L16 19.64l3.18-3.194a.999.999 0 1 1 1.416 1.412l-3.888 3.903a.994.994 0 0 1-.708.294Z" fill="#4A56E2"/><mask id="a" style="mask-type:alpha" maskUnits="userSpaceOnUse" x="2" y="10" width="28" height="19"><path fill-rule="evenodd" clip-rule="evenodd" d="M2.667 10.31h26.666v18.325H2.667V10.31Z" fill="#fff"/></mask><g mask="url(#a)"><path fill-rule="evenodd" clip-rule="evenodd" d="M23.433 28.635H8.58a5.92 5.92 0 0 1-5.913-5.913V16.21a5.906 5.906 0 0 1 5.9-5.899h1.255a1 1 0 0 1 0 2H8.569a3.903 3.903 0 0 0-3.901 3.899v6.513a3.917 3.917 0 0 0 3.913 3.913h14.853c2.15 0 3.9-1.75 3.9-3.9v-6.512a3.917 3.917 0 0 0-3.912-3.913H22.18a1 1 0 0 1 0-2h1.242a5.92 5.92 0 0 1 5.912 5.913v6.512c0 3.254-2.648 5.9-5.9 5.9Z" fill="#4A56E2"/></g></svg>