<svg width="20" height="19" fill="none" xmlns="http://www.w3.org/2000/svg"><path fill-rule="evenodd" clip-rule="evenodd" d="M18.75 18.94h-7.252a.75.75 0 0 1 0-1.5h7.253a.75.75 0 0 1 0 1.5Z" fill="#4A56E2"/><mask id="a" style="mask-type:alpha" maskUnits="userSpaceOnUse" x="0" y="0" width="18" height="19"><path fill-rule="evenodd" clip-rule="evenodd" d="M0 0h17.18v18.94H0V0Z" fill="#fff"/></mask><g mask="url(#a)"><path fill-rule="evenodd" clip-rule="evenodd" d="M11.11 2.017 1.697 13.792a.879.879 0 0 0-.171.755l.68 2.885 3.04-.038a.949.949 0 0 0 .733-.352c3.217-4.025 9.35-11.7 9.524-11.924a1.36 1.36 0 0 0 .141-1.004 1.411 1.411 0 0 0-.652-.887 328.898 328.898 0 0 1-1.807-1.398 1.497 1.497 0 0 0-2.073.188ZM1.614 18.94a.75.75 0 0 1-.73-.577l-.82-3.471a2.371 2.371 0 0 1 .46-2.037l9.42-11.782.012-.013c1.033-1.235 2.9-1.417 4.16-.406l1.723 1.339c.609.362 1.083 1.009 1.263 1.775.18.758.05 1.54-.367 2.2-.032.05-.058.092-9.586 12.012a2.447 2.447 0 0 1-1.886.914l-3.64.046h-.01Z" fill="#4A56E2"/></g><path fill-rule="evenodd" clip-rule="evenodd" d="M14.223 8.685a.753.753 0 0 1-.457-.155L8.314 4.342a.75.75 0 0 1 .914-1.19l5.453 4.188a.75.75 0 0 1-.458 1.345Z" fill="#4A56E2"/></svg>