<svg width="21" height="22" fill="none" xmlns="http://www.w3.org/2000/svg"><mask id="a" style="mask-type:alpha" maskUnits="userSpaceOnUse" x="-1" y="0" width="22" height="22"><path fill-rule="evenodd" clip-rule="evenodd" d="M0 0h20.5v21.505H0V0Z" fill="#fff"/></mask><g mask="url(#a)"><path fill-rule="evenodd" clip-rule="evenodd" d="M11.717 14.291a2.18 2.18 0 0 1 2.184 2.17v3.076c0 .257.206.463.47.469h1.906c1.502 0 2.723-1.207 2.723-2.689V8.593c-.007-.51-.25-.99-.667-1.309L11.74 2.026a2.416 2.416 0 0 0-3.011.002L2.181 7.282A1.675 1.675 0 0 0 1.5 8.61v8.707c0 1.482 1.221 2.689 2.723 2.689h1.924a.486.486 0 0 0 .491-.48c0-.058.007-.116.019-.17V16.46c0-1.189.974-2.16 2.169-2.169h2.891Zm4.56 7.214h-1.924c-1.102-.026-1.952-.89-1.952-1.969V16.46a.677.677 0 0 0-.684-.669H8.83a.677.677 0 0 0-.674.67v3.065c0 .075-.01.147-.031.215a1.99 1.99 0 0 1-1.98 1.764H4.224C1.893 21.505 0 19.626 0 17.317V8.603A3.154 3.154 0 0 1 1.259 6.1L7.794.855a3.912 3.912 0 0 1 4.88-.002l6.582 5.25a3.158 3.158 0 0 1 1.244 2.48v8.734c0 2.31-1.894 4.188-4.223 4.188Z" fill="#FEFEFE"/></g></svg>