<svg width="23" height="24" fill="none" xmlns="http://www.w3.org/2000/svg"><mask id="a" style="mask-type:alpha" maskUnits="userSpaceOnUse" x="0" y="0" width="23" height="24"><path fill-rule="evenodd" clip-rule="evenodd" d="M.167.083h22.208v23.298H.167V.083Z" fill="#fff"/></mask><g mask="url(#a)"><path fill-rule="evenodd" clip-rule="evenodd" d="M12.86 15.566a2.36 2.36 0 0 1 2.366 2.35v3.332c0 .278.223.501.51.508H17.8c1.627 0 2.95-1.307 2.95-2.912V9.393a1.816 1.816 0 0 0-.723-1.418l-7.142-5.696c-.959-.76-2.3-.76-3.262.002L2.529 7.973c-.469.356-.732.876-.737 1.438v9.433c0 1.605 1.322 2.912 2.95 2.912h2.084a.526.526 0 0 0 .532-.52c0-.062.007-.125.02-.184v-3.137a2.364 2.364 0 0 1 2.35-2.35h3.132Zm4.94 7.815h-2.084c-1.194-.028-2.115-.965-2.115-2.133v-3.333c0-.4-.333-.724-.741-.724H9.733a.734.734 0 0 0-.73.724v3.322c0 .081-.01.16-.033.233a2.155 2.155 0 0 1-2.144 1.91H4.74c-2.523 0-4.574-2.035-4.574-4.536v-9.44A3.417 3.417 0 0 1 1.53 6.692L8.61 1.01a4.238 4.238 0 0 1 5.287-.002l7.13 5.687a3.42 3.42 0 0 1 1.348 2.686v9.463c0 2.501-2.052 4.537-4.575 4.537Z" fill="#4A56E2"/></g></svg>