<svg width="40" height="40" fill="none" xmlns="http://www.w3.org/2000/svg"><rect x=".5" y=".5" width="39" height="39" rx="19.5" fill="#fff" stroke="#F5F7F8"/><path fill-rule="evenodd" clip-rule="evenodd" d="m27.908 26.331 2.088.402c2.072.399 3.654-1.823 2.599-3.65l-7.408-12.83c-1.056-1.828-3.77-1.569-4.461.425l-.696 2.009c-1.66 5.427.75.67 1.025 1.146l6.373 11.037c.275.476.43.971.48 1.461Zm-1.264-.243a2.517 2.517 0 0 0-.256-.617l-6.373-11.037a2.522 2.522 0 0 0-.407-.53l-1.348 3.89 2.466 7.155 5.918 1.14Z" fill="#24CCA7"/><path fill-rule="evenodd" clip-rule="evenodd" d="m16.5 29.5 7.43-.356c2.026.27 9.592-9.66 8.57-11.43l-12.485-3.28c-1.022-1.77-3.793-6.324-4.573-4.434l-1.07 7.713c.417.293.785.685 1.07 1.18L19.2 27.8c.286.494-2.744 1.192-2.699 1.699Zm2.987-.948a2.502 2.502 0 0 0-.288-.751L25.5 16.5c-.142-.245-14.807 3.171-15 3l.5 9.644c5.5.356 3.898.143 5.5.356l2.987-.948Z" fill="#24CCA7"/></svg>