<svg width="26" height="28" fill="none" xmlns="http://www.w3.org/2000/svg"><g clip-path="url(#a)"><path d="M25.585 19.88c-.138-.336-.277-.7-.415-1.008-.221-.504-.442-.98-.636-1.428l-.028-.028A293.708 293.708 0 0 0 18.394 4.76l-.083-.168a57.83 57.83 0 0 1-.664-1.316c-.277-.504-.553-1.036-.996-1.54C15.766.616 14.494 0 13.138 0c-1.383 0-2.627.616-3.54 1.68-.415.504-.72 1.036-.996 1.54a57.46 57.46 0 0 1-.664 1.316l-.083.168c-2.13 4.2-4.204 8.456-6.112 12.656l-.028.056c-.194.448-.415.924-.636 1.428-.139.308-.277.644-.415 1.008-.36 1.036-.47 2.016-.332 3.024.304 2.1 1.687 3.864 3.596 4.648a5.62 5.62 0 0 0 2.24.448 7.248 7.248 0 0 0 3.485-1.008c1.134-.644 2.213-1.568 3.43-2.912 1.217 1.344 2.323 2.268 3.43 2.912a7.248 7.248 0 0 0 3.485 1.008c.774 0 1.549-.14 2.24-.448 1.936-.784 3.292-2.576 3.596-4.648.221-.98.11-1.96-.249-2.996Zm-12.474 1.456c-1.494-1.904-2.462-3.696-2.794-5.208-.138-.644-.166-1.204-.083-1.708.055-.448.221-.84.443-1.176.525-.756 1.466 4.9 2.489 4.9s1.88-5.684 2.379-4.9c.221.336.387.728.442 1.176.083.504.056 1.092-.083 1.708-.332 1.484-1.3 3.276-2.793 5.208Zm11.036 1.316a4.153 4.153 0 0 1-2.517 3.276 4.141 4.141 0 0 1-2.102.28 5.396 5.396 0 0 1-2.102-.728c-.996-.56-1.992-1.428-3.154-2.716 1.826-2.268 2.932-4.34 3.347-6.188a7.105 7.105 0 0 0 .139-2.38c-.111-.7-.36-1.344-.747-1.904-.858-1.26-2.324-6.72-3.928-6.72s-3.015 5.488-3.872 6.72a4.575 4.575 0 0 0-.747 1.904c-.11.728-.083 1.54.138 2.38.415 1.848 1.55 3.948 3.347 6.216-1.134 1.288-2.158 2.156-3.153 2.716-.72.42-1.41.644-2.102.728a4.375 4.375 0 0 1-2.103-.28 4.153 4.153 0 0 1-2.517-3.276c-.082-.7-.027-1.4.25-2.184.082-.28 4.73.336 4.867 0 .194-.448-4.093-1.82-3.872-2.296l.028-.056A307.678 307.678 0 0 1 9.432 5.572l.083-.168c.221-.42.442-.868.664-1.288a6.16 6.16 0 0 1 .774-1.232c.581-.672 1.356-1.036 2.213-1.036s1.632.364 2.213 1.036c.304.364.553.784.774 1.232.222.42.443.868.664 1.288l.083.168a373.612 373.612 0 0 1 6.058 12.6l-3.944 2.324c.221.448 4.358-1.344 4.58-.896.138.336.276.616.36.896.22.728.303 1.428.193 2.156Z" fill="#FF5A5F"/></g><defs><clipPath id="a"><path fill="#fff" d="M0 0h26v28H0z"/></clipPath></defs></svg>