<svg width="28" height="28" fill="none" xmlns="http://www.w3.org/2000/svg"><g clip-path="url(#a)"><path d="M21 18.76c-.887 0-1.68.35-2.287.898l-8.318-4.841A3.82 3.82 0 0 0 10.5 14c0-.28-.047-.548-.105-.816l8.225-4.795c.63.583 1.458.945 2.38.945 1.937 0 3.5-1.564 3.5-3.5 0-1.937-1.563-3.5-3.5-3.5a3.495 3.495 0 0 0-3.5 3.5c0 .28.047.548.105.816L9.38 11.445A3.485 3.485 0 0 0 7 10.5 3.495 3.495 0 0 0 3.5 14c0 1.937 1.563 3.5 3.5 3.5.922 0 1.75-.361 2.38-.945l8.307 4.854a3.288 3.288 0 0 0-.094.758A3.41 3.41 0 0 0 21 25.573a3.41 3.41 0 0 0 3.407-3.406A3.41 3.41 0 0 0 21 18.76Z" fill="#4A56E2"/></g><defs><clipPath id="a"><path fill="#fff" d="M0 0h28v28H0z"/></clipPath></defs></svg>