<svg width="23" height="27" viewBox="0 0 23 27" fill="none" xmlns="http://www.w3.org/2000/svg">
<path fill-rule="evenodd" clip-rule="evenodd" d="M21.8901 4.32753L13.4204 0.697635C12.1941 0.172078 10.8059 0.172077 9.57964 0.697635L1.10988 4.32753C0.512396 4.5836 0.125 5.1711 0.125 5.82114V14.3571C0.125 17.5059 1.64567 20.4608 4.20793 22.291L9.61098 26.1503C10.741 26.9575 12.259 26.9575 13.389 26.1503L18.7921 22.291C21.3543 20.4608 22.875 17.5059 22.875 14.3571V5.82114C22.875 5.1711 22.4876 4.5836 21.8901 4.32753ZM17.6439 10.6401C18.2046 9.93933 18.0909 8.91673 17.3901 8.35609C16.6893 7.79545 15.6667 7.90907 15.1061 8.60987L9.74026 15.3172L7.77405 13.351C7.13945 12.7164 6.11056 12.7164 5.47595 13.351C4.84135 13.9856 4.84135 15.0144 5.47595 15.649L8.08406 18.2572C9.11133 19.2844 10.8035 19.1907 11.711 18.0563L17.6439 10.6401Z" fill="white"/>
</svg>
