<svg width="20" height="18" fill="none" xmlns="http://www.w3.org/2000/svg"><path d="M14.839 2.796a.75.75 0 0 1 .743.649l.007.101v13.618a.75.75 0 0 1-1.493.102l-.007-.102V3.546a.75.75 0 0 1 .75-.75Z" fill="#4A56E2"/><path d="M18.386 12.54a.75.75 0 0 1 1.135.973l-.072.085-4.078 4.096a.75.75 0 0 1-.979.073l-.084-.073-4.078-4.096a.75.75 0 0 1 .98-1.132l.083.073 3.546 3.562 3.547-3.562ZM4.91.083a.75.75 0 0 1 .743.648l.007.102v13.618a.75.75 0 0 1-1.493.102l-.007-.102V.833a.75.75 0 0 1 .75-.75Z" fill="#4A56E2"/><path d="M4.38.303A.75.75 0 0 1 5.359.23l.084.073L9.52 4.4a.75.75 0 0 1-.98 1.131l-.084-.073-3.546-3.563-3.546 3.563a.75.75 0 0 1-.976.075l-.085-.072a.75.75 0 0 1-.074-.977L.302 4.4 4.38.303Z" fill="#4A56E2"/></svg>