<svg width="29" height="13" fill="none" xmlns="http://www.w3.org/2000/svg"><path d="M4.736.942c.486.003.966.092 1.438.266a3.4 3.4 0 0 1 1.278.852c.384.395.69.927.917 1.598.23.668.348 1.499.351 2.493 0 .956-.096 1.806-.287 2.552-.192.742-.467 1.369-.826 1.88-.355.511-.787.9-1.294 1.167-.508.266-1.08.4-1.716.4-.65 0-1.227-.129-1.73-.384a3.297 3.297 0 0 1-1.231-1.06 3.505 3.505 0 0 1-.592-1.566H2.67c.107.468.323.848.65 1.14.33.287.756.43 1.278.43.8 0 1.423-.347 1.87-1.043.447-.7.673-1.676.677-2.93h-.086a2.945 2.945 0 0 1-.692.789c-.274.22-.58.39-.922.51-.34.122-.705.182-1.092.182a3.27 3.27 0 0 1-1.715-.463 3.417 3.417 0 0 1-1.23-1.273C1.1 5.942.949 5.326.949 4.633c0-.689.156-1.314.468-1.875a3.498 3.498 0 0 1 1.321-1.332c.569-.33 1.234-.491 1.998-.484Zm.005 1.385c-.415 0-.79.103-1.124.309-.33.202-.591.477-.783.825a2.325 2.325 0 0 0-.287 1.15c0 .423.092.807.277 1.151.188.341.443.613.767.815.326.2.7.299 1.118.299.313 0 .604-.06.874-.181s.506-.288.708-.501a2.44 2.44 0 0 0 .474-.735c.114-.274.17-.561.17-.863 0-.401-.095-.774-.287-1.119a2.24 2.24 0 0 0-.778-.83 2.037 2.037 0 0 0-1.129-.32Zm6.81 8.32c-.292 0-.542-.103-.752-.309a1.031 1.031 0 0 1-.314-.756c0-.292.105-.54.314-.746.21-.21.46-.314.751-.314s.542.104.751.314c.21.206.315.454.315.746 0 .195-.05.374-.15.538-.095.16-.223.287-.383.383-.16.096-.338.144-.533.144Zm0-5.465c-.292 0-.542-.103-.752-.31a1.031 1.031 0 0 1-.314-.756c0-.29.105-.54.314-.745.21-.21.46-.315.751-.315s.542.105.751.315c.21.206.315.454.315.745 0 .196-.05.375-.15.538-.095.16-.223.288-.383.384-.16.096-.338.144-.533.144Zm2.783 4.687V8.538l4.714-7.447h1.049v1.96h-.666L16.06 8.388v.086h6.462v1.395h-8.188ZM19.506 12V9.464l.01-.607V1.091h1.561V12h-1.571Zm8.698-10.91V12h-1.65V2.742h-.065l-2.61 1.705V2.87l2.722-1.78h1.603Z" fill="#000"/></svg>