<svg width="21" height="21" fill="none" xmlns="http://www.w3.org/2000/svg"><mask id="a" style="mask-type:alpha" maskUnits="userSpaceOnUse" x="0" y="6" width="21" height="15"><path fill-rule="evenodd" clip-rule="evenodd" d="M.25 6.794h20v13.744h-20V6.794Z" fill="#fff"/></mask><g mask="url(#a)"><path fill-rule="evenodd" clip-rule="evenodd" d="M15.815 20.538H4.685A4.44 4.44 0 0 1 .25 16.103v-4.875a4.44 4.44 0 0 1 4.435-4.434h.933a.75.75 0 0 1 0 1.5h-.933a2.937 2.937 0 0 0-2.935 2.934v4.875a2.938 2.938 0 0 0 2.935 2.935h11.13a2.938 2.938 0 0 0 2.935-2.935v-4.884a2.928 2.928 0 0 0-2.924-2.925h-.943a.75.75 0 0 1 0-1.5h.943a4.43 4.43 0 0 1 4.424 4.425v4.884a4.44 4.44 0 0 1-4.435 4.435Z" fill="#4A56E2"/></g><mask id="b" style="mask-type:alpha" maskUnits="userSpaceOnUse" x="9" y="0" width="2" height="14"><path fill-rule="evenodd" clip-rule="evenodd" d="M9.5 0H11v13.54H9.5V0Z" fill="#fff"/></mask><g mask="url(#b)"><path fill-rule="evenodd" clip-rule="evenodd" d="M10.25 13.541a.75.75 0 0 1-.75-.75V.75a.75.75 0 0 1 1.5 0v12.041a.75.75 0 0 1-.75.75Z" fill="#4A56E2"/></g><path fill-rule="evenodd" clip-rule="evenodd" d="M7.335 4.429a.749.749 0 0 1-.531-1.279L9.719.222a.77.77 0 0 1 1.062 0l2.916 2.928a.75.75 0 0 1-1.062 1.058L10.25 1.814 7.866 4.208a.743.743 0 0 1-.531.22Z" fill="#4A56E2"/></svg>