<svg width="21" height="21" fill="none" xmlns="http://www.w3.org/2000/svg"><path fill-rule="evenodd" clip-rule="evenodd" d="M5.216 14.003a.75.75 0 0 1-.594-1.207l2.993-3.89a.75.75 0 0 1 1.058-.132l2.82 2.215 2.467-3.183a.75.75 0 1 1 1.186.918l-2.93 3.78a.746.746 0 0 1-.5.285.741.741 0 0 1-.556-.154L8.342 10.42l-2.53 3.289a.75.75 0 0 1-.596.293Z" fill="#4A56E2"/><mask id="a" style="mask-type:alpha" maskUnits="userSpaceOnUse" x="15" y="0" width="6" height="6"><path fill-rule="evenodd" clip-rule="evenodd" d="M15.295 0h5.344v5.345h-5.344V0Z" fill="#fff"/></mask><g mask="url(#a)"><path fill-rule="evenodd" clip-rule="evenodd" d="M17.967 1.5a1.173 1.173 0 0 0 0 2.345 1.173 1.173 0 0 0 0-2.345Zm0 3.845a2.676 2.676 0 0 1-2.672-2.673A2.675 2.675 0 0 1 17.967 0a2.674 2.674 0 0 1 2.672 2.672 2.675 2.675 0 0 1-2.672 2.673Z" fill="#4A56E2"/></g><mask id="b" style="mask-type:alpha" maskUnits="userSpaceOnUse" x="0" y="0" width="20" height="21"><path fill-rule="evenodd" clip-rule="evenodd" d="M0 .842h19.862v19.861H0V.843Z" fill="#fff"/></mask><g mask="url(#b)"><path fill-rule="evenodd" clip-rule="evenodd" d="M14.233 20.703H5.629C2.262 20.703 0 18.338 0 14.818V6.736C0 3.211 2.262.842 5.629.842h7.268a.75.75 0 0 1 0 1.5H5.629C3.121 2.342 1.5 4.066 1.5 6.736v8.082c0 2.705 1.582 4.385 4.129 4.385h8.604c2.508 0 4.129-1.72 4.129-4.385V7.78a.75.75 0 0 1 1.5 0v7.04c0 3.52-2.262 5.884-5.629 5.884Z" fill="#4A56E2"/></g></svg>