<svg width="22" height="20" fill="none" xmlns="http://www.w3.org/2000/svg"><path d="M20.639 12.395H16.59a2.693 2.693 0 0 1-2.693-2.691 2.693 2.693 0 0 1 2.693-2.691h4.048M17.049 9.643h-.312" stroke="#FEFEFE" stroke-width="1.333" stroke-linecap="round" stroke-linejoin="round"/><path clip-rule="evenodd" d="M6.748 1h8.643a5.248 5.248 0 0 1 5.248 5.248v7.177a5.248 5.248 0 0 1-5.248 5.247H6.748A5.248 5.248 0 0 1 1.5 13.425V6.248A5.248 5.248 0 0 1 6.748 1Z" stroke="#FEFEFE" stroke-width="1.333" stroke-linecap="round" stroke-linejoin="round"/><path d="M6.036 5.538h5.399" stroke="#FEFEFE" stroke-width="1.333" stroke-linecap="round" stroke-linejoin="round"/></svg>