<svg width="24" height="22" fill="none" xmlns="http://www.w3.org/2000/svg"><path d="M22.442 13.595h-4.385a2.918 2.918 0 0 1-2.917-2.915 2.917 2.917 0 0 1 2.917-2.916h4.385M18.553 10.613h-.338" stroke="#4A56E2" stroke-width="1.625" stroke-linecap="round" stroke-linejoin="round"/><path clip-rule="evenodd" d="M7.393 1.25h9.364a5.685 5.685 0 0 1 5.685 5.685v7.775a5.685 5.685 0 0 1-5.685 5.685H7.393A5.685 5.685 0 0 1 1.71 14.71V6.935A5.685 5.685 0 0 1 7.393 1.25Z" stroke="#4A56E2" stroke-width="1.625" stroke-linecap="round" stroke-linejoin="round"/><path d="M6.622 6.167h5.848" stroke="#4A56E2" stroke-width="1.625" stroke-linecap="round" stroke-linejoin="round"/></svg>