<svg width="22" height="21" fill="none" xmlns="http://www.w3.org/2000/svg"><path fill-rule="evenodd" clip-rule="evenodd" d="M10.62 16.334a.79.79 0 0 1-.79-.789v-2.669a.79.79 0 0 1 1.579 0v2.67a.79.79 0 0 1-.79.788Z" fill="#4A56E2"/><mask id="a" style="mask-type:alpha" maskUnits="userSpaceOnUse" x="0" y="2" width="22" height="12"><path fill-rule="evenodd" clip-rule="evenodd" d="M.104 2.819h21.031v10.848H.105V2.819Z" fill="#fff"/></mask><g mask="url(#a)"><path fill-rule="evenodd" clip-rule="evenodd" d="M1.683 9.987c2.5 1.358 5.651 2.102 8.932 2.102 3.287 0 6.442-.744 8.943-2.102V6.828a2.427 2.427 0 0 0-2.42-2.431H4.113a2.428 2.428 0 0 0-2.43 2.42v3.17Zm8.932 3.68c-3.73 0-7.325-.903-10.12-2.54a.786.786 0 0 1-.39-.68v-3.63A4.008 4.008 0 0 1 4.112 2.82h13.025a4.007 4.007 0 0 1 3.998 4.01v3.618c0 .28-.15.54-.39.68-2.796 1.637-6.394 2.54-10.131 2.54Z" fill="#4A56E2"/></g><mask id="b" style="mask-type:alpha" maskUnits="userSpaceOnUse" x="6" y="0" width="10" height="5"><path fill-rule="evenodd" clip-rule="evenodd" d="M6.149.104h8.942v4.289H6.15V.104Z" fill="#fff"/></mask><g mask="url(#b)"><path fill-rule="evenodd" clip-rule="evenodd" d="M14.302 4.393a.79.79 0 0 1-.789-.79V3.22c0-.847-.689-1.536-1.536-1.536H9.263c-.847 0-1.536.689-1.536 1.536v.385a.79.79 0 0 1-1.578 0v-.385A3.118 3.118 0 0 1 9.263.104h2.714a3.118 3.118 0 0 1 3.114 3.115v.385a.79.79 0 0 1-.789.789Z" fill="#4A56E2"/></g><path fill-rule="evenodd" clip-rule="evenodd" d="M16.722 20.873H4.518A4.217 4.217 0 0 1 .33 16.989l-.2-2.64a.79.79 0 0 1 .729-.846c.436-.016.813.292.846.728l.2 2.638a2.633 2.633 0 0 0 2.612 2.426h12.204a2.632 2.632 0 0 0 2.612-2.426l.2-2.638c.034-.436.42-.745.847-.728a.79.79 0 0 1 .727.847l-.2 2.64a4.217 4.217 0 0 1-4.186 3.883Z" fill="#4A56E2"/></svg>