<svg width="46" height="42" fill="none" xmlns="http://www.w3.org/2000/svg"><path fill-rule="evenodd" clip-rule="evenodd" d="M12.63 6.724c-5.17 0-5.17.354-5.17 4.684v.043c0 1.885 0 3.248.51 3.824.498.559 1.977.818 4.66.818s4.162-.261 4.66-.82c.51-.574.51-1.937.51-3.824 0-4.371 0-4.725-5.17-4.725Zm0 11.923c-3.17 0-5.548-.301-6.854-1.771C4.64 15.6 4.64 13.859 4.64 11.45l1.41-.042H4.64c0-4.89.34-7.24 7.99-7.24s7.99 2.35 7.99 7.24c0 2.45 0 4.192-1.135 5.468-1.307 1.47-3.685 1.771-6.855 1.771ZM33.31 6.724c-5.17 0-5.17.354-5.17 4.684v.043c0 1.885 0 3.248.51 3.824.498.559 1.977.818 4.66.818s4.162-.261 4.66-.82c.51-.574.51-1.937.51-3.824 0-4.371 0-4.725-5.17-4.725Zm0 11.923c-3.17 0-5.548-.301-6.855-1.771-1.135-1.276-1.135-3.017-1.135-5.426l1.41-.042h-1.41c0-4.89.34-7.24 7.99-7.24s7.99 2.35 7.99 7.24c0 2.45 0 4.192-1.136 5.468-1.306 1.47-3.684 1.771-6.854 1.771ZM12.63 25.46c-5.17 0-5.17.355-5.17 4.685v.043c0 1.886 0 3.248.51 3.824.498.559 1.977.818 4.66.818s4.162-.26 4.66-.82c.51-.574.51-1.936.51-3.824 0-4.37 0-4.725-5.17-4.725Zm0 11.925c-3.17 0-5.548-.302-6.854-1.772-1.136-1.276-1.136-3.017-1.136-5.425l1.41-.043H4.64c0-4.889.34-7.24 7.99-7.24s7.99 2.351 7.99 7.24c0 2.45 0 4.192-1.135 5.468-1.307 1.47-3.685 1.772-6.855 1.772ZM33.31 25.46c-5.17 0-5.17.355-5.17 4.685v.043c0 1.886 0 3.248.51 3.824.498.559 1.977.818 4.66.818s4.162-.26 4.66-.82c.51-.574.51-1.936.51-3.824 0-4.37 0-4.725-5.17-4.725Zm0 11.925c-3.17 0-5.548-.302-6.855-1.772-1.135-1.276-1.135-3.017-1.135-5.425l1.41-.043h-1.41c0-4.889.34-7.24 7.99-7.24s7.99 2.351 7.99 7.24c0 2.45 0 4.192-1.136 5.468-1.306 1.47-3.684 1.772-6.854 1.772Z" fill="#24CCA7"/></svg>