<svg width="24" height="24" fill="none" xmlns="http://www.w3.org/2000/svg"><path fill-rule="evenodd" clip-rule="evenodd" d="m6.328 8.347.603 7.173c.044.552.495.965 1.046.965h10.917c.52 0 .966-.387 1.04-.902l.95-6.56a.587.587 0 0 0-.112-.438.58.58 0 0 0-.388-.23c-.21.007-8.882-.005-14.056-.008Zm1.647 9.638a2.562 2.562 0 0 1-2.54-2.342L4.52 4.748l-1.507-.26A.752.752 0 0 1 2.4 3.62a.76.76 0 0 1 .867-.61l2.08.36c.335.058.59.336.619.676l.235 2.801c14.276.006 14.322.013 14.39.021a2.083 2.083 0 0 1 1.382.82c.334.447.474.998.394 1.55l-.95 6.559a2.562 2.562 0 0 1-2.522 2.188H7.975Z" fill="#24CCA7"/><path fill-rule="evenodd" clip-rule="evenodd" d="M17.287 12.044h-2.772a.75.75 0 1 1 0-1.5h2.772a.75.75 0 0 1 0 1.5ZM7.545 20.702a.543.543 0 1 1 0 1.09.544.544 0 1 1 0-1.09Z" fill="#24CCA7"/><mask id="a" style="mask-type:alpha" maskUnits="userSpaceOnUse" x="6" y="20" width="3" height="2"><path fill-rule="evenodd" clip-rule="evenodd" d="M6.999 21.246a.545.545 0 1 0 1.09.002.545.545 0 0 0-1.09-.002Z" fill="#fff"/></mask><g mask="url(#a)"><path fill-rule="evenodd" clip-rule="evenodd" d="M2 26.79h11.089V15.703H1.999V26.79Z" fill="#24CCA7"/></g><path fill-rule="evenodd" clip-rule="evenodd" d="M7.544 21.04a.205.205 0 0 0-.205.206c0 .227.41.227.41 0a.206.206 0 0 0-.205-.205Zm0 1.5a1.296 1.296 0 0 1 0-2.588 1.296 1.296 0 0 1 0 2.589ZM18.825 20.702a.544.544 0 1 1 .002 1.088.544.544 0 0 1-.002-1.088Z" fill="#24CCA7"/><mask id="b" style="mask-type:alpha" maskUnits="userSpaceOnUse" x="18" y="20" width="2" height="2"><path fill-rule="evenodd" clip-rule="evenodd" d="M18.28 21.246a.545.545 0 1 0 1.089.003.545.545 0 0 0-1.09-.003Z" fill="#fff"/></mask><g mask="url(#b)"><path fill-rule="evenodd" clip-rule="evenodd" d="M13.28 26.79h11.09V15.703H13.28V26.79Z" fill="#24CCA7"/></g><path fill-rule="evenodd" clip-rule="evenodd" d="M18.824 21.04a.205.205 0 0 0-.204.206c0 .229.41.227.41 0a.206.206 0 0 0-.206-.205Zm0 1.5a1.296 1.296 0 0 1 0-2.588c.715 0 1.296.58 1.296 1.294 0 .714-.581 1.295-1.296 1.295Z" fill="#24CCA7"/></svg>